G75*
%MOIN*%
%OFA0B0*%
%FSLAX24Y24*%
%IPPOS*%
%LPD*%
%AMOC8*
5,1,8,0,0,1.08239X$1,22.5*
%
%ADD10C,0.2080*%
%ADD11C,0.0060*%
D10*
X009800Y013925D03*
D11*
X004179Y003467D02*
X015421Y003467D01*
X015373Y003409D02*
X004227Y003409D01*
X004257Y003372D02*
X004747Y002882D01*
X005280Y002440D01*
X005852Y002048D01*
X006457Y001711D01*
X007091Y001431D01*
X007748Y001211D01*
X008422Y001053D01*
X009108Y000957D01*
X009800Y000925D01*
X010492Y000957D01*
X011178Y001053D01*
X011852Y001211D01*
X012509Y001431D01*
X013143Y001711D01*
X013748Y002048D01*
X014320Y002440D01*
X014853Y002882D01*
X015343Y003372D01*
X015785Y003905D01*
X016177Y004477D01*
X016514Y005082D01*
X016794Y005716D01*
X017014Y006373D01*
X017172Y007047D01*
X017268Y007733D01*
X017300Y008425D01*
X017268Y009117D01*
X017172Y009803D01*
X017014Y010477D01*
X016794Y011134D01*
X016514Y011768D01*
X016177Y012373D01*
X015785Y012945D01*
X015343Y013478D01*
X014853Y013968D01*
X014320Y014410D01*
X013748Y014802D01*
X013143Y015139D01*
X012509Y015419D01*
X011852Y015639D01*
X011178Y015797D01*
X010492Y015893D01*
X009800Y015925D01*
X009108Y015893D01*
X008422Y015797D01*
X007748Y015639D01*
X007091Y015419D01*
X006457Y015139D01*
X005852Y014802D01*
X005280Y014410D01*
X004747Y013968D01*
X004257Y013478D01*
X003815Y012945D01*
X003423Y012373D01*
X003086Y011768D01*
X002806Y011134D01*
X002586Y010477D01*
X002428Y009803D01*
X002332Y009117D01*
X002300Y008425D01*
X002332Y007733D01*
X002428Y007047D01*
X002586Y006373D01*
X002806Y005716D01*
X003086Y005082D01*
X003423Y004477D01*
X003815Y003905D01*
X004257Y003372D01*
X004280Y003350D02*
X015320Y003350D01*
X015262Y003292D02*
X004338Y003292D01*
X004397Y003233D02*
X015203Y003233D01*
X015145Y003175D02*
X004455Y003175D01*
X004514Y003116D02*
X015086Y003116D01*
X015028Y003058D02*
X004572Y003058D01*
X004631Y002999D02*
X014969Y002999D01*
X014911Y002941D02*
X004689Y002941D01*
X004748Y002882D02*
X014852Y002882D01*
X014782Y002824D02*
X004818Y002824D01*
X004889Y002765D02*
X014711Y002765D01*
X014641Y002707D02*
X004959Y002707D01*
X005030Y002648D02*
X014570Y002648D01*
X014500Y002590D02*
X005100Y002590D01*
X005170Y002531D02*
X014430Y002531D01*
X014359Y002473D02*
X005241Y002473D01*
X005318Y002414D02*
X014282Y002414D01*
X014197Y002356D02*
X005403Y002356D01*
X005489Y002297D02*
X014111Y002297D01*
X014026Y002239D02*
X005574Y002239D01*
X005660Y002180D02*
X013940Y002180D01*
X013855Y002122D02*
X005745Y002122D01*
X005830Y002063D02*
X013770Y002063D01*
X013669Y002005D02*
X005931Y002005D01*
X006036Y001946D02*
X013564Y001946D01*
X013459Y001888D02*
X006141Y001888D01*
X006246Y001829D02*
X013354Y001829D01*
X013249Y001771D02*
X006351Y001771D01*
X006456Y001712D02*
X013144Y001712D01*
X013012Y001654D02*
X006588Y001654D01*
X006720Y001595D02*
X012880Y001595D01*
X012747Y001537D02*
X006853Y001537D01*
X006985Y001478D02*
X012615Y001478D01*
X012474Y001420D02*
X007126Y001420D01*
X007301Y001361D02*
X012299Y001361D01*
X012125Y001303D02*
X007475Y001303D01*
X007650Y001244D02*
X011950Y001244D01*
X011743Y001186D02*
X007857Y001186D01*
X008106Y001127D02*
X011494Y001127D01*
X011245Y001069D02*
X008355Y001069D01*
X008728Y001010D02*
X010872Y001010D01*
X010373Y000952D02*
X009227Y000952D01*
X004130Y003526D02*
X015470Y003526D01*
X015518Y003584D02*
X004082Y003584D01*
X004033Y003643D02*
X015567Y003643D01*
X015616Y003701D02*
X003984Y003701D01*
X003936Y003760D02*
X015664Y003760D01*
X015713Y003818D02*
X003887Y003818D01*
X003839Y003877D02*
X015761Y003877D01*
X015806Y003935D02*
X003794Y003935D01*
X003754Y003994D02*
X015846Y003994D01*
X015886Y004052D02*
X003714Y004052D01*
X003674Y004111D02*
X015926Y004111D01*
X015966Y004169D02*
X003634Y004169D01*
X003594Y004228D02*
X016006Y004228D01*
X016046Y004286D02*
X003554Y004286D01*
X003514Y004345D02*
X016086Y004345D01*
X016126Y004403D02*
X003474Y004403D01*
X003434Y004462D02*
X016166Y004462D01*
X016201Y004520D02*
X003399Y004520D01*
X003367Y004579D02*
X016233Y004579D01*
X016266Y004637D02*
X003334Y004637D01*
X003302Y004696D02*
X016298Y004696D01*
X016331Y004754D02*
X003269Y004754D01*
X003236Y004813D02*
X016364Y004813D01*
X016396Y004871D02*
X003204Y004871D01*
X003171Y004930D02*
X016429Y004930D01*
X016461Y004988D02*
X003139Y004988D01*
X003106Y005047D02*
X016494Y005047D01*
X016524Y005105D02*
X003076Y005105D01*
X003050Y005164D02*
X016550Y005164D01*
X016576Y005222D02*
X003024Y005222D01*
X002999Y005281D02*
X016601Y005281D01*
X016627Y005339D02*
X002973Y005339D01*
X002947Y005398D02*
X016653Y005398D01*
X016679Y005456D02*
X002921Y005456D01*
X002895Y005515D02*
X016705Y005515D01*
X016731Y005573D02*
X002869Y005573D01*
X002844Y005632D02*
X016756Y005632D01*
X016782Y005690D02*
X002818Y005690D01*
X002795Y005749D02*
X016805Y005749D01*
X016824Y005807D02*
X002776Y005807D01*
X002756Y005866D02*
X016844Y005866D01*
X016863Y005924D02*
X002737Y005924D01*
X002717Y005983D02*
X016883Y005983D01*
X016903Y006041D02*
X002697Y006041D01*
X002678Y006100D02*
X016922Y006100D01*
X016942Y006158D02*
X002658Y006158D01*
X002639Y006217D02*
X016961Y006217D01*
X016981Y006275D02*
X002619Y006275D01*
X002599Y006334D02*
X017001Y006334D01*
X017018Y006392D02*
X002582Y006392D01*
X002568Y006451D02*
X017032Y006451D01*
X017046Y006509D02*
X002554Y006509D01*
X002540Y006568D02*
X017060Y006568D01*
X017073Y006626D02*
X002527Y006626D01*
X002513Y006685D02*
X017087Y006685D01*
X017101Y006743D02*
X002499Y006743D01*
X002485Y006802D02*
X017115Y006802D01*
X017128Y006860D02*
X002472Y006860D01*
X002458Y006919D02*
X017142Y006919D01*
X017156Y006977D02*
X002444Y006977D01*
X002430Y007036D02*
X017170Y007036D01*
X017179Y007094D02*
X002421Y007094D01*
X002413Y007153D02*
X017187Y007153D01*
X017195Y007211D02*
X002405Y007211D01*
X002397Y007270D02*
X017203Y007270D01*
X017212Y007328D02*
X002388Y007328D01*
X002380Y007387D02*
X017220Y007387D01*
X017228Y007445D02*
X002372Y007445D01*
X002364Y007504D02*
X017236Y007504D01*
X017244Y007562D02*
X002356Y007562D01*
X002348Y007621D02*
X017252Y007621D01*
X017260Y007679D02*
X002340Y007679D01*
X002332Y007738D02*
X017268Y007738D01*
X017271Y007796D02*
X002329Y007796D01*
X002326Y007855D02*
X017274Y007855D01*
X017276Y007913D02*
X002324Y007913D01*
X002321Y007972D02*
X017279Y007972D01*
X017282Y008030D02*
X002318Y008030D01*
X002316Y008089D02*
X017284Y008089D01*
X017287Y008147D02*
X002313Y008147D01*
X002310Y008206D02*
X017290Y008206D01*
X017293Y008264D02*
X002307Y008264D01*
X002305Y008323D02*
X017295Y008323D01*
X017298Y008381D02*
X002302Y008381D01*
X002301Y008440D02*
X017299Y008440D01*
X017297Y008498D02*
X002303Y008498D01*
X002306Y008557D02*
X017294Y008557D01*
X017291Y008615D02*
X002309Y008615D01*
X002311Y008674D02*
X017289Y008674D01*
X017286Y008732D02*
X002314Y008732D01*
X002317Y008791D02*
X017283Y008791D01*
X017280Y008849D02*
X002320Y008849D01*
X002322Y008908D02*
X017278Y008908D01*
X017275Y008966D02*
X002325Y008966D01*
X002328Y009025D02*
X017272Y009025D01*
X017270Y009083D02*
X002330Y009083D01*
X002335Y009142D02*
X017265Y009142D01*
X017256Y009200D02*
X002344Y009200D01*
X002352Y009259D02*
X017248Y009259D01*
X017240Y009317D02*
X002360Y009317D01*
X002368Y009376D02*
X017232Y009376D01*
X017224Y009434D02*
X002376Y009434D01*
X002384Y009493D02*
X017216Y009493D01*
X017207Y009551D02*
X002393Y009551D01*
X002401Y009610D02*
X017199Y009610D01*
X017191Y009668D02*
X002409Y009668D01*
X002417Y009727D02*
X017183Y009727D01*
X017175Y009785D02*
X002425Y009785D01*
X002437Y009844D02*
X017163Y009844D01*
X017149Y009902D02*
X002451Y009902D01*
X002465Y009961D02*
X017135Y009961D01*
X017122Y010019D02*
X002478Y010019D01*
X002492Y010078D02*
X017108Y010078D01*
X017094Y010136D02*
X002506Y010136D01*
X002520Y010195D02*
X017080Y010195D01*
X017066Y010253D02*
X002534Y010253D01*
X002547Y010312D02*
X017053Y010312D01*
X017039Y010370D02*
X002561Y010370D01*
X002575Y010429D02*
X017025Y010429D01*
X017010Y010487D02*
X002590Y010487D01*
X002609Y010546D02*
X016991Y010546D01*
X016971Y010604D02*
X002629Y010604D01*
X002648Y010663D02*
X016952Y010663D01*
X016932Y010721D02*
X002668Y010721D01*
X002688Y010780D02*
X016912Y010780D01*
X016893Y010838D02*
X002707Y010838D01*
X002727Y010897D02*
X016873Y010897D01*
X016854Y010955D02*
X002746Y010955D01*
X002766Y011014D02*
X016834Y011014D01*
X016814Y011072D02*
X002786Y011072D01*
X002805Y011131D02*
X016795Y011131D01*
X016769Y011189D02*
X002831Y011189D01*
X002856Y011248D02*
X016744Y011248D01*
X016718Y011306D02*
X002882Y011306D01*
X002908Y011365D02*
X016692Y011365D01*
X016666Y011423D02*
X002934Y011423D01*
X002960Y011482D02*
X016640Y011482D01*
X016614Y011540D02*
X002986Y011540D01*
X003011Y011599D02*
X016589Y011599D01*
X016563Y011657D02*
X003037Y011657D01*
X003063Y011716D02*
X016537Y011716D01*
X016510Y011774D02*
X003090Y011774D01*
X003122Y011833D02*
X016478Y011833D01*
X016445Y011891D02*
X003155Y011891D01*
X003187Y011950D02*
X016413Y011950D01*
X016380Y012008D02*
X003220Y012008D01*
X003253Y012067D02*
X016347Y012067D01*
X016315Y012125D02*
X003285Y012125D01*
X003318Y012184D02*
X016282Y012184D01*
X016250Y012242D02*
X003350Y012242D01*
X003383Y012301D02*
X016217Y012301D01*
X016185Y012359D02*
X003415Y012359D01*
X003454Y012418D02*
X016146Y012418D01*
X016106Y012476D02*
X003494Y012476D01*
X003534Y012535D02*
X016066Y012535D01*
X016026Y012593D02*
X003574Y012593D01*
X003614Y012652D02*
X015986Y012652D01*
X015946Y012710D02*
X003654Y012710D01*
X003694Y012769D02*
X015906Y012769D01*
X015866Y012827D02*
X003734Y012827D01*
X003774Y012886D02*
X015826Y012886D01*
X015786Y012944D02*
X003814Y012944D01*
X003863Y013003D02*
X015737Y013003D01*
X015689Y013061D02*
X003911Y013061D01*
X003960Y013120D02*
X015640Y013120D01*
X015591Y013178D02*
X004009Y013178D01*
X004057Y013237D02*
X015543Y013237D01*
X015494Y013295D02*
X004106Y013295D01*
X004154Y013354D02*
X015446Y013354D01*
X015397Y013412D02*
X004203Y013412D01*
X004251Y013471D02*
X015349Y013471D01*
X015291Y013529D02*
X004309Y013529D01*
X004367Y013588D02*
X015233Y013588D01*
X015174Y013646D02*
X004426Y013646D01*
X004484Y013705D02*
X015116Y013705D01*
X015057Y013763D02*
X004543Y013763D01*
X004601Y013822D02*
X014999Y013822D01*
X014940Y013880D02*
X004660Y013880D01*
X004718Y013939D02*
X014882Y013939D01*
X014817Y013997D02*
X004783Y013997D01*
X004853Y014056D02*
X014747Y014056D01*
X014676Y014114D02*
X004924Y014114D01*
X004994Y014173D02*
X014606Y014173D01*
X014535Y014231D02*
X005065Y014231D01*
X005135Y014290D02*
X014465Y014290D01*
X014395Y014348D02*
X005205Y014348D01*
X005276Y014407D02*
X014324Y014407D01*
X014240Y014465D02*
X005360Y014465D01*
X005446Y014524D02*
X014154Y014524D01*
X014069Y014582D02*
X005531Y014582D01*
X005617Y014641D02*
X013983Y014641D01*
X013898Y014699D02*
X005702Y014699D01*
X005787Y014758D02*
X013813Y014758D01*
X013722Y014816D02*
X005878Y014816D01*
X005983Y014875D02*
X013617Y014875D01*
X013512Y014933D02*
X006088Y014933D01*
X006193Y014992D02*
X013407Y014992D01*
X013302Y015050D02*
X006298Y015050D01*
X006403Y015109D02*
X013197Y015109D01*
X013079Y015167D02*
X006521Y015167D01*
X006654Y015226D02*
X012946Y015226D01*
X012814Y015284D02*
X006786Y015284D01*
X006919Y015343D02*
X012681Y015343D01*
X012549Y015401D02*
X007051Y015401D01*
X007213Y015460D02*
X012387Y015460D01*
X012212Y015518D02*
X007388Y015518D01*
X007562Y015577D02*
X012038Y015577D01*
X011863Y015635D02*
X007737Y015635D01*
X007981Y015694D02*
X011619Y015694D01*
X011370Y015752D02*
X008230Y015752D01*
X008517Y015811D02*
X011083Y015811D01*
X010664Y015869D02*
X008936Y015869D01*
M02*
