G75*
%MOIN*%
%OFA0B0*%
%FSLAX24Y24*%
%IPPOS*%
%LPD*%
%AMOC8*
5,1,8,0,0,1.08239X$1,22.5*
%
%ADD10C,0.0740*%
%ADD11C,0.0400*%
%ADD12C,0.0340*%
%ADD13C,0.0200*%
D10*
X010430Y002030D03*
X014430Y002030D03*
X008305Y013255D03*
X009305Y013755D03*
D11*
X015780Y006330D02*
X015955Y006330D01*
X015780Y006330D02*
X014780Y005380D01*
X014780Y002480D01*
X014430Y002130D01*
X014430Y002030D01*
X014430Y006405D02*
X014433Y006553D01*
X014441Y006702D01*
X014453Y006850D01*
X014469Y006997D01*
X014489Y007144D01*
X014512Y007291D01*
X014540Y007437D01*
X014571Y007582D01*
X014607Y007726D01*
X014646Y007869D01*
X014689Y008011D01*
X014735Y008152D01*
X014786Y008292D01*
X014840Y008430D01*
X014897Y008567D01*
X014959Y008702D01*
X015024Y008836D01*
X015092Y008967D01*
X015164Y009097D01*
X015239Y009225D01*
X015318Y009351D01*
X015400Y009475D01*
X015486Y009596D01*
X015574Y009715D01*
X015666Y009832D01*
X015761Y009946D01*
X015858Y010058D01*
X015959Y010167D01*
X016063Y010273D01*
X016169Y010377D01*
X016278Y010478D01*
X016390Y010575D01*
X016504Y010670D01*
X016621Y010762D01*
X016740Y010850D01*
X016862Y010936D01*
X016985Y011018D01*
X017111Y011096D01*
X017239Y011172D01*
X017369Y011244D01*
X017501Y011312D01*
X017634Y011377D01*
X017769Y011438D01*
X017906Y011496D01*
X018044Y011550D01*
X018184Y011600D01*
X018325Y011647D01*
X018467Y011690D01*
X018610Y011729D01*
X018755Y011764D01*
X018900Y011795D01*
X019046Y011823D01*
X019192Y011846D01*
X019339Y011866D01*
X019487Y011882D01*
X019635Y011894D01*
X019783Y011902D01*
X019932Y011906D01*
X020080Y011905D01*
X020228Y011902D01*
X020377Y011894D01*
X020525Y011882D01*
X020672Y011866D01*
X020819Y011846D01*
X020966Y011823D01*
X021112Y011795D01*
X021257Y011764D01*
X021401Y011728D01*
X021544Y011689D01*
X021686Y011646D01*
X021827Y011600D01*
X021967Y011549D01*
X022105Y011495D01*
X022242Y011438D01*
X022377Y011376D01*
X022511Y011311D01*
X022642Y011243D01*
X022772Y011171D01*
X022900Y011096D01*
X023026Y011017D01*
X023150Y010935D01*
X023271Y010849D01*
X023390Y010761D01*
X023507Y010669D01*
X023621Y010574D01*
X023733Y010477D01*
X023842Y010376D01*
X023948Y010272D01*
X024052Y010166D01*
X024153Y010057D01*
X024250Y009945D01*
X024345Y009831D01*
X024437Y009714D01*
X024525Y009595D01*
X024611Y009473D01*
X024693Y009350D01*
X024771Y009224D01*
X024847Y009096D01*
X024919Y008966D01*
X024987Y008834D01*
X025052Y008701D01*
X025113Y008566D01*
X025171Y008429D01*
X025225Y008291D01*
X025275Y008151D01*
X025322Y008010D01*
X025365Y007868D01*
X025404Y007725D01*
X025439Y007580D01*
X025470Y007435D01*
X025498Y007289D01*
X025521Y007143D01*
X025541Y006996D01*
X025557Y006848D01*
X025569Y006700D01*
X025577Y006552D01*
X025581Y006403D01*
X025580Y006255D01*
D12*
X003230Y002255D03*
X001680Y002905D03*
X001180Y003555D03*
X007030Y001255D03*
X009405Y001455D03*
X015955Y006330D03*
X014430Y006405D03*
X018230Y000830D03*
X025580Y006255D03*
D13*
X022680Y006080D02*
X022755Y004405D01*
X022721Y004219D01*
X022664Y004039D01*
X022583Y003867D01*
X022481Y003708D01*
X022359Y003564D01*
X022219Y003436D01*
X022064Y003328D01*
X021896Y003242D01*
X021717Y003177D01*
X021533Y003137D01*
X021344Y003121D01*
X021155Y003130D01*
X018755Y003080D01*
X018562Y003104D01*
X018373Y003154D01*
X018192Y003227D01*
X018023Y003323D01*
X017868Y003441D01*
X017729Y003578D01*
X017609Y003732D01*
X017511Y003900D01*
X017435Y004079D01*
X017383Y004267D01*
X017356Y004460D01*
X017355Y004655D01*
X017355Y005330D01*
X017329Y005578D01*
X017335Y005827D01*
X017373Y006072D01*
X017444Y006311D01*
X017545Y006539D01*
X017674Y006751D01*
X017831Y006945D01*
X018011Y007116D01*
X018212Y007263D01*
X018431Y007382D01*
X018663Y007472D01*
X018905Y007530D01*
X020730Y007530D01*
X020954Y007548D01*
X021179Y007537D01*
X021400Y007496D01*
X021613Y007427D01*
X021817Y007331D01*
X022005Y007209D01*
X022177Y007063D01*
X022327Y006897D01*
X022455Y006712D01*
X022557Y006512D01*
X022633Y006300D01*
X022680Y006080D01*
X022669Y006134D02*
X017391Y006134D01*
X017352Y005935D02*
X022686Y005935D01*
X022695Y005737D02*
X017333Y005737D01*
X017333Y005538D02*
X022704Y005538D01*
X022713Y005340D02*
X017354Y005340D01*
X017355Y005141D02*
X022722Y005141D01*
X022731Y004943D02*
X017355Y004943D01*
X017355Y004744D02*
X022740Y004744D01*
X022749Y004546D02*
X017356Y004546D01*
X017372Y004347D02*
X022745Y004347D01*
X022699Y004149D02*
X017416Y004149D01*
X017489Y003950D02*
X022622Y003950D01*
X022509Y003752D02*
X017597Y003752D01*
X017754Y003553D02*
X022348Y003553D01*
X022102Y003355D02*
X017981Y003355D01*
X018366Y003156D02*
X021620Y003156D01*
X018130Y000805D02*
X009230Y000805D01*
X007730Y002305D01*
X004005Y002305D01*
X003405Y002905D01*
X001680Y002905D01*
X001605Y002905D01*
X001280Y003505D02*
X003680Y003505D01*
X004080Y003105D01*
X007705Y003105D01*
X009380Y001430D01*
X008305Y000780D02*
X004705Y000780D01*
X004280Y001205D01*
X007030Y001205D01*
X007055Y001180D01*
X007355Y001730D02*
X008305Y000780D01*
X007355Y001730D02*
X003780Y001730D01*
X003255Y002255D01*
X003230Y002255D01*
X017453Y006332D02*
X022621Y006332D01*
X022548Y006531D02*
X017541Y006531D01*
X017661Y006729D02*
X022443Y006729D01*
X022299Y006928D02*
X017817Y006928D01*
X018024Y007126D02*
X022103Y007126D01*
X021826Y007325D02*
X018325Y007325D01*
X018876Y007523D02*
X021254Y007523D01*
M02*
