G75*
%MOIN*%
%OFA0B0*%
%FSLAX24Y24*%
%IPPOS*%
%LPD*%
%AMOC8*
5,1,8,0,0,1.08239X$1,22.5*
%
%ADD10C,0.0740*%
%ADD11R,0.4000X0.2200*%
%ADD12R,0.1000X0.2200*%
%ADD13C,0.0400*%
%ADD14C,0.0340*%
%ADD15C,0.0200*%
D10*
X010430Y002030D03*
X014430Y002030D03*
X008305Y013255D03*
X009305Y013755D03*
D11*
X019955Y006330D03*
D12*
X014955Y006330D03*
X024955Y006330D03*
D13*
X025505Y006330D01*
X025580Y006255D01*
X025581Y006403D01*
X025577Y006552D01*
X025569Y006700D01*
X025557Y006848D01*
X025541Y006996D01*
X025521Y007143D01*
X025498Y007289D01*
X025470Y007435D01*
X025439Y007580D01*
X025404Y007725D01*
X025365Y007868D01*
X025322Y008010D01*
X025275Y008151D01*
X025225Y008291D01*
X025171Y008429D01*
X025113Y008566D01*
X025052Y008701D01*
X024987Y008834D01*
X024919Y008966D01*
X024847Y009096D01*
X024771Y009224D01*
X024693Y009350D01*
X024611Y009473D01*
X024525Y009595D01*
X024437Y009714D01*
X024345Y009831D01*
X024250Y009945D01*
X024153Y010057D01*
X024052Y010166D01*
X023948Y010272D01*
X023842Y010376D01*
X023733Y010477D01*
X023621Y010574D01*
X023507Y010669D01*
X023390Y010761D01*
X023271Y010849D01*
X023150Y010935D01*
X023026Y011017D01*
X022900Y011096D01*
X022772Y011171D01*
X022642Y011243D01*
X022511Y011311D01*
X022377Y011376D01*
X022242Y011438D01*
X022105Y011495D01*
X021967Y011549D01*
X021827Y011600D01*
X021686Y011646D01*
X021544Y011689D01*
X021401Y011728D01*
X021257Y011764D01*
X021112Y011795D01*
X020966Y011823D01*
X020819Y011846D01*
X020672Y011866D01*
X020525Y011882D01*
X020377Y011894D01*
X020228Y011902D01*
X020080Y011905D01*
X019932Y011906D01*
X019783Y011902D01*
X019635Y011894D01*
X019487Y011882D01*
X019339Y011866D01*
X019192Y011846D01*
X019046Y011823D01*
X018900Y011795D01*
X018755Y011764D01*
X018610Y011729D01*
X018467Y011690D01*
X018325Y011647D01*
X018184Y011600D01*
X018044Y011550D01*
X017906Y011496D01*
X017769Y011438D01*
X017634Y011377D01*
X017501Y011312D01*
X017369Y011244D01*
X017239Y011172D01*
X017111Y011096D01*
X016985Y011018D01*
X016862Y010936D01*
X016740Y010850D01*
X016621Y010762D01*
X016504Y010670D01*
X016390Y010575D01*
X016278Y010478D01*
X016169Y010377D01*
X016063Y010273D01*
X015959Y010167D01*
X015858Y010058D01*
X015761Y009946D01*
X015666Y009832D01*
X015574Y009715D01*
X015486Y009596D01*
X015400Y009475D01*
X015318Y009351D01*
X015239Y009225D01*
X015164Y009097D01*
X015092Y008967D01*
X015024Y008836D01*
X014959Y008702D01*
X014897Y008567D01*
X014840Y008430D01*
X014786Y008292D01*
X014735Y008152D01*
X014689Y008011D01*
X014646Y007869D01*
X014607Y007726D01*
X014571Y007582D01*
X014540Y007437D01*
X014512Y007291D01*
X014489Y007144D01*
X014469Y006997D01*
X014453Y006850D01*
X014441Y006702D01*
X014433Y006553D01*
X014430Y006405D01*
X014880Y006405D01*
X014955Y006330D01*
X014780Y006155D01*
X014780Y003480D01*
X014505Y003205D01*
X010230Y003205D01*
X009455Y004130D01*
X009305Y013755D01*
X008305Y013255D02*
X008480Y003580D01*
X009805Y002030D01*
X010430Y002030D01*
X015955Y006330D02*
X019955Y006330D01*
D14*
X015955Y006330D03*
X014430Y006405D03*
X009405Y001455D03*
X007030Y001255D03*
X003230Y002255D03*
X001680Y002905D03*
X001180Y003555D03*
X018230Y000830D03*
X025580Y006255D03*
D15*
X003205Y002205D02*
X003180Y002205D01*
X003205Y002205D02*
X004655Y000755D01*
X006580Y000755D01*
X007030Y001205D01*
X007230Y001830D02*
X004480Y001830D01*
X003380Y002930D01*
X001580Y002930D01*
X001180Y003505D02*
X003705Y003505D01*
X004155Y003080D01*
X007805Y003080D01*
X008430Y002430D01*
X009405Y001455D01*
X008230Y000830D02*
X007230Y001830D01*
X008230Y000830D02*
X018280Y000830D01*
M02*
