G75*
%MOIN*%
%OFA0B0*%
%FSLAX24Y24*%
%IPPOS*%
%LPD*%
%AMOC8*
5,1,8,0,0,1.08239X$1,22.5*
%
%ADD10C,0.0200*%
%ADD11C,0.0040*%
%ADD12C,0.0060*%
%ADD13R,0.4080X0.2280*%
%ADD14R,0.1080X0.2280*%
%ADD15C,0.0050*%
%ADD16C,0.0820*%
%ADD17C,0.0420*%
D10*
X003255Y002180D02*
X003280Y002180D01*
X004680Y000780D01*
X006655Y000780D01*
X007030Y001155D01*
X007230Y001830D02*
X008255Y000805D01*
X018255Y000805D01*
X018330Y000880D01*
X009430Y001455D02*
X007805Y003080D01*
X004130Y003080D01*
X003705Y003505D01*
X001305Y003505D01*
X001830Y002930D02*
X003405Y002930D01*
X004505Y001830D01*
X007230Y001830D01*
D11*
X016725Y006527D02*
X016802Y006604D01*
X016955Y006604D01*
X017032Y006680D01*
X016955Y006757D01*
X016725Y006757D01*
X016752Y006754D02*
X016905Y006754D01*
X016982Y006830D01*
X016905Y006907D01*
X016675Y006907D01*
X016752Y006754D02*
X016675Y006677D01*
X016752Y006600D01*
X016982Y006600D01*
X017135Y006600D02*
X017365Y006600D01*
X017442Y006677D01*
X017442Y006907D01*
X017492Y006757D02*
X017492Y006527D01*
X017415Y006450D01*
X017185Y006450D01*
X017212Y006447D02*
X017289Y006447D01*
X017212Y006447D02*
X017135Y006523D01*
X017135Y006907D01*
X017185Y006757D02*
X017185Y006373D01*
X017262Y006297D01*
X017339Y006297D01*
X017442Y006311D02*
X017442Y005850D01*
X017492Y005854D02*
X017262Y006007D01*
X017212Y006157D02*
X017442Y006004D01*
X017212Y005850D01*
X017109Y005777D02*
X017109Y005700D01*
X017262Y005700D02*
X017492Y005854D01*
X017492Y005700D02*
X017492Y006161D01*
X017596Y006157D02*
X017672Y006157D01*
X017826Y006004D01*
X017876Y006007D02*
X017876Y005700D01*
X018029Y005700D02*
X018260Y005700D01*
X018336Y005777D01*
X018260Y005854D01*
X018029Y005854D01*
X017979Y005850D02*
X018210Y005850D01*
X018286Y005927D01*
X018210Y006004D01*
X017979Y006004D01*
X017979Y006080D02*
X017979Y005850D01*
X018029Y005930D02*
X018029Y005700D01*
X017876Y005854D02*
X017722Y006007D01*
X017646Y006007D01*
X017826Y006157D02*
X017826Y005850D01*
X018029Y005930D02*
X018106Y006007D01*
X018260Y006007D01*
X018210Y006157D02*
X018056Y006157D01*
X017979Y006080D01*
X017876Y006450D02*
X017646Y006450D01*
X017646Y006680D01*
X017722Y006757D01*
X017876Y006757D01*
X017826Y006754D02*
X017903Y006677D01*
X017826Y006600D01*
X017596Y006600D01*
X017596Y006830D01*
X017672Y006907D01*
X017826Y006907D01*
X017826Y006754D02*
X017596Y006754D01*
X017646Y006604D02*
X017876Y006604D01*
X017953Y006527D01*
X017876Y006450D01*
X018106Y006450D02*
X018336Y006450D01*
X018413Y006527D01*
X018413Y006680D01*
X018336Y006757D01*
X018106Y006757D01*
X018106Y006911D02*
X018106Y006450D01*
X018056Y006600D02*
X018286Y006600D01*
X018363Y006677D01*
X018363Y006830D01*
X018286Y006907D01*
X018056Y006907D01*
X018056Y007061D02*
X018056Y006600D01*
X018516Y006600D02*
X018670Y006600D01*
X018593Y006600D02*
X018593Y006907D01*
X018670Y006907D01*
X018643Y006911D02*
X018643Y006987D01*
X018593Y007061D02*
X018593Y007137D01*
X018900Y007061D02*
X018900Y006600D01*
X018977Y006600D02*
X018823Y006600D01*
X018873Y006450D02*
X019027Y006450D01*
X018950Y006450D02*
X018950Y006911D01*
X019027Y006911D01*
X019130Y006830D02*
X019207Y006907D01*
X019361Y006907D01*
X019437Y006830D01*
X019437Y006677D01*
X019361Y006600D01*
X019207Y006600D01*
X019130Y006677D01*
X019130Y006830D01*
X019257Y006757D02*
X019180Y006680D01*
X019180Y006527D01*
X019257Y006450D01*
X019411Y006450D01*
X019487Y006527D01*
X019487Y006680D01*
X019411Y006757D01*
X019257Y006757D01*
X019591Y006830D02*
X019898Y006830D01*
X019948Y006911D02*
X019948Y006450D01*
X019898Y006311D02*
X020051Y006311D01*
X020128Y006234D01*
X020128Y006157D01*
X020051Y006080D01*
X019898Y006080D01*
X019821Y006004D01*
X019821Y005927D01*
X019898Y005850D01*
X020051Y005850D01*
X020128Y005927D01*
X020101Y005930D02*
X019948Y005930D01*
X019871Y005854D01*
X019871Y005777D01*
X019948Y005700D01*
X020101Y005700D01*
X020178Y005777D01*
X020331Y005777D02*
X020408Y005700D01*
X020562Y005700D01*
X020638Y005777D01*
X020638Y006084D01*
X020562Y006161D01*
X020408Y006161D01*
X020331Y006084D01*
X020331Y005777D01*
X020358Y005850D02*
X020281Y005927D01*
X020281Y006234D01*
X020358Y006311D01*
X020512Y006311D01*
X020588Y006234D01*
X020588Y005927D01*
X020512Y005850D01*
X020358Y005850D01*
X020178Y006007D02*
X020101Y005930D01*
X020178Y006007D02*
X020178Y006084D01*
X020101Y006161D01*
X019948Y006161D01*
X019871Y006084D01*
X019821Y006234D02*
X019898Y006311D01*
X019667Y006311D02*
X019667Y005850D01*
X019717Y005930D02*
X019411Y005930D01*
X019361Y005850D02*
X019361Y006311D01*
X019411Y006161D02*
X019411Y005700D01*
X019717Y005700D02*
X019717Y006161D01*
X019667Y006080D02*
X019361Y006080D01*
X019641Y006450D02*
X019641Y006911D01*
X019591Y007061D02*
X019591Y006600D01*
X019641Y006680D02*
X019948Y006680D01*
X019898Y006600D02*
X019898Y007061D01*
X020512Y006907D02*
X020512Y006523D01*
X020588Y006447D01*
X020665Y006447D01*
X020562Y006450D02*
X020792Y006450D01*
X020868Y006527D01*
X020868Y006757D01*
X020818Y006677D02*
X020742Y006600D01*
X020512Y006600D01*
X020562Y006757D02*
X020562Y006373D01*
X020638Y006297D01*
X020715Y006297D01*
X021022Y006527D02*
X021099Y006450D01*
X021329Y006450D01*
X021279Y006447D02*
X021279Y006907D01*
X021049Y006907D01*
X020972Y006830D01*
X020972Y006677D01*
X021049Y006600D01*
X021279Y006600D01*
X021329Y006757D02*
X021099Y006757D01*
X021022Y006680D01*
X021022Y006527D01*
X020818Y006677D02*
X020818Y006907D01*
X021329Y006757D02*
X021329Y006297D01*
X021279Y006157D02*
X021202Y006080D01*
X021202Y005850D01*
X021252Y005930D02*
X021252Y005700D01*
X021406Y005700D02*
X021406Y005930D01*
X021329Y006007D01*
X021252Y005930D01*
X021356Y005850D02*
X021356Y006080D01*
X021279Y006157D01*
X021356Y006080D02*
X021432Y006157D01*
X021509Y006157D01*
X021509Y005850D01*
X021406Y005930D02*
X021482Y006007D01*
X021559Y006007D01*
X021559Y005700D01*
X021712Y005777D02*
X021789Y005700D01*
X021943Y005700D01*
X022019Y005777D01*
X022019Y005930D01*
X021943Y006007D01*
X021789Y006007D01*
X021712Y005930D01*
X021712Y005777D01*
X021739Y005850D02*
X021662Y005927D01*
X021662Y006080D01*
X021739Y006157D01*
X021893Y006157D01*
X021969Y006080D01*
X021969Y005927D01*
X021893Y005850D01*
X021739Y005850D01*
X022173Y006007D02*
X022250Y006007D01*
X022403Y005854D01*
X022353Y005850D02*
X022353Y006157D01*
X022353Y006004D02*
X022200Y006157D01*
X022123Y006157D01*
X022403Y006007D02*
X022403Y005700D01*
X022633Y005700D02*
X022633Y006084D01*
X022557Y006161D01*
X022583Y006234D02*
X022507Y006311D01*
X022583Y006234D02*
X022583Y005850D01*
X022557Y005930D02*
X022710Y005930D01*
X022660Y006080D02*
X022507Y006080D01*
X022403Y006450D02*
X022403Y006911D01*
X022353Y006830D02*
X022660Y006830D01*
X022710Y006911D02*
X022710Y006450D01*
X022660Y006600D02*
X022660Y007061D01*
X022353Y007061D02*
X022353Y006600D01*
X022403Y006680D02*
X022710Y006680D01*
X022250Y006527D02*
X022173Y006604D01*
X021943Y006604D01*
X021893Y006600D02*
X022123Y006600D01*
X022200Y006677D01*
X022123Y006754D01*
X021893Y006754D01*
X021893Y006830D02*
X021893Y006600D01*
X021943Y006680D02*
X021943Y006450D01*
X022173Y006450D01*
X022250Y006527D01*
X022019Y006757D02*
X021943Y006680D01*
X022019Y006757D02*
X022173Y006757D01*
X022123Y006907D02*
X021969Y006907D01*
X021893Y006830D01*
X021789Y006757D02*
X021559Y006757D01*
X021482Y006680D01*
X021482Y006527D01*
X021559Y006450D01*
X021789Y006450D01*
X021739Y006447D02*
X021739Y006907D01*
X021509Y006907D01*
X021432Y006830D01*
X021432Y006677D01*
X021509Y006600D01*
X021739Y006600D01*
X021789Y006757D02*
X021789Y006297D01*
X018977Y007061D02*
X018900Y007061D01*
X018720Y006757D02*
X018643Y006757D01*
X018643Y006450D01*
X018720Y006450D02*
X018566Y006450D01*
X018516Y006311D02*
X018440Y006234D01*
X018440Y006080D01*
X018516Y006004D01*
X018747Y006004D01*
X018747Y005850D02*
X018747Y006311D01*
X018516Y006311D01*
X018566Y006161D02*
X018490Y006084D01*
X018490Y005930D01*
X018566Y005854D01*
X018797Y005854D01*
X018797Y005700D02*
X018797Y006161D01*
X018566Y006161D01*
X017109Y006237D02*
X017109Y005930D01*
X017059Y005927D02*
X017059Y005850D01*
X017059Y006080D02*
X017059Y006387D01*
X017032Y006450D02*
X016802Y006450D01*
X016725Y006527D01*
D12*
X008680Y013105D02*
X008480Y012905D01*
X008130Y012905D01*
X007930Y013105D01*
X007930Y013430D01*
X008130Y013630D01*
X008480Y013630D01*
X008680Y013430D01*
X008680Y013105D01*
X008659Y013084D02*
X007951Y013084D01*
X007930Y013143D02*
X008680Y013143D01*
X008680Y013201D02*
X007930Y013201D01*
X007930Y013260D02*
X008680Y013260D01*
X008680Y013318D02*
X007930Y013318D01*
X007930Y013377D02*
X008680Y013377D01*
X008675Y013435D02*
X007935Y013435D01*
X007994Y013494D02*
X008616Y013494D01*
X008558Y013552D02*
X008052Y013552D01*
X008111Y013611D02*
X008499Y013611D01*
X008930Y013611D02*
X009680Y013611D01*
X009680Y013580D02*
X009680Y013905D01*
X009480Y014105D01*
X009130Y014105D01*
X008930Y013905D01*
X008930Y013580D01*
X009130Y013380D01*
X009480Y013380D01*
X009680Y013580D01*
X009652Y013552D02*
X008958Y013552D01*
X009016Y013494D02*
X009594Y013494D01*
X009535Y013435D02*
X009075Y013435D01*
X008930Y013669D02*
X009680Y013669D01*
X009680Y013728D02*
X008930Y013728D01*
X008930Y013786D02*
X009680Y013786D01*
X009680Y013845D02*
X008930Y013845D01*
X008930Y013903D02*
X009680Y013903D01*
X009623Y013962D02*
X008987Y013962D01*
X009045Y014020D02*
X009565Y014020D01*
X009506Y014079D02*
X009104Y014079D01*
X008601Y013026D02*
X008009Y013026D01*
X008068Y012967D02*
X008542Y012967D01*
X008484Y012909D02*
X008126Y012909D01*
D13*
X019955Y006330D03*
D14*
X014955Y006330D03*
X024955Y006330D03*
D15*
X023498Y006330D02*
X023476Y005933D01*
X023409Y005542D01*
X023299Y005160D01*
X023147Y004793D01*
X022955Y004445D01*
X022725Y004121D01*
X022460Y003825D01*
X022164Y003560D01*
X021840Y003330D01*
X021492Y003138D01*
X021125Y002986D01*
X020743Y002876D01*
X020352Y002809D01*
X019955Y002787D01*
X019558Y002809D01*
X019167Y002876D01*
X018785Y002986D01*
X018418Y003138D01*
X018070Y003330D01*
X017746Y003560D01*
X017450Y003825D01*
X017185Y004121D01*
X016955Y004445D01*
X016763Y004793D01*
X016611Y005160D01*
X016501Y005542D01*
X016434Y005933D01*
X016412Y006330D01*
X016434Y006727D01*
X016501Y007119D01*
X016611Y007500D01*
X016763Y007868D01*
X016955Y008215D01*
X017185Y008539D01*
X017450Y008836D01*
X017746Y009100D01*
X018070Y009330D01*
X018418Y009523D01*
X018785Y009675D01*
X019167Y009785D01*
X019558Y009851D01*
X019955Y009873D01*
X020352Y009851D01*
X020743Y009785D01*
X021125Y009675D01*
X021492Y009523D01*
X021840Y009330D01*
X022164Y009100D01*
X022460Y008836D01*
X022725Y008539D01*
X022955Y008215D01*
X023147Y007868D01*
X023299Y007500D01*
X023409Y007119D01*
X023476Y006727D01*
X023498Y006330D01*
X023498Y006334D02*
X016412Y006334D01*
X016415Y006382D02*
X023495Y006382D01*
X023493Y006431D02*
X016417Y006431D01*
X016420Y006479D02*
X023490Y006479D01*
X023487Y006528D02*
X016423Y006528D01*
X016426Y006576D02*
X023484Y006576D01*
X023482Y006625D02*
X016428Y006625D01*
X016431Y006673D02*
X023479Y006673D01*
X023476Y006722D02*
X016434Y006722D01*
X016441Y006770D02*
X023469Y006770D01*
X023460Y006819D02*
X016450Y006819D01*
X016458Y006867D02*
X023452Y006867D01*
X023444Y006916D02*
X016466Y006916D01*
X016474Y006964D02*
X023436Y006964D01*
X023427Y007013D02*
X016483Y007013D01*
X016491Y007061D02*
X023419Y007061D01*
X023411Y007110D02*
X016499Y007110D01*
X016512Y007158D02*
X023398Y007158D01*
X023384Y007207D02*
X016526Y007207D01*
X016540Y007255D02*
X023370Y007255D01*
X023356Y007304D02*
X016554Y007304D01*
X016568Y007352D02*
X023342Y007352D01*
X023328Y007401D02*
X016582Y007401D01*
X016596Y007449D02*
X023314Y007449D01*
X023300Y007498D02*
X016610Y007498D01*
X016629Y007546D02*
X023281Y007546D01*
X023260Y007595D02*
X016650Y007595D01*
X016670Y007643D02*
X023240Y007643D01*
X023220Y007692D02*
X016690Y007692D01*
X016710Y007740D02*
X023200Y007740D01*
X023180Y007789D02*
X016730Y007789D01*
X016750Y007837D02*
X023160Y007837D01*
X023137Y007886D02*
X016773Y007886D01*
X016799Y007934D02*
X023111Y007934D01*
X023084Y007983D02*
X016826Y007983D01*
X016853Y008031D02*
X023057Y008031D01*
X023030Y008080D02*
X016880Y008080D01*
X016907Y008128D02*
X023003Y008128D01*
X022977Y008177D02*
X016933Y008177D01*
X016962Y008225D02*
X022948Y008225D01*
X022914Y008274D02*
X016996Y008274D01*
X017031Y008322D02*
X022879Y008322D01*
X022845Y008371D02*
X017065Y008371D01*
X017099Y008419D02*
X022811Y008419D01*
X022776Y008468D02*
X017134Y008468D01*
X017168Y008516D02*
X022742Y008516D01*
X022703Y008565D02*
X017207Y008565D01*
X017251Y008613D02*
X022659Y008613D01*
X022616Y008662D02*
X017294Y008662D01*
X017337Y008710D02*
X022573Y008710D01*
X022529Y008759D02*
X017381Y008759D01*
X017424Y008807D02*
X022486Y008807D01*
X022438Y008856D02*
X017472Y008856D01*
X017526Y008904D02*
X022384Y008904D01*
X022330Y008953D02*
X017580Y008953D01*
X017635Y009001D02*
X022275Y009001D01*
X022221Y009050D02*
X017689Y009050D01*
X017743Y009098D02*
X022167Y009098D01*
X022099Y009147D02*
X017811Y009147D01*
X017879Y009195D02*
X022031Y009195D01*
X021962Y009244D02*
X017948Y009244D01*
X018016Y009292D02*
X021894Y009292D01*
X021821Y009341D02*
X018089Y009341D01*
X018176Y009389D02*
X021734Y009389D01*
X021646Y009438D02*
X018264Y009438D01*
X018352Y009486D02*
X021558Y009486D01*
X021463Y009535D02*
X018447Y009535D01*
X018564Y009583D02*
X021346Y009583D01*
X021229Y009632D02*
X018681Y009632D01*
X018804Y009680D02*
X021106Y009680D01*
X020938Y009729D02*
X018972Y009729D01*
X019141Y009777D02*
X020769Y009777D01*
X020502Y009826D02*
X019408Y009826D01*
X016414Y006285D02*
X023496Y006285D01*
X023493Y006237D02*
X016417Y006237D01*
X016420Y006188D02*
X023490Y006188D01*
X023488Y006140D02*
X016422Y006140D01*
X016425Y006091D02*
X023485Y006091D01*
X023482Y006043D02*
X016428Y006043D01*
X016431Y005994D02*
X023479Y005994D01*
X023477Y005946D02*
X016433Y005946D01*
X016440Y005897D02*
X023470Y005897D01*
X023462Y005849D02*
X016448Y005849D01*
X016457Y005800D02*
X023453Y005800D01*
X023445Y005752D02*
X016465Y005752D01*
X016473Y005703D02*
X023437Y005703D01*
X023429Y005655D02*
X016481Y005655D01*
X016490Y005606D02*
X023420Y005606D01*
X023412Y005558D02*
X016498Y005558D01*
X016510Y005509D02*
X023400Y005509D01*
X023386Y005461D02*
X016524Y005461D01*
X016538Y005412D02*
X023372Y005412D01*
X023358Y005364D02*
X016552Y005364D01*
X016566Y005315D02*
X023344Y005315D01*
X023330Y005267D02*
X016580Y005267D01*
X016594Y005218D02*
X023316Y005218D01*
X023302Y005170D02*
X016608Y005170D01*
X016627Y005121D02*
X023283Y005121D01*
X023263Y005073D02*
X016647Y005073D01*
X016667Y005024D02*
X023243Y005024D01*
X023223Y004976D02*
X016687Y004976D01*
X016707Y004927D02*
X023203Y004927D01*
X023183Y004879D02*
X016727Y004879D01*
X016747Y004830D02*
X023163Y004830D01*
X023141Y004782D02*
X016769Y004782D01*
X016796Y004733D02*
X023114Y004733D01*
X023088Y004685D02*
X016822Y004685D01*
X016849Y004636D02*
X023061Y004636D01*
X023034Y004588D02*
X016876Y004588D01*
X016903Y004539D02*
X023007Y004539D01*
X022980Y004491D02*
X016930Y004491D01*
X016957Y004442D02*
X022953Y004442D01*
X022919Y004394D02*
X016991Y004394D01*
X017026Y004345D02*
X022884Y004345D01*
X022850Y004297D02*
X017060Y004297D01*
X017094Y004248D02*
X022816Y004248D01*
X022781Y004200D02*
X017129Y004200D01*
X017163Y004151D02*
X022747Y004151D01*
X022709Y004103D02*
X017201Y004103D01*
X017244Y004054D02*
X022666Y004054D01*
X022622Y004006D02*
X017288Y004006D01*
X017331Y003957D02*
X022579Y003957D01*
X022536Y003909D02*
X017374Y003909D01*
X017418Y003860D02*
X022492Y003860D01*
X022446Y003812D02*
X017464Y003812D01*
X017518Y003763D02*
X022392Y003763D01*
X022337Y003715D02*
X017573Y003715D01*
X017627Y003666D02*
X022283Y003666D01*
X022229Y003618D02*
X017681Y003618D01*
X017735Y003569D02*
X022175Y003569D01*
X022109Y003521D02*
X017801Y003521D01*
X017869Y003472D02*
X022041Y003472D01*
X021972Y003424D02*
X017938Y003424D01*
X018006Y003375D02*
X021904Y003375D01*
X021834Y003327D02*
X018076Y003327D01*
X018164Y003278D02*
X021746Y003278D01*
X021659Y003230D02*
X018251Y003230D01*
X018339Y003181D02*
X021571Y003181D01*
X021480Y003133D02*
X018430Y003133D01*
X018547Y003084D02*
X021363Y003084D01*
X021246Y003036D02*
X018664Y003036D01*
X018781Y002987D02*
X021129Y002987D01*
X020962Y002939D02*
X018948Y002939D01*
X019116Y002890D02*
X020794Y002890D01*
X020543Y002842D02*
X019367Y002842D01*
X019842Y002793D02*
X020068Y002793D01*
D16*
X014430Y002030D03*
X010430Y002030D03*
D17*
X009405Y001455D03*
X007030Y001255D03*
X003230Y002255D03*
X001680Y002905D03*
X001180Y003555D03*
X014430Y006405D03*
X015955Y006330D03*
X018230Y000830D03*
X025580Y006255D03*
M02*
