G75*
%MOIN*%
%OFA0B0*%
%FSLAX24Y24*%
%IPPOS*%
%LPD*%
%AMOC8*
5,1,8,0,0,1.08239X$1,22.5*
%
%ADD10C,0.0200*%
%ADD11C,0.0090*%
%ADD12C,0.0820*%
%ADD13C,0.0420*%
D10*
X003405Y002105D02*
X003755Y001755D01*
X007305Y001755D01*
X008305Y000755D01*
X004730Y000755D01*
X004280Y001205D01*
X007005Y001205D01*
X007055Y001255D01*
X007705Y002330D02*
X009230Y000805D01*
X018180Y000805D01*
X009330Y001455D02*
X007680Y003105D01*
X004080Y003105D01*
X003680Y003505D01*
X001230Y003505D01*
X001880Y002905D02*
X003380Y002905D01*
X003955Y002330D01*
X007705Y002330D01*
X003405Y002130D02*
X003405Y002105D01*
D11*
X017890Y003935D02*
X017975Y003850D01*
X018145Y003850D01*
X018230Y003935D01*
X018230Y004276D01*
X018145Y004361D01*
X017975Y004361D01*
X017890Y004276D01*
X017890Y003935D01*
X018443Y003935D02*
X018528Y003850D01*
X018698Y003850D01*
X018783Y003935D01*
X018783Y004020D01*
X018698Y004105D01*
X018528Y004105D01*
X018443Y004190D01*
X018443Y004276D01*
X018528Y004361D01*
X018698Y004361D01*
X018783Y004276D01*
X018995Y004361D02*
X018995Y003850D01*
X019335Y003850D02*
X019335Y004361D01*
X019335Y004105D02*
X018995Y004105D01*
X018942Y004750D02*
X018942Y005176D01*
X019027Y005261D01*
X019027Y005005D02*
X018857Y005005D01*
X019225Y004920D02*
X019395Y005090D01*
X019480Y005090D01*
X019686Y005005D02*
X019686Y004835D01*
X019771Y004750D01*
X019941Y004750D01*
X020026Y004835D01*
X020026Y005005D01*
X019941Y005090D01*
X019771Y005090D01*
X019686Y005005D01*
X019225Y005090D02*
X019225Y004750D01*
X020100Y004361D02*
X020355Y004361D01*
X020440Y004276D01*
X020440Y004105D01*
X020355Y004020D01*
X020100Y004020D01*
X020100Y003850D02*
X020100Y004361D01*
X020238Y004750D02*
X020238Y005090D01*
X020323Y005090D01*
X020408Y005005D01*
X020493Y005090D01*
X020578Y005005D01*
X020578Y004750D01*
X020408Y004750D02*
X020408Y005005D01*
X021191Y005480D02*
X021276Y005480D01*
X021361Y005565D01*
X021361Y005990D01*
X021573Y005905D02*
X021658Y005990D01*
X021914Y005990D01*
X021828Y005820D02*
X021658Y005820D01*
X021573Y005905D01*
X021573Y005650D02*
X021828Y005650D01*
X021914Y005735D01*
X021828Y005820D01*
X021361Y005650D02*
X021106Y005650D01*
X021021Y005735D01*
X021021Y005990D01*
X020809Y005905D02*
X020809Y005650D01*
X020553Y005650D01*
X020468Y005735D01*
X020553Y005820D01*
X020809Y005820D01*
X020809Y005905D02*
X020724Y005990D01*
X020553Y005990D01*
X020256Y005990D02*
X020001Y005990D01*
X019916Y005905D01*
X019916Y005735D01*
X020001Y005650D01*
X020256Y005650D01*
X020256Y006161D01*
X020100Y006380D02*
X020100Y006890D01*
X020355Y006890D01*
X020440Y006805D01*
X020440Y006635D01*
X020355Y006550D01*
X020100Y006550D01*
X019888Y006635D02*
X019888Y006805D01*
X019803Y006890D01*
X019548Y006890D01*
X019548Y006380D01*
X019633Y006246D02*
X019633Y006161D01*
X019633Y005990D02*
X019633Y005650D01*
X019548Y005650D02*
X019718Y005650D01*
X019633Y005990D02*
X019548Y005990D01*
X019264Y006161D02*
X019264Y005650D01*
X019179Y005650D02*
X019349Y005650D01*
X018967Y005735D02*
X018967Y005905D01*
X018882Y005990D01*
X018712Y005990D01*
X018627Y005905D01*
X018627Y005735D01*
X018712Y005650D01*
X018882Y005650D01*
X018967Y005735D01*
X018415Y005650D02*
X018415Y006161D01*
X018415Y005905D02*
X018074Y005905D01*
X018074Y005650D02*
X018074Y006161D01*
X018443Y006550D02*
X018443Y007061D01*
X018783Y007061D02*
X018783Y006550D01*
X018995Y006635D02*
X019080Y006720D01*
X019335Y006720D01*
X019335Y006805D02*
X019335Y006550D01*
X019080Y006550D01*
X018995Y006635D01*
X018783Y006805D02*
X018443Y006805D01*
X019080Y006890D02*
X019250Y006890D01*
X019335Y006805D01*
X019548Y006550D02*
X019803Y006550D01*
X019888Y006635D01*
X020652Y006635D02*
X020738Y006550D01*
X020993Y006550D01*
X020993Y006465D02*
X020908Y006380D01*
X020823Y006380D01*
X020993Y006465D02*
X020993Y006890D01*
X020652Y006890D02*
X020652Y006635D01*
X019264Y006161D02*
X019179Y006161D01*
X021665Y004361D02*
X021665Y003850D01*
X021665Y004020D02*
X021921Y004190D01*
X022126Y004105D02*
X022126Y004446D01*
X022126Y003935D02*
X022126Y003850D01*
X021921Y003850D02*
X021665Y004020D01*
X021460Y004190D02*
X021375Y004190D01*
X021205Y004020D01*
X021205Y003850D02*
X021205Y004190D01*
X020993Y004105D02*
X020993Y003850D01*
X020738Y003850D01*
X020652Y003935D01*
X020738Y004020D01*
X020993Y004020D01*
X020993Y004105D02*
X020908Y004190D01*
X020738Y004190D01*
D12*
X014430Y002030D03*
X010430Y002030D03*
D13*
X009405Y001455D03*
X007030Y001255D03*
X003230Y002255D03*
X001680Y002905D03*
X001180Y003555D03*
X014430Y006405D03*
X015955Y006330D03*
X018230Y000830D03*
X025580Y006255D03*
M02*
