G75*
%MOIN*%
%OFA0B0*%
%FSLAX24Y24*%
%IPPOS*%
%LPD*%
%AMOC8*
5,1,8,0,0,1.08239X$1,22.5*
%
%ADD10C,0.0060*%
%ADD11C,0.0100*%
%ADD12C,0.0040*%
D10*
X002080Y001555D02*
X000130Y003505D01*
X000130Y003630D01*
X000505Y004005D01*
X003955Y004005D01*
X004230Y003805D01*
X004255Y003780D02*
X006830Y003780D01*
X006805Y013830D01*
X006953Y013833D01*
X007101Y013840D01*
X007248Y013850D01*
X007395Y013864D01*
X007542Y013882D01*
X007688Y013903D01*
X007833Y013928D01*
X007978Y013957D01*
X008122Y013990D01*
X008265Y014026D01*
X008408Y014065D01*
X008549Y014109D01*
X008689Y014155D01*
X008828Y014206D01*
X008965Y014259D01*
X009101Y014317D01*
X009236Y014377D01*
X009369Y014441D01*
X009500Y014509D01*
X009630Y014579D01*
X009758Y014653D01*
X009884Y014730D01*
X010008Y014811D01*
X010130Y014894D01*
X010250Y014980D01*
X010367Y015070D01*
X010482Y015162D01*
X010595Y015257D01*
X010706Y015355D01*
X010705Y015355D02*
X011105Y015355D01*
X011105Y003880D01*
X012180Y003855D01*
X014255Y003880D01*
X014305Y003880D01*
X018230Y000380D02*
X018305Y000355D01*
X018230Y000380D02*
X004380Y000380D01*
X003205Y001555D01*
X002080Y001555D01*
X014305Y003880D02*
X014245Y004025D01*
X014189Y004172D01*
X014137Y004320D01*
X014089Y004469D01*
X014044Y004619D01*
X014003Y004770D01*
X013966Y004923D01*
X013933Y005076D01*
X013904Y005230D01*
X013879Y005385D01*
X013857Y005540D01*
X013840Y005696D01*
X013826Y005852D01*
X013817Y006009D01*
X013812Y006166D01*
X013810Y006322D01*
X013813Y006479D01*
X013819Y006636D01*
X013830Y006792D01*
X013844Y006949D01*
X013862Y007104D01*
X013885Y007259D01*
X013911Y007414D01*
X013941Y007568D01*
X013975Y007721D01*
X014013Y007873D01*
X014055Y008024D01*
X014101Y008174D01*
X014150Y008323D01*
X014204Y008471D01*
X014261Y008617D01*
X014321Y008761D01*
X014385Y008904D01*
X014453Y009046D01*
X014525Y009185D01*
X014600Y009323D01*
X014678Y009459D01*
X014760Y009592D01*
X014846Y009724D01*
X014934Y009853D01*
X015026Y009981D01*
X015121Y010105D01*
X015219Y010228D01*
X015321Y010347D01*
X015425Y010464D01*
X015532Y010579D01*
X015642Y010691D01*
X015755Y010799D01*
X015871Y010905D01*
X015989Y011008D01*
X016110Y011108D01*
X016233Y011205D01*
X016359Y011299D01*
X016487Y011389D01*
X016617Y011476D01*
X016750Y011560D01*
X016885Y011640D01*
X017021Y011717D01*
X017160Y011791D01*
X017300Y011861D01*
X017442Y011927D01*
X017586Y011990D01*
X017731Y012049D01*
X017878Y012104D01*
X018026Y012156D01*
X018175Y012204D01*
X018326Y012248D01*
X018477Y012288D01*
X018630Y012324D01*
X018783Y012357D01*
X018938Y012385D01*
X019093Y012410D01*
X019248Y012430D01*
X019404Y012447D01*
X019560Y012460D01*
X019717Y012468D01*
X019874Y012473D01*
X020030Y012474D01*
X020187Y012471D01*
X020344Y012463D01*
X020500Y012452D01*
X020656Y012437D01*
X020812Y012418D01*
X020967Y012395D01*
X021122Y012368D01*
X021275Y012337D01*
X021428Y012302D01*
X021580Y012264D01*
X021731Y012221D01*
X021881Y012175D01*
X022029Y012124D01*
X022177Y012071D01*
X022323Y012013D01*
X022467Y011952D01*
X022610Y011887D01*
X022751Y011818D01*
X022890Y011746D01*
X023027Y011670D01*
X023163Y011591D01*
X023296Y011509D01*
X023427Y011423D01*
X023556Y011334D01*
X023683Y011241D01*
X023807Y011146D01*
X023929Y011047D01*
X024048Y010945D01*
X024165Y010840D01*
X024279Y010733D01*
X024390Y010622D01*
X024498Y010509D01*
X024604Y010392D01*
X024706Y010274D01*
X024806Y010152D01*
X024902Y010029D01*
X024995Y009902D01*
X025085Y009774D01*
X025171Y009643D01*
X025255Y009510D01*
X025334Y009375D01*
X025411Y009238D01*
X025484Y009099D01*
X025553Y008959D01*
X025619Y008816D01*
X025681Y008672D01*
X025739Y008527D01*
X025794Y008380D01*
X025845Y008231D01*
X025892Y008082D01*
X025935Y007931D01*
X025975Y007779D01*
X026010Y007627D01*
X026042Y007473D01*
X026070Y007319D01*
X026094Y007164D01*
X026113Y007008D01*
X026129Y006852D01*
X026141Y006696D01*
X026149Y006539D01*
X026153Y006383D01*
X026154Y006226D01*
X026150Y006069D01*
X026142Y005912D01*
X026130Y005756D01*
X026114Y005600D01*
X026094Y005444D01*
X026070Y005289D01*
X026043Y005135D01*
X026011Y004981D01*
X025976Y004829D01*
X025936Y004677D01*
X025893Y004526D01*
X025846Y004377D01*
X025795Y004228D01*
X025741Y004081D01*
X025682Y003936D01*
X025620Y003792D01*
X025555Y003649D01*
X025486Y003508D01*
X025413Y003369D01*
X025337Y003232D01*
X025257Y003097D01*
X025174Y002964D01*
X025087Y002834D01*
X024998Y002705D01*
X024905Y002579D01*
X024808Y002455D01*
X024709Y002334D01*
X024607Y002215D01*
X024501Y002099D01*
X024393Y001985D01*
X024282Y001874D01*
X024168Y001767D01*
X024052Y001662D01*
X023932Y001560D01*
X023811Y001461D01*
X023686Y001365D01*
X023560Y001273D01*
X023431Y001183D01*
X023300Y001098D01*
X023166Y001015D01*
X023031Y000936D01*
X022894Y000860D01*
X022755Y000788D01*
X022614Y000719D01*
X022471Y000654D01*
X022327Y000593D01*
X022181Y000535D01*
X022034Y000481D01*
X021885Y000431D01*
X021735Y000384D01*
X021584Y000342D01*
X021432Y000303D01*
X021279Y000268D01*
X021126Y000237D01*
X020971Y000210D01*
X020816Y000187D01*
X020661Y000167D01*
X020504Y000152D01*
X020348Y000141D01*
X020191Y000134D01*
X020035Y000130D01*
X019878Y000131D01*
X019721Y000136D01*
X019565Y000144D01*
X019408Y000157D01*
X019252Y000173D01*
X019097Y000194D01*
X018942Y000218D01*
X018788Y000247D01*
X018634Y000279D01*
X018482Y000315D01*
X018330Y000355D01*
D11*
X016630Y004730D02*
X015255Y004730D01*
X015280Y004705D01*
X016531Y007905D02*
X016572Y008018D01*
X016618Y008130D01*
X016667Y008240D01*
X016720Y008348D01*
X016776Y008454D01*
X016836Y008559D01*
X016899Y008662D01*
X016965Y008762D01*
X017035Y008860D01*
X017108Y008956D01*
X017184Y009049D01*
X017263Y009140D01*
X017345Y009228D01*
X017430Y009314D01*
X017518Y009396D01*
X017608Y009476D01*
X017701Y009553D01*
X017796Y009626D01*
X017894Y009696D01*
X017994Y009763D01*
X018097Y009827D01*
X018201Y009887D01*
X018307Y009944D01*
X018415Y009998D01*
X018525Y010047D01*
X018636Y010093D01*
X018749Y010136D01*
X018863Y010174D01*
X018978Y010209D01*
X019095Y010240D01*
X019212Y010267D01*
X019330Y010290D01*
X019449Y010310D01*
X019568Y010325D01*
X019688Y010337D01*
X019809Y010344D01*
X019929Y010348D01*
X020049Y010347D01*
X020170Y010343D01*
X020290Y010334D01*
X020410Y010322D01*
X020529Y010306D01*
X020648Y010286D01*
X020766Y010262D01*
X020883Y010234D01*
X020999Y010202D01*
X021114Y010166D01*
X021228Y010127D01*
X021340Y010083D01*
X021451Y010037D01*
X021561Y009986D01*
X021668Y009932D01*
X021774Y009874D01*
X021878Y009813D01*
X021980Y009749D01*
X022079Y009681D01*
X022177Y009610D01*
X022272Y009536D01*
X022364Y009459D01*
X022454Y009378D01*
X022541Y009295D01*
X022625Y009209D01*
X022707Y009121D01*
X022785Y009029D01*
X022860Y008935D01*
X022933Y008839D01*
X023002Y008740D01*
X023068Y008639D01*
X023130Y008536D01*
X023189Y008431D01*
X023244Y008324D01*
X023296Y008216D01*
X023344Y008105D01*
X023389Y007993D01*
X023430Y007880D01*
X024805Y007880D01*
X024780Y007905D01*
X024780Y007955D02*
X024731Y008087D01*
X024679Y008217D01*
X024623Y008346D01*
X024563Y008473D01*
X024500Y008599D01*
X024433Y008722D01*
X024363Y008844D01*
X024289Y008964D01*
X024212Y009081D01*
X024132Y009197D01*
X024049Y009310D01*
X023962Y009421D01*
X023873Y009529D01*
X023780Y009635D01*
X023685Y009738D01*
X023586Y009838D01*
X023485Y009935D01*
X023381Y010030D01*
X023275Y010122D01*
X023166Y010210D01*
X023054Y010296D01*
X022941Y010378D01*
X022825Y010457D01*
X022706Y010533D01*
X022586Y010606D01*
X022464Y010675D01*
X022339Y010741D01*
X022213Y010803D01*
X022086Y010861D01*
X021956Y010916D01*
X021826Y010968D01*
X021693Y011015D01*
X021560Y011059D01*
X021425Y011099D01*
X021290Y011136D01*
X021153Y011168D01*
X021015Y011197D01*
X020877Y011222D01*
X020738Y011242D01*
X020599Y011259D01*
X020459Y011272D01*
X020318Y011282D01*
X020178Y011287D01*
X020038Y011288D01*
X019897Y011285D01*
X019757Y011279D01*
X019617Y011268D01*
X019477Y011253D01*
X019338Y011235D01*
X019199Y011213D01*
X019061Y011186D01*
X018924Y011156D01*
X018787Y011122D01*
X018652Y011085D01*
X018518Y011043D01*
X018385Y010998D01*
X018253Y010949D01*
X018123Y010896D01*
X017994Y010840D01*
X017867Y010780D01*
X017742Y010716D01*
X017618Y010649D01*
X017496Y010579D01*
X017377Y010505D01*
X017259Y010428D01*
X017144Y010348D01*
X017031Y010264D01*
X016921Y010177D01*
X016813Y010088D01*
X016707Y009995D01*
X016604Y009899D01*
X016504Y009800D01*
X016407Y009699D01*
X016312Y009595D01*
X016221Y009488D01*
X016133Y009379D01*
X016047Y009268D01*
X015965Y009154D01*
X015886Y009037D01*
X015810Y008919D01*
X015738Y008798D01*
X015669Y008676D01*
X015604Y008552D01*
X015542Y008426D01*
X015484Y008298D01*
X015429Y008168D01*
X015378Y008037D01*
X015331Y007905D01*
X015330Y007905D02*
X016530Y007905D01*
X016505Y007930D01*
X015280Y004655D02*
X015329Y004523D01*
X015381Y004393D01*
X015437Y004264D01*
X015497Y004137D01*
X015560Y004011D01*
X015627Y003888D01*
X015697Y003766D01*
X015771Y003646D01*
X015848Y003529D01*
X015928Y003413D01*
X016011Y003300D01*
X016098Y003189D01*
X016187Y003081D01*
X016280Y002975D01*
X016375Y002872D01*
X016474Y002772D01*
X016575Y002675D01*
X016679Y002580D01*
X016785Y002488D01*
X016894Y002400D01*
X017006Y002314D01*
X017119Y002232D01*
X017235Y002153D01*
X017354Y002077D01*
X017474Y002004D01*
X017596Y001935D01*
X017721Y001869D01*
X017847Y001807D01*
X017974Y001749D01*
X018104Y001694D01*
X018234Y001642D01*
X018367Y001595D01*
X018500Y001551D01*
X018635Y001511D01*
X018770Y001474D01*
X018907Y001442D01*
X019045Y001413D01*
X019183Y001388D01*
X019322Y001368D01*
X019461Y001351D01*
X019601Y001338D01*
X019742Y001328D01*
X019882Y001323D01*
X020022Y001322D01*
X020163Y001325D01*
X020303Y001331D01*
X020443Y001342D01*
X020583Y001357D01*
X020722Y001375D01*
X020861Y001397D01*
X020999Y001424D01*
X021136Y001454D01*
X021273Y001488D01*
X021408Y001525D01*
X021542Y001567D01*
X021675Y001612D01*
X021807Y001661D01*
X021937Y001714D01*
X022066Y001770D01*
X022193Y001830D01*
X022318Y001894D01*
X022442Y001961D01*
X022564Y002031D01*
X022683Y002105D01*
X022801Y002182D01*
X022916Y002262D01*
X023029Y002346D01*
X023139Y002433D01*
X023247Y002522D01*
X023353Y002615D01*
X023456Y002711D01*
X023556Y002810D01*
X023653Y002911D01*
X023748Y003015D01*
X023839Y003122D01*
X023927Y003231D01*
X024013Y003342D01*
X024095Y003456D01*
X024174Y003573D01*
X024250Y003691D01*
X024322Y003812D01*
X024391Y003934D01*
X024456Y004058D01*
X024518Y004184D01*
X024576Y004312D01*
X024631Y004442D01*
X024682Y004573D01*
X024729Y004705D01*
X024730Y004705D02*
X023530Y004705D01*
X023555Y004680D01*
X023529Y004705D02*
X023488Y004592D01*
X023442Y004480D01*
X023393Y004370D01*
X023340Y004262D01*
X023284Y004156D01*
X023224Y004051D01*
X023161Y003948D01*
X023095Y003848D01*
X023025Y003750D01*
X022952Y003654D01*
X022876Y003561D01*
X022797Y003470D01*
X022715Y003382D01*
X022630Y003296D01*
X022542Y003214D01*
X022452Y003134D01*
X022359Y003057D01*
X022264Y002984D01*
X022166Y002914D01*
X022066Y002847D01*
X021963Y002783D01*
X021859Y002723D01*
X021753Y002666D01*
X021645Y002612D01*
X021535Y002563D01*
X021424Y002517D01*
X021311Y002474D01*
X021197Y002436D01*
X021082Y002401D01*
X020965Y002370D01*
X020848Y002343D01*
X020730Y002320D01*
X020611Y002300D01*
X020492Y002285D01*
X020372Y002273D01*
X020251Y002266D01*
X020131Y002262D01*
X020011Y002263D01*
X019890Y002267D01*
X019770Y002276D01*
X019650Y002288D01*
X019531Y002304D01*
X019412Y002324D01*
X019294Y002348D01*
X019177Y002376D01*
X019061Y002408D01*
X018946Y002444D01*
X018832Y002483D01*
X018720Y002527D01*
X018609Y002573D01*
X018499Y002624D01*
X018392Y002678D01*
X018286Y002736D01*
X018182Y002797D01*
X018080Y002861D01*
X017981Y002929D01*
X017883Y003000D01*
X017788Y003074D01*
X017696Y003151D01*
X017606Y003232D01*
X017519Y003315D01*
X017435Y003401D01*
X017353Y003489D01*
X017275Y003581D01*
X017200Y003675D01*
X017127Y003771D01*
X017058Y003870D01*
X016992Y003971D01*
X016930Y004074D01*
X016871Y004179D01*
X016816Y004286D01*
X016764Y004394D01*
X016716Y004505D01*
X016671Y004617D01*
X016630Y004730D01*
D12*
X018718Y002111D02*
X018650Y002042D01*
X018650Y001769D01*
X018718Y001700D01*
X018855Y001700D01*
X018924Y001769D01*
X019064Y001769D02*
X019133Y001700D01*
X019270Y001700D01*
X019338Y001769D01*
X019338Y002111D01*
X019479Y002111D02*
X019752Y002111D01*
X019615Y002111D02*
X019615Y001700D01*
X019064Y001769D02*
X019064Y002111D01*
X018924Y002042D02*
X018855Y002111D01*
X018718Y002111D01*
X020307Y002042D02*
X020307Y001769D01*
X020376Y001700D01*
X020513Y001700D01*
X020581Y001769D01*
X020581Y002042D01*
X020513Y002111D01*
X020376Y002111D01*
X020307Y002042D01*
X020722Y002111D02*
X020722Y001769D01*
X020790Y001700D01*
X020927Y001700D01*
X020995Y001769D01*
X020995Y002111D01*
X021136Y002111D02*
X021410Y002111D01*
X021273Y002111D02*
X021273Y001700D01*
X021223Y010500D02*
X021223Y010911D01*
X021086Y010911D02*
X021360Y010911D01*
X020945Y010911D02*
X020945Y010569D01*
X020877Y010500D01*
X020740Y010500D01*
X020672Y010569D01*
X020672Y010911D01*
X020531Y010842D02*
X020463Y010911D01*
X020326Y010911D01*
X020257Y010842D01*
X020257Y010569D01*
X020326Y010500D01*
X020463Y010500D01*
X020531Y010569D01*
X020531Y010842D01*
X019702Y010911D02*
X019429Y010911D01*
X019565Y010911D02*
X019565Y010500D01*
X019288Y010569D02*
X019288Y010911D01*
X019014Y010911D02*
X019014Y010569D01*
X019083Y010500D01*
X019220Y010500D01*
X019288Y010569D01*
X018874Y010569D02*
X018805Y010500D01*
X018668Y010500D01*
X018600Y010569D01*
X018600Y010842D01*
X018668Y010911D01*
X018805Y010911D01*
X018874Y010842D01*
M02*
