G75*
%MOIN*%
%OFA0B0*%
%FSLAX24Y24*%
%IPPOS*%
%LPD*%
%AMOC8*
5,1,8,0,0,1.08239X$1,22.5*
%
%ADD10C,0.0100*%
%ADD11C,0.0050*%
D10*
X006830Y004380D02*
X010830Y004330D01*
X011055Y004355D01*
X011030Y004455D01*
X011155Y013655D01*
X011130Y015405D01*
X010555Y015405D01*
X010155Y015005D01*
X009655Y015005D01*
X009055Y014405D01*
X008205Y014405D01*
X007805Y014005D01*
X006805Y013855D01*
X006830Y004380D01*
X006830Y004413D02*
X011041Y004413D01*
X011031Y004511D02*
X006830Y004511D01*
X006829Y004610D02*
X011032Y004610D01*
X011033Y004708D02*
X006829Y004708D01*
X006829Y004807D02*
X011035Y004807D01*
X011036Y004905D02*
X006829Y004905D01*
X006828Y005004D02*
X011037Y005004D01*
X011039Y005102D02*
X006828Y005102D01*
X006828Y005201D02*
X011040Y005201D01*
X011041Y005299D02*
X006828Y005299D01*
X006827Y005398D02*
X011043Y005398D01*
X011044Y005496D02*
X006827Y005496D01*
X006827Y005595D02*
X011045Y005595D01*
X011047Y005693D02*
X006827Y005693D01*
X006826Y005792D02*
X011048Y005792D01*
X011049Y005890D02*
X006826Y005890D01*
X006826Y005989D02*
X011051Y005989D01*
X011052Y006087D02*
X006825Y006087D01*
X006825Y006186D02*
X011054Y006186D01*
X011055Y006284D02*
X006825Y006284D01*
X006825Y006383D02*
X011056Y006383D01*
X011058Y006481D02*
X006824Y006481D01*
X006824Y006580D02*
X011059Y006580D01*
X011060Y006678D02*
X006824Y006678D01*
X006824Y006777D02*
X011062Y006777D01*
X011063Y006875D02*
X006823Y006875D01*
X006823Y006974D02*
X011064Y006974D01*
X011066Y007072D02*
X006823Y007072D01*
X006823Y007171D02*
X011067Y007171D01*
X011068Y007269D02*
X006822Y007269D01*
X006822Y007368D02*
X011070Y007368D01*
X011071Y007466D02*
X006822Y007466D01*
X006822Y007565D02*
X011072Y007565D01*
X011074Y007663D02*
X006821Y007663D01*
X006821Y007762D02*
X011075Y007762D01*
X011076Y007860D02*
X006821Y007860D01*
X006821Y007959D02*
X011078Y007959D01*
X011079Y008057D02*
X006820Y008057D01*
X006820Y008156D02*
X011080Y008156D01*
X011082Y008254D02*
X006820Y008254D01*
X006820Y008353D02*
X011083Y008353D01*
X011084Y008451D02*
X006819Y008451D01*
X006819Y008550D02*
X011086Y008550D01*
X011087Y008648D02*
X006819Y008648D01*
X006818Y008747D02*
X011088Y008747D01*
X011090Y008845D02*
X006818Y008845D01*
X006818Y008944D02*
X011091Y008944D01*
X011092Y009042D02*
X006818Y009042D01*
X006817Y009141D02*
X011094Y009141D01*
X011095Y009239D02*
X006817Y009239D01*
X006817Y009338D02*
X011096Y009338D01*
X011098Y009436D02*
X006817Y009436D01*
X006816Y009535D02*
X011099Y009535D01*
X011100Y009633D02*
X006816Y009633D01*
X006816Y009732D02*
X011102Y009732D01*
X011103Y009830D02*
X006816Y009830D01*
X006815Y009929D02*
X011104Y009929D01*
X011106Y010027D02*
X006815Y010027D01*
X006815Y010126D02*
X011107Y010126D01*
X011108Y010224D02*
X006815Y010224D01*
X006814Y010323D02*
X011110Y010323D01*
X011111Y010421D02*
X006814Y010421D01*
X006814Y010520D02*
X011112Y010520D01*
X011114Y010618D02*
X006814Y010618D01*
X006813Y010717D02*
X011115Y010717D01*
X011116Y010815D02*
X006813Y010815D01*
X006813Y010914D02*
X011118Y010914D01*
X011119Y011012D02*
X006813Y011012D01*
X006812Y011111D02*
X011120Y011111D01*
X011122Y011209D02*
X006812Y011209D01*
X006812Y011308D02*
X011123Y011308D01*
X011124Y011406D02*
X006811Y011406D01*
X006811Y011505D02*
X011126Y011505D01*
X011127Y011603D02*
X006811Y011603D01*
X006811Y011702D02*
X011128Y011702D01*
X011130Y011800D02*
X006810Y011800D01*
X006810Y011899D02*
X011131Y011899D01*
X011132Y011997D02*
X006810Y011997D01*
X006810Y012096D02*
X011134Y012096D01*
X011135Y012194D02*
X006809Y012194D01*
X006809Y012293D02*
X011136Y012293D01*
X011138Y012391D02*
X006809Y012391D01*
X006809Y012490D02*
X011139Y012490D01*
X011141Y012588D02*
X006808Y012588D01*
X006808Y012687D02*
X011142Y012687D01*
X011143Y012785D02*
X006808Y012785D01*
X006808Y012884D02*
X011145Y012884D01*
X011146Y012982D02*
X006807Y012982D01*
X006807Y013081D02*
X011147Y013081D01*
X011149Y013179D02*
X006807Y013179D01*
X006807Y013278D02*
X011150Y013278D01*
X011151Y013376D02*
X006806Y013376D01*
X006806Y013475D02*
X011153Y013475D01*
X011154Y013573D02*
X006806Y013573D01*
X006805Y013672D02*
X011155Y013672D01*
X011153Y013770D02*
X006805Y013770D01*
X006895Y013869D02*
X011152Y013869D01*
X011151Y013967D02*
X007552Y013967D01*
X007866Y014066D02*
X011149Y014066D01*
X011148Y014164D02*
X007964Y014164D01*
X008063Y014263D02*
X011146Y014263D01*
X011145Y014361D02*
X008161Y014361D01*
X009110Y014460D02*
X011144Y014460D01*
X011142Y014558D02*
X009208Y014558D01*
X009307Y014657D02*
X011141Y014657D01*
X011139Y014755D02*
X009405Y014755D01*
X009504Y014854D02*
X011138Y014854D01*
X011136Y014952D02*
X009602Y014952D01*
X010201Y015051D02*
X011135Y015051D01*
X011134Y015149D02*
X010299Y015149D01*
X010398Y015248D02*
X011132Y015248D01*
X011131Y015346D02*
X010496Y015346D01*
D11*
X013955Y007730D02*
X025955Y007730D01*
X025955Y004930D01*
X013955Y004930D01*
X013955Y007730D01*
X014594Y006430D02*
X014596Y006468D01*
X014602Y006505D01*
X014612Y006542D01*
X014625Y006577D01*
X014642Y006610D01*
X014663Y006642D01*
X014687Y006672D01*
X014713Y006698D01*
X014743Y006722D01*
X014774Y006743D01*
X014808Y006760D01*
X014843Y006773D01*
X014880Y006783D01*
X014917Y006789D01*
X014955Y006791D01*
X014993Y006789D01*
X015030Y006783D01*
X015067Y006773D01*
X015102Y006760D01*
X015135Y006743D01*
X015167Y006722D01*
X015197Y006698D01*
X015223Y006672D01*
X015247Y006642D01*
X015268Y006611D01*
X015285Y006577D01*
X015298Y006542D01*
X015308Y006505D01*
X015314Y006468D01*
X015316Y006430D01*
X015314Y006392D01*
X015308Y006355D01*
X015298Y006318D01*
X015285Y006283D01*
X015268Y006250D01*
X015247Y006218D01*
X015223Y006188D01*
X015197Y006162D01*
X015167Y006138D01*
X015136Y006117D01*
X015102Y006100D01*
X015067Y006087D01*
X015030Y006077D01*
X014993Y006071D01*
X014955Y006069D01*
X014917Y006071D01*
X014880Y006077D01*
X014843Y006087D01*
X014808Y006100D01*
X014775Y006117D01*
X014743Y006138D01*
X014713Y006162D01*
X014687Y006188D01*
X014663Y006218D01*
X014642Y006249D01*
X014625Y006283D01*
X014612Y006318D01*
X014602Y006355D01*
X014596Y006392D01*
X014594Y006430D01*
X024694Y006330D02*
X024696Y006368D01*
X024702Y006405D01*
X024712Y006442D01*
X024725Y006477D01*
X024742Y006510D01*
X024763Y006542D01*
X024787Y006572D01*
X024813Y006598D01*
X024843Y006622D01*
X024874Y006643D01*
X024908Y006660D01*
X024943Y006673D01*
X024980Y006683D01*
X025017Y006689D01*
X025055Y006691D01*
X025093Y006689D01*
X025130Y006683D01*
X025167Y006673D01*
X025202Y006660D01*
X025235Y006643D01*
X025267Y006622D01*
X025297Y006598D01*
X025323Y006572D01*
X025347Y006542D01*
X025368Y006511D01*
X025385Y006477D01*
X025398Y006442D01*
X025408Y006405D01*
X025414Y006368D01*
X025416Y006330D01*
X025414Y006292D01*
X025408Y006255D01*
X025398Y006218D01*
X025385Y006183D01*
X025368Y006150D01*
X025347Y006118D01*
X025323Y006088D01*
X025297Y006062D01*
X025267Y006038D01*
X025236Y006017D01*
X025202Y006000D01*
X025167Y005987D01*
X025130Y005977D01*
X025093Y005971D01*
X025055Y005969D01*
X025017Y005971D01*
X024980Y005977D01*
X024943Y005987D01*
X024908Y006000D01*
X024875Y006017D01*
X024843Y006038D01*
X024813Y006062D01*
X024787Y006088D01*
X024763Y006118D01*
X024742Y006149D01*
X024725Y006183D01*
X024712Y006218D01*
X024702Y006255D01*
X024696Y006292D01*
X024694Y006330D01*
M02*
