G75*
%MOIN*%
%OFA0B0*%
%FSLAX24Y24*%
%IPPOS*%
%LPD*%
%AMOC8*
5,1,8,0,0,1.08239X$1,22.5*
%
%ADD10C,0.0060*%
%ADD11C,0.0130*%
%ADD12C,0.0080*%
%ADD13C,0.0059*%
D10*
X006805Y010430D02*
X006805Y013805D01*
X007330Y013832D01*
X007849Y013907D01*
X008360Y014030D01*
X008857Y014199D01*
X009337Y014413D01*
X009795Y014670D01*
X010227Y014968D01*
X010630Y015305D01*
X011155Y015305D01*
X011155Y012805D01*
X011130Y012605D01*
X011055Y012530D01*
X010930Y012530D01*
X010880Y012580D01*
X010855Y012680D01*
X010880Y012780D01*
X010880Y012930D01*
X010830Y013080D01*
X010580Y013280D01*
X010430Y013280D01*
X010330Y013230D01*
X010255Y013205D01*
X010155Y013130D01*
X010005Y012905D01*
X009980Y012730D01*
X009980Y012430D01*
X010005Y012280D01*
X010005Y012180D01*
X009955Y012080D01*
X009880Y012030D01*
X009730Y011980D01*
X009655Y012030D01*
X009555Y012105D01*
X009480Y012255D01*
X009480Y012280D01*
X009455Y012405D01*
X009455Y012605D01*
X009430Y012780D01*
X009330Y012830D01*
X009255Y012880D01*
X009205Y012905D01*
X009080Y012930D01*
X009005Y012905D01*
X008930Y012855D01*
X008805Y012705D01*
X008705Y012580D01*
X008655Y012480D01*
X008655Y012155D01*
X008680Y012030D01*
X008755Y011855D01*
X008830Y011705D01*
X008855Y011555D01*
X008855Y011480D01*
X008830Y011330D01*
X008805Y011230D01*
X008755Y011155D01*
X008530Y011080D01*
X008380Y011180D01*
X008205Y011530D01*
X008255Y012005D01*
X008205Y012280D01*
X008180Y012330D01*
X008130Y012480D01*
X008030Y012705D01*
X007930Y012730D01*
X007830Y012705D01*
X007605Y012530D01*
X007530Y012380D01*
X007430Y012155D01*
X007430Y011855D01*
X007330Y011355D01*
X007330Y011105D01*
X007305Y010955D01*
X007305Y010830D01*
X007280Y010730D01*
X007255Y010605D01*
X007180Y010580D01*
X006805Y010430D01*
X006805Y010452D02*
X006859Y010452D01*
X006805Y010510D02*
X007005Y010510D01*
X007151Y010569D02*
X006805Y010569D01*
X006805Y010627D02*
X007259Y010627D01*
X007271Y010686D02*
X006805Y010686D01*
X006805Y010744D02*
X007284Y010744D01*
X007298Y010803D02*
X006805Y010803D01*
X006805Y010861D02*
X007305Y010861D01*
X007305Y010920D02*
X006805Y010920D01*
X006805Y010978D02*
X007309Y010978D01*
X007319Y011037D02*
X006805Y011037D01*
X006805Y011095D02*
X007328Y011095D01*
X007330Y011154D02*
X006805Y011154D01*
X006805Y011212D02*
X007330Y011212D01*
X007330Y011271D02*
X006805Y011271D01*
X006805Y011329D02*
X007330Y011329D01*
X007337Y011388D02*
X006805Y011388D01*
X006805Y011446D02*
X007348Y011446D01*
X007360Y011505D02*
X006805Y011505D01*
X006805Y011563D02*
X007372Y011563D01*
X007383Y011622D02*
X006805Y011622D01*
X006805Y011680D02*
X007395Y011680D01*
X007407Y011739D02*
X006805Y011739D01*
X006805Y011797D02*
X007418Y011797D01*
X007430Y011856D02*
X006805Y011856D01*
X006805Y011914D02*
X007430Y011914D01*
X007430Y011973D02*
X006805Y011973D01*
X006805Y012031D02*
X007430Y012031D01*
X007430Y012090D02*
X006805Y012090D01*
X006805Y012148D02*
X007430Y012148D01*
X007453Y012207D02*
X006805Y012207D01*
X006805Y012265D02*
X007479Y012265D01*
X007505Y012324D02*
X006805Y012324D01*
X006805Y012382D02*
X007531Y012382D01*
X007560Y012441D02*
X006805Y012441D01*
X006805Y012499D02*
X007590Y012499D01*
X007640Y012558D02*
X006805Y012558D01*
X006805Y012616D02*
X007716Y012616D01*
X007791Y012675D02*
X006805Y012675D01*
X006805Y012733D02*
X008828Y012733D01*
X008781Y012675D02*
X008044Y012675D01*
X008070Y012616D02*
X008734Y012616D01*
X008694Y012558D02*
X008096Y012558D01*
X008122Y012499D02*
X008665Y012499D01*
X008655Y012441D02*
X008143Y012441D01*
X008163Y012382D02*
X008655Y012382D01*
X008655Y012324D02*
X008190Y012324D01*
X008183Y012324D01*
X008180Y012355D02*
X008205Y012280D01*
X008180Y012355D01*
X008208Y012265D02*
X008655Y012265D01*
X008655Y012207D02*
X008218Y012207D01*
X008229Y012148D02*
X008656Y012148D01*
X008668Y012090D02*
X008240Y012090D01*
X008250Y012031D02*
X008680Y012031D01*
X008705Y011973D02*
X008252Y011973D01*
X008245Y011914D02*
X008730Y011914D01*
X008755Y011856D02*
X008239Y011856D01*
X008233Y011797D02*
X008784Y011797D01*
X008813Y011739D02*
X008227Y011739D01*
X008221Y011680D02*
X008834Y011680D01*
X008844Y011622D02*
X008215Y011622D01*
X008208Y011563D02*
X008854Y011563D01*
X008855Y011505D02*
X008218Y011505D01*
X008247Y011446D02*
X008849Y011446D01*
X008840Y011388D02*
X008276Y011388D01*
X008305Y011329D02*
X008830Y011329D01*
X008815Y011271D02*
X008335Y011271D01*
X008364Y011212D02*
X008793Y011212D01*
X008751Y011154D02*
X008420Y011154D01*
X008507Y011095D02*
X008575Y011095D01*
X009576Y012090D02*
X009960Y012090D01*
X009989Y012148D02*
X009533Y012148D01*
X009504Y012207D02*
X010005Y012207D01*
X010005Y012265D02*
X009480Y012265D01*
X009471Y012324D02*
X009998Y012324D01*
X009988Y012382D02*
X009460Y012382D01*
X009455Y012441D02*
X009980Y012441D01*
X009980Y012499D02*
X009455Y012499D01*
X009455Y012558D02*
X009980Y012558D01*
X009980Y012616D02*
X009453Y012616D01*
X009445Y012675D02*
X009980Y012675D01*
X009980Y012733D02*
X009437Y012733D01*
X009407Y012792D02*
X009989Y012792D01*
X009997Y012850D02*
X009300Y012850D01*
X009187Y012909D02*
X010007Y012909D01*
X010046Y012967D02*
X006805Y012967D01*
X006805Y012909D02*
X009016Y012909D01*
X008926Y012850D02*
X006805Y012850D01*
X006805Y012792D02*
X008877Y012792D01*
X009654Y012031D02*
X009882Y012031D01*
X010902Y012558D02*
X011083Y012558D01*
X011131Y012616D02*
X010871Y012616D01*
X010856Y012675D02*
X011139Y012675D01*
X011146Y012733D02*
X010868Y012733D01*
X010880Y012792D02*
X011153Y012792D01*
X011155Y012850D02*
X010880Y012850D01*
X010880Y012909D02*
X011155Y012909D01*
X011155Y012967D02*
X010868Y012967D01*
X010848Y013026D02*
X011155Y013026D01*
X011155Y013084D02*
X010825Y013084D01*
X010752Y013143D02*
X011155Y013143D01*
X011155Y013201D02*
X010679Y013201D01*
X010606Y013260D02*
X011155Y013260D01*
X011155Y013318D02*
X006805Y013318D01*
X006805Y013260D02*
X010389Y013260D01*
X010250Y013201D02*
X006805Y013201D01*
X006805Y013143D02*
X010172Y013143D01*
X010124Y013084D02*
X006805Y013084D01*
X006805Y013026D02*
X010085Y013026D01*
X011155Y013377D02*
X006805Y013377D01*
X006805Y013435D02*
X011155Y013435D01*
X011155Y013494D02*
X006805Y013494D01*
X006805Y013552D02*
X011155Y013552D01*
X011155Y013611D02*
X006805Y013611D01*
X006805Y013669D02*
X011155Y013669D01*
X011155Y013728D02*
X006805Y013728D01*
X006805Y013786D02*
X011155Y013786D01*
X011155Y013845D02*
X007417Y013845D01*
X007823Y013903D02*
X011155Y013903D01*
X011155Y013962D02*
X008077Y013962D01*
X008321Y014020D02*
X011155Y014020D01*
X011155Y014079D02*
X008505Y014079D01*
X008677Y014137D02*
X011155Y014137D01*
X011155Y014196D02*
X008849Y014196D01*
X008982Y014254D02*
X011155Y014254D01*
X011155Y014313D02*
X009113Y014313D01*
X009244Y014371D02*
X011155Y014371D01*
X011155Y014430D02*
X009367Y014430D01*
X009471Y014488D02*
X011155Y014488D01*
X011155Y014547D02*
X009575Y014547D01*
X009680Y014605D02*
X011155Y014605D01*
X011155Y014664D02*
X009784Y014664D01*
X009871Y014722D02*
X011155Y014722D01*
X011155Y014781D02*
X009955Y014781D01*
X010040Y014839D02*
X011155Y014839D01*
X011155Y014898D02*
X010125Y014898D01*
X010210Y014956D02*
X011155Y014956D01*
X011155Y015015D02*
X010283Y015015D01*
X010353Y015073D02*
X011155Y015073D01*
X011155Y015132D02*
X010423Y015132D01*
X010493Y015190D02*
X011155Y015190D01*
X011155Y015249D02*
X010562Y015249D01*
D11*
X006805Y009980D02*
X006805Y004330D01*
X011105Y004330D01*
X011080Y012155D01*
X011080Y012205D01*
X010830Y012155D01*
X010730Y012205D01*
X010530Y012480D01*
X010555Y012805D01*
X010455Y012930D01*
X010380Y012880D01*
X010380Y012805D01*
X010305Y012605D01*
X010330Y011980D01*
X010255Y011805D01*
X010005Y011630D01*
X009680Y011580D01*
X009480Y011630D01*
X009255Y011855D01*
X009180Y012105D01*
X009155Y012480D01*
X009080Y012555D01*
X008980Y012330D01*
X009055Y012005D01*
X009180Y011730D01*
X009205Y011180D01*
X009105Y010955D01*
X008630Y010705D01*
X008430Y010730D01*
X008080Y010955D01*
X007905Y011230D01*
X007880Y011380D01*
X007880Y011705D01*
X007855Y011880D01*
X007855Y012180D01*
X007805Y012155D01*
X007730Y011930D01*
X007755Y011605D01*
X007655Y011155D01*
X007680Y010780D01*
X007680Y010655D01*
X007530Y010355D01*
X007430Y010230D01*
X006830Y010055D01*
X006805Y009980D01*
X006813Y010003D02*
X011087Y010003D01*
X011087Y009875D02*
X006805Y009875D01*
X006805Y009746D02*
X011088Y009746D01*
X011088Y009618D02*
X006805Y009618D01*
X006805Y009489D02*
X011089Y009489D01*
X011089Y009361D02*
X006805Y009361D01*
X006805Y009232D02*
X011089Y009232D01*
X011090Y009104D02*
X006805Y009104D01*
X006805Y008975D02*
X011090Y008975D01*
X011091Y008847D02*
X006805Y008847D01*
X006805Y008718D02*
X011091Y008718D01*
X011091Y008590D02*
X006805Y008590D01*
X006805Y008461D02*
X011092Y008461D01*
X011092Y008333D02*
X006805Y008333D01*
X006805Y008204D02*
X011093Y008204D01*
X011093Y008076D02*
X006805Y008076D01*
X006805Y007947D02*
X011093Y007947D01*
X011094Y007819D02*
X006805Y007819D01*
X006805Y007690D02*
X011094Y007690D01*
X011095Y007562D02*
X006805Y007562D01*
X006805Y007433D02*
X011095Y007433D01*
X011095Y007305D02*
X006805Y007305D01*
X006805Y007176D02*
X011096Y007176D01*
X011096Y007048D02*
X006805Y007048D01*
X006805Y006919D02*
X011097Y006919D01*
X011097Y006791D02*
X006805Y006791D01*
X006805Y006662D02*
X011098Y006662D01*
X011098Y006534D02*
X006805Y006534D01*
X006805Y006405D02*
X011098Y006405D01*
X011099Y006277D02*
X006805Y006277D01*
X006805Y006148D02*
X011099Y006148D01*
X011100Y006020D02*
X006805Y006020D01*
X006805Y005891D02*
X011100Y005891D01*
X011100Y005763D02*
X006805Y005763D01*
X006805Y005634D02*
X011101Y005634D01*
X011101Y005506D02*
X006805Y005506D01*
X006805Y005377D02*
X011102Y005377D01*
X011102Y005249D02*
X006805Y005249D01*
X006805Y005120D02*
X011102Y005120D01*
X011103Y004992D02*
X006805Y004992D01*
X006805Y004863D02*
X011103Y004863D01*
X011104Y004735D02*
X006805Y004735D01*
X006805Y004606D02*
X011104Y004606D01*
X011105Y004478D02*
X006805Y004478D01*
X006805Y004349D02*
X011105Y004349D01*
X011086Y010132D02*
X007092Y010132D01*
X007454Y010260D02*
X011086Y010260D01*
X011086Y010389D02*
X007547Y010389D01*
X007611Y010517D02*
X011085Y010517D01*
X011085Y010646D02*
X007675Y010646D01*
X007680Y010774D02*
X008362Y010774D01*
X008162Y010903D02*
X007672Y010903D01*
X007663Y011031D02*
X008032Y011031D01*
X007950Y011160D02*
X007656Y011160D01*
X007685Y011288D02*
X007895Y011288D01*
X007880Y011417D02*
X007713Y011417D01*
X007742Y011545D02*
X007880Y011545D01*
X007880Y011674D02*
X007750Y011674D01*
X007740Y011802D02*
X007866Y011802D01*
X007855Y011931D02*
X007730Y011931D01*
X007773Y012059D02*
X007855Y012059D01*
X008983Y012316D02*
X009166Y012316D01*
X009174Y012188D02*
X009013Y012188D01*
X009043Y012059D02*
X009194Y012059D01*
X009232Y011931D02*
X009089Y011931D01*
X009147Y011802D02*
X009308Y011802D01*
X009183Y011674D02*
X009436Y011674D01*
X009188Y011545D02*
X011082Y011545D01*
X011082Y011417D02*
X009194Y011417D01*
X009200Y011288D02*
X011083Y011288D01*
X011083Y011160D02*
X009196Y011160D01*
X009139Y011031D02*
X011084Y011031D01*
X011084Y010903D02*
X009005Y010903D01*
X008761Y010774D02*
X011084Y010774D01*
X011082Y011674D02*
X010067Y011674D01*
X010251Y011802D02*
X011081Y011802D01*
X011081Y011931D02*
X010309Y011931D01*
X010327Y012059D02*
X011080Y012059D01*
X011080Y012188D02*
X010993Y012188D01*
X010765Y012188D02*
X010322Y012188D01*
X010317Y012316D02*
X010649Y012316D01*
X010556Y012445D02*
X010311Y012445D01*
X010306Y012573D02*
X010537Y012573D01*
X010547Y012702D02*
X010341Y012702D01*
X010380Y012830D02*
X010535Y012830D01*
X009157Y012445D02*
X009031Y012445D01*
D12*
X011190Y002503D02*
X013670Y002503D01*
X013670Y001558D01*
X011190Y001558D01*
X011190Y002503D01*
D13*
X019104Y007899D02*
X019274Y007730D01*
X019521Y007931D01*
X019621Y007880D01*
X019762Y008221D01*
X019709Y008249D01*
X019662Y008288D01*
X019624Y008334D01*
X019596Y008387D01*
X019578Y008445D01*
X019572Y008505D01*
X019579Y008568D01*
X019598Y008628D01*
X019629Y008683D01*
X019671Y008731D01*
X019721Y008769D01*
X019778Y008796D01*
X019840Y008810D01*
X019903Y008812D01*
X019965Y008801D01*
X020024Y008777D01*
X020076Y008742D01*
X020120Y008697D01*
X020155Y008644D01*
X020177Y008585D01*
X020187Y008522D01*
X020184Y008459D01*
X020168Y008398D01*
X020140Y008342D01*
X020102Y008292D01*
X020053Y008251D01*
X019998Y008221D01*
X020139Y007880D01*
X020239Y007931D01*
X020486Y007730D01*
X020656Y007899D01*
X020454Y008147D01*
X020505Y008246D01*
X020539Y008353D01*
X020857Y008385D01*
X020857Y008625D01*
X020539Y008657D01*
X020505Y008764D01*
X020454Y008864D01*
X020656Y009111D01*
X020486Y009281D01*
X020239Y009079D01*
X020139Y009130D01*
X020032Y009165D01*
X020000Y009482D01*
X019760Y009482D01*
X019728Y009165D01*
X019621Y009130D01*
X019521Y009079D01*
X019274Y009281D01*
X019104Y009111D01*
X019306Y008864D01*
X019255Y008764D01*
X019221Y008657D01*
X018903Y008625D01*
X018903Y008385D01*
X019221Y008353D01*
X019255Y008246D01*
X019306Y008147D01*
X019104Y007899D01*
X019124Y007923D02*
X019511Y007923D01*
X019538Y007923D02*
X019639Y007923D01*
X019663Y007980D02*
X019171Y007980D01*
X019218Y008038D02*
X019686Y008038D01*
X019710Y008095D02*
X019264Y008095D01*
X019303Y008153D02*
X019734Y008153D01*
X019758Y008211D02*
X019273Y008211D01*
X019248Y008268D02*
X019686Y008268D01*
X019631Y008326D02*
X019229Y008326D01*
X018922Y008383D02*
X019598Y008383D01*
X019580Y008441D02*
X018903Y008441D01*
X018903Y008498D02*
X019573Y008498D01*
X019578Y008556D02*
X018903Y008556D01*
X018903Y008613D02*
X019593Y008613D01*
X019622Y008671D02*
X019225Y008671D01*
X019243Y008729D02*
X019669Y008729D01*
X019758Y008786D02*
X019266Y008786D01*
X019296Y008844D02*
X020464Y008844D01*
X020484Y008901D02*
X019276Y008901D01*
X019229Y008959D02*
X020531Y008959D01*
X020578Y009016D02*
X019182Y009016D01*
X019135Y009074D02*
X020625Y009074D01*
X020635Y009131D02*
X020303Y009131D01*
X020373Y009189D02*
X020578Y009189D01*
X020520Y009247D02*
X020444Y009247D01*
X020135Y009131D02*
X019625Y009131D01*
X019730Y009189D02*
X020030Y009189D01*
X020024Y009247D02*
X019736Y009247D01*
X019742Y009304D02*
X020018Y009304D01*
X020012Y009362D02*
X019748Y009362D01*
X019754Y009419D02*
X020006Y009419D01*
X020000Y009477D02*
X019760Y009477D01*
X019457Y009131D02*
X019125Y009131D01*
X019182Y009189D02*
X019387Y009189D01*
X019316Y009247D02*
X019240Y009247D01*
X020001Y008786D02*
X020494Y008786D01*
X020517Y008729D02*
X020089Y008729D01*
X020137Y008671D02*
X020535Y008671D01*
X020857Y008613D02*
X020166Y008613D01*
X020182Y008556D02*
X020857Y008556D01*
X020857Y008498D02*
X020186Y008498D01*
X020179Y008441D02*
X020857Y008441D01*
X020838Y008383D02*
X020161Y008383D01*
X020128Y008326D02*
X020531Y008326D01*
X020512Y008268D02*
X020074Y008268D01*
X020002Y008211D02*
X020487Y008211D01*
X020457Y008153D02*
X020026Y008153D01*
X020050Y008095D02*
X020496Y008095D01*
X020542Y008038D02*
X020074Y008038D01*
X020097Y007980D02*
X020589Y007980D01*
X020636Y007923D02*
X020249Y007923D01*
X020222Y007923D02*
X020121Y007923D01*
X020320Y007865D02*
X020622Y007865D01*
X020564Y007808D02*
X020390Y007808D01*
X020461Y007750D02*
X020507Y007750D01*
X019440Y007865D02*
X019138Y007865D01*
X019196Y007808D02*
X019370Y007808D01*
X019299Y007750D02*
X019253Y007750D01*
M02*
