G75*
%MOIN*%
%OFA0B0*%
%FSLAX24Y24*%
%IPPOS*%
%LPD*%
%AMOC8*
5,1,8,0,0,1.08239X$1,22.5*
%
%ADD10C,0.2080*%
%ADD11C,0.0060*%
D10*
X007630Y013130D03*
D11*
X002344Y002321D02*
X012916Y002321D01*
X012858Y002263D02*
X002402Y002263D01*
X002461Y002204D02*
X012799Y002204D01*
X012741Y002146D02*
X002519Y002146D01*
X002577Y002087D02*
X003110Y001645D01*
X003682Y001253D01*
X004287Y000916D01*
X004921Y000636D01*
X005578Y000416D01*
X006252Y000258D01*
X006938Y000162D01*
X007630Y000130D01*
X008322Y000162D01*
X009008Y000258D01*
X009682Y000416D01*
X010339Y000636D01*
X010973Y000916D01*
X011578Y001253D01*
X012150Y001645D01*
X012683Y002087D01*
X013173Y002577D01*
X013615Y003110D01*
X014007Y003682D01*
X014344Y004287D01*
X014624Y004921D01*
X014844Y005578D01*
X015002Y006252D01*
X015098Y006938D01*
X015130Y007630D01*
X015098Y008322D01*
X015002Y009008D01*
X014844Y009682D01*
X014624Y010339D01*
X014344Y010973D01*
X014007Y011578D01*
X013615Y012150D01*
X013173Y012683D01*
X012683Y013173D01*
X012150Y013615D01*
X011578Y014007D01*
X010973Y014344D01*
X010339Y014624D01*
X009682Y014844D01*
X009008Y015002D01*
X008322Y015098D01*
X007630Y015130D01*
X006938Y015098D01*
X006252Y015002D01*
X005578Y014844D01*
X004921Y014624D01*
X004287Y014344D01*
X003682Y014007D01*
X003110Y013615D01*
X002577Y013173D01*
X002087Y012683D01*
X001645Y012150D01*
X001253Y011578D01*
X000916Y010973D01*
X000636Y010339D01*
X000416Y009682D01*
X000258Y009008D01*
X000162Y008322D01*
X000130Y007630D01*
X000162Y006938D01*
X000258Y006252D01*
X000416Y005578D01*
X000636Y004921D01*
X000916Y004287D01*
X001253Y003682D01*
X001645Y003110D01*
X002087Y002577D01*
X002577Y002087D01*
X002578Y002087D02*
X012682Y002087D01*
X012612Y002029D02*
X002648Y002029D01*
X002719Y001970D02*
X012541Y001970D01*
X012471Y001912D02*
X002789Y001912D01*
X002860Y001853D02*
X012400Y001853D01*
X012330Y001795D02*
X002930Y001795D01*
X003000Y001736D02*
X012260Y001736D01*
X012189Y001678D02*
X003071Y001678D01*
X003148Y001619D02*
X012112Y001619D01*
X012027Y001561D02*
X003233Y001561D01*
X003319Y001502D02*
X011941Y001502D01*
X011856Y001444D02*
X003404Y001444D01*
X003490Y001385D02*
X011770Y001385D01*
X011685Y001327D02*
X003575Y001327D01*
X003660Y001268D02*
X011600Y001268D01*
X011499Y001210D02*
X003761Y001210D01*
X003866Y001151D02*
X011394Y001151D01*
X011289Y001093D02*
X003971Y001093D01*
X004076Y001034D02*
X011184Y001034D01*
X011079Y000976D02*
X004181Y000976D01*
X004286Y000917D02*
X010974Y000917D01*
X010842Y000859D02*
X004418Y000859D01*
X004550Y000800D02*
X010710Y000800D01*
X010577Y000742D02*
X004683Y000742D01*
X004815Y000683D02*
X010445Y000683D01*
X010304Y000625D02*
X004956Y000625D01*
X005131Y000566D02*
X010129Y000566D01*
X009955Y000508D02*
X005305Y000508D01*
X005480Y000449D02*
X009780Y000449D01*
X009573Y000391D02*
X005687Y000391D01*
X005936Y000332D02*
X009324Y000332D01*
X009075Y000274D02*
X006185Y000274D01*
X006558Y000215D02*
X008702Y000215D01*
X008203Y000157D02*
X007057Y000157D01*
X002285Y002380D02*
X012975Y002380D01*
X013033Y002438D02*
X002227Y002438D01*
X002168Y002497D02*
X013092Y002497D01*
X013150Y002555D02*
X002110Y002555D01*
X002057Y002614D02*
X013203Y002614D01*
X013251Y002672D02*
X002009Y002672D01*
X001960Y002731D02*
X013300Y002731D01*
X013348Y002789D02*
X001912Y002789D01*
X001863Y002848D02*
X013397Y002848D01*
X013446Y002906D02*
X001814Y002906D01*
X001766Y002965D02*
X013494Y002965D01*
X013543Y003023D02*
X001717Y003023D01*
X001669Y003082D02*
X013591Y003082D01*
X013636Y003140D02*
X001624Y003140D01*
X001584Y003199D02*
X013676Y003199D01*
X013716Y003257D02*
X001544Y003257D01*
X001504Y003316D02*
X013756Y003316D01*
X013796Y003374D02*
X001464Y003374D01*
X001424Y003433D02*
X013836Y003433D01*
X013876Y003491D02*
X001384Y003491D01*
X001344Y003550D02*
X013916Y003550D01*
X013956Y003608D02*
X001304Y003608D01*
X001264Y003667D02*
X013996Y003667D01*
X014031Y003725D02*
X001229Y003725D01*
X001197Y003784D02*
X014063Y003784D01*
X014096Y003842D02*
X001164Y003842D01*
X001132Y003901D02*
X014128Y003901D01*
X014161Y003959D02*
X001099Y003959D01*
X001066Y004018D02*
X014194Y004018D01*
X014226Y004076D02*
X001034Y004076D01*
X001001Y004135D02*
X014259Y004135D01*
X014291Y004193D02*
X000969Y004193D01*
X000936Y004252D02*
X014324Y004252D01*
X014354Y004310D02*
X000906Y004310D01*
X000880Y004369D02*
X014380Y004369D01*
X014406Y004427D02*
X000854Y004427D01*
X000829Y004486D02*
X014431Y004486D01*
X014457Y004544D02*
X000803Y004544D01*
X000777Y004603D02*
X014483Y004603D01*
X014509Y004661D02*
X000751Y004661D01*
X000725Y004720D02*
X014535Y004720D01*
X014561Y004778D02*
X000699Y004778D01*
X000674Y004837D02*
X014586Y004837D01*
X014612Y004895D02*
X000648Y004895D01*
X000625Y004954D02*
X014635Y004954D01*
X014654Y005012D02*
X000606Y005012D01*
X000586Y005071D02*
X014674Y005071D01*
X014693Y005129D02*
X000567Y005129D01*
X000547Y005188D02*
X014713Y005188D01*
X014733Y005246D02*
X000527Y005246D01*
X000508Y005305D02*
X014752Y005305D01*
X014772Y005363D02*
X000488Y005363D01*
X000469Y005422D02*
X014791Y005422D01*
X014811Y005480D02*
X000449Y005480D01*
X000429Y005539D02*
X014831Y005539D01*
X014848Y005597D02*
X000412Y005597D01*
X000398Y005656D02*
X014862Y005656D01*
X014876Y005714D02*
X000384Y005714D01*
X000370Y005773D02*
X014890Y005773D01*
X014903Y005831D02*
X000357Y005831D01*
X000343Y005890D02*
X014917Y005890D01*
X014931Y005948D02*
X000329Y005948D01*
X000315Y006007D02*
X014945Y006007D01*
X014958Y006065D02*
X000302Y006065D01*
X000288Y006124D02*
X014972Y006124D01*
X014986Y006182D02*
X000274Y006182D01*
X000260Y006241D02*
X015000Y006241D01*
X015009Y006299D02*
X000251Y006299D01*
X000243Y006358D02*
X015017Y006358D01*
X015025Y006416D02*
X000235Y006416D01*
X000227Y006475D02*
X015033Y006475D01*
X015042Y006533D02*
X000218Y006533D01*
X000210Y006592D02*
X015050Y006592D01*
X015058Y006650D02*
X000202Y006650D01*
X000194Y006709D02*
X015066Y006709D01*
X015074Y006767D02*
X000186Y006767D01*
X000178Y006826D02*
X015082Y006826D01*
X015090Y006884D02*
X000170Y006884D01*
X000162Y006943D02*
X015098Y006943D01*
X015101Y007001D02*
X000159Y007001D01*
X000156Y007060D02*
X015104Y007060D01*
X015106Y007118D02*
X000154Y007118D01*
X000151Y007177D02*
X015109Y007177D01*
X015112Y007235D02*
X000148Y007235D01*
X000146Y007294D02*
X015114Y007294D01*
X015117Y007352D02*
X000143Y007352D01*
X000140Y007411D02*
X015120Y007411D01*
X015123Y007469D02*
X000137Y007469D01*
X000135Y007528D02*
X015125Y007528D01*
X015128Y007586D02*
X000132Y007586D01*
X000131Y007645D02*
X015129Y007645D01*
X015127Y007703D02*
X000133Y007703D01*
X000136Y007762D02*
X015124Y007762D01*
X015121Y007820D02*
X000139Y007820D01*
X000141Y007879D02*
X015119Y007879D01*
X015116Y007937D02*
X000144Y007937D01*
X000147Y007996D02*
X015113Y007996D01*
X015110Y008054D02*
X000150Y008054D01*
X000152Y008113D02*
X015108Y008113D01*
X015105Y008171D02*
X000155Y008171D01*
X000158Y008230D02*
X015102Y008230D01*
X015100Y008288D02*
X000160Y008288D01*
X000165Y008347D02*
X015095Y008347D01*
X015086Y008405D02*
X000174Y008405D01*
X000182Y008464D02*
X015078Y008464D01*
X015070Y008522D02*
X000190Y008522D01*
X000198Y008581D02*
X015062Y008581D01*
X015054Y008639D02*
X000206Y008639D01*
X000214Y008698D02*
X015046Y008698D01*
X015037Y008756D02*
X000223Y008756D01*
X000231Y008815D02*
X015029Y008815D01*
X015021Y008873D02*
X000239Y008873D01*
X000247Y008932D02*
X015013Y008932D01*
X015005Y008990D02*
X000255Y008990D01*
X000267Y009049D02*
X014993Y009049D01*
X014979Y009107D02*
X000281Y009107D01*
X000295Y009166D02*
X014965Y009166D01*
X014952Y009224D02*
X000308Y009224D01*
X000322Y009283D02*
X014938Y009283D01*
X014924Y009341D02*
X000336Y009341D01*
X000350Y009400D02*
X014910Y009400D01*
X014896Y009458D02*
X000364Y009458D01*
X000377Y009517D02*
X014883Y009517D01*
X014869Y009575D02*
X000391Y009575D01*
X000405Y009634D02*
X014855Y009634D01*
X014840Y009692D02*
X000420Y009692D01*
X000439Y009751D02*
X014821Y009751D01*
X014801Y009809D02*
X000459Y009809D01*
X000478Y009868D02*
X014782Y009868D01*
X014762Y009926D02*
X000498Y009926D01*
X000518Y009985D02*
X014742Y009985D01*
X014723Y010043D02*
X000537Y010043D01*
X000557Y010102D02*
X014703Y010102D01*
X014684Y010160D02*
X000576Y010160D01*
X000596Y010219D02*
X014664Y010219D01*
X014644Y010277D02*
X000616Y010277D01*
X000635Y010336D02*
X014625Y010336D01*
X014599Y010394D02*
X000661Y010394D01*
X000686Y010453D02*
X014574Y010453D01*
X014548Y010511D02*
X000712Y010511D01*
X000738Y010570D02*
X014522Y010570D01*
X014496Y010628D02*
X000764Y010628D01*
X000790Y010687D02*
X014470Y010687D01*
X014444Y010745D02*
X000816Y010745D01*
X000841Y010804D02*
X014419Y010804D01*
X014393Y010862D02*
X000867Y010862D01*
X000893Y010921D02*
X014367Y010921D01*
X014340Y010979D02*
X000920Y010979D01*
X000952Y011038D02*
X014308Y011038D01*
X014275Y011096D02*
X000985Y011096D01*
X001017Y011155D02*
X014243Y011155D01*
X014210Y011213D02*
X001050Y011213D01*
X001083Y011272D02*
X014177Y011272D01*
X014145Y011330D02*
X001115Y011330D01*
X001148Y011389D02*
X014112Y011389D01*
X014080Y011447D02*
X001180Y011447D01*
X001213Y011506D02*
X014047Y011506D01*
X014015Y011564D02*
X001245Y011564D01*
X001284Y011623D02*
X013976Y011623D01*
X013936Y011681D02*
X001324Y011681D01*
X001364Y011740D02*
X013896Y011740D01*
X013856Y011798D02*
X001404Y011798D01*
X001444Y011857D02*
X013816Y011857D01*
X013776Y011915D02*
X001484Y011915D01*
X001524Y011974D02*
X013736Y011974D01*
X013696Y012032D02*
X001564Y012032D01*
X001604Y012091D02*
X013656Y012091D01*
X013616Y012149D02*
X001644Y012149D01*
X001693Y012208D02*
X013567Y012208D01*
X013519Y012266D02*
X001741Y012266D01*
X001790Y012325D02*
X013470Y012325D01*
X013421Y012383D02*
X001839Y012383D01*
X001887Y012442D02*
X013373Y012442D01*
X013324Y012500D02*
X001936Y012500D01*
X001984Y012559D02*
X013276Y012559D01*
X013227Y012617D02*
X002033Y012617D01*
X002081Y012676D02*
X013179Y012676D01*
X013121Y012734D02*
X002139Y012734D01*
X002197Y012793D02*
X013063Y012793D01*
X013004Y012851D02*
X002256Y012851D01*
X002314Y012910D02*
X012946Y012910D01*
X012887Y012968D02*
X002373Y012968D01*
X002431Y013027D02*
X012829Y013027D01*
X012770Y013085D02*
X002490Y013085D01*
X002548Y013144D02*
X012712Y013144D01*
X012647Y013202D02*
X002613Y013202D01*
X002683Y013261D02*
X012577Y013261D01*
X012506Y013319D02*
X002754Y013319D01*
X002824Y013378D02*
X012436Y013378D01*
X012365Y013436D02*
X002895Y013436D01*
X002965Y013495D02*
X012295Y013495D01*
X012225Y013553D02*
X003035Y013553D01*
X003106Y013612D02*
X012154Y013612D01*
X012070Y013670D02*
X003190Y013670D01*
X003276Y013729D02*
X011984Y013729D01*
X011899Y013787D02*
X003361Y013787D01*
X003447Y013846D02*
X011813Y013846D01*
X011728Y013904D02*
X003532Y013904D01*
X003617Y013963D02*
X011643Y013963D01*
X011552Y014021D02*
X003708Y014021D01*
X003813Y014080D02*
X011447Y014080D01*
X011342Y014138D02*
X003918Y014138D01*
X004023Y014197D02*
X011237Y014197D01*
X011132Y014255D02*
X004128Y014255D01*
X004233Y014314D02*
X011027Y014314D01*
X010909Y014372D02*
X004351Y014372D01*
X004484Y014431D02*
X010776Y014431D01*
X010644Y014489D02*
X004616Y014489D01*
X004749Y014548D02*
X010511Y014548D01*
X010379Y014606D02*
X004881Y014606D01*
X005043Y014665D02*
X010217Y014665D01*
X010042Y014723D02*
X005218Y014723D01*
X005392Y014782D02*
X009868Y014782D01*
X009693Y014840D02*
X005567Y014840D01*
X005811Y014899D02*
X009449Y014899D01*
X009200Y014957D02*
X006060Y014957D01*
X006347Y015016D02*
X008913Y015016D01*
X008494Y015074D02*
X006766Y015074D01*
M02*
