G75*
%MOIN*%
%OFA0B0*%
%FSLAX24Y24*%
%IPPOS*%
%LPD*%
%AMOC8*
5,1,8,0,0,1.08239X$1,22.5*
%
%ADD10C,0.0060*%
D10*
X006630Y013130D02*
X006632Y013193D01*
X006638Y013255D01*
X006648Y013317D01*
X006661Y013379D01*
X006679Y013439D01*
X006700Y013498D01*
X006725Y013556D01*
X006754Y013612D01*
X006786Y013666D01*
X006821Y013718D01*
X006859Y013767D01*
X006901Y013815D01*
X006945Y013859D01*
X006993Y013901D01*
X007042Y013939D01*
X007094Y013974D01*
X007148Y014006D01*
X007204Y014035D01*
X007262Y014060D01*
X007321Y014081D01*
X007381Y014099D01*
X007443Y014112D01*
X007505Y014122D01*
X007567Y014128D01*
X007630Y014130D01*
X007693Y014128D01*
X007755Y014122D01*
X007817Y014112D01*
X007879Y014099D01*
X007939Y014081D01*
X007998Y014060D01*
X008056Y014035D01*
X008112Y014006D01*
X008166Y013974D01*
X008218Y013939D01*
X008267Y013901D01*
X008315Y013859D01*
X008359Y013815D01*
X008401Y013767D01*
X008439Y013718D01*
X008474Y013666D01*
X008506Y013612D01*
X008535Y013556D01*
X008560Y013498D01*
X008581Y013439D01*
X008599Y013379D01*
X008612Y013317D01*
X008622Y013255D01*
X008628Y013193D01*
X008630Y013130D01*
X008628Y013067D01*
X008622Y013005D01*
X008612Y012943D01*
X008599Y012881D01*
X008581Y012821D01*
X008560Y012762D01*
X008535Y012704D01*
X008506Y012648D01*
X008474Y012594D01*
X008439Y012542D01*
X008401Y012493D01*
X008359Y012445D01*
X008315Y012401D01*
X008267Y012359D01*
X008218Y012321D01*
X008166Y012286D01*
X008112Y012254D01*
X008056Y012225D01*
X007998Y012200D01*
X007939Y012179D01*
X007879Y012161D01*
X007817Y012148D01*
X007755Y012138D01*
X007693Y012132D01*
X007630Y012130D01*
X007567Y012132D01*
X007505Y012138D01*
X007443Y012148D01*
X007381Y012161D01*
X007321Y012179D01*
X007262Y012200D01*
X007204Y012225D01*
X007148Y012254D01*
X007094Y012286D01*
X007042Y012321D01*
X006993Y012359D01*
X006945Y012401D01*
X006901Y012445D01*
X006859Y012493D01*
X006821Y012542D01*
X006786Y012594D01*
X006754Y012648D01*
X006725Y012704D01*
X006700Y012762D01*
X006679Y012821D01*
X006661Y012881D01*
X006648Y012943D01*
X006638Y013005D01*
X006632Y013067D01*
X006630Y013130D01*
M02*
