G75*
%MOIN*%
%OFA0B0*%
%FSLAX24Y24*%
%IPPOS*%
%LPD*%
%AMOC8*
5,1,8,0,0,1.08239X$1,22.5*
%
%ADD10C,0.0060*%
%ADD11C,0.0000*%
D10*
X000130Y007630D02*
X000132Y007814D01*
X000139Y007998D01*
X000150Y008182D01*
X000166Y008365D01*
X000186Y008548D01*
X000211Y008730D01*
X000240Y008912D01*
X000274Y009093D01*
X000312Y009273D01*
X000355Y009452D01*
X000402Y009630D01*
X000453Y009807D01*
X000509Y009983D01*
X000568Y010157D01*
X000633Y010329D01*
X000701Y010500D01*
X000773Y010669D01*
X000850Y010837D01*
X000931Y011002D01*
X001016Y011165D01*
X001104Y011327D01*
X001197Y011486D01*
X001294Y011642D01*
X001394Y011797D01*
X001498Y011949D01*
X001606Y012098D01*
X001717Y012244D01*
X001832Y012388D01*
X001951Y012529D01*
X002073Y012667D01*
X002198Y012802D01*
X002327Y012933D01*
X002458Y013062D01*
X002593Y013187D01*
X002731Y013309D01*
X002872Y013428D01*
X003016Y013543D01*
X003162Y013654D01*
X003311Y013762D01*
X003463Y013866D01*
X003618Y013966D01*
X003774Y014063D01*
X003933Y014156D01*
X004095Y014244D01*
X004258Y014329D01*
X004423Y014410D01*
X004591Y014487D01*
X004760Y014559D01*
X004931Y014627D01*
X005103Y014692D01*
X005277Y014751D01*
X005453Y014807D01*
X005630Y014858D01*
X005808Y014905D01*
X005987Y014948D01*
X006167Y014986D01*
X006348Y015020D01*
X006530Y015049D01*
X006712Y015074D01*
X006895Y015094D01*
X007078Y015110D01*
X007262Y015121D01*
X007446Y015128D01*
X007630Y015130D01*
X007814Y015128D01*
X007998Y015121D01*
X008182Y015110D01*
X008365Y015094D01*
X008548Y015074D01*
X008730Y015049D01*
X008912Y015020D01*
X009093Y014986D01*
X009273Y014948D01*
X009452Y014905D01*
X009630Y014858D01*
X009807Y014807D01*
X009983Y014751D01*
X010157Y014692D01*
X010329Y014627D01*
X010500Y014559D01*
X010669Y014487D01*
X010837Y014410D01*
X011002Y014329D01*
X011165Y014244D01*
X011327Y014156D01*
X011486Y014063D01*
X011642Y013966D01*
X011797Y013866D01*
X011949Y013762D01*
X012098Y013654D01*
X012244Y013543D01*
X012388Y013428D01*
X012529Y013309D01*
X012667Y013187D01*
X012802Y013062D01*
X012933Y012933D01*
X013062Y012802D01*
X013187Y012667D01*
X013309Y012529D01*
X013428Y012388D01*
X013543Y012244D01*
X013654Y012098D01*
X013762Y011949D01*
X013866Y011797D01*
X013966Y011642D01*
X014063Y011486D01*
X014156Y011327D01*
X014244Y011165D01*
X014329Y011002D01*
X014410Y010837D01*
X014487Y010669D01*
X014559Y010500D01*
X014627Y010329D01*
X014692Y010157D01*
X014751Y009983D01*
X014807Y009807D01*
X014858Y009630D01*
X014905Y009452D01*
X014948Y009273D01*
X014986Y009093D01*
X015020Y008912D01*
X015049Y008730D01*
X015074Y008548D01*
X015094Y008365D01*
X015110Y008182D01*
X015121Y007998D01*
X015128Y007814D01*
X015130Y007630D01*
X015128Y007446D01*
X015121Y007262D01*
X015110Y007078D01*
X015094Y006895D01*
X015074Y006712D01*
X015049Y006530D01*
X015020Y006348D01*
X014986Y006167D01*
X014948Y005987D01*
X014905Y005808D01*
X014858Y005630D01*
X014807Y005453D01*
X014751Y005277D01*
X014692Y005103D01*
X014627Y004931D01*
X014559Y004760D01*
X014487Y004591D01*
X014410Y004423D01*
X014329Y004258D01*
X014244Y004095D01*
X014156Y003933D01*
X014063Y003774D01*
X013966Y003618D01*
X013866Y003463D01*
X013762Y003311D01*
X013654Y003162D01*
X013543Y003016D01*
X013428Y002872D01*
X013309Y002731D01*
X013187Y002593D01*
X013062Y002458D01*
X012933Y002327D01*
X012802Y002198D01*
X012667Y002073D01*
X012529Y001951D01*
X012388Y001832D01*
X012244Y001717D01*
X012098Y001606D01*
X011949Y001498D01*
X011797Y001394D01*
X011642Y001294D01*
X011486Y001197D01*
X011327Y001104D01*
X011165Y001016D01*
X011002Y000931D01*
X010837Y000850D01*
X010669Y000773D01*
X010500Y000701D01*
X010329Y000633D01*
X010157Y000568D01*
X009983Y000509D01*
X009807Y000453D01*
X009630Y000402D01*
X009452Y000355D01*
X009273Y000312D01*
X009093Y000274D01*
X008912Y000240D01*
X008730Y000211D01*
X008548Y000186D01*
X008365Y000166D01*
X008182Y000150D01*
X007998Y000139D01*
X007814Y000132D01*
X007630Y000130D01*
X007446Y000132D01*
X007262Y000139D01*
X007078Y000150D01*
X006895Y000166D01*
X006712Y000186D01*
X006530Y000211D01*
X006348Y000240D01*
X006167Y000274D01*
X005987Y000312D01*
X005808Y000355D01*
X005630Y000402D01*
X005453Y000453D01*
X005277Y000509D01*
X005103Y000568D01*
X004931Y000633D01*
X004760Y000701D01*
X004591Y000773D01*
X004423Y000850D01*
X004258Y000931D01*
X004095Y001016D01*
X003933Y001104D01*
X003774Y001197D01*
X003618Y001294D01*
X003463Y001394D01*
X003311Y001498D01*
X003162Y001606D01*
X003016Y001717D01*
X002872Y001832D01*
X002731Y001951D01*
X002593Y002073D01*
X002458Y002198D01*
X002327Y002327D01*
X002198Y002458D01*
X002073Y002593D01*
X001951Y002731D01*
X001832Y002872D01*
X001717Y003016D01*
X001606Y003162D01*
X001498Y003311D01*
X001394Y003463D01*
X001294Y003618D01*
X001197Y003774D01*
X001104Y003933D01*
X001016Y004095D01*
X000931Y004258D01*
X000850Y004423D01*
X000773Y004591D01*
X000701Y004760D01*
X000633Y004931D01*
X000568Y005103D01*
X000509Y005277D01*
X000453Y005453D01*
X000402Y005630D01*
X000355Y005808D01*
X000312Y005987D01*
X000274Y006167D01*
X000240Y006348D01*
X000211Y006530D01*
X000186Y006712D01*
X000166Y006895D01*
X000150Y007078D01*
X000139Y007262D01*
X000132Y007446D01*
X000130Y007630D01*
X006630Y013130D02*
X006632Y013193D01*
X006638Y013255D01*
X006648Y013317D01*
X006661Y013379D01*
X006679Y013439D01*
X006700Y013498D01*
X006725Y013556D01*
X006754Y013612D01*
X006786Y013666D01*
X006821Y013718D01*
X006859Y013767D01*
X006901Y013815D01*
X006945Y013859D01*
X006993Y013901D01*
X007042Y013939D01*
X007094Y013974D01*
X007148Y014006D01*
X007204Y014035D01*
X007262Y014060D01*
X007321Y014081D01*
X007381Y014099D01*
X007443Y014112D01*
X007505Y014122D01*
X007567Y014128D01*
X007630Y014130D01*
X007693Y014128D01*
X007755Y014122D01*
X007817Y014112D01*
X007879Y014099D01*
X007939Y014081D01*
X007998Y014060D01*
X008056Y014035D01*
X008112Y014006D01*
X008166Y013974D01*
X008218Y013939D01*
X008267Y013901D01*
X008315Y013859D01*
X008359Y013815D01*
X008401Y013767D01*
X008439Y013718D01*
X008474Y013666D01*
X008506Y013612D01*
X008535Y013556D01*
X008560Y013498D01*
X008581Y013439D01*
X008599Y013379D01*
X008612Y013317D01*
X008622Y013255D01*
X008628Y013193D01*
X008630Y013130D01*
X008628Y013067D01*
X008622Y013005D01*
X008612Y012943D01*
X008599Y012881D01*
X008581Y012821D01*
X008560Y012762D01*
X008535Y012704D01*
X008506Y012648D01*
X008474Y012594D01*
X008439Y012542D01*
X008401Y012493D01*
X008359Y012445D01*
X008315Y012401D01*
X008267Y012359D01*
X008218Y012321D01*
X008166Y012286D01*
X008112Y012254D01*
X008056Y012225D01*
X007998Y012200D01*
X007939Y012179D01*
X007879Y012161D01*
X007817Y012148D01*
X007755Y012138D01*
X007693Y012132D01*
X007630Y012130D01*
X007567Y012132D01*
X007505Y012138D01*
X007443Y012148D01*
X007381Y012161D01*
X007321Y012179D01*
X007262Y012200D01*
X007204Y012225D01*
X007148Y012254D01*
X007094Y012286D01*
X007042Y012321D01*
X006993Y012359D01*
X006945Y012401D01*
X006901Y012445D01*
X006859Y012493D01*
X006821Y012542D01*
X006786Y012594D01*
X006754Y012648D01*
X006725Y012704D01*
X006700Y012762D01*
X006679Y012821D01*
X006661Y012881D01*
X006648Y012943D01*
X006638Y013005D01*
X006632Y013067D01*
X006630Y013130D01*
D11*
X006632Y013193D01*
X006638Y013255D01*
X006648Y013317D01*
X006661Y013379D01*
X006679Y013439D01*
X006700Y013498D01*
X006725Y013556D01*
X006754Y013612D01*
X006786Y013666D01*
X006821Y013718D01*
X006859Y013767D01*
X006901Y013815D01*
X006945Y013859D01*
X006993Y013901D01*
X007042Y013939D01*
X007094Y013974D01*
X007148Y014006D01*
X007204Y014035D01*
X007262Y014060D01*
X007321Y014081D01*
X007381Y014099D01*
X007443Y014112D01*
X007505Y014122D01*
X007567Y014128D01*
X007630Y014130D01*
X007693Y014128D01*
X007755Y014122D01*
X007817Y014112D01*
X007879Y014099D01*
X007939Y014081D01*
X007998Y014060D01*
X008056Y014035D01*
X008112Y014006D01*
X008166Y013974D01*
X008218Y013939D01*
X008267Y013901D01*
X008315Y013859D01*
X008359Y013815D01*
X008401Y013767D01*
X008439Y013718D01*
X008474Y013666D01*
X008506Y013612D01*
X008535Y013556D01*
X008560Y013498D01*
X008581Y013439D01*
X008599Y013379D01*
X008612Y013317D01*
X008622Y013255D01*
X008628Y013193D01*
X008630Y013130D01*
X008628Y013067D01*
X008622Y013005D01*
X008612Y012943D01*
X008599Y012881D01*
X008581Y012821D01*
X008560Y012762D01*
X008535Y012704D01*
X008506Y012648D01*
X008474Y012594D01*
X008439Y012542D01*
X008401Y012493D01*
X008359Y012445D01*
X008315Y012401D01*
X008267Y012359D01*
X008218Y012321D01*
X008166Y012286D01*
X008112Y012254D01*
X008056Y012225D01*
X007998Y012200D01*
X007939Y012179D01*
X007879Y012161D01*
X007817Y012148D01*
X007755Y012138D01*
X007693Y012132D01*
X007630Y012130D01*
X007567Y012132D01*
X007505Y012138D01*
X007443Y012148D01*
X007381Y012161D01*
X007321Y012179D01*
X007262Y012200D01*
X007204Y012225D01*
X007148Y012254D01*
X007094Y012286D01*
X007042Y012321D01*
X006993Y012359D01*
X006945Y012401D01*
X006901Y012445D01*
X006859Y012493D01*
X006821Y012542D01*
X006786Y012594D01*
X006754Y012648D01*
X006725Y012704D01*
X006700Y012762D01*
X006679Y012821D01*
X006661Y012881D01*
X006648Y012943D01*
X006638Y013005D01*
X006632Y013067D01*
X006630Y013130D01*
M02*
