G75*
%MOIN*%
%OFA0B0*%
%FSLAX24Y24*%
%IPPOS*%
%LPD*%
%AMOC8*
5,1,8,0,0,1.08239X$1,22.5*
%
%ADD10C,0.0900*%
%ADD11C,0.0100*%
%ADD12C,0.0200*%
%ADD13C,0.0140*%
%ADD14C,0.0080*%
D10*
X000666Y007630D02*
X000668Y007801D01*
X000674Y007972D01*
X000685Y008142D01*
X000700Y008313D01*
X000718Y008482D01*
X000741Y008652D01*
X000769Y008821D01*
X000800Y008989D01*
X000835Y009156D01*
X000875Y009322D01*
X000918Y009487D01*
X000966Y009652D01*
X001017Y009814D01*
X001073Y009976D01*
X001133Y010136D01*
X001196Y010295D01*
X001263Y010452D01*
X001335Y010607D01*
X001410Y010761D01*
X001488Y010913D01*
X001571Y011063D01*
X001657Y011210D01*
X001746Y011356D01*
X001840Y011499D01*
X001936Y011640D01*
X002036Y011778D01*
X002140Y011914D01*
X002247Y012048D01*
X002357Y012179D01*
X002470Y012307D01*
X002586Y012432D01*
X002706Y012554D01*
X002828Y012674D01*
X002953Y012790D01*
X003081Y012903D01*
X003212Y013013D01*
X003346Y013120D01*
X003482Y013224D01*
X003620Y013324D01*
X003761Y013420D01*
X003904Y013514D01*
X004050Y013603D01*
X004197Y013689D01*
X004347Y013772D01*
X004499Y013850D01*
X004653Y013925D01*
X004808Y013997D01*
X004965Y014064D01*
X005124Y014127D01*
X005284Y014187D01*
X005446Y014243D01*
X005608Y014294D01*
X005773Y014342D01*
X005938Y014385D01*
X006104Y014425D01*
X006271Y014460D01*
X006439Y014491D01*
X006608Y014519D01*
X006778Y014542D01*
X006947Y014560D01*
X007118Y014575D01*
X007288Y014586D01*
X007459Y014592D01*
X007630Y014594D01*
X007801Y014592D01*
X007972Y014586D01*
X008142Y014575D01*
X008313Y014560D01*
X008482Y014542D01*
X008652Y014519D01*
X008821Y014491D01*
X008989Y014460D01*
X009156Y014425D01*
X009322Y014385D01*
X009487Y014342D01*
X009652Y014294D01*
X009814Y014243D01*
X009976Y014187D01*
X010136Y014127D01*
X010295Y014064D01*
X010452Y013997D01*
X010607Y013925D01*
X010761Y013850D01*
X010913Y013772D01*
X011063Y013689D01*
X011210Y013603D01*
X011356Y013514D01*
X011499Y013420D01*
X011640Y013324D01*
X011778Y013224D01*
X011914Y013120D01*
X012048Y013013D01*
X012179Y012903D01*
X012307Y012790D01*
X012432Y012674D01*
X012554Y012554D01*
X012674Y012432D01*
X012790Y012307D01*
X012903Y012179D01*
X013013Y012048D01*
X013120Y011914D01*
X013224Y011778D01*
X013324Y011640D01*
X013420Y011499D01*
X013514Y011356D01*
X013603Y011210D01*
X013689Y011063D01*
X013772Y010913D01*
X013850Y010761D01*
X013925Y010607D01*
X013997Y010452D01*
X014064Y010295D01*
X014127Y010136D01*
X014187Y009976D01*
X014243Y009814D01*
X014294Y009652D01*
X014342Y009487D01*
X014385Y009322D01*
X014425Y009156D01*
X014460Y008989D01*
X014491Y008821D01*
X014519Y008652D01*
X014542Y008482D01*
X014560Y008313D01*
X014575Y008142D01*
X014586Y007972D01*
X014592Y007801D01*
X014594Y007630D01*
X014592Y007459D01*
X014586Y007288D01*
X014575Y007118D01*
X014560Y006947D01*
X014542Y006778D01*
X014519Y006608D01*
X014491Y006439D01*
X014460Y006271D01*
X014425Y006104D01*
X014385Y005938D01*
X014342Y005773D01*
X014294Y005608D01*
X014243Y005446D01*
X014187Y005284D01*
X014127Y005124D01*
X014064Y004965D01*
X013997Y004808D01*
X013925Y004653D01*
X013850Y004499D01*
X013772Y004347D01*
X013689Y004197D01*
X013603Y004050D01*
X013514Y003904D01*
X013420Y003761D01*
X013324Y003620D01*
X013224Y003482D01*
X013120Y003346D01*
X013013Y003212D01*
X012903Y003081D01*
X012790Y002953D01*
X012674Y002828D01*
X012554Y002706D01*
X012432Y002586D01*
X012307Y002470D01*
X012179Y002357D01*
X012048Y002247D01*
X011914Y002140D01*
X011778Y002036D01*
X011640Y001936D01*
X011499Y001840D01*
X011356Y001746D01*
X011210Y001657D01*
X011063Y001571D01*
X010913Y001488D01*
X010761Y001410D01*
X010607Y001335D01*
X010452Y001263D01*
X010295Y001196D01*
X010136Y001133D01*
X009976Y001073D01*
X009814Y001017D01*
X009652Y000966D01*
X009487Y000918D01*
X009322Y000875D01*
X009156Y000835D01*
X008989Y000800D01*
X008821Y000769D01*
X008652Y000741D01*
X008482Y000718D01*
X008313Y000700D01*
X008142Y000685D01*
X007972Y000674D01*
X007801Y000668D01*
X007630Y000666D01*
X007459Y000668D01*
X007288Y000674D01*
X007118Y000685D01*
X006947Y000700D01*
X006778Y000718D01*
X006608Y000741D01*
X006439Y000769D01*
X006271Y000800D01*
X006104Y000835D01*
X005938Y000875D01*
X005773Y000918D01*
X005608Y000966D01*
X005446Y001017D01*
X005284Y001073D01*
X005124Y001133D01*
X004965Y001196D01*
X004808Y001263D01*
X004653Y001335D01*
X004499Y001410D01*
X004347Y001488D01*
X004197Y001571D01*
X004050Y001657D01*
X003904Y001746D01*
X003761Y001840D01*
X003620Y001936D01*
X003482Y002036D01*
X003346Y002140D01*
X003212Y002247D01*
X003081Y002357D01*
X002953Y002470D01*
X002828Y002586D01*
X002706Y002706D01*
X002586Y002828D01*
X002470Y002953D01*
X002357Y003081D01*
X002247Y003212D01*
X002140Y003346D01*
X002036Y003482D01*
X001936Y003620D01*
X001840Y003761D01*
X001746Y003904D01*
X001657Y004050D01*
X001571Y004197D01*
X001488Y004347D01*
X001410Y004499D01*
X001335Y004653D01*
X001263Y004808D01*
X001196Y004965D01*
X001133Y005124D01*
X001073Y005284D01*
X001017Y005446D01*
X000966Y005608D01*
X000918Y005773D01*
X000875Y005938D01*
X000835Y006104D01*
X000800Y006271D01*
X000769Y006439D01*
X000741Y006608D01*
X000718Y006778D01*
X000700Y006947D01*
X000685Y007118D01*
X000674Y007288D01*
X000668Y007459D01*
X000666Y007630D01*
D11*
X001630Y007630D02*
X001632Y007784D01*
X001638Y007939D01*
X001648Y008093D01*
X001662Y008247D01*
X001680Y008400D01*
X001701Y008553D01*
X001727Y008706D01*
X001757Y008857D01*
X001790Y009008D01*
X001828Y009158D01*
X001869Y009307D01*
X001914Y009455D01*
X001963Y009601D01*
X002016Y009747D01*
X002072Y009890D01*
X002132Y010033D01*
X002196Y010173D01*
X002263Y010313D01*
X002334Y010450D01*
X002408Y010585D01*
X002486Y010719D01*
X002567Y010850D01*
X002652Y010979D01*
X002740Y011107D01*
X002831Y011231D01*
X002925Y011354D01*
X003023Y011474D01*
X003123Y011591D01*
X003227Y011706D01*
X003333Y011818D01*
X003442Y011927D01*
X003554Y012033D01*
X003669Y012137D01*
X003786Y012237D01*
X003906Y012335D01*
X004029Y012429D01*
X004153Y012520D01*
X004281Y012608D01*
X004410Y012693D01*
X004541Y012774D01*
X004675Y012852D01*
X004810Y012926D01*
X004947Y012997D01*
X005087Y013064D01*
X005227Y013128D01*
X005370Y013188D01*
X005513Y013244D01*
X005659Y013297D01*
X005805Y013346D01*
X005953Y013391D01*
X006102Y013432D01*
X006252Y013470D01*
X006403Y013503D01*
X006554Y013533D01*
X006707Y013559D01*
X006860Y013580D01*
X007013Y013598D01*
X007167Y013612D01*
X007321Y013622D01*
X007476Y013628D01*
X007630Y013630D01*
X007784Y013628D01*
X007939Y013622D01*
X008093Y013612D01*
X008247Y013598D01*
X008400Y013580D01*
X008553Y013559D01*
X008706Y013533D01*
X008857Y013503D01*
X009008Y013470D01*
X009158Y013432D01*
X009307Y013391D01*
X009455Y013346D01*
X009601Y013297D01*
X009747Y013244D01*
X009890Y013188D01*
X010033Y013128D01*
X010173Y013064D01*
X010313Y012997D01*
X010450Y012926D01*
X010585Y012852D01*
X010719Y012774D01*
X010850Y012693D01*
X010979Y012608D01*
X011107Y012520D01*
X011231Y012429D01*
X011354Y012335D01*
X011474Y012237D01*
X011591Y012137D01*
X011706Y012033D01*
X011818Y011927D01*
X011927Y011818D01*
X012033Y011706D01*
X012137Y011591D01*
X012237Y011474D01*
X012335Y011354D01*
X012429Y011231D01*
X012520Y011107D01*
X012608Y010979D01*
X012693Y010850D01*
X012774Y010719D01*
X012852Y010585D01*
X012926Y010450D01*
X012997Y010313D01*
X013064Y010173D01*
X013128Y010033D01*
X013188Y009890D01*
X013244Y009747D01*
X013297Y009601D01*
X013346Y009455D01*
X013391Y009307D01*
X013432Y009158D01*
X013470Y009008D01*
X013503Y008857D01*
X013533Y008706D01*
X013559Y008553D01*
X013580Y008400D01*
X013598Y008247D01*
X013612Y008093D01*
X013622Y007939D01*
X013628Y007784D01*
X013630Y007630D01*
X013628Y007476D01*
X013622Y007321D01*
X013612Y007167D01*
X013598Y007013D01*
X013580Y006860D01*
X013559Y006707D01*
X013533Y006554D01*
X013503Y006403D01*
X013470Y006252D01*
X013432Y006102D01*
X013391Y005953D01*
X013346Y005805D01*
X013297Y005659D01*
X013244Y005513D01*
X013188Y005370D01*
X013128Y005227D01*
X013064Y005087D01*
X012997Y004947D01*
X012926Y004810D01*
X012852Y004675D01*
X012774Y004541D01*
X012693Y004410D01*
X012608Y004281D01*
X012520Y004153D01*
X012429Y004029D01*
X012335Y003906D01*
X012237Y003786D01*
X012137Y003669D01*
X012033Y003554D01*
X011927Y003442D01*
X011818Y003333D01*
X011706Y003227D01*
X011591Y003123D01*
X011474Y003023D01*
X011354Y002925D01*
X011231Y002831D01*
X011107Y002740D01*
X010979Y002652D01*
X010850Y002567D01*
X010719Y002486D01*
X010585Y002408D01*
X010450Y002334D01*
X010313Y002263D01*
X010173Y002196D01*
X010033Y002132D01*
X009890Y002072D01*
X009747Y002016D01*
X009601Y001963D01*
X009455Y001914D01*
X009307Y001869D01*
X009158Y001828D01*
X009008Y001790D01*
X008857Y001757D01*
X008706Y001727D01*
X008553Y001701D01*
X008400Y001680D01*
X008247Y001662D01*
X008093Y001648D01*
X007939Y001638D01*
X007784Y001632D01*
X007630Y001630D01*
X007476Y001632D01*
X007321Y001638D01*
X007167Y001648D01*
X007013Y001662D01*
X006860Y001680D01*
X006707Y001701D01*
X006554Y001727D01*
X006403Y001757D01*
X006252Y001790D01*
X006102Y001828D01*
X005953Y001869D01*
X005805Y001914D01*
X005659Y001963D01*
X005513Y002016D01*
X005370Y002072D01*
X005227Y002132D01*
X005087Y002196D01*
X004947Y002263D01*
X004810Y002334D01*
X004675Y002408D01*
X004541Y002486D01*
X004410Y002567D01*
X004281Y002652D01*
X004153Y002740D01*
X004029Y002831D01*
X003906Y002925D01*
X003786Y003023D01*
X003669Y003123D01*
X003554Y003227D01*
X003442Y003333D01*
X003333Y003442D01*
X003227Y003554D01*
X003123Y003669D01*
X003023Y003786D01*
X002925Y003906D01*
X002831Y004029D01*
X002740Y004153D01*
X002652Y004281D01*
X002567Y004410D01*
X002486Y004541D01*
X002408Y004675D01*
X002334Y004810D01*
X002263Y004947D01*
X002196Y005087D01*
X002132Y005227D01*
X002072Y005370D01*
X002016Y005513D01*
X001963Y005659D01*
X001914Y005805D01*
X001869Y005953D01*
X001828Y006102D01*
X001790Y006252D01*
X001757Y006403D01*
X001727Y006554D01*
X001701Y006707D01*
X001680Y006860D01*
X001662Y007013D01*
X001648Y007167D01*
X001638Y007321D01*
X001632Y007476D01*
X001630Y007630D01*
X001365Y007630D02*
X001367Y007788D01*
X001373Y007946D01*
X001383Y008104D01*
X001397Y008261D01*
X001415Y008418D01*
X001437Y008575D01*
X001462Y008731D01*
X001492Y008886D01*
X001526Y009041D01*
X001563Y009194D01*
X001605Y009347D01*
X001650Y009498D01*
X001699Y009648D01*
X001752Y009797D01*
X001808Y009945D01*
X001869Y010091D01*
X001933Y010236D01*
X002000Y010379D01*
X002071Y010520D01*
X002146Y010659D01*
X002224Y010797D01*
X002306Y010932D01*
X002391Y011065D01*
X002479Y011196D01*
X002571Y011325D01*
X002666Y011452D01*
X002764Y011576D01*
X002865Y011697D01*
X002969Y011816D01*
X003076Y011932D01*
X003186Y012046D01*
X003299Y012157D01*
X003414Y012265D01*
X003533Y012369D01*
X003654Y012471D01*
X003777Y012570D01*
X003903Y012666D01*
X004031Y012758D01*
X004162Y012847D01*
X004294Y012933D01*
X004429Y013016D01*
X004566Y013095D01*
X004705Y013170D01*
X004846Y013242D01*
X004988Y013311D01*
X005132Y013376D01*
X005278Y013437D01*
X005425Y013494D01*
X005574Y013548D01*
X005724Y013598D01*
X005875Y013644D01*
X006028Y013687D01*
X006181Y013725D01*
X006335Y013760D01*
X006490Y013790D01*
X006646Y013817D01*
X006802Y013840D01*
X006959Y013859D01*
X007117Y013874D01*
X007274Y013885D01*
X007432Y013892D01*
X007590Y013895D01*
X007749Y013894D01*
X007907Y013889D01*
X008064Y013880D01*
X008222Y013867D01*
X008379Y013850D01*
X008536Y013829D01*
X008692Y013804D01*
X008847Y013776D01*
X009002Y013743D01*
X009156Y013706D01*
X009309Y013666D01*
X009460Y013622D01*
X009611Y013574D01*
X009760Y013522D01*
X009908Y013466D01*
X010055Y013407D01*
X010200Y013344D01*
X010343Y013277D01*
X010485Y013207D01*
X010625Y013133D01*
X010762Y013056D01*
X010898Y012975D01*
X011032Y012891D01*
X011164Y012803D01*
X011293Y012712D01*
X011420Y012618D01*
X011545Y012521D01*
X011667Y012421D01*
X011787Y012317D01*
X011904Y012211D01*
X012018Y012102D01*
X012129Y011990D01*
X012238Y011875D01*
X012344Y011757D01*
X012446Y011637D01*
X012546Y011514D01*
X012642Y011389D01*
X012735Y011261D01*
X012825Y011131D01*
X012912Y010999D01*
X012995Y010865D01*
X013075Y010728D01*
X013152Y010590D01*
X013225Y010450D01*
X013294Y010308D01*
X013360Y010164D01*
X013422Y010018D01*
X013480Y009871D01*
X013535Y009723D01*
X013586Y009574D01*
X013633Y009423D01*
X013676Y009271D01*
X013716Y009118D01*
X013751Y008963D01*
X013783Y008809D01*
X013811Y008653D01*
X013835Y008497D01*
X013855Y008340D01*
X013871Y008183D01*
X013883Y008025D01*
X013891Y007867D01*
X013895Y007709D01*
X013895Y007551D01*
X013891Y007393D01*
X013883Y007235D01*
X013871Y007077D01*
X013855Y006920D01*
X013835Y006763D01*
X013811Y006607D01*
X013783Y006451D01*
X013751Y006297D01*
X013716Y006142D01*
X013676Y005989D01*
X013633Y005837D01*
X013586Y005686D01*
X013535Y005537D01*
X013480Y005389D01*
X013422Y005242D01*
X013360Y005096D01*
X013294Y004952D01*
X013225Y004810D01*
X013152Y004670D01*
X013075Y004532D01*
X012995Y004395D01*
X012912Y004261D01*
X012825Y004129D01*
X012735Y003999D01*
X012642Y003871D01*
X012546Y003746D01*
X012446Y003623D01*
X012344Y003503D01*
X012238Y003385D01*
X012129Y003270D01*
X012018Y003158D01*
X011904Y003049D01*
X011787Y002943D01*
X011667Y002839D01*
X011545Y002739D01*
X011420Y002642D01*
X011293Y002548D01*
X011164Y002457D01*
X011032Y002369D01*
X010898Y002285D01*
X010763Y002204D01*
X010625Y002127D01*
X010485Y002053D01*
X010343Y001983D01*
X010200Y001916D01*
X010055Y001853D01*
X009908Y001794D01*
X009760Y001738D01*
X009611Y001686D01*
X009460Y001638D01*
X009309Y001594D01*
X009156Y001554D01*
X009002Y001517D01*
X008847Y001484D01*
X008692Y001456D01*
X008536Y001431D01*
X008379Y001410D01*
X008222Y001393D01*
X008064Y001380D01*
X007907Y001371D01*
X007749Y001366D01*
X007590Y001365D01*
X007432Y001368D01*
X007274Y001375D01*
X007117Y001386D01*
X006959Y001401D01*
X006802Y001420D01*
X006646Y001443D01*
X006490Y001470D01*
X006335Y001500D01*
X006181Y001535D01*
X006028Y001573D01*
X005875Y001616D01*
X005724Y001662D01*
X005574Y001712D01*
X005425Y001766D01*
X005278Y001823D01*
X005132Y001884D01*
X004988Y001949D01*
X004846Y002018D01*
X004705Y002090D01*
X004566Y002165D01*
X004429Y002244D01*
X004294Y002327D01*
X004162Y002413D01*
X004031Y002502D01*
X003903Y002594D01*
X003777Y002690D01*
X003654Y002789D01*
X003533Y002891D01*
X003414Y002995D01*
X003299Y003103D01*
X003186Y003214D01*
X003076Y003328D01*
X002969Y003444D01*
X002865Y003563D01*
X002764Y003684D01*
X002666Y003808D01*
X002571Y003935D01*
X002479Y004064D01*
X002391Y004195D01*
X002306Y004328D01*
X002224Y004463D01*
X002146Y004601D01*
X002071Y004740D01*
X002000Y004881D01*
X001933Y005024D01*
X001869Y005169D01*
X001808Y005315D01*
X001752Y005463D01*
X001699Y005612D01*
X001650Y005762D01*
X001605Y005913D01*
X001563Y006066D01*
X001526Y006219D01*
X001492Y006374D01*
X001462Y006529D01*
X001437Y006685D01*
X001415Y006842D01*
X001397Y006999D01*
X001383Y007156D01*
X001373Y007314D01*
X001367Y007472D01*
X001365Y007630D01*
D12*
X005830Y013130D02*
X005832Y013214D01*
X005838Y013299D01*
X005848Y013382D01*
X005862Y013466D01*
X005879Y013548D01*
X005901Y013630D01*
X005926Y013710D01*
X005955Y013789D01*
X005988Y013867D01*
X006024Y013943D01*
X006064Y014018D01*
X006108Y014090D01*
X006154Y014161D01*
X006204Y014229D01*
X006257Y014294D01*
X006313Y014357D01*
X006372Y014418D01*
X006434Y014475D01*
X006498Y014530D01*
X006565Y014581D01*
X006634Y014630D01*
X006706Y014675D01*
X006779Y014716D01*
X006854Y014754D01*
X006931Y014789D01*
X007010Y014820D01*
X007090Y014847D01*
X007171Y014870D01*
X007253Y014890D01*
X007336Y014906D01*
X007419Y014918D01*
X007504Y014926D01*
X007588Y014930D01*
X007672Y014930D01*
X007756Y014926D01*
X007841Y014918D01*
X007924Y014906D01*
X008007Y014890D01*
X008089Y014870D01*
X008170Y014847D01*
X008250Y014820D01*
X008329Y014789D01*
X008406Y014754D01*
X008481Y014716D01*
X008554Y014675D01*
X008626Y014630D01*
X008695Y014581D01*
X008762Y014530D01*
X008826Y014475D01*
X008888Y014418D01*
X008947Y014357D01*
X009003Y014294D01*
X009056Y014229D01*
X009106Y014161D01*
X009152Y014090D01*
X009196Y014018D01*
X009236Y013943D01*
X009272Y013867D01*
X009305Y013789D01*
X009334Y013710D01*
X009359Y013630D01*
X009381Y013548D01*
X009398Y013466D01*
X009412Y013382D01*
X009422Y013299D01*
X009428Y013214D01*
X009430Y013130D01*
X009428Y013046D01*
X009422Y012961D01*
X009412Y012878D01*
X009398Y012794D01*
X009381Y012712D01*
X009359Y012630D01*
X009334Y012550D01*
X009305Y012471D01*
X009272Y012393D01*
X009236Y012317D01*
X009196Y012242D01*
X009152Y012170D01*
X009106Y012099D01*
X009056Y012031D01*
X009003Y011966D01*
X008947Y011903D01*
X008888Y011842D01*
X008826Y011785D01*
X008762Y011730D01*
X008695Y011679D01*
X008626Y011630D01*
X008554Y011585D01*
X008481Y011544D01*
X008406Y011506D01*
X008329Y011471D01*
X008250Y011440D01*
X008170Y011413D01*
X008089Y011390D01*
X008007Y011370D01*
X007924Y011354D01*
X007841Y011342D01*
X007756Y011334D01*
X007672Y011330D01*
X007588Y011330D01*
X007504Y011334D01*
X007419Y011342D01*
X007336Y011354D01*
X007253Y011370D01*
X007171Y011390D01*
X007090Y011413D01*
X007010Y011440D01*
X006931Y011471D01*
X006854Y011506D01*
X006779Y011544D01*
X006706Y011585D01*
X006634Y011630D01*
X006565Y011679D01*
X006498Y011730D01*
X006434Y011785D01*
X006372Y011842D01*
X006313Y011903D01*
X006257Y011966D01*
X006204Y012031D01*
X006154Y012099D01*
X006108Y012170D01*
X006064Y012242D01*
X006024Y012317D01*
X005988Y012393D01*
X005955Y012471D01*
X005926Y012550D01*
X005901Y012630D01*
X005879Y012712D01*
X005862Y012794D01*
X005848Y012878D01*
X005838Y012961D01*
X005832Y013046D01*
X005830Y013130D01*
D13*
X006430Y013130D02*
X006432Y013199D01*
X006438Y013268D01*
X006448Y013336D01*
X006462Y013404D01*
X006479Y013471D01*
X006501Y013537D01*
X006526Y013601D01*
X006555Y013664D01*
X006588Y013725D01*
X006624Y013784D01*
X006663Y013841D01*
X006706Y013895D01*
X006751Y013947D01*
X006800Y013997D01*
X006851Y014043D01*
X006905Y014086D01*
X006962Y014127D01*
X007020Y014163D01*
X007081Y014197D01*
X007143Y014227D01*
X007207Y014253D01*
X007272Y014275D01*
X007339Y014294D01*
X007407Y014309D01*
X007475Y014320D01*
X007544Y014327D01*
X007613Y014330D01*
X007682Y014329D01*
X007751Y014324D01*
X007819Y014315D01*
X007887Y014302D01*
X007954Y014285D01*
X008021Y014265D01*
X008085Y014240D01*
X008148Y014212D01*
X008210Y014181D01*
X008269Y014145D01*
X008327Y014107D01*
X008382Y014065D01*
X008435Y014020D01*
X008485Y013972D01*
X008532Y013922D01*
X008576Y013868D01*
X008617Y013813D01*
X008655Y013755D01*
X008689Y013695D01*
X008720Y013633D01*
X008747Y013569D01*
X008770Y013504D01*
X008790Y013438D01*
X008806Y013370D01*
X008818Y013302D01*
X008826Y013234D01*
X008830Y013165D01*
X008830Y013095D01*
X008826Y013026D01*
X008818Y012958D01*
X008806Y012890D01*
X008790Y012822D01*
X008770Y012756D01*
X008747Y012691D01*
X008720Y012627D01*
X008689Y012565D01*
X008655Y012505D01*
X008617Y012447D01*
X008576Y012392D01*
X008532Y012338D01*
X008485Y012288D01*
X008435Y012240D01*
X008382Y012195D01*
X008327Y012153D01*
X008269Y012115D01*
X008210Y012079D01*
X008148Y012048D01*
X008085Y012020D01*
X008021Y011995D01*
X007954Y011975D01*
X007887Y011958D01*
X007819Y011945D01*
X007751Y011936D01*
X007682Y011931D01*
X007613Y011930D01*
X007544Y011933D01*
X007475Y011940D01*
X007407Y011951D01*
X007339Y011966D01*
X007272Y011985D01*
X007207Y012007D01*
X007143Y012033D01*
X007081Y012063D01*
X007020Y012097D01*
X006962Y012133D01*
X006905Y012174D01*
X006851Y012217D01*
X006800Y012263D01*
X006751Y012313D01*
X006706Y012365D01*
X006663Y012419D01*
X006624Y012476D01*
X006588Y012535D01*
X006555Y012596D01*
X006526Y012659D01*
X006501Y012723D01*
X006479Y012789D01*
X006462Y012856D01*
X006448Y012924D01*
X006438Y012992D01*
X006432Y013061D01*
X006430Y013130D01*
D14*
X006130Y013130D02*
X006132Y013207D01*
X006138Y013284D01*
X006148Y013361D01*
X006162Y013437D01*
X006179Y013512D01*
X006201Y013586D01*
X006226Y013659D01*
X006256Y013731D01*
X006288Y013801D01*
X006325Y013869D01*
X006364Y013935D01*
X006407Y013999D01*
X006454Y014061D01*
X006503Y014120D01*
X006556Y014177D01*
X006611Y014231D01*
X006669Y014282D01*
X006730Y014330D01*
X006793Y014375D01*
X006858Y014416D01*
X006925Y014454D01*
X006994Y014489D01*
X007065Y014519D01*
X007137Y014547D01*
X007211Y014570D01*
X007285Y014590D01*
X007361Y014606D01*
X007437Y014618D01*
X007514Y014626D01*
X007591Y014630D01*
X007669Y014630D01*
X007746Y014626D01*
X007823Y014618D01*
X007899Y014606D01*
X007975Y014590D01*
X008049Y014570D01*
X008123Y014547D01*
X008195Y014519D01*
X008266Y014489D01*
X008335Y014454D01*
X008402Y014416D01*
X008467Y014375D01*
X008530Y014330D01*
X008591Y014282D01*
X008649Y014231D01*
X008704Y014177D01*
X008757Y014120D01*
X008806Y014061D01*
X008853Y013999D01*
X008896Y013935D01*
X008935Y013869D01*
X008972Y013801D01*
X009004Y013731D01*
X009034Y013659D01*
X009059Y013586D01*
X009081Y013512D01*
X009098Y013437D01*
X009112Y013361D01*
X009122Y013284D01*
X009128Y013207D01*
X009130Y013130D01*
X009128Y013053D01*
X009122Y012976D01*
X009112Y012899D01*
X009098Y012823D01*
X009081Y012748D01*
X009059Y012674D01*
X009034Y012601D01*
X009004Y012529D01*
X008972Y012459D01*
X008935Y012391D01*
X008896Y012325D01*
X008853Y012261D01*
X008806Y012199D01*
X008757Y012140D01*
X008704Y012083D01*
X008649Y012029D01*
X008591Y011978D01*
X008530Y011930D01*
X008467Y011885D01*
X008402Y011844D01*
X008335Y011806D01*
X008266Y011771D01*
X008195Y011741D01*
X008123Y011713D01*
X008049Y011690D01*
X007975Y011670D01*
X007899Y011654D01*
X007823Y011642D01*
X007746Y011634D01*
X007669Y011630D01*
X007591Y011630D01*
X007514Y011634D01*
X007437Y011642D01*
X007361Y011654D01*
X007285Y011670D01*
X007211Y011690D01*
X007137Y011713D01*
X007065Y011741D01*
X006994Y011771D01*
X006925Y011806D01*
X006858Y011844D01*
X006793Y011885D01*
X006730Y011930D01*
X006669Y011978D01*
X006611Y012029D01*
X006556Y012083D01*
X006503Y012140D01*
X006454Y012199D01*
X006407Y012261D01*
X006364Y012325D01*
X006325Y012391D01*
X006288Y012459D01*
X006256Y012529D01*
X006226Y012601D01*
X006201Y012674D01*
X006179Y012748D01*
X006162Y012823D01*
X006148Y012899D01*
X006138Y012976D01*
X006132Y013053D01*
X006130Y013130D01*
M02*
