G04 #@! TF.FileFunction,Soldermask,Bot*
%FSLAX46Y46*%
G04 Gerber Fmt 4.6, Leading zero omitted, Abs format (unit mm)*
G04 Created by KiCad (PCBNEW 4.0.1-3.201512221402+6198~38~ubuntu14.04.1-stable) date Sun 14 Feb 2016 09:49:56 PM PST*
%MOMM*%
G01*
G04 APERTURE LIST*
%ADD10C,0.100000*%
%ADD11O,1.924000X2.940000*%
%ADD12C,3.575000*%
%ADD13R,2.432000X2.127200*%
%ADD14O,2.432000X2.127200*%
%ADD15C,2.398980*%
%ADD16R,2.300000X2.400000*%
%ADD17C,2.300000*%
%ADD18R,2.432000X2.432000*%
%ADD19O,2.432000X2.432000*%
%ADD20C,2.100000*%
%ADD21R,2.127200X2.432000*%
%ADD22O,2.127200X2.432000*%
G04 APERTURE END LIST*
D10*
D11*
X151130000Y-115570000D03*
X148590000Y-115570000D03*
X146050000Y-115570000D03*
X138430000Y-115570000D03*
X140970000Y-115570000D03*
X143510000Y-115570000D03*
X133350000Y-115570000D03*
X130810000Y-115570000D03*
X128270000Y-115570000D03*
X123190000Y-115570000D03*
X120650000Y-115570000D03*
X151130000Y-67310000D03*
X148590000Y-67310000D03*
X146050000Y-67310000D03*
X143510000Y-67310000D03*
X140970000Y-67310000D03*
X138430000Y-67310000D03*
X135890000Y-67310000D03*
X133350000Y-67310000D03*
X129286000Y-67310000D03*
X126746000Y-67310000D03*
X124206000Y-67310000D03*
X121666000Y-67310000D03*
X119126000Y-67310000D03*
X116586000Y-67310000D03*
X114046000Y-67310000D03*
X111506000Y-67310000D03*
X125730000Y-115570000D03*
D12*
X153670000Y-110490000D03*
X153670000Y-82550000D03*
X102870000Y-67310000D03*
X101600000Y-115570000D03*
D11*
X108966000Y-67310000D03*
X106426000Y-67310000D03*
X118110000Y-115570000D03*
X115570000Y-115570000D03*
D13*
X125793500Y-80073500D03*
D14*
X125793500Y-82613500D03*
X125793500Y-85153500D03*
X125793500Y-87693500D03*
X125793500Y-90233500D03*
X125793500Y-92773500D03*
X125793500Y-95313500D03*
D15*
X110871000Y-101346000D03*
X118491000Y-101346000D03*
X110871000Y-105981500D03*
X118491000Y-105981500D03*
X103505000Y-82740500D03*
X103505000Y-75120500D03*
X98679000Y-82867500D03*
X98679000Y-75247500D03*
D16*
X92456000Y-110236000D03*
D17*
X94996000Y-110236000D03*
D16*
X100076000Y-109728000D03*
D17*
X102616000Y-109728000D03*
D13*
X90932000Y-76200000D03*
D14*
X90932000Y-81280000D03*
X90932000Y-86360000D03*
D18*
X95504000Y-68072000D03*
D19*
X92964000Y-68072000D03*
D20*
X130968000Y-107124000D03*
X124968000Y-107124000D03*
X130968000Y-103124000D03*
X124968000Y-103124000D03*
D21*
X91440000Y-102870000D03*
D22*
X96139000Y-102870000D03*
X100838000Y-102870000D03*
M02*
