M48
;DRILL file {KiCad 4.0.1-3.201512221402+6198~38~ubuntu14.04.1-stable} date Fri 19 Feb 2016 11:58:27 AM PST
;FORMAT={-:-/ absolute / inch / decimal}
FMAT,2
INCH,TZ
T1C0.013
T2C0.039
T3C0.039
T4C0.040
T5C0.124
T6C0.125
%
G90
G05
M72
T1
X4.46Y-3.57
X5.25Y-3.45
X5.55Y-4.1
X5.57Y-4.32
X5.7Y-2.95
T2
X4.95Y-4.05
X4.95Y-4.2075
X5.1862Y-4.05
X5.1862Y-4.2075
T3
X3.64Y-4.34
X3.74Y-4.34
X3.885Y-2.9625
X3.885Y-3.2625
X3.94Y-4.32
X4.04Y-4.32
X4.075Y-2.9575
X4.075Y-3.2575
X4.365Y-3.99
X4.365Y-4.1725
X4.665Y-3.99
X4.665Y-4.1725
T4
X3.58Y-3.
X3.58Y-3.2
X3.58Y-3.4
X3.6Y-4.05
X3.66Y-2.68
X3.76Y-2.68
X3.785Y-4.05
X3.97Y-4.05
X4.19Y-2.65
X4.29Y-2.65
X4.39Y-2.65
X4.49Y-2.65
X4.55Y-4.55
X4.59Y-2.65
X4.65Y-4.55
X4.69Y-2.65
X4.75Y-4.55
X4.79Y-2.65
X4.85Y-4.55
X4.89Y-2.65
X4.95Y-4.55
X4.9525Y-3.1525
X4.9525Y-3.2525
X4.9525Y-3.3525
X4.9525Y-3.4525
X4.9525Y-3.5525
X4.9525Y-3.6525
X4.9525Y-3.7525
X4.99Y-2.65
X5.05Y-4.55
X5.09Y-2.65
X5.15Y-4.55
X5.25Y-2.65
X5.25Y-4.55
X5.35Y-2.65
X5.45Y-2.65
X5.45Y-4.55
X5.55Y-2.65
X5.55Y-4.55
X5.65Y-2.65
X5.65Y-4.55
X5.75Y-2.65
X5.75Y-4.55
X5.85Y-2.65
X5.85Y-4.55
X5.95Y-2.65
X5.95Y-4.55
T5
X4.3175Y-3.7175
X4.8275Y-3.0475
T6
X4.Y-4.55
X4.05Y-2.65
X6.05Y-3.25
X6.05Y-4.35
T0
M30
