G04 #@! TF.FileFunction,Copper,L2,Bot,Signal*
%FSLAX46Y46*%
G04 Gerber Fmt 4.6, Leading zero omitted, Abs format (unit mm)*
G04 Created by KiCad (PCBNEW 4.0.1-3.201512221402+6198~38~ubuntu14.04.1-stable) date Fri 19 Feb 2016 11:58:25 AM PST*
%MOMM*%
G01*
G04 APERTURE LIST*
%ADD10C,0.100000*%
%ADD11O,1.524000X2.540000*%
%ADD12R,2.032000X1.727200*%
%ADD13O,2.032000X1.727200*%
%ADD14C,1.998980*%
%ADD15R,1.900000X2.000000*%
%ADD16C,1.900000*%
%ADD17R,2.032000X2.032000*%
%ADD18O,2.032000X2.032000*%
%ADD19R,1.727200X2.032000*%
%ADD20O,1.727200X2.032000*%
%ADD21C,1.700000*%
%ADD22C,0.685800*%
%ADD23C,0.508000*%
%ADD24C,0.330200*%
%ADD25C,0.254000*%
G04 APERTURE END LIST*
D10*
D11*
X151130000Y-115570000D03*
X148590000Y-115570000D03*
X146050000Y-115570000D03*
X138430000Y-115570000D03*
X140970000Y-115570000D03*
X143510000Y-115570000D03*
X133350000Y-115570000D03*
X130810000Y-115570000D03*
X128270000Y-115570000D03*
X123190000Y-115570000D03*
X120650000Y-115570000D03*
X151130000Y-67310000D03*
X148590000Y-67310000D03*
X146050000Y-67310000D03*
X143510000Y-67310000D03*
X140970000Y-67310000D03*
X138430000Y-67310000D03*
X135890000Y-67310000D03*
X133350000Y-67310000D03*
X129286000Y-67310000D03*
X126746000Y-67310000D03*
X124206000Y-67310000D03*
X121666000Y-67310000D03*
X119126000Y-67310000D03*
X116586000Y-67310000D03*
X114046000Y-67310000D03*
X111506000Y-67310000D03*
X125730000Y-115570000D03*
X108966000Y-67310000D03*
X106426000Y-67310000D03*
X118110000Y-115570000D03*
X115570000Y-115570000D03*
D12*
X125793500Y-80073500D03*
D13*
X125793500Y-82613500D03*
X125793500Y-85153500D03*
X125793500Y-87693500D03*
X125793500Y-90233500D03*
X125793500Y-92773500D03*
X125793500Y-95313500D03*
D14*
X110871000Y-101346000D03*
X118491000Y-101346000D03*
X110871000Y-105981500D03*
X118491000Y-105981500D03*
X103505000Y-82740500D03*
X103505000Y-75120500D03*
X98679000Y-82867500D03*
X98679000Y-75247500D03*
D15*
X92456000Y-110236000D03*
D16*
X94996000Y-110236000D03*
D15*
X100076000Y-109728000D03*
D16*
X102616000Y-109728000D03*
D12*
X90932000Y-76200000D03*
D13*
X90932000Y-81280000D03*
X90932000Y-86360000D03*
D17*
X95504000Y-68072000D03*
D18*
X92964000Y-68072000D03*
D19*
X91440000Y-102870000D03*
D20*
X96139000Y-102870000D03*
X100838000Y-102870000D03*
D21*
X131730000Y-106870000D03*
X125730000Y-106870000D03*
X131730000Y-102870000D03*
X125730000Y-102870000D03*
D22*
X113284000Y-90678000D03*
X141478000Y-109728000D03*
X140970000Y-104140000D03*
X144780000Y-74930000D03*
X133350000Y-87630000D03*
D23*
X113284000Y-90678000D02*
X123698000Y-101346000D01*
X123698000Y-101346000D02*
X128016000Y-101346000D01*
X128016000Y-101346000D02*
X128270000Y-101600000D01*
X128270000Y-101600000D02*
X128270000Y-109220000D01*
X128270000Y-109220000D02*
X125730000Y-111760000D01*
X125730000Y-111760000D02*
X125730000Y-115570000D01*
X141478000Y-109728000D02*
X147320000Y-109728000D01*
X147320000Y-109728000D02*
X148590000Y-110998000D01*
X148590000Y-110998000D02*
X148590000Y-115570000D01*
X123190000Y-102870000D02*
X120650000Y-105410000D01*
X120650000Y-105410000D02*
X120650000Y-107442000D01*
X125730000Y-102870000D02*
X123190000Y-102870000D01*
X120650000Y-115570000D02*
X120650000Y-107442000D01*
X97536000Y-80518000D02*
X101282500Y-80518000D01*
X98552000Y-105156000D02*
X98298000Y-105410000D01*
X98298000Y-105410000D02*
X90424000Y-105410000D01*
X90424000Y-105410000D02*
X89408000Y-104394000D01*
X89408000Y-104394000D02*
X89408000Y-92964000D01*
X89408000Y-92964000D02*
X96266000Y-86106000D01*
X96266000Y-86106000D02*
X96266000Y-81534000D01*
X96266000Y-81534000D02*
X97282000Y-80518000D01*
X97282000Y-80518000D02*
X97536000Y-80518000D01*
X100838000Y-102870000D02*
X98552000Y-105156000D01*
X101282500Y-80518000D02*
X103505000Y-82740500D01*
X124460000Y-71120000D02*
X110490000Y-71120000D01*
X126746000Y-68834000D02*
X124460000Y-71120000D01*
X126746000Y-67310000D02*
X126746000Y-68834000D01*
X106680000Y-79565500D02*
X103505000Y-82740500D01*
X106680000Y-74930000D02*
X106680000Y-79565500D01*
X110490000Y-71120000D02*
X106680000Y-74930000D01*
X98806000Y-86106000D02*
X98806000Y-82994500D01*
X98806000Y-82994500D02*
X98679000Y-82867500D01*
X129286000Y-67310000D02*
X129286000Y-68834000D01*
X99314000Y-86106000D02*
X98806000Y-86106000D01*
X104140000Y-86106000D02*
X99314000Y-86106000D01*
X108458000Y-81788000D02*
X104140000Y-86106000D01*
X108458000Y-75692000D02*
X108458000Y-81788000D01*
X111506000Y-72644000D02*
X108458000Y-75692000D01*
X125476000Y-72644000D02*
X111506000Y-72644000D01*
X129286000Y-68834000D02*
X125476000Y-72644000D01*
X98806000Y-86106000D02*
X98679000Y-86741000D01*
X91440000Y-93980000D02*
X97790000Y-87630000D01*
X91440000Y-93980000D02*
X91440000Y-102870000D01*
X98679000Y-86741000D02*
X97790000Y-87630000D01*
X90932000Y-81280000D02*
X91440000Y-81280000D01*
X91440000Y-81280000D02*
X95504000Y-77216000D01*
X95504000Y-77216000D02*
X95504000Y-68072000D01*
D24*
X140627101Y-103797101D02*
X140970000Y-104140000D01*
X137414000Y-100584000D02*
X140627101Y-103797101D01*
X124714000Y-100584000D02*
X137414000Y-100584000D01*
X124460000Y-100330000D02*
X124714000Y-100584000D01*
X124040890Y-99910890D02*
X124460000Y-100330000D01*
X116840000Y-92710000D02*
X124040890Y-99910890D01*
X116840000Y-76200000D02*
X116840000Y-92710000D01*
X119380000Y-73660000D02*
X116840000Y-76200000D01*
X125907800Y-73660000D02*
X119380000Y-73660000D01*
X133350000Y-67310000D02*
X132257800Y-67310000D01*
X132257800Y-67310000D02*
X125907800Y-73660000D01*
X138430000Y-67310000D02*
X138430000Y-68580000D01*
X138430000Y-68580000D02*
X139700000Y-69850000D01*
X139700000Y-69850000D02*
X143510000Y-69850000D01*
X143510000Y-69850000D02*
X144780000Y-71120000D01*
X144780000Y-71120000D02*
X144780000Y-74930000D01*
X135890000Y-67310000D02*
X135890000Y-71120000D01*
X130810000Y-85090000D02*
X133350000Y-87630000D01*
X130810000Y-76200000D02*
X130810000Y-85090000D01*
X135890000Y-71120000D02*
X130810000Y-76200000D01*
D25*
G36*
X100986955Y-66049411D02*
X100647887Y-66865978D01*
X100647115Y-67750143D01*
X100984758Y-68567300D01*
X101609411Y-69193045D01*
X102425978Y-69532113D01*
X103310143Y-69532885D01*
X104127300Y-69195242D01*
X104753045Y-68570589D01*
X105035818Y-67889596D01*
X105135340Y-68389930D01*
X105438172Y-68843149D01*
X105891391Y-69145981D01*
X106426000Y-69252321D01*
X106960609Y-69145981D01*
X107413828Y-68843149D01*
X107696000Y-68420850D01*
X107978172Y-68843149D01*
X108431391Y-69145981D01*
X108966000Y-69252321D01*
X109500609Y-69145981D01*
X109953828Y-68843149D01*
X110236000Y-68420850D01*
X110518172Y-68843149D01*
X110971391Y-69145981D01*
X111506000Y-69252321D01*
X112040609Y-69145981D01*
X112493828Y-68843149D01*
X112785330Y-68406887D01*
X112803941Y-68469941D01*
X113147974Y-68895630D01*
X113628723Y-69157260D01*
X113702930Y-69172220D01*
X113919000Y-69049720D01*
X113919000Y-67437000D01*
X113899000Y-67437000D01*
X113899000Y-67183000D01*
X113919000Y-67183000D01*
X113919000Y-67163000D01*
X114173000Y-67163000D01*
X114173000Y-67183000D01*
X114193000Y-67183000D01*
X114193000Y-67437000D01*
X114173000Y-67437000D01*
X114173000Y-69049720D01*
X114389070Y-69172220D01*
X114463277Y-69157260D01*
X114944026Y-68895630D01*
X115288059Y-68469941D01*
X115306670Y-68406887D01*
X115598172Y-68843149D01*
X116051391Y-69145981D01*
X116586000Y-69252321D01*
X117120609Y-69145981D01*
X117573828Y-68843149D01*
X117856000Y-68420850D01*
X118138172Y-68843149D01*
X118591391Y-69145981D01*
X119126000Y-69252321D01*
X119660609Y-69145981D01*
X120113828Y-68843149D01*
X120396000Y-68420850D01*
X120678172Y-68843149D01*
X121131391Y-69145981D01*
X121666000Y-69252321D01*
X122200609Y-69145981D01*
X122653828Y-68843149D01*
X122936000Y-68420850D01*
X123218172Y-68843149D01*
X123671391Y-69145981D01*
X124206000Y-69252321D01*
X124740609Y-69145981D01*
X125193828Y-68843149D01*
X125476000Y-68420850D01*
X125646598Y-68676166D01*
X124091764Y-70231000D01*
X110490000Y-70231000D01*
X110149795Y-70298670D01*
X109861382Y-70491382D01*
X106051382Y-74301382D01*
X105858671Y-74589794D01*
X105791000Y-74930000D01*
X105791000Y-79197264D01*
X103867176Y-81121088D01*
X103831547Y-81106294D01*
X103181306Y-81105726D01*
X103143205Y-81121469D01*
X101911118Y-79889382D01*
X101622706Y-79696671D01*
X101282500Y-79629000D01*
X97282000Y-79629000D01*
X96941794Y-79696671D01*
X96653382Y-79889382D01*
X95637382Y-80905382D01*
X95444671Y-81193794D01*
X95377000Y-81534000D01*
X95377000Y-85737764D01*
X88779382Y-92335382D01*
X88586671Y-92623794D01*
X88519000Y-92964000D01*
X88519000Y-104394000D01*
X88586671Y-104734206D01*
X88724245Y-104940100D01*
X88779382Y-105022618D01*
X89795382Y-106038618D01*
X90083794Y-106231329D01*
X90424000Y-106299000D01*
X98298000Y-106299000D01*
X98638206Y-106231329D01*
X98926618Y-106038618D01*
X100482587Y-104482649D01*
X100838000Y-104553345D01*
X101411489Y-104439271D01*
X101897670Y-104114415D01*
X102222526Y-103628234D01*
X102336600Y-103054745D01*
X102336600Y-102685255D01*
X102222526Y-102111766D01*
X101927143Y-101669694D01*
X109236226Y-101669694D01*
X109484538Y-102270655D01*
X109943927Y-102730846D01*
X110544453Y-102980206D01*
X111194694Y-102980774D01*
X111795655Y-102732462D01*
X112030363Y-102498163D01*
X117518443Y-102498163D01*
X117617042Y-102764965D01*
X118226582Y-102991401D01*
X118876377Y-102967341D01*
X119364958Y-102764965D01*
X119463557Y-102498163D01*
X118491000Y-101525605D01*
X117518443Y-102498163D01*
X112030363Y-102498163D01*
X112255846Y-102273073D01*
X112505206Y-101672547D01*
X112505722Y-101081582D01*
X116845599Y-101081582D01*
X116869659Y-101731377D01*
X117072035Y-102219958D01*
X117338837Y-102318557D01*
X118311395Y-101346000D01*
X118670605Y-101346000D01*
X119643163Y-102318557D01*
X119909965Y-102219958D01*
X120136401Y-101610418D01*
X120112341Y-100960623D01*
X119909965Y-100472042D01*
X119643163Y-100373443D01*
X118670605Y-101346000D01*
X118311395Y-101346000D01*
X117338837Y-100373443D01*
X117072035Y-100472042D01*
X116845599Y-101081582D01*
X112505722Y-101081582D01*
X112505774Y-101022306D01*
X112257462Y-100421345D01*
X112030351Y-100193837D01*
X117518443Y-100193837D01*
X118491000Y-101166395D01*
X119463557Y-100193837D01*
X119364958Y-99927035D01*
X118755418Y-99700599D01*
X118105623Y-99724659D01*
X117617042Y-99927035D01*
X117518443Y-100193837D01*
X112030351Y-100193837D01*
X111798073Y-99961154D01*
X111197547Y-99711794D01*
X110547306Y-99711226D01*
X109946345Y-99959538D01*
X109486154Y-100418927D01*
X109236794Y-101019453D01*
X109236226Y-101669694D01*
X101927143Y-101669694D01*
X101897670Y-101625585D01*
X101411489Y-101300729D01*
X100838000Y-101186655D01*
X100264511Y-101300729D01*
X99778330Y-101625585D01*
X99453474Y-102111766D01*
X99339400Y-102685255D01*
X99339400Y-103054745D01*
X99348794Y-103101970D01*
X97929764Y-104521000D01*
X96301609Y-104521000D01*
X96712489Y-104439271D01*
X97198670Y-104114415D01*
X97523526Y-103628234D01*
X97637600Y-103054745D01*
X97637600Y-102685255D01*
X97523526Y-102111766D01*
X97198670Y-101625585D01*
X96712489Y-101300729D01*
X96139000Y-101186655D01*
X95565511Y-101300729D01*
X95079330Y-101625585D01*
X94754474Y-102111766D01*
X94640400Y-102685255D01*
X94640400Y-103054745D01*
X94754474Y-103628234D01*
X95079330Y-104114415D01*
X95565511Y-104439271D01*
X95976391Y-104521000D01*
X92369713Y-104521000D01*
X92538917Y-104489162D01*
X92755041Y-104350090D01*
X92900031Y-104137890D01*
X92951040Y-103886000D01*
X92951040Y-101854000D01*
X92906762Y-101618683D01*
X92767690Y-101402559D01*
X92555490Y-101257569D01*
X92329000Y-101211704D01*
X92329000Y-94862128D01*
X107454317Y-94862128D01*
X107790030Y-95674616D01*
X108411114Y-96296785D01*
X109223015Y-96633916D01*
X110102128Y-96634683D01*
X110914616Y-96298970D01*
X111536785Y-95677886D01*
X111873916Y-94865985D01*
X111874683Y-93986872D01*
X111538970Y-93174384D01*
X110917886Y-92552215D01*
X110105985Y-92215084D01*
X109226872Y-92214317D01*
X108414384Y-92550030D01*
X107792215Y-93171114D01*
X107455084Y-93983015D01*
X107454317Y-94862128D01*
X92329000Y-94862128D01*
X92329000Y-94348236D01*
X99307618Y-87369618D01*
X99356007Y-87297198D01*
X99417659Y-87235675D01*
X99451427Y-87154392D01*
X99500329Y-87081205D01*
X99517321Y-86995779D01*
X99517645Y-86995000D01*
X104140000Y-86995000D01*
X104480206Y-86927329D01*
X104768618Y-86734618D01*
X109086618Y-82416618D01*
X109138033Y-82339670D01*
X109279329Y-82128206D01*
X109347000Y-81788000D01*
X109347000Y-76060236D01*
X111874236Y-73533000D01*
X118375488Y-73533000D01*
X116274244Y-75634244D01*
X116100804Y-75893815D01*
X116039900Y-76200000D01*
X116039900Y-92228457D01*
X114206852Y-90350701D01*
X114113507Y-90124788D01*
X113838659Y-89849460D01*
X113479370Y-89700270D01*
X113090337Y-89699931D01*
X112730788Y-89848493D01*
X112455460Y-90123341D01*
X112306270Y-90482630D01*
X112305931Y-90871663D01*
X112454493Y-91231212D01*
X112729341Y-91506540D01*
X112933013Y-91591112D01*
X123061854Y-101966999D01*
X123066352Y-101970084D01*
X123069382Y-101974618D01*
X123104412Y-101998024D01*
X122849794Y-102048671D01*
X122561382Y-102241382D01*
X120021382Y-104781382D01*
X119828671Y-105069794D01*
X119827243Y-105076971D01*
X119643163Y-105008943D01*
X118670605Y-105981500D01*
X119643163Y-106954057D01*
X119761000Y-106910509D01*
X119761000Y-113970816D01*
X119662172Y-114036851D01*
X119380000Y-114459150D01*
X119097828Y-114036851D01*
X118644609Y-113734019D01*
X118110000Y-113627679D01*
X117575391Y-113734019D01*
X117122172Y-114036851D01*
X116840000Y-114459150D01*
X116557828Y-114036851D01*
X116104609Y-113734019D01*
X115570000Y-113627679D01*
X115035391Y-113734019D01*
X114582172Y-114036851D01*
X114279340Y-114490070D01*
X114173000Y-115024679D01*
X114173000Y-116115321D01*
X114279340Y-116649930D01*
X114582172Y-117103149D01*
X115026440Y-117400000D01*
X102912639Y-117400000D01*
X103483045Y-116830589D01*
X103822113Y-116014022D01*
X103822885Y-115129857D01*
X103485242Y-114312700D01*
X102860589Y-113686955D01*
X102044022Y-113347887D01*
X101159857Y-113347115D01*
X100342700Y-113684758D01*
X99716955Y-114309411D01*
X99377887Y-115125978D01*
X99377115Y-116010143D01*
X99714758Y-116827300D01*
X100286459Y-117400000D01*
X88340000Y-117400000D01*
X88340000Y-109236000D01*
X90858560Y-109236000D01*
X90858560Y-111236000D01*
X90902838Y-111471317D01*
X91041910Y-111687441D01*
X91254110Y-111832431D01*
X91506000Y-111883440D01*
X93406000Y-111883440D01*
X93641317Y-111839162D01*
X93857441Y-111700090D01*
X94002431Y-111487890D01*
X94003055Y-111484808D01*
X94096997Y-111578914D01*
X94679341Y-111820724D01*
X95309893Y-111821275D01*
X95892657Y-111580481D01*
X96338914Y-111135003D01*
X96580724Y-110552659D01*
X96581275Y-109922107D01*
X96340481Y-109339343D01*
X95895003Y-108893086D01*
X95497432Y-108728000D01*
X98478560Y-108728000D01*
X98478560Y-110728000D01*
X98522838Y-110963317D01*
X98661910Y-111179441D01*
X98874110Y-111324431D01*
X99126000Y-111375440D01*
X101026000Y-111375440D01*
X101261317Y-111331162D01*
X101477441Y-111192090D01*
X101622431Y-110979890D01*
X101623055Y-110976808D01*
X101716997Y-111070914D01*
X102299341Y-111312724D01*
X102929893Y-111313275D01*
X103512657Y-111072481D01*
X103958914Y-110627003D01*
X104200724Y-110044659D01*
X104201275Y-109414107D01*
X103960481Y-108831343D01*
X103515003Y-108385086D01*
X102932659Y-108143276D01*
X102302107Y-108142725D01*
X101719343Y-108383519D01*
X101621663Y-108481029D01*
X101490090Y-108276559D01*
X101277890Y-108131569D01*
X101026000Y-108080560D01*
X99126000Y-108080560D01*
X98890683Y-108124838D01*
X98674559Y-108263910D01*
X98529569Y-108476110D01*
X98478560Y-108728000D01*
X95497432Y-108728000D01*
X95312659Y-108651276D01*
X94682107Y-108650725D01*
X94099343Y-108891519D01*
X94001663Y-108989029D01*
X93870090Y-108784559D01*
X93657890Y-108639569D01*
X93406000Y-108588560D01*
X91506000Y-108588560D01*
X91270683Y-108632838D01*
X91054559Y-108771910D01*
X90909569Y-108984110D01*
X90858560Y-109236000D01*
X88340000Y-109236000D01*
X88340000Y-106305194D01*
X109236226Y-106305194D01*
X109484538Y-106906155D01*
X109943927Y-107366346D01*
X110544453Y-107615706D01*
X111194694Y-107616274D01*
X111795655Y-107367962D01*
X112030363Y-107133663D01*
X117518443Y-107133663D01*
X117617042Y-107400465D01*
X118226582Y-107626901D01*
X118876377Y-107602841D01*
X119364958Y-107400465D01*
X119463557Y-107133663D01*
X118491000Y-106161105D01*
X117518443Y-107133663D01*
X112030363Y-107133663D01*
X112255846Y-106908573D01*
X112505206Y-106308047D01*
X112505722Y-105717082D01*
X116845599Y-105717082D01*
X116869659Y-106366877D01*
X117072035Y-106855458D01*
X117338837Y-106954057D01*
X118311395Y-105981500D01*
X117338837Y-105008943D01*
X117072035Y-105107542D01*
X116845599Y-105717082D01*
X112505722Y-105717082D01*
X112505774Y-105657806D01*
X112257462Y-105056845D01*
X112030351Y-104829337D01*
X117518443Y-104829337D01*
X118491000Y-105801895D01*
X119463557Y-104829337D01*
X119364958Y-104562535D01*
X118755418Y-104336099D01*
X118105623Y-104360159D01*
X117617042Y-104562535D01*
X117518443Y-104829337D01*
X112030351Y-104829337D01*
X111798073Y-104596654D01*
X111197547Y-104347294D01*
X110547306Y-104346726D01*
X109946345Y-104595038D01*
X109486154Y-105054427D01*
X109236794Y-105654953D01*
X109236226Y-106305194D01*
X88340000Y-106305194D01*
X88340000Y-86719026D01*
X89324642Y-86719026D01*
X89327291Y-86734791D01*
X89581268Y-87262036D01*
X90017680Y-87651954D01*
X90570087Y-87845184D01*
X90805000Y-87700924D01*
X90805000Y-86487000D01*
X91059000Y-86487000D01*
X91059000Y-87700924D01*
X91293913Y-87845184D01*
X91846320Y-87651954D01*
X92282732Y-87262036D01*
X92536709Y-86734791D01*
X92539358Y-86719026D01*
X92418217Y-86487000D01*
X91059000Y-86487000D01*
X90805000Y-86487000D01*
X89445783Y-86487000D01*
X89324642Y-86719026D01*
X88340000Y-86719026D01*
X88340000Y-86000974D01*
X89324642Y-86000974D01*
X89445783Y-86233000D01*
X90805000Y-86233000D01*
X90805000Y-85019076D01*
X91059000Y-85019076D01*
X91059000Y-86233000D01*
X92418217Y-86233000D01*
X92539358Y-86000974D01*
X92536709Y-85985209D01*
X92282732Y-85457964D01*
X91846320Y-85068046D01*
X91293913Y-84874816D01*
X91059000Y-85019076D01*
X90805000Y-85019076D01*
X90570087Y-84874816D01*
X90017680Y-85068046D01*
X89581268Y-85457964D01*
X89327291Y-85985209D01*
X89324642Y-86000974D01*
X88340000Y-86000974D01*
X88340000Y-81280000D01*
X89248655Y-81280000D01*
X89362729Y-81853489D01*
X89687585Y-82339670D01*
X90173766Y-82664526D01*
X90747255Y-82778600D01*
X91116745Y-82778600D01*
X91690234Y-82664526D01*
X92176415Y-82339670D01*
X92501271Y-81853489D01*
X92595011Y-81382225D01*
X96132618Y-77844618D01*
X96221872Y-77711040D01*
X96325329Y-77556206D01*
X96393000Y-77216000D01*
X96393000Y-76399663D01*
X97706443Y-76399663D01*
X97805042Y-76666465D01*
X98414582Y-76892901D01*
X99064377Y-76868841D01*
X99552958Y-76666465D01*
X99651557Y-76399663D01*
X99524558Y-76272663D01*
X102532443Y-76272663D01*
X102631042Y-76539465D01*
X103240582Y-76765901D01*
X103890377Y-76741841D01*
X104378958Y-76539465D01*
X104477557Y-76272663D01*
X103505000Y-75300105D01*
X102532443Y-76272663D01*
X99524558Y-76272663D01*
X98679000Y-75427105D01*
X97706443Y-76399663D01*
X96393000Y-76399663D01*
X96393000Y-74983082D01*
X97033599Y-74983082D01*
X97057659Y-75632877D01*
X97260035Y-76121458D01*
X97526837Y-76220057D01*
X98499395Y-75247500D01*
X98858605Y-75247500D01*
X99831163Y-76220057D01*
X100097965Y-76121458D01*
X100324401Y-75511918D01*
X100300341Y-74862123D01*
X100297839Y-74856082D01*
X101859599Y-74856082D01*
X101883659Y-75505877D01*
X102086035Y-75994458D01*
X102352837Y-76093057D01*
X103325395Y-75120500D01*
X103684605Y-75120500D01*
X104657163Y-76093057D01*
X104923965Y-75994458D01*
X105150401Y-75384918D01*
X105126341Y-74735123D01*
X104923965Y-74246542D01*
X104657163Y-74147943D01*
X103684605Y-75120500D01*
X103325395Y-75120500D01*
X102352837Y-74147943D01*
X102086035Y-74246542D01*
X101859599Y-74856082D01*
X100297839Y-74856082D01*
X100097965Y-74373542D01*
X99831163Y-74274943D01*
X98858605Y-75247500D01*
X98499395Y-75247500D01*
X97526837Y-74274943D01*
X97260035Y-74373542D01*
X97033599Y-74983082D01*
X96393000Y-74983082D01*
X96393000Y-74095337D01*
X97706443Y-74095337D01*
X98679000Y-75067895D01*
X99651557Y-74095337D01*
X99604624Y-73968337D01*
X102532443Y-73968337D01*
X103505000Y-74940895D01*
X104477557Y-73968337D01*
X104378958Y-73701535D01*
X103769418Y-73475099D01*
X103119623Y-73499159D01*
X102631042Y-73701535D01*
X102532443Y-73968337D01*
X99604624Y-73968337D01*
X99552958Y-73828535D01*
X98943418Y-73602099D01*
X98293623Y-73626159D01*
X97805042Y-73828535D01*
X97706443Y-74095337D01*
X96393000Y-74095337D01*
X96393000Y-69735440D01*
X96520000Y-69735440D01*
X96755317Y-69691162D01*
X96971441Y-69552090D01*
X97116431Y-69339890D01*
X97167440Y-69088000D01*
X97167440Y-67056000D01*
X97123162Y-66820683D01*
X96984090Y-66604559D01*
X96771890Y-66459569D01*
X96520000Y-66408560D01*
X94488000Y-66408560D01*
X94252683Y-66452838D01*
X94036559Y-66591910D01*
X93925160Y-66754948D01*
X93828818Y-66665615D01*
X93346944Y-66466025D01*
X93091000Y-66585164D01*
X93091000Y-67945000D01*
X93111000Y-67945000D01*
X93111000Y-68199000D01*
X93091000Y-68199000D01*
X93091000Y-69558836D01*
X93346944Y-69677975D01*
X93828818Y-69478385D01*
X93926398Y-69387903D01*
X94023910Y-69539441D01*
X94236110Y-69684431D01*
X94488000Y-69735440D01*
X94615000Y-69735440D01*
X94615000Y-76847764D01*
X91587688Y-79875076D01*
X91116745Y-79781400D01*
X90747255Y-79781400D01*
X90173766Y-79895474D01*
X89687585Y-80220330D01*
X89362729Y-80706511D01*
X89248655Y-81280000D01*
X88340000Y-81280000D01*
X88340000Y-75336400D01*
X89268560Y-75336400D01*
X89268560Y-77063600D01*
X89312838Y-77298917D01*
X89451910Y-77515041D01*
X89664110Y-77660031D01*
X89916000Y-77711040D01*
X91948000Y-77711040D01*
X92183317Y-77666762D01*
X92399441Y-77527690D01*
X92544431Y-77315490D01*
X92595440Y-77063600D01*
X92595440Y-75336400D01*
X92551162Y-75101083D01*
X92412090Y-74884959D01*
X92199890Y-74739969D01*
X91948000Y-74688960D01*
X89916000Y-74688960D01*
X89680683Y-74733238D01*
X89464559Y-74872310D01*
X89319569Y-75084510D01*
X89268560Y-75336400D01*
X88340000Y-75336400D01*
X88340000Y-68454946D01*
X91358017Y-68454946D01*
X91626812Y-69040379D01*
X92099182Y-69478385D01*
X92581056Y-69677975D01*
X92837000Y-69558836D01*
X92837000Y-68199000D01*
X91476633Y-68199000D01*
X91358017Y-68454946D01*
X88340000Y-68454946D01*
X88340000Y-67689054D01*
X91358017Y-67689054D01*
X91476633Y-67945000D01*
X92837000Y-67945000D01*
X92837000Y-66585164D01*
X92581056Y-66466025D01*
X92099182Y-66665615D01*
X91626812Y-67103621D01*
X91358017Y-67689054D01*
X88340000Y-67689054D01*
X88340000Y-65480000D01*
X101557361Y-65480000D01*
X100986955Y-66049411D01*
X100986955Y-66049411D01*
G37*
X100986955Y-66049411D02*
X100647887Y-66865978D01*
X100647115Y-67750143D01*
X100984758Y-68567300D01*
X101609411Y-69193045D01*
X102425978Y-69532113D01*
X103310143Y-69532885D01*
X104127300Y-69195242D01*
X104753045Y-68570589D01*
X105035818Y-67889596D01*
X105135340Y-68389930D01*
X105438172Y-68843149D01*
X105891391Y-69145981D01*
X106426000Y-69252321D01*
X106960609Y-69145981D01*
X107413828Y-68843149D01*
X107696000Y-68420850D01*
X107978172Y-68843149D01*
X108431391Y-69145981D01*
X108966000Y-69252321D01*
X109500609Y-69145981D01*
X109953828Y-68843149D01*
X110236000Y-68420850D01*
X110518172Y-68843149D01*
X110971391Y-69145981D01*
X111506000Y-69252321D01*
X112040609Y-69145981D01*
X112493828Y-68843149D01*
X112785330Y-68406887D01*
X112803941Y-68469941D01*
X113147974Y-68895630D01*
X113628723Y-69157260D01*
X113702930Y-69172220D01*
X113919000Y-69049720D01*
X113919000Y-67437000D01*
X113899000Y-67437000D01*
X113899000Y-67183000D01*
X113919000Y-67183000D01*
X113919000Y-67163000D01*
X114173000Y-67163000D01*
X114173000Y-67183000D01*
X114193000Y-67183000D01*
X114193000Y-67437000D01*
X114173000Y-67437000D01*
X114173000Y-69049720D01*
X114389070Y-69172220D01*
X114463277Y-69157260D01*
X114944026Y-68895630D01*
X115288059Y-68469941D01*
X115306670Y-68406887D01*
X115598172Y-68843149D01*
X116051391Y-69145981D01*
X116586000Y-69252321D01*
X117120609Y-69145981D01*
X117573828Y-68843149D01*
X117856000Y-68420850D01*
X118138172Y-68843149D01*
X118591391Y-69145981D01*
X119126000Y-69252321D01*
X119660609Y-69145981D01*
X120113828Y-68843149D01*
X120396000Y-68420850D01*
X120678172Y-68843149D01*
X121131391Y-69145981D01*
X121666000Y-69252321D01*
X122200609Y-69145981D01*
X122653828Y-68843149D01*
X122936000Y-68420850D01*
X123218172Y-68843149D01*
X123671391Y-69145981D01*
X124206000Y-69252321D01*
X124740609Y-69145981D01*
X125193828Y-68843149D01*
X125476000Y-68420850D01*
X125646598Y-68676166D01*
X124091764Y-70231000D01*
X110490000Y-70231000D01*
X110149795Y-70298670D01*
X109861382Y-70491382D01*
X106051382Y-74301382D01*
X105858671Y-74589794D01*
X105791000Y-74930000D01*
X105791000Y-79197264D01*
X103867176Y-81121088D01*
X103831547Y-81106294D01*
X103181306Y-81105726D01*
X103143205Y-81121469D01*
X101911118Y-79889382D01*
X101622706Y-79696671D01*
X101282500Y-79629000D01*
X97282000Y-79629000D01*
X96941794Y-79696671D01*
X96653382Y-79889382D01*
X95637382Y-80905382D01*
X95444671Y-81193794D01*
X95377000Y-81534000D01*
X95377000Y-85737764D01*
X88779382Y-92335382D01*
X88586671Y-92623794D01*
X88519000Y-92964000D01*
X88519000Y-104394000D01*
X88586671Y-104734206D01*
X88724245Y-104940100D01*
X88779382Y-105022618D01*
X89795382Y-106038618D01*
X90083794Y-106231329D01*
X90424000Y-106299000D01*
X98298000Y-106299000D01*
X98638206Y-106231329D01*
X98926618Y-106038618D01*
X100482587Y-104482649D01*
X100838000Y-104553345D01*
X101411489Y-104439271D01*
X101897670Y-104114415D01*
X102222526Y-103628234D01*
X102336600Y-103054745D01*
X102336600Y-102685255D01*
X102222526Y-102111766D01*
X101927143Y-101669694D01*
X109236226Y-101669694D01*
X109484538Y-102270655D01*
X109943927Y-102730846D01*
X110544453Y-102980206D01*
X111194694Y-102980774D01*
X111795655Y-102732462D01*
X112030363Y-102498163D01*
X117518443Y-102498163D01*
X117617042Y-102764965D01*
X118226582Y-102991401D01*
X118876377Y-102967341D01*
X119364958Y-102764965D01*
X119463557Y-102498163D01*
X118491000Y-101525605D01*
X117518443Y-102498163D01*
X112030363Y-102498163D01*
X112255846Y-102273073D01*
X112505206Y-101672547D01*
X112505722Y-101081582D01*
X116845599Y-101081582D01*
X116869659Y-101731377D01*
X117072035Y-102219958D01*
X117338837Y-102318557D01*
X118311395Y-101346000D01*
X118670605Y-101346000D01*
X119643163Y-102318557D01*
X119909965Y-102219958D01*
X120136401Y-101610418D01*
X120112341Y-100960623D01*
X119909965Y-100472042D01*
X119643163Y-100373443D01*
X118670605Y-101346000D01*
X118311395Y-101346000D01*
X117338837Y-100373443D01*
X117072035Y-100472042D01*
X116845599Y-101081582D01*
X112505722Y-101081582D01*
X112505774Y-101022306D01*
X112257462Y-100421345D01*
X112030351Y-100193837D01*
X117518443Y-100193837D01*
X118491000Y-101166395D01*
X119463557Y-100193837D01*
X119364958Y-99927035D01*
X118755418Y-99700599D01*
X118105623Y-99724659D01*
X117617042Y-99927035D01*
X117518443Y-100193837D01*
X112030351Y-100193837D01*
X111798073Y-99961154D01*
X111197547Y-99711794D01*
X110547306Y-99711226D01*
X109946345Y-99959538D01*
X109486154Y-100418927D01*
X109236794Y-101019453D01*
X109236226Y-101669694D01*
X101927143Y-101669694D01*
X101897670Y-101625585D01*
X101411489Y-101300729D01*
X100838000Y-101186655D01*
X100264511Y-101300729D01*
X99778330Y-101625585D01*
X99453474Y-102111766D01*
X99339400Y-102685255D01*
X99339400Y-103054745D01*
X99348794Y-103101970D01*
X97929764Y-104521000D01*
X96301609Y-104521000D01*
X96712489Y-104439271D01*
X97198670Y-104114415D01*
X97523526Y-103628234D01*
X97637600Y-103054745D01*
X97637600Y-102685255D01*
X97523526Y-102111766D01*
X97198670Y-101625585D01*
X96712489Y-101300729D01*
X96139000Y-101186655D01*
X95565511Y-101300729D01*
X95079330Y-101625585D01*
X94754474Y-102111766D01*
X94640400Y-102685255D01*
X94640400Y-103054745D01*
X94754474Y-103628234D01*
X95079330Y-104114415D01*
X95565511Y-104439271D01*
X95976391Y-104521000D01*
X92369713Y-104521000D01*
X92538917Y-104489162D01*
X92755041Y-104350090D01*
X92900031Y-104137890D01*
X92951040Y-103886000D01*
X92951040Y-101854000D01*
X92906762Y-101618683D01*
X92767690Y-101402559D01*
X92555490Y-101257569D01*
X92329000Y-101211704D01*
X92329000Y-94862128D01*
X107454317Y-94862128D01*
X107790030Y-95674616D01*
X108411114Y-96296785D01*
X109223015Y-96633916D01*
X110102128Y-96634683D01*
X110914616Y-96298970D01*
X111536785Y-95677886D01*
X111873916Y-94865985D01*
X111874683Y-93986872D01*
X111538970Y-93174384D01*
X110917886Y-92552215D01*
X110105985Y-92215084D01*
X109226872Y-92214317D01*
X108414384Y-92550030D01*
X107792215Y-93171114D01*
X107455084Y-93983015D01*
X107454317Y-94862128D01*
X92329000Y-94862128D01*
X92329000Y-94348236D01*
X99307618Y-87369618D01*
X99356007Y-87297198D01*
X99417659Y-87235675D01*
X99451427Y-87154392D01*
X99500329Y-87081205D01*
X99517321Y-86995779D01*
X99517645Y-86995000D01*
X104140000Y-86995000D01*
X104480206Y-86927329D01*
X104768618Y-86734618D01*
X109086618Y-82416618D01*
X109138033Y-82339670D01*
X109279329Y-82128206D01*
X109347000Y-81788000D01*
X109347000Y-76060236D01*
X111874236Y-73533000D01*
X118375488Y-73533000D01*
X116274244Y-75634244D01*
X116100804Y-75893815D01*
X116039900Y-76200000D01*
X116039900Y-92228457D01*
X114206852Y-90350701D01*
X114113507Y-90124788D01*
X113838659Y-89849460D01*
X113479370Y-89700270D01*
X113090337Y-89699931D01*
X112730788Y-89848493D01*
X112455460Y-90123341D01*
X112306270Y-90482630D01*
X112305931Y-90871663D01*
X112454493Y-91231212D01*
X112729341Y-91506540D01*
X112933013Y-91591112D01*
X123061854Y-101966999D01*
X123066352Y-101970084D01*
X123069382Y-101974618D01*
X123104412Y-101998024D01*
X122849794Y-102048671D01*
X122561382Y-102241382D01*
X120021382Y-104781382D01*
X119828671Y-105069794D01*
X119827243Y-105076971D01*
X119643163Y-105008943D01*
X118670605Y-105981500D01*
X119643163Y-106954057D01*
X119761000Y-106910509D01*
X119761000Y-113970816D01*
X119662172Y-114036851D01*
X119380000Y-114459150D01*
X119097828Y-114036851D01*
X118644609Y-113734019D01*
X118110000Y-113627679D01*
X117575391Y-113734019D01*
X117122172Y-114036851D01*
X116840000Y-114459150D01*
X116557828Y-114036851D01*
X116104609Y-113734019D01*
X115570000Y-113627679D01*
X115035391Y-113734019D01*
X114582172Y-114036851D01*
X114279340Y-114490070D01*
X114173000Y-115024679D01*
X114173000Y-116115321D01*
X114279340Y-116649930D01*
X114582172Y-117103149D01*
X115026440Y-117400000D01*
X102912639Y-117400000D01*
X103483045Y-116830589D01*
X103822113Y-116014022D01*
X103822885Y-115129857D01*
X103485242Y-114312700D01*
X102860589Y-113686955D01*
X102044022Y-113347887D01*
X101159857Y-113347115D01*
X100342700Y-113684758D01*
X99716955Y-114309411D01*
X99377887Y-115125978D01*
X99377115Y-116010143D01*
X99714758Y-116827300D01*
X100286459Y-117400000D01*
X88340000Y-117400000D01*
X88340000Y-109236000D01*
X90858560Y-109236000D01*
X90858560Y-111236000D01*
X90902838Y-111471317D01*
X91041910Y-111687441D01*
X91254110Y-111832431D01*
X91506000Y-111883440D01*
X93406000Y-111883440D01*
X93641317Y-111839162D01*
X93857441Y-111700090D01*
X94002431Y-111487890D01*
X94003055Y-111484808D01*
X94096997Y-111578914D01*
X94679341Y-111820724D01*
X95309893Y-111821275D01*
X95892657Y-111580481D01*
X96338914Y-111135003D01*
X96580724Y-110552659D01*
X96581275Y-109922107D01*
X96340481Y-109339343D01*
X95895003Y-108893086D01*
X95497432Y-108728000D01*
X98478560Y-108728000D01*
X98478560Y-110728000D01*
X98522838Y-110963317D01*
X98661910Y-111179441D01*
X98874110Y-111324431D01*
X99126000Y-111375440D01*
X101026000Y-111375440D01*
X101261317Y-111331162D01*
X101477441Y-111192090D01*
X101622431Y-110979890D01*
X101623055Y-110976808D01*
X101716997Y-111070914D01*
X102299341Y-111312724D01*
X102929893Y-111313275D01*
X103512657Y-111072481D01*
X103958914Y-110627003D01*
X104200724Y-110044659D01*
X104201275Y-109414107D01*
X103960481Y-108831343D01*
X103515003Y-108385086D01*
X102932659Y-108143276D01*
X102302107Y-108142725D01*
X101719343Y-108383519D01*
X101621663Y-108481029D01*
X101490090Y-108276559D01*
X101277890Y-108131569D01*
X101026000Y-108080560D01*
X99126000Y-108080560D01*
X98890683Y-108124838D01*
X98674559Y-108263910D01*
X98529569Y-108476110D01*
X98478560Y-108728000D01*
X95497432Y-108728000D01*
X95312659Y-108651276D01*
X94682107Y-108650725D01*
X94099343Y-108891519D01*
X94001663Y-108989029D01*
X93870090Y-108784559D01*
X93657890Y-108639569D01*
X93406000Y-108588560D01*
X91506000Y-108588560D01*
X91270683Y-108632838D01*
X91054559Y-108771910D01*
X90909569Y-108984110D01*
X90858560Y-109236000D01*
X88340000Y-109236000D01*
X88340000Y-106305194D01*
X109236226Y-106305194D01*
X109484538Y-106906155D01*
X109943927Y-107366346D01*
X110544453Y-107615706D01*
X111194694Y-107616274D01*
X111795655Y-107367962D01*
X112030363Y-107133663D01*
X117518443Y-107133663D01*
X117617042Y-107400465D01*
X118226582Y-107626901D01*
X118876377Y-107602841D01*
X119364958Y-107400465D01*
X119463557Y-107133663D01*
X118491000Y-106161105D01*
X117518443Y-107133663D01*
X112030363Y-107133663D01*
X112255846Y-106908573D01*
X112505206Y-106308047D01*
X112505722Y-105717082D01*
X116845599Y-105717082D01*
X116869659Y-106366877D01*
X117072035Y-106855458D01*
X117338837Y-106954057D01*
X118311395Y-105981500D01*
X117338837Y-105008943D01*
X117072035Y-105107542D01*
X116845599Y-105717082D01*
X112505722Y-105717082D01*
X112505774Y-105657806D01*
X112257462Y-105056845D01*
X112030351Y-104829337D01*
X117518443Y-104829337D01*
X118491000Y-105801895D01*
X119463557Y-104829337D01*
X119364958Y-104562535D01*
X118755418Y-104336099D01*
X118105623Y-104360159D01*
X117617042Y-104562535D01*
X117518443Y-104829337D01*
X112030351Y-104829337D01*
X111798073Y-104596654D01*
X111197547Y-104347294D01*
X110547306Y-104346726D01*
X109946345Y-104595038D01*
X109486154Y-105054427D01*
X109236794Y-105654953D01*
X109236226Y-106305194D01*
X88340000Y-106305194D01*
X88340000Y-86719026D01*
X89324642Y-86719026D01*
X89327291Y-86734791D01*
X89581268Y-87262036D01*
X90017680Y-87651954D01*
X90570087Y-87845184D01*
X90805000Y-87700924D01*
X90805000Y-86487000D01*
X91059000Y-86487000D01*
X91059000Y-87700924D01*
X91293913Y-87845184D01*
X91846320Y-87651954D01*
X92282732Y-87262036D01*
X92536709Y-86734791D01*
X92539358Y-86719026D01*
X92418217Y-86487000D01*
X91059000Y-86487000D01*
X90805000Y-86487000D01*
X89445783Y-86487000D01*
X89324642Y-86719026D01*
X88340000Y-86719026D01*
X88340000Y-86000974D01*
X89324642Y-86000974D01*
X89445783Y-86233000D01*
X90805000Y-86233000D01*
X90805000Y-85019076D01*
X91059000Y-85019076D01*
X91059000Y-86233000D01*
X92418217Y-86233000D01*
X92539358Y-86000974D01*
X92536709Y-85985209D01*
X92282732Y-85457964D01*
X91846320Y-85068046D01*
X91293913Y-84874816D01*
X91059000Y-85019076D01*
X90805000Y-85019076D01*
X90570087Y-84874816D01*
X90017680Y-85068046D01*
X89581268Y-85457964D01*
X89327291Y-85985209D01*
X89324642Y-86000974D01*
X88340000Y-86000974D01*
X88340000Y-81280000D01*
X89248655Y-81280000D01*
X89362729Y-81853489D01*
X89687585Y-82339670D01*
X90173766Y-82664526D01*
X90747255Y-82778600D01*
X91116745Y-82778600D01*
X91690234Y-82664526D01*
X92176415Y-82339670D01*
X92501271Y-81853489D01*
X92595011Y-81382225D01*
X96132618Y-77844618D01*
X96221872Y-77711040D01*
X96325329Y-77556206D01*
X96393000Y-77216000D01*
X96393000Y-76399663D01*
X97706443Y-76399663D01*
X97805042Y-76666465D01*
X98414582Y-76892901D01*
X99064377Y-76868841D01*
X99552958Y-76666465D01*
X99651557Y-76399663D01*
X99524558Y-76272663D01*
X102532443Y-76272663D01*
X102631042Y-76539465D01*
X103240582Y-76765901D01*
X103890377Y-76741841D01*
X104378958Y-76539465D01*
X104477557Y-76272663D01*
X103505000Y-75300105D01*
X102532443Y-76272663D01*
X99524558Y-76272663D01*
X98679000Y-75427105D01*
X97706443Y-76399663D01*
X96393000Y-76399663D01*
X96393000Y-74983082D01*
X97033599Y-74983082D01*
X97057659Y-75632877D01*
X97260035Y-76121458D01*
X97526837Y-76220057D01*
X98499395Y-75247500D01*
X98858605Y-75247500D01*
X99831163Y-76220057D01*
X100097965Y-76121458D01*
X100324401Y-75511918D01*
X100300341Y-74862123D01*
X100297839Y-74856082D01*
X101859599Y-74856082D01*
X101883659Y-75505877D01*
X102086035Y-75994458D01*
X102352837Y-76093057D01*
X103325395Y-75120500D01*
X103684605Y-75120500D01*
X104657163Y-76093057D01*
X104923965Y-75994458D01*
X105150401Y-75384918D01*
X105126341Y-74735123D01*
X104923965Y-74246542D01*
X104657163Y-74147943D01*
X103684605Y-75120500D01*
X103325395Y-75120500D01*
X102352837Y-74147943D01*
X102086035Y-74246542D01*
X101859599Y-74856082D01*
X100297839Y-74856082D01*
X100097965Y-74373542D01*
X99831163Y-74274943D01*
X98858605Y-75247500D01*
X98499395Y-75247500D01*
X97526837Y-74274943D01*
X97260035Y-74373542D01*
X97033599Y-74983082D01*
X96393000Y-74983082D01*
X96393000Y-74095337D01*
X97706443Y-74095337D01*
X98679000Y-75067895D01*
X99651557Y-74095337D01*
X99604624Y-73968337D01*
X102532443Y-73968337D01*
X103505000Y-74940895D01*
X104477557Y-73968337D01*
X104378958Y-73701535D01*
X103769418Y-73475099D01*
X103119623Y-73499159D01*
X102631042Y-73701535D01*
X102532443Y-73968337D01*
X99604624Y-73968337D01*
X99552958Y-73828535D01*
X98943418Y-73602099D01*
X98293623Y-73626159D01*
X97805042Y-73828535D01*
X97706443Y-74095337D01*
X96393000Y-74095337D01*
X96393000Y-69735440D01*
X96520000Y-69735440D01*
X96755317Y-69691162D01*
X96971441Y-69552090D01*
X97116431Y-69339890D01*
X97167440Y-69088000D01*
X97167440Y-67056000D01*
X97123162Y-66820683D01*
X96984090Y-66604559D01*
X96771890Y-66459569D01*
X96520000Y-66408560D01*
X94488000Y-66408560D01*
X94252683Y-66452838D01*
X94036559Y-66591910D01*
X93925160Y-66754948D01*
X93828818Y-66665615D01*
X93346944Y-66466025D01*
X93091000Y-66585164D01*
X93091000Y-67945000D01*
X93111000Y-67945000D01*
X93111000Y-68199000D01*
X93091000Y-68199000D01*
X93091000Y-69558836D01*
X93346944Y-69677975D01*
X93828818Y-69478385D01*
X93926398Y-69387903D01*
X94023910Y-69539441D01*
X94236110Y-69684431D01*
X94488000Y-69735440D01*
X94615000Y-69735440D01*
X94615000Y-76847764D01*
X91587688Y-79875076D01*
X91116745Y-79781400D01*
X90747255Y-79781400D01*
X90173766Y-79895474D01*
X89687585Y-80220330D01*
X89362729Y-80706511D01*
X89248655Y-81280000D01*
X88340000Y-81280000D01*
X88340000Y-75336400D01*
X89268560Y-75336400D01*
X89268560Y-77063600D01*
X89312838Y-77298917D01*
X89451910Y-77515041D01*
X89664110Y-77660031D01*
X89916000Y-77711040D01*
X91948000Y-77711040D01*
X92183317Y-77666762D01*
X92399441Y-77527690D01*
X92544431Y-77315490D01*
X92595440Y-77063600D01*
X92595440Y-75336400D01*
X92551162Y-75101083D01*
X92412090Y-74884959D01*
X92199890Y-74739969D01*
X91948000Y-74688960D01*
X89916000Y-74688960D01*
X89680683Y-74733238D01*
X89464559Y-74872310D01*
X89319569Y-75084510D01*
X89268560Y-75336400D01*
X88340000Y-75336400D01*
X88340000Y-68454946D01*
X91358017Y-68454946D01*
X91626812Y-69040379D01*
X92099182Y-69478385D01*
X92581056Y-69677975D01*
X92837000Y-69558836D01*
X92837000Y-68199000D01*
X91476633Y-68199000D01*
X91358017Y-68454946D01*
X88340000Y-68454946D01*
X88340000Y-67689054D01*
X91358017Y-67689054D01*
X91476633Y-67945000D01*
X92837000Y-67945000D01*
X92837000Y-66585164D01*
X92581056Y-66466025D01*
X92099182Y-66665615D01*
X91626812Y-67103621D01*
X91358017Y-67689054D01*
X88340000Y-67689054D01*
X88340000Y-65480000D01*
X101557361Y-65480000D01*
X100986955Y-66049411D01*
G36*
X152960000Y-66334092D02*
X152960000Y-77470000D01*
X153014046Y-77741705D01*
X153167954Y-77972046D01*
X158040000Y-82844092D01*
X158040000Y-110195908D01*
X153167954Y-115067954D01*
X153014046Y-115298295D01*
X152960000Y-115570000D01*
X152960000Y-117400000D01*
X151673560Y-117400000D01*
X152117828Y-117103149D01*
X152420660Y-116649930D01*
X152527000Y-116115321D01*
X152527000Y-115024679D01*
X152420660Y-114490070D01*
X152117828Y-114036851D01*
X151664609Y-113734019D01*
X151130000Y-113627679D01*
X150595391Y-113734019D01*
X150142172Y-114036851D01*
X149860000Y-114459150D01*
X149577828Y-114036851D01*
X149479000Y-113970816D01*
X149479000Y-110998000D01*
X149465503Y-110930143D01*
X151447115Y-110930143D01*
X151784758Y-111747300D01*
X152409411Y-112373045D01*
X153225978Y-112712113D01*
X154110143Y-112712885D01*
X154927300Y-112375242D01*
X155553045Y-111750589D01*
X155892113Y-110934022D01*
X155892885Y-110049857D01*
X155555242Y-109232700D01*
X154930589Y-108606955D01*
X154114022Y-108267887D01*
X153229857Y-108267115D01*
X152412700Y-108604758D01*
X151786955Y-109229411D01*
X151447887Y-110045978D01*
X151447115Y-110930143D01*
X149465503Y-110930143D01*
X149411329Y-110657794D01*
X149218618Y-110369382D01*
X147948618Y-109099382D01*
X147660206Y-108906671D01*
X147320000Y-108839000D01*
X141887055Y-108839000D01*
X141673370Y-108750270D01*
X141284337Y-108749931D01*
X140924788Y-108898493D01*
X140649460Y-109173341D01*
X140500270Y-109532630D01*
X140499931Y-109921663D01*
X140648493Y-110281212D01*
X140923341Y-110556540D01*
X141282630Y-110705730D01*
X141671663Y-110706069D01*
X141887227Y-110617000D01*
X146951764Y-110617000D01*
X147701000Y-111366236D01*
X147701000Y-113970816D01*
X147602172Y-114036851D01*
X147320000Y-114459150D01*
X147037828Y-114036851D01*
X146584609Y-113734019D01*
X146050000Y-113627679D01*
X145515391Y-113734019D01*
X145062172Y-114036851D01*
X144780000Y-114459150D01*
X144497828Y-114036851D01*
X144044609Y-113734019D01*
X143510000Y-113627679D01*
X142975391Y-113734019D01*
X142522172Y-114036851D01*
X142240000Y-114459150D01*
X141957828Y-114036851D01*
X141504609Y-113734019D01*
X140970000Y-113627679D01*
X140435391Y-113734019D01*
X139982172Y-114036851D01*
X139700000Y-114459150D01*
X139417828Y-114036851D01*
X138964609Y-113734019D01*
X138430000Y-113627679D01*
X137895391Y-113734019D01*
X137442172Y-114036851D01*
X137139340Y-114490070D01*
X137033000Y-115024679D01*
X137033000Y-116115321D01*
X137139340Y-116649930D01*
X137442172Y-117103149D01*
X137886440Y-117400000D01*
X133893560Y-117400000D01*
X134337828Y-117103149D01*
X134640660Y-116649930D01*
X134747000Y-116115321D01*
X134747000Y-115024679D01*
X134640660Y-114490070D01*
X134337828Y-114036851D01*
X133884609Y-113734019D01*
X133350000Y-113627679D01*
X132815391Y-113734019D01*
X132362172Y-114036851D01*
X132070670Y-114473113D01*
X132052059Y-114410059D01*
X131708026Y-113984370D01*
X131227277Y-113722740D01*
X131153070Y-113707780D01*
X130937000Y-113830280D01*
X130937000Y-115443000D01*
X130957000Y-115443000D01*
X130957000Y-115697000D01*
X130937000Y-115697000D01*
X130937000Y-115717000D01*
X130683000Y-115717000D01*
X130683000Y-115697000D01*
X128397000Y-115697000D01*
X128397000Y-115717000D01*
X128143000Y-115717000D01*
X128143000Y-115697000D01*
X128123000Y-115697000D01*
X128123000Y-115443000D01*
X128143000Y-115443000D01*
X128143000Y-113830280D01*
X128397000Y-113830280D01*
X128397000Y-115443000D01*
X130683000Y-115443000D01*
X130683000Y-113830280D01*
X130466930Y-113707780D01*
X130392723Y-113722740D01*
X129911974Y-113984370D01*
X129567941Y-114410059D01*
X129540000Y-114504723D01*
X129512059Y-114410059D01*
X129168026Y-113984370D01*
X128687277Y-113722740D01*
X128613070Y-113707780D01*
X128397000Y-113830280D01*
X128143000Y-113830280D01*
X127926930Y-113707780D01*
X127852723Y-113722740D01*
X127371974Y-113984370D01*
X127027941Y-114410059D01*
X127009330Y-114473113D01*
X126717828Y-114036851D01*
X126619000Y-113970816D01*
X126619000Y-112128236D01*
X128898618Y-109848618D01*
X129091329Y-109560206D01*
X129159000Y-109220000D01*
X129159000Y-107164089D01*
X130244743Y-107164089D01*
X130470344Y-107710086D01*
X130887717Y-108128188D01*
X131433319Y-108354742D01*
X132024089Y-108355257D01*
X132570086Y-108129656D01*
X132988188Y-107712283D01*
X133214742Y-107166681D01*
X133215257Y-106575911D01*
X132989656Y-106029914D01*
X132572283Y-105611812D01*
X132026681Y-105385258D01*
X131435911Y-105384743D01*
X130889914Y-105610344D01*
X130471812Y-106027717D01*
X130245258Y-106573319D01*
X130244743Y-107164089D01*
X129159000Y-107164089D01*
X129159000Y-103164089D01*
X130244743Y-103164089D01*
X130470344Y-103710086D01*
X130887717Y-104128188D01*
X131433319Y-104354742D01*
X132024089Y-104355257D01*
X132570086Y-104129656D01*
X132988188Y-103712283D01*
X133214742Y-103166681D01*
X133215257Y-102575911D01*
X132989656Y-102029914D01*
X132572283Y-101611812D01*
X132026681Y-101385258D01*
X131435911Y-101384743D01*
X130889914Y-101610344D01*
X130471812Y-102027717D01*
X130245258Y-102573319D01*
X130244743Y-103164089D01*
X129159000Y-103164089D01*
X129159000Y-101600000D01*
X129116055Y-101384100D01*
X137082588Y-101384100D01*
X139991966Y-104293478D01*
X139991931Y-104333663D01*
X140140493Y-104693212D01*
X140415341Y-104968540D01*
X140774630Y-105117730D01*
X141163663Y-105118069D01*
X141523212Y-104969507D01*
X141798540Y-104694659D01*
X141947730Y-104335370D01*
X141948069Y-103946337D01*
X141799507Y-103586788D01*
X141524659Y-103311460D01*
X141165370Y-103162270D01*
X141123746Y-103162234D01*
X137979756Y-100018244D01*
X137720185Y-99844804D01*
X137414000Y-99783900D01*
X125045412Y-99783900D01*
X120934038Y-95672526D01*
X124186142Y-95672526D01*
X124188791Y-95688291D01*
X124442768Y-96215536D01*
X124879180Y-96605454D01*
X125431587Y-96798684D01*
X125666500Y-96654424D01*
X125666500Y-95440500D01*
X125920500Y-95440500D01*
X125920500Y-96654424D01*
X126155413Y-96798684D01*
X126707820Y-96605454D01*
X127144232Y-96215536D01*
X127398209Y-95688291D01*
X127400858Y-95672526D01*
X127279717Y-95440500D01*
X125920500Y-95440500D01*
X125666500Y-95440500D01*
X124307283Y-95440500D01*
X124186142Y-95672526D01*
X120934038Y-95672526D01*
X117640100Y-92378588D01*
X117640100Y-77844128D01*
X120408317Y-77844128D01*
X120744030Y-78656616D01*
X121365114Y-79278785D01*
X122177015Y-79615916D01*
X123056128Y-79616683D01*
X123868616Y-79280970D01*
X124178264Y-78971862D01*
X124130060Y-79209900D01*
X124130060Y-80937100D01*
X124174338Y-81172417D01*
X124313410Y-81388541D01*
X124525610Y-81533531D01*
X124566939Y-81541900D01*
X124549085Y-81553830D01*
X124224229Y-82040011D01*
X124110155Y-82613500D01*
X124224229Y-83186989D01*
X124549085Y-83673170D01*
X124863866Y-83883500D01*
X124549085Y-84093830D01*
X124224229Y-84580011D01*
X124110155Y-85153500D01*
X124224229Y-85726989D01*
X124549085Y-86213170D01*
X124863866Y-86423500D01*
X124549085Y-86633830D01*
X124224229Y-87120011D01*
X124110155Y-87693500D01*
X124224229Y-88266989D01*
X124549085Y-88753170D01*
X124863866Y-88963500D01*
X124549085Y-89173830D01*
X124224229Y-89660011D01*
X124110155Y-90233500D01*
X124224229Y-90806989D01*
X124549085Y-91293170D01*
X124863866Y-91503500D01*
X124549085Y-91713830D01*
X124224229Y-92200011D01*
X124110155Y-92773500D01*
X124224229Y-93346989D01*
X124549085Y-93833170D01*
X124858569Y-94039961D01*
X124442768Y-94411464D01*
X124188791Y-94938709D01*
X124186142Y-94954474D01*
X124307283Y-95186500D01*
X125666500Y-95186500D01*
X125666500Y-95166500D01*
X125920500Y-95166500D01*
X125920500Y-95186500D01*
X127279717Y-95186500D01*
X127400858Y-94954474D01*
X127398209Y-94938709D01*
X127144232Y-94411464D01*
X126728431Y-94039961D01*
X127037915Y-93833170D01*
X127362771Y-93346989D01*
X127476845Y-92773500D01*
X127362771Y-92200011D01*
X127037915Y-91713830D01*
X126723134Y-91503500D01*
X127037915Y-91293170D01*
X127362771Y-90806989D01*
X127476845Y-90233500D01*
X127362771Y-89660011D01*
X127037915Y-89173830D01*
X126723134Y-88963500D01*
X127037915Y-88753170D01*
X127362771Y-88266989D01*
X127476845Y-87693500D01*
X127362771Y-87120011D01*
X127037915Y-86633830D01*
X126723134Y-86423500D01*
X127037915Y-86213170D01*
X127362771Y-85726989D01*
X127476845Y-85153500D01*
X127362771Y-84580011D01*
X127037915Y-84093830D01*
X126723134Y-83883500D01*
X127037915Y-83673170D01*
X127362771Y-83186989D01*
X127476845Y-82613500D01*
X127362771Y-82040011D01*
X127037915Y-81553830D01*
X127023587Y-81544257D01*
X127044817Y-81540262D01*
X127260941Y-81401190D01*
X127405931Y-81188990D01*
X127456940Y-80937100D01*
X127456940Y-79209900D01*
X127412662Y-78974583D01*
X127273590Y-78758459D01*
X127061390Y-78613469D01*
X126809500Y-78562460D01*
X124777500Y-78562460D01*
X124542183Y-78606738D01*
X124502160Y-78632492D01*
X124827916Y-77847985D01*
X124828683Y-76968872D01*
X124492970Y-76156384D01*
X123871886Y-75534215D01*
X123059985Y-75197084D01*
X122180872Y-75196317D01*
X121368384Y-75532030D01*
X120746215Y-76153114D01*
X120409084Y-76965015D01*
X120408317Y-77844128D01*
X117640100Y-77844128D01*
X117640100Y-76531412D01*
X119711412Y-74460100D01*
X125907800Y-74460100D01*
X126213985Y-74399196D01*
X126473556Y-74225756D01*
X132159493Y-68539819D01*
X132362172Y-68843149D01*
X132815391Y-69145981D01*
X133350000Y-69252321D01*
X133884609Y-69145981D01*
X134337828Y-68843149D01*
X134620000Y-68420850D01*
X134902172Y-68843149D01*
X135089900Y-68968585D01*
X135089900Y-70788588D01*
X130244244Y-75634244D01*
X130070804Y-75893815D01*
X130009900Y-76200000D01*
X130009900Y-85090000D01*
X130070804Y-85396185D01*
X130244244Y-85655756D01*
X132371966Y-87783478D01*
X132371931Y-87823663D01*
X132520493Y-88183212D01*
X132795341Y-88458540D01*
X133154630Y-88607730D01*
X133543663Y-88608069D01*
X133903212Y-88459507D01*
X134178540Y-88184659D01*
X134327730Y-87825370D01*
X134328069Y-87436337D01*
X134179507Y-87076788D01*
X133904659Y-86801460D01*
X133545370Y-86652270D01*
X133503746Y-86652234D01*
X131610100Y-84758588D01*
X131610100Y-82990143D01*
X151447115Y-82990143D01*
X151784758Y-83807300D01*
X152409411Y-84433045D01*
X153225978Y-84772113D01*
X154110143Y-84772885D01*
X154927300Y-84435242D01*
X155553045Y-83810589D01*
X155892113Y-82994022D01*
X155892885Y-82109857D01*
X155555242Y-81292700D01*
X154930589Y-80666955D01*
X154114022Y-80327887D01*
X153229857Y-80327115D01*
X152412700Y-80664758D01*
X151786955Y-81289411D01*
X151447887Y-82105978D01*
X151447115Y-82990143D01*
X131610100Y-82990143D01*
X131610100Y-76531412D01*
X136455756Y-71685756D01*
X136629196Y-71426185D01*
X136690100Y-71120000D01*
X136690100Y-68968585D01*
X136877828Y-68843149D01*
X137160000Y-68420850D01*
X137442172Y-68843149D01*
X137839393Y-69108565D01*
X137864244Y-69145756D01*
X139134244Y-70415756D01*
X139393815Y-70589196D01*
X139700000Y-70650100D01*
X143178588Y-70650100D01*
X143979900Y-71451412D01*
X143979900Y-74346951D01*
X143951460Y-74375341D01*
X143802270Y-74734630D01*
X143801931Y-75123663D01*
X143950493Y-75483212D01*
X144225341Y-75758540D01*
X144584630Y-75907730D01*
X144973663Y-75908069D01*
X145333212Y-75759507D01*
X145608540Y-75484659D01*
X145757730Y-75125370D01*
X145758069Y-74736337D01*
X145609507Y-74376788D01*
X145580100Y-74347330D01*
X145580100Y-71120000D01*
X145519196Y-70813815D01*
X145345756Y-70554244D01*
X144075756Y-69284244D01*
X143909155Y-69172924D01*
X144044609Y-69145981D01*
X144497828Y-68843149D01*
X144780000Y-68420850D01*
X145062172Y-68843149D01*
X145515391Y-69145981D01*
X146050000Y-69252321D01*
X146584609Y-69145981D01*
X147037828Y-68843149D01*
X147320000Y-68420850D01*
X147602172Y-68843149D01*
X148055391Y-69145981D01*
X148590000Y-69252321D01*
X149124609Y-69145981D01*
X149577828Y-68843149D01*
X149860000Y-68420850D01*
X150142172Y-68843149D01*
X150595391Y-69145981D01*
X151130000Y-69252321D01*
X151664609Y-69145981D01*
X152117828Y-68843149D01*
X152420660Y-68389930D01*
X152527000Y-67855321D01*
X152527000Y-66764679D01*
X152420660Y-66230070D01*
X152117828Y-65776851D01*
X151673560Y-65480000D01*
X152105908Y-65480000D01*
X152960000Y-66334092D01*
X152960000Y-66334092D01*
G37*
X152960000Y-66334092D02*
X152960000Y-77470000D01*
X153014046Y-77741705D01*
X153167954Y-77972046D01*
X158040000Y-82844092D01*
X158040000Y-110195908D01*
X153167954Y-115067954D01*
X153014046Y-115298295D01*
X152960000Y-115570000D01*
X152960000Y-117400000D01*
X151673560Y-117400000D01*
X152117828Y-117103149D01*
X152420660Y-116649930D01*
X152527000Y-116115321D01*
X152527000Y-115024679D01*
X152420660Y-114490070D01*
X152117828Y-114036851D01*
X151664609Y-113734019D01*
X151130000Y-113627679D01*
X150595391Y-113734019D01*
X150142172Y-114036851D01*
X149860000Y-114459150D01*
X149577828Y-114036851D01*
X149479000Y-113970816D01*
X149479000Y-110998000D01*
X149465503Y-110930143D01*
X151447115Y-110930143D01*
X151784758Y-111747300D01*
X152409411Y-112373045D01*
X153225978Y-112712113D01*
X154110143Y-112712885D01*
X154927300Y-112375242D01*
X155553045Y-111750589D01*
X155892113Y-110934022D01*
X155892885Y-110049857D01*
X155555242Y-109232700D01*
X154930589Y-108606955D01*
X154114022Y-108267887D01*
X153229857Y-108267115D01*
X152412700Y-108604758D01*
X151786955Y-109229411D01*
X151447887Y-110045978D01*
X151447115Y-110930143D01*
X149465503Y-110930143D01*
X149411329Y-110657794D01*
X149218618Y-110369382D01*
X147948618Y-109099382D01*
X147660206Y-108906671D01*
X147320000Y-108839000D01*
X141887055Y-108839000D01*
X141673370Y-108750270D01*
X141284337Y-108749931D01*
X140924788Y-108898493D01*
X140649460Y-109173341D01*
X140500270Y-109532630D01*
X140499931Y-109921663D01*
X140648493Y-110281212D01*
X140923341Y-110556540D01*
X141282630Y-110705730D01*
X141671663Y-110706069D01*
X141887227Y-110617000D01*
X146951764Y-110617000D01*
X147701000Y-111366236D01*
X147701000Y-113970816D01*
X147602172Y-114036851D01*
X147320000Y-114459150D01*
X147037828Y-114036851D01*
X146584609Y-113734019D01*
X146050000Y-113627679D01*
X145515391Y-113734019D01*
X145062172Y-114036851D01*
X144780000Y-114459150D01*
X144497828Y-114036851D01*
X144044609Y-113734019D01*
X143510000Y-113627679D01*
X142975391Y-113734019D01*
X142522172Y-114036851D01*
X142240000Y-114459150D01*
X141957828Y-114036851D01*
X141504609Y-113734019D01*
X140970000Y-113627679D01*
X140435391Y-113734019D01*
X139982172Y-114036851D01*
X139700000Y-114459150D01*
X139417828Y-114036851D01*
X138964609Y-113734019D01*
X138430000Y-113627679D01*
X137895391Y-113734019D01*
X137442172Y-114036851D01*
X137139340Y-114490070D01*
X137033000Y-115024679D01*
X137033000Y-116115321D01*
X137139340Y-116649930D01*
X137442172Y-117103149D01*
X137886440Y-117400000D01*
X133893560Y-117400000D01*
X134337828Y-117103149D01*
X134640660Y-116649930D01*
X134747000Y-116115321D01*
X134747000Y-115024679D01*
X134640660Y-114490070D01*
X134337828Y-114036851D01*
X133884609Y-113734019D01*
X133350000Y-113627679D01*
X132815391Y-113734019D01*
X132362172Y-114036851D01*
X132070670Y-114473113D01*
X132052059Y-114410059D01*
X131708026Y-113984370D01*
X131227277Y-113722740D01*
X131153070Y-113707780D01*
X130937000Y-113830280D01*
X130937000Y-115443000D01*
X130957000Y-115443000D01*
X130957000Y-115697000D01*
X130937000Y-115697000D01*
X130937000Y-115717000D01*
X130683000Y-115717000D01*
X130683000Y-115697000D01*
X128397000Y-115697000D01*
X128397000Y-115717000D01*
X128143000Y-115717000D01*
X128143000Y-115697000D01*
X128123000Y-115697000D01*
X128123000Y-115443000D01*
X128143000Y-115443000D01*
X128143000Y-113830280D01*
X128397000Y-113830280D01*
X128397000Y-115443000D01*
X130683000Y-115443000D01*
X130683000Y-113830280D01*
X130466930Y-113707780D01*
X130392723Y-113722740D01*
X129911974Y-113984370D01*
X129567941Y-114410059D01*
X129540000Y-114504723D01*
X129512059Y-114410059D01*
X129168026Y-113984370D01*
X128687277Y-113722740D01*
X128613070Y-113707780D01*
X128397000Y-113830280D01*
X128143000Y-113830280D01*
X127926930Y-113707780D01*
X127852723Y-113722740D01*
X127371974Y-113984370D01*
X127027941Y-114410059D01*
X127009330Y-114473113D01*
X126717828Y-114036851D01*
X126619000Y-113970816D01*
X126619000Y-112128236D01*
X128898618Y-109848618D01*
X129091329Y-109560206D01*
X129159000Y-109220000D01*
X129159000Y-107164089D01*
X130244743Y-107164089D01*
X130470344Y-107710086D01*
X130887717Y-108128188D01*
X131433319Y-108354742D01*
X132024089Y-108355257D01*
X132570086Y-108129656D01*
X132988188Y-107712283D01*
X133214742Y-107166681D01*
X133215257Y-106575911D01*
X132989656Y-106029914D01*
X132572283Y-105611812D01*
X132026681Y-105385258D01*
X131435911Y-105384743D01*
X130889914Y-105610344D01*
X130471812Y-106027717D01*
X130245258Y-106573319D01*
X130244743Y-107164089D01*
X129159000Y-107164089D01*
X129159000Y-103164089D01*
X130244743Y-103164089D01*
X130470344Y-103710086D01*
X130887717Y-104128188D01*
X131433319Y-104354742D01*
X132024089Y-104355257D01*
X132570086Y-104129656D01*
X132988188Y-103712283D01*
X133214742Y-103166681D01*
X133215257Y-102575911D01*
X132989656Y-102029914D01*
X132572283Y-101611812D01*
X132026681Y-101385258D01*
X131435911Y-101384743D01*
X130889914Y-101610344D01*
X130471812Y-102027717D01*
X130245258Y-102573319D01*
X130244743Y-103164089D01*
X129159000Y-103164089D01*
X129159000Y-101600000D01*
X129116055Y-101384100D01*
X137082588Y-101384100D01*
X139991966Y-104293478D01*
X139991931Y-104333663D01*
X140140493Y-104693212D01*
X140415341Y-104968540D01*
X140774630Y-105117730D01*
X141163663Y-105118069D01*
X141523212Y-104969507D01*
X141798540Y-104694659D01*
X141947730Y-104335370D01*
X141948069Y-103946337D01*
X141799507Y-103586788D01*
X141524659Y-103311460D01*
X141165370Y-103162270D01*
X141123746Y-103162234D01*
X137979756Y-100018244D01*
X137720185Y-99844804D01*
X137414000Y-99783900D01*
X125045412Y-99783900D01*
X120934038Y-95672526D01*
X124186142Y-95672526D01*
X124188791Y-95688291D01*
X124442768Y-96215536D01*
X124879180Y-96605454D01*
X125431587Y-96798684D01*
X125666500Y-96654424D01*
X125666500Y-95440500D01*
X125920500Y-95440500D01*
X125920500Y-96654424D01*
X126155413Y-96798684D01*
X126707820Y-96605454D01*
X127144232Y-96215536D01*
X127398209Y-95688291D01*
X127400858Y-95672526D01*
X127279717Y-95440500D01*
X125920500Y-95440500D01*
X125666500Y-95440500D01*
X124307283Y-95440500D01*
X124186142Y-95672526D01*
X120934038Y-95672526D01*
X117640100Y-92378588D01*
X117640100Y-77844128D01*
X120408317Y-77844128D01*
X120744030Y-78656616D01*
X121365114Y-79278785D01*
X122177015Y-79615916D01*
X123056128Y-79616683D01*
X123868616Y-79280970D01*
X124178264Y-78971862D01*
X124130060Y-79209900D01*
X124130060Y-80937100D01*
X124174338Y-81172417D01*
X124313410Y-81388541D01*
X124525610Y-81533531D01*
X124566939Y-81541900D01*
X124549085Y-81553830D01*
X124224229Y-82040011D01*
X124110155Y-82613500D01*
X124224229Y-83186989D01*
X124549085Y-83673170D01*
X124863866Y-83883500D01*
X124549085Y-84093830D01*
X124224229Y-84580011D01*
X124110155Y-85153500D01*
X124224229Y-85726989D01*
X124549085Y-86213170D01*
X124863866Y-86423500D01*
X124549085Y-86633830D01*
X124224229Y-87120011D01*
X124110155Y-87693500D01*
X124224229Y-88266989D01*
X124549085Y-88753170D01*
X124863866Y-88963500D01*
X124549085Y-89173830D01*
X124224229Y-89660011D01*
X124110155Y-90233500D01*
X124224229Y-90806989D01*
X124549085Y-91293170D01*
X124863866Y-91503500D01*
X124549085Y-91713830D01*
X124224229Y-92200011D01*
X124110155Y-92773500D01*
X124224229Y-93346989D01*
X124549085Y-93833170D01*
X124858569Y-94039961D01*
X124442768Y-94411464D01*
X124188791Y-94938709D01*
X124186142Y-94954474D01*
X124307283Y-95186500D01*
X125666500Y-95186500D01*
X125666500Y-95166500D01*
X125920500Y-95166500D01*
X125920500Y-95186500D01*
X127279717Y-95186500D01*
X127400858Y-94954474D01*
X127398209Y-94938709D01*
X127144232Y-94411464D01*
X126728431Y-94039961D01*
X127037915Y-93833170D01*
X127362771Y-93346989D01*
X127476845Y-92773500D01*
X127362771Y-92200011D01*
X127037915Y-91713830D01*
X126723134Y-91503500D01*
X127037915Y-91293170D01*
X127362771Y-90806989D01*
X127476845Y-90233500D01*
X127362771Y-89660011D01*
X127037915Y-89173830D01*
X126723134Y-88963500D01*
X127037915Y-88753170D01*
X127362771Y-88266989D01*
X127476845Y-87693500D01*
X127362771Y-87120011D01*
X127037915Y-86633830D01*
X126723134Y-86423500D01*
X127037915Y-86213170D01*
X127362771Y-85726989D01*
X127476845Y-85153500D01*
X127362771Y-84580011D01*
X127037915Y-84093830D01*
X126723134Y-83883500D01*
X127037915Y-83673170D01*
X127362771Y-83186989D01*
X127476845Y-82613500D01*
X127362771Y-82040011D01*
X127037915Y-81553830D01*
X127023587Y-81544257D01*
X127044817Y-81540262D01*
X127260941Y-81401190D01*
X127405931Y-81188990D01*
X127456940Y-80937100D01*
X127456940Y-79209900D01*
X127412662Y-78974583D01*
X127273590Y-78758459D01*
X127061390Y-78613469D01*
X126809500Y-78562460D01*
X124777500Y-78562460D01*
X124542183Y-78606738D01*
X124502160Y-78632492D01*
X124827916Y-77847985D01*
X124828683Y-76968872D01*
X124492970Y-76156384D01*
X123871886Y-75534215D01*
X123059985Y-75197084D01*
X122180872Y-75196317D01*
X121368384Y-75532030D01*
X120746215Y-76153114D01*
X120409084Y-76965015D01*
X120408317Y-77844128D01*
X117640100Y-77844128D01*
X117640100Y-76531412D01*
X119711412Y-74460100D01*
X125907800Y-74460100D01*
X126213985Y-74399196D01*
X126473556Y-74225756D01*
X132159493Y-68539819D01*
X132362172Y-68843149D01*
X132815391Y-69145981D01*
X133350000Y-69252321D01*
X133884609Y-69145981D01*
X134337828Y-68843149D01*
X134620000Y-68420850D01*
X134902172Y-68843149D01*
X135089900Y-68968585D01*
X135089900Y-70788588D01*
X130244244Y-75634244D01*
X130070804Y-75893815D01*
X130009900Y-76200000D01*
X130009900Y-85090000D01*
X130070804Y-85396185D01*
X130244244Y-85655756D01*
X132371966Y-87783478D01*
X132371931Y-87823663D01*
X132520493Y-88183212D01*
X132795341Y-88458540D01*
X133154630Y-88607730D01*
X133543663Y-88608069D01*
X133903212Y-88459507D01*
X134178540Y-88184659D01*
X134327730Y-87825370D01*
X134328069Y-87436337D01*
X134179507Y-87076788D01*
X133904659Y-86801460D01*
X133545370Y-86652270D01*
X133503746Y-86652234D01*
X131610100Y-84758588D01*
X131610100Y-82990143D01*
X151447115Y-82990143D01*
X151784758Y-83807300D01*
X152409411Y-84433045D01*
X153225978Y-84772113D01*
X154110143Y-84772885D01*
X154927300Y-84435242D01*
X155553045Y-83810589D01*
X155892113Y-82994022D01*
X155892885Y-82109857D01*
X155555242Y-81292700D01*
X154930589Y-80666955D01*
X154114022Y-80327887D01*
X153229857Y-80327115D01*
X152412700Y-80664758D01*
X151786955Y-81289411D01*
X151447887Y-82105978D01*
X151447115Y-82990143D01*
X131610100Y-82990143D01*
X131610100Y-76531412D01*
X136455756Y-71685756D01*
X136629196Y-71426185D01*
X136690100Y-71120000D01*
X136690100Y-68968585D01*
X136877828Y-68843149D01*
X137160000Y-68420850D01*
X137442172Y-68843149D01*
X137839393Y-69108565D01*
X137864244Y-69145756D01*
X139134244Y-70415756D01*
X139393815Y-70589196D01*
X139700000Y-70650100D01*
X143178588Y-70650100D01*
X143979900Y-71451412D01*
X143979900Y-74346951D01*
X143951460Y-74375341D01*
X143802270Y-74734630D01*
X143801931Y-75123663D01*
X143950493Y-75483212D01*
X144225341Y-75758540D01*
X144584630Y-75907730D01*
X144973663Y-75908069D01*
X145333212Y-75759507D01*
X145608540Y-75484659D01*
X145757730Y-75125370D01*
X145758069Y-74736337D01*
X145609507Y-74376788D01*
X145580100Y-74347330D01*
X145580100Y-71120000D01*
X145519196Y-70813815D01*
X145345756Y-70554244D01*
X144075756Y-69284244D01*
X143909155Y-69172924D01*
X144044609Y-69145981D01*
X144497828Y-68843149D01*
X144780000Y-68420850D01*
X145062172Y-68843149D01*
X145515391Y-69145981D01*
X146050000Y-69252321D01*
X146584609Y-69145981D01*
X147037828Y-68843149D01*
X147320000Y-68420850D01*
X147602172Y-68843149D01*
X148055391Y-69145981D01*
X148590000Y-69252321D01*
X149124609Y-69145981D01*
X149577828Y-68843149D01*
X149860000Y-68420850D01*
X150142172Y-68843149D01*
X150595391Y-69145981D01*
X151130000Y-69252321D01*
X151664609Y-69145981D01*
X152117828Y-68843149D01*
X152420660Y-68389930D01*
X152527000Y-67855321D01*
X152527000Y-66764679D01*
X152420660Y-66230070D01*
X152117828Y-65776851D01*
X151673560Y-65480000D01*
X152105908Y-65480000D01*
X152960000Y-66334092D01*
G36*
X127381000Y-108851764D02*
X125101382Y-111131382D01*
X124908671Y-111419794D01*
X124841000Y-111760000D01*
X124841000Y-113970816D01*
X124742172Y-114036851D01*
X124460000Y-114459150D01*
X124177828Y-114036851D01*
X123724609Y-113734019D01*
X123190000Y-113627679D01*
X122655391Y-113734019D01*
X122202172Y-114036851D01*
X121920000Y-114459150D01*
X121637828Y-114036851D01*
X121539000Y-113970816D01*
X121539000Y-107913958D01*
X124865647Y-107913958D01*
X124945920Y-108165259D01*
X125501279Y-108366718D01*
X126091458Y-108340315D01*
X126514080Y-108165259D01*
X126594353Y-107913958D01*
X125730000Y-107049605D01*
X124865647Y-107913958D01*
X121539000Y-107913958D01*
X121539000Y-106641279D01*
X124233282Y-106641279D01*
X124259685Y-107231458D01*
X124434741Y-107654080D01*
X124686042Y-107734353D01*
X125550395Y-106870000D01*
X125909605Y-106870000D01*
X126773958Y-107734353D01*
X127025259Y-107654080D01*
X127226718Y-107098721D01*
X127200315Y-106508542D01*
X127025259Y-106085920D01*
X126773958Y-106005647D01*
X125909605Y-106870000D01*
X125550395Y-106870000D01*
X124686042Y-106005647D01*
X124434741Y-106085920D01*
X124233282Y-106641279D01*
X121539000Y-106641279D01*
X121539000Y-105826042D01*
X124865647Y-105826042D01*
X125730000Y-106690395D01*
X126594353Y-105826042D01*
X126514080Y-105574741D01*
X125958721Y-105373282D01*
X125368542Y-105399685D01*
X124945920Y-105574741D01*
X124865647Y-105826042D01*
X121539000Y-105826042D01*
X121539000Y-105778236D01*
X123558236Y-103759000D01*
X124519173Y-103759000D01*
X124887717Y-104128188D01*
X125433319Y-104354742D01*
X126024089Y-104355257D01*
X126570086Y-104129656D01*
X126988188Y-103712283D01*
X127214742Y-103166681D01*
X127215257Y-102575911D01*
X127074396Y-102235000D01*
X127381000Y-102235000D01*
X127381000Y-108851764D01*
X127381000Y-108851764D01*
G37*
X127381000Y-108851764D02*
X125101382Y-111131382D01*
X124908671Y-111419794D01*
X124841000Y-111760000D01*
X124841000Y-113970816D01*
X124742172Y-114036851D01*
X124460000Y-114459150D01*
X124177828Y-114036851D01*
X123724609Y-113734019D01*
X123190000Y-113627679D01*
X122655391Y-113734019D01*
X122202172Y-114036851D01*
X121920000Y-114459150D01*
X121637828Y-114036851D01*
X121539000Y-113970816D01*
X121539000Y-107913958D01*
X124865647Y-107913958D01*
X124945920Y-108165259D01*
X125501279Y-108366718D01*
X126091458Y-108340315D01*
X126514080Y-108165259D01*
X126594353Y-107913958D01*
X125730000Y-107049605D01*
X124865647Y-107913958D01*
X121539000Y-107913958D01*
X121539000Y-106641279D01*
X124233282Y-106641279D01*
X124259685Y-107231458D01*
X124434741Y-107654080D01*
X124686042Y-107734353D01*
X125550395Y-106870000D01*
X125909605Y-106870000D01*
X126773958Y-107734353D01*
X127025259Y-107654080D01*
X127226718Y-107098721D01*
X127200315Y-106508542D01*
X127025259Y-106085920D01*
X126773958Y-106005647D01*
X125909605Y-106870000D01*
X125550395Y-106870000D01*
X124686042Y-106005647D01*
X124434741Y-106085920D01*
X124233282Y-106641279D01*
X121539000Y-106641279D01*
X121539000Y-105826042D01*
X124865647Y-105826042D01*
X125730000Y-106690395D01*
X126594353Y-105826042D01*
X126514080Y-105574741D01*
X125958721Y-105373282D01*
X125368542Y-105399685D01*
X124945920Y-105574741D01*
X124865647Y-105826042D01*
X121539000Y-105826042D01*
X121539000Y-105778236D01*
X123558236Y-103759000D01*
X124519173Y-103759000D01*
X124887717Y-104128188D01*
X125433319Y-104354742D01*
X126024089Y-104355257D01*
X126570086Y-104129656D01*
X126988188Y-103712283D01*
X127214742Y-103166681D01*
X127215257Y-102575911D01*
X127074396Y-102235000D01*
X127381000Y-102235000D01*
X127381000Y-108851764D01*
M02*
