M48
;DRILL file {KiCad 4.0.1-3.201512221402+6198~38~ubuntu14.04.1-stable} date Mon 29 Aug 2016 05:19:25 PM PDT
;FORMAT={2:4/ absolute / inch / suppress trailing zeros}
FMAT,2
INCH,LZ
T1C0.013
T2C0.031
T3C0.035
T4C0.039
T5C0.039
T6C0.040
%
G90
G05
M72
T1
X02895Y-040635
X04595Y-037385
T2
X04895Y-033635
X04895Y-036635
X04995Y-033635
X04995Y-036635
X05095Y-033635
X05095Y-036635
X05195Y-033635
X05195Y-036635
X05295Y-033635
X05295Y-036635
X05395Y-033635
X05395Y-036635
X05495Y-033635
X05495Y-036635
X05595Y-033635
X05595Y-036635
T3
X0372Y-037385
X039169Y-037385
X0447Y-034416
X0447Y-036385
X0467Y-034416
X0467Y-036385
T4
X02595Y-042273
X02595Y-044635
X027525Y-042273
X027525Y-044635
X029625Y-042273
X029625Y-044635
X0312Y-042273
X0312Y-044635
X033375Y-042273
X033375Y-044635
X03495Y-042273
X03495Y-044635
X061125Y-042523
X061125Y-044885
X0627Y-042523
X0627Y-044885
T5
X0262Y-039635
X02695Y-033885
X02695Y-036885
X0272Y-039635
X0297Y-039635
X03045Y-033885
X03045Y-036885
X0307Y-039635
X0337Y-039635
X0342Y-033885
X0342Y-036885
X0347Y-039635
X039043Y-039385
X039043Y-040385
X039043Y-041999
X039043Y-044999
X041793Y-039385
X041793Y-040385
X041793Y-041999
X041793Y-044999
X0422Y-034885
X0422Y-035885
X0422Y-036885
X044543Y-039385
X044543Y-040385
X044543Y-041999
X044543Y-044999
X047293Y-039385
X047293Y-040385
X047293Y-041999
X047293Y-044999
X050043Y-039135
X050043Y-040135
X050043Y-041999
X050043Y-044999
X052793Y-039135
X052793Y-040135
X052793Y-041999
X052793Y-044999
X055543Y-039135
X055543Y-040135
X055543Y-041999
X055543Y-044999
X058293Y-039135
X058293Y-040135
X058293Y-041999
X058293Y-044999
X05845Y-034135
X0612Y-037635
X0612Y-040635
X06145Y-034135
T6
X0242Y-036635
X0242Y-037635
X0242Y-038635
X0242Y-039635
X0242Y-040635
X0242Y-041635
X0377Y-034885
X0387Y-034885
X0627Y-036135
X0627Y-037135
X0627Y-038135
X0627Y-039135
X0627Y-040135
X0627Y-041135
T0
M30
