G04 #@! TF.FileFunction,Legend,Top*
%FSLAX46Y46*%
G04 Gerber Fmt 4.6, Leading zero omitted, Abs format (unit mm)*
G04 Created by KiCad (PCBNEW 4.0.1-3.201512221402+6198~38~ubuntu14.04.1-stable) date Thu 11 Feb 2016 12:06:21 AM PST*
%MOMM*%
G01*
G04 APERTURE LIST*
%ADD10C,0.100000*%
%ADD11C,0.150000*%
G04 APERTURE END LIST*
D10*
D11*
X64786000Y-102130900D02*
X64886000Y-102130900D01*
X64736000Y-102230900D02*
X64736000Y-101880900D01*
X64736000Y-101880900D02*
G75*
G03X65086000Y-102230900I1050000J700000D01*
G01*
X64736000Y-102230900D02*
X65086000Y-102230900D01*
X69200214Y-98180900D02*
G75*
G03X69200214Y-98180900I-1414214J0D01*
G01*
X70786000Y-100180900D02*
X70786000Y-96180900D01*
X64786000Y-100180900D02*
X64786000Y-96180900D01*
X68536000Y-101180900D02*
X67036000Y-101180900D01*
X67036000Y-95180900D02*
X68536000Y-95180900D01*
D10*
X67786000Y-101180900D02*
X67786000Y-101180900D01*
X70786000Y-96180900D02*
X70786000Y-100180900D01*
X64786000Y-96180900D02*
X64786000Y-100180900D01*
X67786000Y-95180900D02*
X67786000Y-95180900D01*
X69200214Y-98180900D02*
G75*
G03X69200214Y-98180900I-1414214J0D01*
G01*
D11*
X100929000Y-85313900D02*
X100929000Y-91313900D01*
X96429000Y-91313900D02*
X96429000Y-85313900D01*
X102489904Y-103919788D02*
G75*
G03X99465000Y-103934900I-1524904J2484888D01*
G01*
X102465000Y-103934900D02*
X99465000Y-103934900D01*
X103482936Y-101434900D02*
G75*
G03X103482936Y-101434900I-2517936J0D01*
G01*
X71366000Y-90730900D02*
X65366000Y-90730900D01*
X65366000Y-86230900D02*
X71366000Y-86230900D01*
X107152000Y-85313900D02*
X107152000Y-91313900D01*
X102652000Y-91313900D02*
X102652000Y-85313900D01*
X73985500Y-86294400D02*
X79985500Y-86294400D01*
X79985500Y-90794400D02*
X73985500Y-90794400D01*
X90559000Y-110741900D02*
X96559000Y-110741900D01*
X96559000Y-115241900D02*
X90559000Y-115241900D01*
X113629000Y-85440900D02*
X113629000Y-91440900D01*
X109129000Y-91440900D02*
X109129000Y-85440900D01*
X64571112Y-107785804D02*
G75*
G03X64556000Y-104760900I2484888J1524904D01*
G01*
X64556000Y-107760900D02*
X64556000Y-104760900D01*
X69573936Y-106260900D02*
G75*
G03X69573936Y-106260900I-2517936J0D01*
G01*
X74731112Y-107912804D02*
G75*
G03X74716000Y-104887900I2484888J1524904D01*
G01*
X74716000Y-107887900D02*
X74716000Y-104887900D01*
X79733936Y-106387900D02*
G75*
G03X79733936Y-106387900I-2517936J0D01*
G01*
X88082888Y-86828996D02*
G75*
G03X88098000Y-89853900I-2484888J-1524904D01*
G01*
X88098000Y-86853900D02*
X88098000Y-89853900D01*
X88115936Y-88353900D02*
G75*
G03X88115936Y-88353900I-2517936J0D01*
G01*
X150559404Y-104173788D02*
G75*
G03X147534500Y-104188900I-1524904J2484888D01*
G01*
X150534500Y-104188900D02*
X147534500Y-104188900D01*
X151552436Y-101688900D02*
G75*
G03X151552436Y-101688900I-2517936J0D01*
G01*
X143383904Y-104110288D02*
G75*
G03X140359000Y-104125400I-1524904J2484888D01*
G01*
X143359000Y-104125400D02*
X140359000Y-104125400D01*
X144376936Y-101625400D02*
G75*
G03X144376936Y-101625400I-2517936J0D01*
G01*
X136525904Y-104110288D02*
G75*
G03X133501000Y-104125400I-1524904J2484888D01*
G01*
X136501000Y-104125400D02*
X133501000Y-104125400D01*
X137518936Y-101625400D02*
G75*
G03X137518936Y-101625400I-2517936J0D01*
G01*
X129794904Y-104046788D02*
G75*
G03X126770000Y-104061900I-1524904J2484888D01*
G01*
X129770000Y-104061900D02*
X126770000Y-104061900D01*
X130787936Y-101561900D02*
G75*
G03X130787936Y-101561900I-2517936J0D01*
G01*
X122873404Y-104110288D02*
G75*
G03X119848500Y-104125400I-1524904J2484888D01*
G01*
X122848500Y-104125400D02*
X119848500Y-104125400D01*
X123866436Y-101625400D02*
G75*
G03X123866436Y-101625400I-2517936J0D01*
G01*
X116269404Y-103919788D02*
G75*
G03X113244500Y-103934900I-1524904J2484888D01*
G01*
X116244500Y-103934900D02*
X113244500Y-103934900D01*
X117262436Y-101434900D02*
G75*
G03X117262436Y-101434900I-2517936J0D01*
G01*
X109411404Y-103665788D02*
G75*
G03X106386500Y-103680900I-1524904J2484888D01*
G01*
X109386500Y-103680900D02*
X106386500Y-103680900D01*
X110404436Y-101180900D02*
G75*
G03X110404436Y-101180900I-2517936J0D01*
G01*
X67564000Y-114261900D02*
X62484000Y-114261900D01*
X62484000Y-114261900D02*
X62484000Y-111721900D01*
X62484000Y-111721900D02*
X67564000Y-111721900D01*
X67564000Y-111721900D02*
X67564000Y-114261900D01*
X75057000Y-111721900D02*
X80137000Y-111721900D01*
X80137000Y-111721900D02*
X80137000Y-114261900D01*
X80137000Y-114261900D02*
X75057000Y-114261900D01*
X75057000Y-114261900D02*
X75057000Y-111721900D01*
X145796000Y-90766900D02*
X150876000Y-90766900D01*
X150876000Y-90766900D02*
X150876000Y-93306900D01*
X150876000Y-93306900D02*
X145796000Y-93306900D01*
X145796000Y-93306900D02*
X145796000Y-90766900D01*
X98679000Y-95846900D02*
X93599000Y-95846900D01*
X93599000Y-95846900D02*
X93599000Y-93306900D01*
X93599000Y-93306900D02*
X98679000Y-93306900D01*
X98679000Y-93306900D02*
X98679000Y-95846900D01*
X87503000Y-107657900D02*
X87503000Y-112737900D01*
X87503000Y-112737900D02*
X84963000Y-112737900D01*
X84963000Y-112737900D02*
X84963000Y-107657900D01*
X84963000Y-107657900D02*
X87503000Y-107657900D01*
X150876000Y-88480900D02*
X145796000Y-88480900D01*
X145796000Y-88480900D02*
X145796000Y-85940900D01*
X145796000Y-85940900D02*
X150876000Y-85940900D01*
X150876000Y-85940900D02*
X150876000Y-88480900D01*
X150304500Y-107911900D02*
X150304500Y-112991900D01*
X150304500Y-112991900D02*
X147764500Y-112991900D01*
X147764500Y-112991900D02*
X147764500Y-107911900D01*
X147764500Y-107911900D02*
X150304500Y-107911900D01*
X143129000Y-107911900D02*
X143129000Y-112991900D01*
X143129000Y-112991900D02*
X140589000Y-112991900D01*
X140589000Y-112991900D02*
X140589000Y-107911900D01*
X140589000Y-107911900D02*
X143129000Y-107911900D01*
X136334500Y-107911900D02*
X136334500Y-112991900D01*
X136334500Y-112991900D02*
X133794500Y-112991900D01*
X133794500Y-112991900D02*
X133794500Y-107911900D01*
X133794500Y-107911900D02*
X136334500Y-107911900D01*
X129540000Y-107911900D02*
X129540000Y-112991900D01*
X129540000Y-112991900D02*
X127000000Y-112991900D01*
X127000000Y-112991900D02*
X127000000Y-107911900D01*
X127000000Y-107911900D02*
X129540000Y-107911900D01*
X122555000Y-107911900D02*
X122555000Y-112991900D01*
X122555000Y-112991900D02*
X120015000Y-112991900D01*
X120015000Y-112991900D02*
X120015000Y-107911900D01*
X120015000Y-107911900D02*
X122555000Y-107911900D01*
X115887500Y-107848400D02*
X115887500Y-112928400D01*
X115887500Y-112928400D02*
X113347500Y-112928400D01*
X113347500Y-112928400D02*
X113347500Y-107848400D01*
X113347500Y-107848400D02*
X115887500Y-107848400D01*
X109156500Y-107848400D02*
X109156500Y-112928400D01*
X109156500Y-112928400D02*
X106616500Y-112928400D01*
X106616500Y-112928400D02*
X106616500Y-107848400D01*
X106616500Y-107848400D02*
X109156500Y-107848400D01*
X102298500Y-107848400D02*
X102298500Y-112928400D01*
X102298500Y-112928400D02*
X99758500Y-112928400D01*
X99758500Y-112928400D02*
X99758500Y-107848400D01*
X99758500Y-107848400D02*
X102298500Y-107848400D01*
X153797000Y-101688900D02*
X153797000Y-96608900D01*
X153797000Y-96608900D02*
X156337000Y-96608900D01*
X156337000Y-96608900D02*
X156337000Y-101688900D01*
X156337000Y-101688900D02*
X153797000Y-101688900D01*
X74247500Y-102130900D02*
X74347500Y-102130900D01*
X74197500Y-102230900D02*
X74197500Y-101880900D01*
X74197500Y-101880900D02*
G75*
G03X74547500Y-102230900I1050000J700000D01*
G01*
X74197500Y-102230900D02*
X74547500Y-102230900D01*
X78661714Y-98180900D02*
G75*
G03X78661714Y-98180900I-1414214J0D01*
G01*
X80247500Y-100180900D02*
X80247500Y-96180900D01*
X74247500Y-100180900D02*
X74247500Y-96180900D01*
X77997500Y-101180900D02*
X76497500Y-101180900D01*
X76497500Y-95180900D02*
X77997500Y-95180900D01*
D10*
X77247500Y-101180900D02*
X77247500Y-101180900D01*
X80247500Y-96180900D02*
X80247500Y-100180900D01*
X74247500Y-96180900D02*
X74247500Y-100180900D01*
X77247500Y-95180900D02*
X77247500Y-95180900D01*
X78661714Y-98180900D02*
G75*
G03X78661714Y-98180900I-1414214J0D01*
G01*
D11*
X88319500Y-102644900D02*
X84019500Y-102644900D01*
X86169500Y-92604900D02*
X84019500Y-92604900D01*
X88319500Y-102644900D02*
X88319500Y-92604900D01*
X84019500Y-102644900D02*
X84019500Y-92604900D01*
X86809500Y-97624900D02*
X85529500Y-97624900D01*
X86809500Y-99654900D02*
X86809500Y-95594900D01*
X86809500Y-95594900D02*
X85529500Y-95594900D01*
X85529500Y-95594900D02*
X85529500Y-99654900D01*
X85529500Y-99654900D02*
X86809500Y-99654900D01*
X161224000Y-114245900D02*
X161224000Y-114145900D01*
X161324000Y-114295900D02*
X160974000Y-114295900D01*
X160974000Y-114295900D02*
G75*
G03X161324000Y-113945900I-700000J1050000D01*
G01*
X161324000Y-114295900D02*
X161324000Y-113945900D01*
X158688214Y-111245900D02*
G75*
G03X158688214Y-111245900I-1414214J0D01*
G01*
X159274000Y-108245900D02*
X155274000Y-108245900D01*
X159274000Y-114245900D02*
X155274000Y-114245900D01*
X160274000Y-110495900D02*
X160274000Y-111995900D01*
X154274000Y-111995900D02*
X154274000Y-110495900D01*
D10*
X160274000Y-111245900D02*
X160274000Y-111245900D01*
X155274000Y-108245900D02*
X159274000Y-108245900D01*
X155274000Y-114245900D02*
X159274000Y-114245900D01*
X154274000Y-111245900D02*
X154274000Y-111245900D01*
X158688214Y-111245900D02*
G75*
G03X158688214Y-111245900I-1414214J0D01*
G01*
D11*
X91186000Y-103847900D02*
X92329000Y-103847900D01*
X91186000Y-100799900D02*
X92329000Y-100799900D01*
X92329000Y-96989900D02*
X96012000Y-96989900D01*
X96012000Y-96989900D02*
X96012000Y-107657900D01*
X96012000Y-107657900D02*
X92329000Y-107657900D01*
X91186000Y-96989900D02*
X92329000Y-96989900D01*
X92329000Y-96989900D02*
X92329000Y-107657900D01*
X92329000Y-107657900D02*
X91186000Y-107657900D01*
X91186000Y-102323900D02*
X91186000Y-107657900D01*
X91186000Y-102323900D02*
X91186000Y-96989900D01*
X116450000Y-93870400D02*
X117720000Y-93870400D01*
X116450000Y-86520400D02*
X117720000Y-86520400D01*
X138820000Y-86520400D02*
X137550000Y-86520400D01*
X138820000Y-93870400D02*
X137550000Y-93870400D01*
X116450000Y-93870400D02*
X116450000Y-86520400D01*
X138820000Y-93870400D02*
X138820000Y-86520400D01*
X117720000Y-93870400D02*
X117720000Y-95155400D01*
X94234000Y-88480900D02*
X94234000Y-91020900D01*
X94514000Y-85660900D02*
X94514000Y-87210900D01*
X94234000Y-88480900D02*
X91694000Y-88480900D01*
X91414000Y-87210900D02*
X91414000Y-85660900D01*
X91414000Y-85660900D02*
X94514000Y-85660900D01*
X91694000Y-88480900D02*
X91694000Y-91020900D01*
X91694000Y-91020900D02*
X94234000Y-91020900D01*
X61976000Y-92964000D02*
X61976000Y-105664000D01*
X61976000Y-105664000D02*
X59436000Y-105664000D01*
X59436000Y-105664000D02*
X59436000Y-92964000D01*
X62256000Y-90144000D02*
X62256000Y-91694000D01*
X61976000Y-92964000D02*
X59436000Y-92964000D01*
X59156000Y-91694000D02*
X59156000Y-90144000D01*
X59156000Y-90144000D02*
X62256000Y-90144000D01*
X160782000Y-92710000D02*
X160782000Y-105410000D01*
X160782000Y-105410000D02*
X158242000Y-105410000D01*
X158242000Y-105410000D02*
X158242000Y-92710000D01*
X161062000Y-89890000D02*
X161062000Y-91440000D01*
X160782000Y-92710000D02*
X158242000Y-92710000D01*
X157962000Y-91440000D02*
X157962000Y-89890000D01*
X157962000Y-89890000D02*
X161062000Y-89890000D01*
X66318000Y-93060781D02*
X66318000Y-92060781D01*
X66556095Y-92060781D01*
X66698953Y-92108400D01*
X66794191Y-92203638D01*
X66841810Y-92298876D01*
X66889429Y-92489352D01*
X66889429Y-92632210D01*
X66841810Y-92822686D01*
X66794191Y-92917924D01*
X66698953Y-93013162D01*
X66556095Y-93060781D01*
X66318000Y-93060781D01*
X67270381Y-92775067D02*
X67746572Y-92775067D01*
X67175143Y-93060781D02*
X67508476Y-92060781D01*
X67841810Y-93060781D01*
X68032286Y-92060781D02*
X68603715Y-92060781D01*
X68318000Y-93060781D02*
X68318000Y-92060781D01*
X68889429Y-92775067D02*
X69365620Y-92775067D01*
X68794191Y-93060781D02*
X69127524Y-92060781D01*
X69460858Y-93060781D01*
X102536143Y-88480566D02*
X102583762Y-88528185D01*
X102631381Y-88671042D01*
X102631381Y-88766280D01*
X102583762Y-88909138D01*
X102488524Y-89004376D01*
X102393286Y-89051995D01*
X102202810Y-89099614D01*
X102059952Y-89099614D01*
X101869476Y-89051995D01*
X101774238Y-89004376D01*
X101679000Y-88909138D01*
X101631381Y-88766280D01*
X101631381Y-88671042D01*
X101679000Y-88528185D01*
X101726619Y-88480566D01*
X102631381Y-87528185D02*
X102631381Y-88099614D01*
X102631381Y-87813900D02*
X101631381Y-87813900D01*
X101774238Y-87909138D01*
X101869476Y-88004376D01*
X101917095Y-88099614D01*
X99814214Y-98204281D02*
X99814214Y-97204281D01*
X100052309Y-97204281D01*
X100195167Y-97251900D01*
X100290405Y-97347138D01*
X100338024Y-97442376D01*
X100385643Y-97632852D01*
X100385643Y-97775710D01*
X100338024Y-97966186D01*
X100290405Y-98061424D01*
X100195167Y-98156662D01*
X100052309Y-98204281D01*
X99814214Y-98204281D01*
X101338024Y-98204281D02*
X100766595Y-98204281D01*
X101052309Y-98204281D02*
X101052309Y-97204281D01*
X100957071Y-97347138D01*
X100861833Y-97442376D01*
X100766595Y-97489995D01*
X102290405Y-98204281D02*
X101718976Y-98204281D01*
X102004690Y-98204281D02*
X102004690Y-97204281D01*
X101909452Y-97347138D01*
X101814214Y-97442376D01*
X101718976Y-97489995D01*
X68032334Y-88965043D02*
X67984715Y-89012662D01*
X67841858Y-89060281D01*
X67746620Y-89060281D01*
X67603762Y-89012662D01*
X67508524Y-88917424D01*
X67460905Y-88822186D01*
X67413286Y-88631710D01*
X67413286Y-88488852D01*
X67460905Y-88298376D01*
X67508524Y-88203138D01*
X67603762Y-88107900D01*
X67746620Y-88060281D01*
X67841858Y-88060281D01*
X67984715Y-88107900D01*
X68032334Y-88155519D01*
X68413286Y-88155519D02*
X68460905Y-88107900D01*
X68556143Y-88060281D01*
X68794239Y-88060281D01*
X68889477Y-88107900D01*
X68937096Y-88155519D01*
X68984715Y-88250757D01*
X68984715Y-88345995D01*
X68937096Y-88488852D01*
X68365667Y-89060281D01*
X68984715Y-89060281D01*
X108759143Y-88480566D02*
X108806762Y-88528185D01*
X108854381Y-88671042D01*
X108854381Y-88766280D01*
X108806762Y-88909138D01*
X108711524Y-89004376D01*
X108616286Y-89051995D01*
X108425810Y-89099614D01*
X108282952Y-89099614D01*
X108092476Y-89051995D01*
X107997238Y-89004376D01*
X107902000Y-88909138D01*
X107854381Y-88766280D01*
X107854381Y-88671042D01*
X107902000Y-88528185D01*
X107949619Y-88480566D01*
X107854381Y-88147233D02*
X107854381Y-87528185D01*
X108235333Y-87861519D01*
X108235333Y-87718661D01*
X108282952Y-87623423D01*
X108330571Y-87575804D01*
X108425810Y-87528185D01*
X108663905Y-87528185D01*
X108759143Y-87575804D01*
X108806762Y-87623423D01*
X108854381Y-87718661D01*
X108854381Y-88004376D01*
X108806762Y-88099614D01*
X108759143Y-88147233D01*
X76818834Y-85401543D02*
X76771215Y-85449162D01*
X76628358Y-85496781D01*
X76533120Y-85496781D01*
X76390262Y-85449162D01*
X76295024Y-85353924D01*
X76247405Y-85258686D01*
X76199786Y-85068210D01*
X76199786Y-84925352D01*
X76247405Y-84734876D01*
X76295024Y-84639638D01*
X76390262Y-84544400D01*
X76533120Y-84496781D01*
X76628358Y-84496781D01*
X76771215Y-84544400D01*
X76818834Y-84592019D01*
X77675977Y-84830114D02*
X77675977Y-85496781D01*
X77437881Y-84449162D02*
X77199786Y-85163448D01*
X77818834Y-85163448D01*
X93392334Y-109849043D02*
X93344715Y-109896662D01*
X93201858Y-109944281D01*
X93106620Y-109944281D01*
X92963762Y-109896662D01*
X92868524Y-109801424D01*
X92820905Y-109706186D01*
X92773286Y-109515710D01*
X92773286Y-109372852D01*
X92820905Y-109182376D01*
X92868524Y-109087138D01*
X92963762Y-108991900D01*
X93106620Y-108944281D01*
X93201858Y-108944281D01*
X93344715Y-108991900D01*
X93392334Y-109039519D01*
X94297096Y-108944281D02*
X93820905Y-108944281D01*
X93773286Y-109420471D01*
X93820905Y-109372852D01*
X93916143Y-109325233D01*
X94154239Y-109325233D01*
X94249477Y-109372852D01*
X94297096Y-109420471D01*
X94344715Y-109515710D01*
X94344715Y-109753805D01*
X94297096Y-109849043D01*
X94249477Y-109896662D01*
X94154239Y-109944281D01*
X93916143Y-109944281D01*
X93820905Y-109896662D01*
X93773286Y-109849043D01*
X115236143Y-88607566D02*
X115283762Y-88655185D01*
X115331381Y-88798042D01*
X115331381Y-88893280D01*
X115283762Y-89036138D01*
X115188524Y-89131376D01*
X115093286Y-89178995D01*
X114902810Y-89226614D01*
X114759952Y-89226614D01*
X114569476Y-89178995D01*
X114474238Y-89131376D01*
X114379000Y-89036138D01*
X114331381Y-88893280D01*
X114331381Y-88798042D01*
X114379000Y-88655185D01*
X114426619Y-88607566D01*
X114331381Y-87750423D02*
X114331381Y-87940900D01*
X114379000Y-88036138D01*
X114426619Y-88083757D01*
X114569476Y-88178995D01*
X114759952Y-88226614D01*
X115140905Y-88226614D01*
X115236143Y-88178995D01*
X115283762Y-88131376D01*
X115331381Y-88036138D01*
X115331381Y-87845661D01*
X115283762Y-87750423D01*
X115236143Y-87702804D01*
X115140905Y-87655185D01*
X114902810Y-87655185D01*
X114807571Y-87702804D01*
X114759952Y-87750423D01*
X114712333Y-87845661D01*
X114712333Y-88036138D01*
X114759952Y-88131376D01*
X114807571Y-88178995D01*
X114902810Y-88226614D01*
X71445381Y-106871995D02*
X70445381Y-106871995D01*
X70445381Y-106633900D01*
X70493000Y-106491042D01*
X70588238Y-106395804D01*
X70683476Y-106348185D01*
X70873952Y-106300566D01*
X71016810Y-106300566D01*
X71207286Y-106348185D01*
X71302524Y-106395804D01*
X71397762Y-106491042D01*
X71445381Y-106633900D01*
X71445381Y-106871995D01*
X71445381Y-105348185D02*
X71445381Y-105919614D01*
X71445381Y-105633900D02*
X70445381Y-105633900D01*
X70588238Y-105729138D01*
X70683476Y-105824376D01*
X70731095Y-105919614D01*
X76731905Y-110904281D02*
X76731905Y-109904281D01*
X76970000Y-109904281D01*
X77112858Y-109951900D01*
X77208096Y-110047138D01*
X77255715Y-110142376D01*
X77303334Y-110332852D01*
X77303334Y-110475710D01*
X77255715Y-110666186D01*
X77208096Y-110761424D01*
X77112858Y-110856662D01*
X76970000Y-110904281D01*
X76731905Y-110904281D01*
X77684286Y-109999519D02*
X77731905Y-109951900D01*
X77827143Y-109904281D01*
X78065239Y-109904281D01*
X78160477Y-109951900D01*
X78208096Y-109999519D01*
X78255715Y-110094757D01*
X78255715Y-110189995D01*
X78208096Y-110332852D01*
X77636667Y-110904281D01*
X78255715Y-110904281D01*
X73779095Y-108745281D02*
X73779095Y-107745281D01*
X74350524Y-108745281D02*
X73921952Y-108173852D01*
X74350524Y-107745281D02*
X73779095Y-108316710D01*
X84605905Y-84742281D02*
X84605905Y-83742281D01*
X84844000Y-83742281D01*
X84986858Y-83789900D01*
X85082096Y-83885138D01*
X85129715Y-83980376D01*
X85177334Y-84170852D01*
X85177334Y-84313710D01*
X85129715Y-84504186D01*
X85082096Y-84599424D01*
X84986858Y-84694662D01*
X84844000Y-84742281D01*
X84605905Y-84742281D01*
X85510667Y-83742281D02*
X86129715Y-83742281D01*
X85796381Y-84123233D01*
X85939239Y-84123233D01*
X86034477Y-84170852D01*
X86082096Y-84218471D01*
X86129715Y-84313710D01*
X86129715Y-84551805D01*
X86082096Y-84647043D01*
X86034477Y-84694662D01*
X85939239Y-84742281D01*
X85653524Y-84742281D01*
X85558286Y-84694662D01*
X85510667Y-84647043D01*
X88511095Y-86901281D02*
X88511095Y-85901281D01*
X89082524Y-86901281D02*
X88653952Y-86329852D01*
X89082524Y-85901281D02*
X88511095Y-86472710D01*
X148423405Y-98267781D02*
X148423405Y-97267781D01*
X148661500Y-97267781D01*
X148804358Y-97315400D01*
X148899596Y-97410638D01*
X148947215Y-97505876D01*
X148994834Y-97696352D01*
X148994834Y-97839210D01*
X148947215Y-98029686D01*
X148899596Y-98124924D01*
X148804358Y-98220162D01*
X148661500Y-98267781D01*
X148423405Y-98267781D01*
X149851977Y-97601114D02*
X149851977Y-98267781D01*
X149613881Y-97220162D02*
X149375786Y-97934448D01*
X149994834Y-97934448D01*
X141120905Y-98267781D02*
X141120905Y-97267781D01*
X141359000Y-97267781D01*
X141501858Y-97315400D01*
X141597096Y-97410638D01*
X141644715Y-97505876D01*
X141692334Y-97696352D01*
X141692334Y-97839210D01*
X141644715Y-98029686D01*
X141597096Y-98124924D01*
X141501858Y-98220162D01*
X141359000Y-98267781D01*
X141120905Y-98267781D01*
X142597096Y-97267781D02*
X142120905Y-97267781D01*
X142073286Y-97743971D01*
X142120905Y-97696352D01*
X142216143Y-97648733D01*
X142454239Y-97648733D01*
X142549477Y-97696352D01*
X142597096Y-97743971D01*
X142644715Y-97839210D01*
X142644715Y-98077305D01*
X142597096Y-98172543D01*
X142549477Y-98220162D01*
X142454239Y-98267781D01*
X142216143Y-98267781D01*
X142120905Y-98220162D01*
X142073286Y-98172543D01*
X134262905Y-98331281D02*
X134262905Y-97331281D01*
X134501000Y-97331281D01*
X134643858Y-97378900D01*
X134739096Y-97474138D01*
X134786715Y-97569376D01*
X134834334Y-97759852D01*
X134834334Y-97902710D01*
X134786715Y-98093186D01*
X134739096Y-98188424D01*
X134643858Y-98283662D01*
X134501000Y-98331281D01*
X134262905Y-98331281D01*
X135691477Y-97331281D02*
X135501000Y-97331281D01*
X135405762Y-97378900D01*
X135358143Y-97426519D01*
X135262905Y-97569376D01*
X135215286Y-97759852D01*
X135215286Y-98140805D01*
X135262905Y-98236043D01*
X135310524Y-98283662D01*
X135405762Y-98331281D01*
X135596239Y-98331281D01*
X135691477Y-98283662D01*
X135739096Y-98236043D01*
X135786715Y-98140805D01*
X135786715Y-97902710D01*
X135739096Y-97807471D01*
X135691477Y-97759852D01*
X135596239Y-97712233D01*
X135405762Y-97712233D01*
X135310524Y-97759852D01*
X135262905Y-97807471D01*
X135215286Y-97902710D01*
X127531905Y-98267781D02*
X127531905Y-97267781D01*
X127770000Y-97267781D01*
X127912858Y-97315400D01*
X128008096Y-97410638D01*
X128055715Y-97505876D01*
X128103334Y-97696352D01*
X128103334Y-97839210D01*
X128055715Y-98029686D01*
X128008096Y-98124924D01*
X127912858Y-98220162D01*
X127770000Y-98267781D01*
X127531905Y-98267781D01*
X128436667Y-97267781D02*
X129103334Y-97267781D01*
X128674762Y-98267781D01*
X120546905Y-98204281D02*
X120546905Y-97204281D01*
X120785000Y-97204281D01*
X120927858Y-97251900D01*
X121023096Y-97347138D01*
X121070715Y-97442376D01*
X121118334Y-97632852D01*
X121118334Y-97775710D01*
X121070715Y-97966186D01*
X121023096Y-98061424D01*
X120927858Y-98156662D01*
X120785000Y-98204281D01*
X120546905Y-98204281D01*
X121689762Y-97632852D02*
X121594524Y-97585233D01*
X121546905Y-97537614D01*
X121499286Y-97442376D01*
X121499286Y-97394757D01*
X121546905Y-97299519D01*
X121594524Y-97251900D01*
X121689762Y-97204281D01*
X121880239Y-97204281D01*
X121975477Y-97251900D01*
X122023096Y-97299519D01*
X122070715Y-97394757D01*
X122070715Y-97442376D01*
X122023096Y-97537614D01*
X121975477Y-97585233D01*
X121880239Y-97632852D01*
X121689762Y-97632852D01*
X121594524Y-97680471D01*
X121546905Y-97728090D01*
X121499286Y-97823329D01*
X121499286Y-98013805D01*
X121546905Y-98109043D01*
X121594524Y-98156662D01*
X121689762Y-98204281D01*
X121880239Y-98204281D01*
X121975477Y-98156662D01*
X122023096Y-98109043D01*
X122070715Y-98013805D01*
X122070715Y-97823329D01*
X122023096Y-97728090D01*
X121975477Y-97680471D01*
X121880239Y-97632852D01*
X114133405Y-98204281D02*
X114133405Y-97204281D01*
X114371500Y-97204281D01*
X114514358Y-97251900D01*
X114609596Y-97347138D01*
X114657215Y-97442376D01*
X114704834Y-97632852D01*
X114704834Y-97775710D01*
X114657215Y-97966186D01*
X114609596Y-98061424D01*
X114514358Y-98156662D01*
X114371500Y-98204281D01*
X114133405Y-98204281D01*
X115181024Y-98204281D02*
X115371500Y-98204281D01*
X115466739Y-98156662D01*
X115514358Y-98109043D01*
X115609596Y-97966186D01*
X115657215Y-97775710D01*
X115657215Y-97394757D01*
X115609596Y-97299519D01*
X115561977Y-97251900D01*
X115466739Y-97204281D01*
X115276262Y-97204281D01*
X115181024Y-97251900D01*
X115133405Y-97299519D01*
X115085786Y-97394757D01*
X115085786Y-97632852D01*
X115133405Y-97728090D01*
X115181024Y-97775710D01*
X115276262Y-97823329D01*
X115466739Y-97823329D01*
X115561977Y-97775710D01*
X115609596Y-97728090D01*
X115657215Y-97632852D01*
X106799214Y-97886781D02*
X106799214Y-96886781D01*
X107037309Y-96886781D01*
X107180167Y-96934400D01*
X107275405Y-97029638D01*
X107323024Y-97124876D01*
X107370643Y-97315352D01*
X107370643Y-97458210D01*
X107323024Y-97648686D01*
X107275405Y-97743924D01*
X107180167Y-97839162D01*
X107037309Y-97886781D01*
X106799214Y-97886781D01*
X108323024Y-97886781D02*
X107751595Y-97886781D01*
X108037309Y-97886781D02*
X108037309Y-96886781D01*
X107942071Y-97029638D01*
X107846833Y-97124876D01*
X107751595Y-97172495D01*
X108942071Y-96886781D02*
X109037310Y-96886781D01*
X109132548Y-96934400D01*
X109180167Y-96982019D01*
X109227786Y-97077257D01*
X109275405Y-97267733D01*
X109275405Y-97505829D01*
X109227786Y-97696305D01*
X109180167Y-97791543D01*
X109132548Y-97839162D01*
X109037310Y-97886781D01*
X108942071Y-97886781D01*
X108846833Y-97839162D01*
X108799214Y-97791543D01*
X108751595Y-97696305D01*
X108703976Y-97505829D01*
X108703976Y-97267733D01*
X108751595Y-97077257D01*
X108799214Y-96982019D01*
X108846833Y-96934400D01*
X108942071Y-96886781D01*
X65476381Y-113285566D02*
X65000190Y-113618900D01*
X65476381Y-113856995D02*
X64476381Y-113856995D01*
X64476381Y-113476042D01*
X64524000Y-113380804D01*
X64571619Y-113333185D01*
X64666857Y-113285566D01*
X64809714Y-113285566D01*
X64904952Y-113333185D01*
X64952571Y-113380804D01*
X65000190Y-113476042D01*
X65000190Y-113856995D01*
X65476381Y-112333185D02*
X65476381Y-112904614D01*
X65476381Y-112618900D02*
X64476381Y-112618900D01*
X64619238Y-112714138D01*
X64714476Y-112809376D01*
X64762095Y-112904614D01*
X77679254Y-109944161D02*
X77345920Y-109467970D01*
X77107825Y-109944161D02*
X77107825Y-108944161D01*
X77488778Y-108944161D01*
X77584016Y-108991780D01*
X77631635Y-109039399D01*
X77679254Y-109134637D01*
X77679254Y-109277494D01*
X77631635Y-109372732D01*
X77584016Y-109420351D01*
X77488778Y-109467970D01*
X77107825Y-109467970D01*
X78060206Y-109039399D02*
X78107825Y-108991780D01*
X78203063Y-108944161D01*
X78441159Y-108944161D01*
X78536397Y-108991780D01*
X78584016Y-109039399D01*
X78631635Y-109134637D01*
X78631635Y-109229875D01*
X78584016Y-109372732D01*
X78012587Y-109944161D01*
X78631635Y-109944161D01*
X148418254Y-88989161D02*
X148084920Y-88512970D01*
X147846825Y-88989161D02*
X147846825Y-87989161D01*
X148227778Y-87989161D01*
X148323016Y-88036780D01*
X148370635Y-88084399D01*
X148418254Y-88179637D01*
X148418254Y-88322494D01*
X148370635Y-88417732D01*
X148323016Y-88465351D01*
X148227778Y-88512970D01*
X147846825Y-88512970D01*
X148751587Y-87989161D02*
X149370635Y-87989161D01*
X149037301Y-88370113D01*
X149180159Y-88370113D01*
X149275397Y-88417732D01*
X149323016Y-88465351D01*
X149370635Y-88560590D01*
X149370635Y-88798685D01*
X149323016Y-88893923D01*
X149275397Y-88941542D01*
X149180159Y-88989161D01*
X148894444Y-88989161D01*
X148799206Y-88941542D01*
X148751587Y-88893923D01*
X95723414Y-98529401D02*
X95390080Y-98053210D01*
X95151985Y-98529401D02*
X95151985Y-97529401D01*
X95532938Y-97529401D01*
X95628176Y-97577020D01*
X95675795Y-97624639D01*
X95723414Y-97719877D01*
X95723414Y-97862734D01*
X95675795Y-97957972D01*
X95628176Y-98005591D01*
X95532938Y-98053210D01*
X95151985Y-98053210D01*
X96580557Y-97862734D02*
X96580557Y-98529401D01*
X96342461Y-97481782D02*
X96104366Y-98196068D01*
X96723414Y-98196068D01*
X90185501Y-110613486D02*
X89709310Y-110946820D01*
X90185501Y-111184915D02*
X89185501Y-111184915D01*
X89185501Y-110803962D01*
X89233120Y-110708724D01*
X89280739Y-110661105D01*
X89375977Y-110613486D01*
X89518834Y-110613486D01*
X89614072Y-110661105D01*
X89661691Y-110708724D01*
X89709310Y-110803962D01*
X89709310Y-111184915D01*
X89185501Y-109708724D02*
X89185501Y-110184915D01*
X89661691Y-110232534D01*
X89614072Y-110184915D01*
X89566453Y-110089677D01*
X89566453Y-109851581D01*
X89614072Y-109756343D01*
X89661691Y-109708724D01*
X89756930Y-109661105D01*
X89995025Y-109661105D01*
X90090263Y-109708724D01*
X90137882Y-109756343D01*
X90185501Y-109851581D01*
X90185501Y-110089677D01*
X90137882Y-110184915D01*
X90090263Y-110232534D01*
X147920414Y-91163401D02*
X147587080Y-90687210D01*
X147348985Y-91163401D02*
X147348985Y-90163401D01*
X147729938Y-90163401D01*
X147825176Y-90211020D01*
X147872795Y-90258639D01*
X147920414Y-90353877D01*
X147920414Y-90496734D01*
X147872795Y-90591972D01*
X147825176Y-90639591D01*
X147729938Y-90687210D01*
X147348985Y-90687210D01*
X148777557Y-90163401D02*
X148587080Y-90163401D01*
X148491842Y-90211020D01*
X148444223Y-90258639D01*
X148348985Y-90401496D01*
X148301366Y-90591972D01*
X148301366Y-90972925D01*
X148348985Y-91068163D01*
X148396604Y-91115782D01*
X148491842Y-91163401D01*
X148682319Y-91163401D01*
X148777557Y-91115782D01*
X148825176Y-91068163D01*
X148872795Y-90972925D01*
X148872795Y-90734830D01*
X148825176Y-90639591D01*
X148777557Y-90591972D01*
X148682319Y-90544353D01*
X148491842Y-90544353D01*
X148396604Y-90591972D01*
X148348985Y-90639591D01*
X148301366Y-90734830D01*
X151899881Y-110364566D02*
X151423690Y-110697900D01*
X151899881Y-110935995D02*
X150899881Y-110935995D01*
X150899881Y-110555042D01*
X150947500Y-110459804D01*
X150995119Y-110412185D01*
X151090357Y-110364566D01*
X151233214Y-110364566D01*
X151328452Y-110412185D01*
X151376071Y-110459804D01*
X151423690Y-110555042D01*
X151423690Y-110935995D01*
X150899881Y-110031233D02*
X150899881Y-109364566D01*
X151899881Y-109793138D01*
X144787881Y-110047066D02*
X144311690Y-110380400D01*
X144787881Y-110618495D02*
X143787881Y-110618495D01*
X143787881Y-110237542D01*
X143835500Y-110142304D01*
X143883119Y-110094685D01*
X143978357Y-110047066D01*
X144121214Y-110047066D01*
X144216452Y-110094685D01*
X144264071Y-110142304D01*
X144311690Y-110237542D01*
X144311690Y-110618495D01*
X144216452Y-109475638D02*
X144168833Y-109570876D01*
X144121214Y-109618495D01*
X144025976Y-109666114D01*
X143978357Y-109666114D01*
X143883119Y-109618495D01*
X143835500Y-109570876D01*
X143787881Y-109475638D01*
X143787881Y-109285161D01*
X143835500Y-109189923D01*
X143883119Y-109142304D01*
X143978357Y-109094685D01*
X144025976Y-109094685D01*
X144121214Y-109142304D01*
X144168833Y-109189923D01*
X144216452Y-109285161D01*
X144216452Y-109475638D01*
X144264071Y-109570876D01*
X144311690Y-109618495D01*
X144406929Y-109666114D01*
X144597405Y-109666114D01*
X144692643Y-109618495D01*
X144740262Y-109570876D01*
X144787881Y-109475638D01*
X144787881Y-109285161D01*
X144740262Y-109189923D01*
X144692643Y-109142304D01*
X144597405Y-109094685D01*
X144406929Y-109094685D01*
X144311690Y-109142304D01*
X144264071Y-109189923D01*
X144216452Y-109285161D01*
X137929881Y-110301066D02*
X137453690Y-110634400D01*
X137929881Y-110872495D02*
X136929881Y-110872495D01*
X136929881Y-110491542D01*
X136977500Y-110396304D01*
X137025119Y-110348685D01*
X137120357Y-110301066D01*
X137263214Y-110301066D01*
X137358452Y-110348685D01*
X137406071Y-110396304D01*
X137453690Y-110491542D01*
X137453690Y-110872495D01*
X137929881Y-109824876D02*
X137929881Y-109634400D01*
X137882262Y-109539161D01*
X137834643Y-109491542D01*
X137691786Y-109396304D01*
X137501310Y-109348685D01*
X137120357Y-109348685D01*
X137025119Y-109396304D01*
X136977500Y-109443923D01*
X136929881Y-109539161D01*
X136929881Y-109729638D01*
X136977500Y-109824876D01*
X137025119Y-109872495D01*
X137120357Y-109920114D01*
X137358452Y-109920114D01*
X137453690Y-109872495D01*
X137501310Y-109824876D01*
X137548929Y-109729638D01*
X137548929Y-109539161D01*
X137501310Y-109443923D01*
X137453690Y-109396304D01*
X137358452Y-109348685D01*
X131262381Y-110777257D02*
X130786190Y-111110591D01*
X131262381Y-111348686D02*
X130262381Y-111348686D01*
X130262381Y-110967733D01*
X130310000Y-110872495D01*
X130357619Y-110824876D01*
X130452857Y-110777257D01*
X130595714Y-110777257D01*
X130690952Y-110824876D01*
X130738571Y-110872495D01*
X130786190Y-110967733D01*
X130786190Y-111348686D01*
X131262381Y-109824876D02*
X131262381Y-110396305D01*
X131262381Y-110110591D02*
X130262381Y-110110591D01*
X130405238Y-110205829D01*
X130500476Y-110301067D01*
X130548095Y-110396305D01*
X130262381Y-109205829D02*
X130262381Y-109110590D01*
X130310000Y-109015352D01*
X130357619Y-108967733D01*
X130452857Y-108920114D01*
X130643333Y-108872495D01*
X130881429Y-108872495D01*
X131071905Y-108920114D01*
X131167143Y-108967733D01*
X131214762Y-109015352D01*
X131262381Y-109110590D01*
X131262381Y-109205829D01*
X131214762Y-109301067D01*
X131167143Y-109348686D01*
X131071905Y-109396305D01*
X130881429Y-109443924D01*
X130643333Y-109443924D01*
X130452857Y-109396305D01*
X130357619Y-109348686D01*
X130310000Y-109301067D01*
X130262381Y-109205829D01*
X124150381Y-110777257D02*
X123674190Y-111110591D01*
X124150381Y-111348686D02*
X123150381Y-111348686D01*
X123150381Y-110967733D01*
X123198000Y-110872495D01*
X123245619Y-110824876D01*
X123340857Y-110777257D01*
X123483714Y-110777257D01*
X123578952Y-110824876D01*
X123626571Y-110872495D01*
X123674190Y-110967733D01*
X123674190Y-111348686D01*
X124150381Y-109824876D02*
X124150381Y-110396305D01*
X124150381Y-110110591D02*
X123150381Y-110110591D01*
X123293238Y-110205829D01*
X123388476Y-110301067D01*
X123436095Y-110396305D01*
X124150381Y-108872495D02*
X124150381Y-109443924D01*
X124150381Y-109158210D02*
X123150381Y-109158210D01*
X123293238Y-109253448D01*
X123388476Y-109348686D01*
X123436095Y-109443924D01*
X117482881Y-110967757D02*
X117006690Y-111301091D01*
X117482881Y-111539186D02*
X116482881Y-111539186D01*
X116482881Y-111158233D01*
X116530500Y-111062995D01*
X116578119Y-111015376D01*
X116673357Y-110967757D01*
X116816214Y-110967757D01*
X116911452Y-111015376D01*
X116959071Y-111062995D01*
X117006690Y-111158233D01*
X117006690Y-111539186D01*
X117482881Y-110015376D02*
X117482881Y-110586805D01*
X117482881Y-110301091D02*
X116482881Y-110301091D01*
X116625738Y-110396329D01*
X116720976Y-110491567D01*
X116768595Y-110586805D01*
X116578119Y-109634424D02*
X116530500Y-109586805D01*
X116482881Y-109491567D01*
X116482881Y-109253471D01*
X116530500Y-109158233D01*
X116578119Y-109110614D01*
X116673357Y-109062995D01*
X116768595Y-109062995D01*
X116911452Y-109110614D01*
X117482881Y-109682043D01*
X117482881Y-109062995D01*
X110815381Y-111158257D02*
X110339190Y-111491591D01*
X110815381Y-111729686D02*
X109815381Y-111729686D01*
X109815381Y-111348733D01*
X109863000Y-111253495D01*
X109910619Y-111205876D01*
X110005857Y-111158257D01*
X110148714Y-111158257D01*
X110243952Y-111205876D01*
X110291571Y-111253495D01*
X110339190Y-111348733D01*
X110339190Y-111729686D01*
X110815381Y-110205876D02*
X110815381Y-110777305D01*
X110815381Y-110491591D02*
X109815381Y-110491591D01*
X109958238Y-110586829D01*
X110053476Y-110682067D01*
X110101095Y-110777305D01*
X109815381Y-109872543D02*
X109815381Y-109253495D01*
X110196333Y-109586829D01*
X110196333Y-109443971D01*
X110243952Y-109348733D01*
X110291571Y-109301114D01*
X110386810Y-109253495D01*
X110624905Y-109253495D01*
X110720143Y-109301114D01*
X110767762Y-109348733D01*
X110815381Y-109443971D01*
X110815381Y-109729686D01*
X110767762Y-109824924D01*
X110720143Y-109872543D01*
X103957381Y-110967757D02*
X103481190Y-111301091D01*
X103957381Y-111539186D02*
X102957381Y-111539186D01*
X102957381Y-111158233D01*
X103005000Y-111062995D01*
X103052619Y-111015376D01*
X103147857Y-110967757D01*
X103290714Y-110967757D01*
X103385952Y-111015376D01*
X103433571Y-111062995D01*
X103481190Y-111158233D01*
X103481190Y-111539186D01*
X103957381Y-110015376D02*
X103957381Y-110586805D01*
X103957381Y-110301091D02*
X102957381Y-110301091D01*
X103100238Y-110396329D01*
X103195476Y-110491567D01*
X103243095Y-110586805D01*
X103290714Y-109158233D02*
X103957381Y-109158233D01*
X102909762Y-109396329D02*
X103624048Y-109634424D01*
X103624048Y-109015376D01*
X152019261Y-99542837D02*
X151543070Y-99876171D01*
X152019261Y-100114266D02*
X151019261Y-100114266D01*
X151019261Y-99733313D01*
X151066880Y-99638075D01*
X151114499Y-99590456D01*
X151209737Y-99542837D01*
X151352594Y-99542837D01*
X151447832Y-99590456D01*
X151495451Y-99638075D01*
X151543070Y-99733313D01*
X151543070Y-100114266D01*
X152019261Y-98590456D02*
X152019261Y-99161885D01*
X152019261Y-98876171D02*
X151019261Y-98876171D01*
X151162118Y-98971409D01*
X151257356Y-99066647D01*
X151304975Y-99161885D01*
X151019261Y-97685694D02*
X151019261Y-98161885D01*
X151495451Y-98209504D01*
X151447832Y-98161885D01*
X151400213Y-98066647D01*
X151400213Y-97828551D01*
X151447832Y-97733313D01*
X151495451Y-97685694D01*
X151590690Y-97638075D01*
X151828785Y-97638075D01*
X151924023Y-97685694D01*
X151971642Y-97733313D01*
X152019261Y-97828551D01*
X152019261Y-98066647D01*
X151971642Y-98161885D01*
X151924023Y-98209504D01*
X81652262Y-99514233D02*
X81699881Y-99371376D01*
X81699881Y-99133280D01*
X81652262Y-99038042D01*
X81604643Y-98990423D01*
X81509405Y-98942804D01*
X81414167Y-98942804D01*
X81318929Y-98990423D01*
X81271310Y-99038042D01*
X81223690Y-99133280D01*
X81176071Y-99323757D01*
X81128452Y-99418995D01*
X81080833Y-99466614D01*
X80985595Y-99514233D01*
X80890357Y-99514233D01*
X80795119Y-99466614D01*
X80747500Y-99418995D01*
X80699881Y-99323757D01*
X80699881Y-99085661D01*
X80747500Y-98942804D01*
X80699881Y-98609471D02*
X81699881Y-98371376D01*
X80985595Y-98180899D01*
X81699881Y-97990423D01*
X80699881Y-97752328D01*
X80795119Y-97418995D02*
X80747500Y-97371376D01*
X80699881Y-97276138D01*
X80699881Y-97038042D01*
X80747500Y-96942804D01*
X80795119Y-96895185D01*
X80890357Y-96847566D01*
X80985595Y-96847566D01*
X81128452Y-96895185D01*
X81699881Y-97466614D01*
X81699881Y-96847566D01*
X84836167Y-104219662D02*
X84979024Y-104267281D01*
X85217120Y-104267281D01*
X85312358Y-104219662D01*
X85359977Y-104172043D01*
X85407596Y-104076805D01*
X85407596Y-103981567D01*
X85359977Y-103886329D01*
X85312358Y-103838710D01*
X85217120Y-103791090D01*
X85026643Y-103743471D01*
X84931405Y-103695852D01*
X84883786Y-103648233D01*
X84836167Y-103552995D01*
X84836167Y-103457757D01*
X84883786Y-103362519D01*
X84931405Y-103314900D01*
X85026643Y-103267281D01*
X85264739Y-103267281D01*
X85407596Y-103314900D01*
X85740929Y-103267281D02*
X85979024Y-104267281D01*
X86169501Y-103552995D01*
X86359977Y-104267281D01*
X86598072Y-103267281D01*
X86883786Y-103267281D02*
X87502834Y-103267281D01*
X87169500Y-103648233D01*
X87312358Y-103648233D01*
X87407596Y-103695852D01*
X87455215Y-103743471D01*
X87502834Y-103838710D01*
X87502834Y-104076805D01*
X87455215Y-104172043D01*
X87407596Y-104219662D01*
X87312358Y-104267281D01*
X87026643Y-104267281D01*
X86931405Y-104219662D01*
X86883786Y-104172043D01*
X155940667Y-107650662D02*
X156083524Y-107698281D01*
X156321620Y-107698281D01*
X156416858Y-107650662D01*
X156464477Y-107603043D01*
X156512096Y-107507805D01*
X156512096Y-107412567D01*
X156464477Y-107317329D01*
X156416858Y-107269710D01*
X156321620Y-107222090D01*
X156131143Y-107174471D01*
X156035905Y-107126852D01*
X155988286Y-107079233D01*
X155940667Y-106983995D01*
X155940667Y-106888757D01*
X155988286Y-106793519D01*
X156035905Y-106745900D01*
X156131143Y-106698281D01*
X156369239Y-106698281D01*
X156512096Y-106745900D01*
X156845429Y-106698281D02*
X157083524Y-107698281D01*
X157274001Y-106983995D01*
X157464477Y-107698281D01*
X157702572Y-106698281D01*
X158512096Y-107031614D02*
X158512096Y-107698281D01*
X158274000Y-106650662D02*
X158035905Y-107364948D01*
X158654953Y-107364948D01*
X88606381Y-103085805D02*
X89415905Y-103085805D01*
X89511143Y-103038186D01*
X89558762Y-102990567D01*
X89606381Y-102895329D01*
X89606381Y-102704852D01*
X89558762Y-102609614D01*
X89511143Y-102561995D01*
X89415905Y-102514376D01*
X88606381Y-102514376D01*
X89606381Y-101514376D02*
X89606381Y-102085805D01*
X89606381Y-101800091D02*
X88606381Y-101800091D01*
X88749238Y-101895329D01*
X88844476Y-101990567D01*
X88892095Y-102085805D01*
X112977381Y-94767305D02*
X113786905Y-94767305D01*
X113882143Y-94719686D01*
X113929762Y-94672067D01*
X113977381Y-94576829D01*
X113977381Y-94386352D01*
X113929762Y-94291114D01*
X113882143Y-94243495D01*
X113786905Y-94195876D01*
X112977381Y-94195876D01*
X113072619Y-93767305D02*
X113025000Y-93719686D01*
X112977381Y-93624448D01*
X112977381Y-93386352D01*
X113025000Y-93291114D01*
X113072619Y-93243495D01*
X113167857Y-93195876D01*
X113263095Y-93195876D01*
X113405952Y-93243495D01*
X113977381Y-93814924D01*
X113977381Y-93195876D01*
X92225905Y-82563281D02*
X92225905Y-81563281D01*
X92606858Y-81563281D01*
X92702096Y-81610900D01*
X92749715Y-81658519D01*
X92797334Y-81753757D01*
X92797334Y-81896614D01*
X92749715Y-81991852D01*
X92702096Y-82039471D01*
X92606858Y-82087090D01*
X92225905Y-82087090D01*
X93130667Y-81563281D02*
X93749715Y-81563281D01*
X93416381Y-81944233D01*
X93559239Y-81944233D01*
X93654477Y-81991852D01*
X93702096Y-82039471D01*
X93749715Y-82134710D01*
X93749715Y-82372805D01*
X93702096Y-82468043D01*
X93654477Y-82515662D01*
X93559239Y-82563281D01*
X93273524Y-82563281D01*
X93178286Y-82515662D01*
X93130667Y-82468043D01*
X59967905Y-87046381D02*
X59967905Y-86046381D01*
X60348858Y-86046381D01*
X60444096Y-86094000D01*
X60491715Y-86141619D01*
X60539334Y-86236857D01*
X60539334Y-86379714D01*
X60491715Y-86474952D01*
X60444096Y-86522571D01*
X60348858Y-86570190D01*
X59967905Y-86570190D01*
X61491715Y-87046381D02*
X60920286Y-87046381D01*
X61206000Y-87046381D02*
X61206000Y-86046381D01*
X61110762Y-86189238D01*
X61015524Y-86284476D01*
X60920286Y-86332095D01*
X158773905Y-86792381D02*
X158773905Y-85792381D01*
X159154858Y-85792381D01*
X159250096Y-85840000D01*
X159297715Y-85887619D01*
X159345334Y-85982857D01*
X159345334Y-86125714D01*
X159297715Y-86220952D01*
X159250096Y-86268571D01*
X159154858Y-86316190D01*
X158773905Y-86316190D01*
X159726286Y-85887619D02*
X159773905Y-85840000D01*
X159869143Y-85792381D01*
X160107239Y-85792381D01*
X160202477Y-85840000D01*
X160250096Y-85887619D01*
X160297715Y-85982857D01*
X160297715Y-86078095D01*
X160250096Y-86220952D01*
X159678667Y-86792381D01*
X160297715Y-86792381D01*
M02*
