G04 #@! TF.FileFunction,Legend,Top*
%FSLAX46Y46*%
G04 Gerber Fmt 4.6, Leading zero omitted, Abs format (unit mm)*
G04 Created by KiCad (PCBNEW 4.0.1-3.201512221402+6198~38~ubuntu14.04.1-stable) date Thu 11 Feb 2016 12:32:43 PM PST*
%MOMM*%
G01*
G04 APERTURE LIST*
%ADD10C,0.100000*%
%ADD11C,0.203200*%
%ADD12C,0.300000*%
%ADD13C,0.150000*%
G04 APERTURE END LIST*
D10*
D11*
X117904382Y-84229424D02*
X117904382Y-82959424D01*
X117904382Y-83564186D02*
X118630096Y-83564186D01*
X118630096Y-84229424D02*
X118630096Y-82959424D01*
X119960572Y-84108471D02*
X119900096Y-84168948D01*
X119718667Y-84229424D01*
X119597715Y-84229424D01*
X119416287Y-84168948D01*
X119295334Y-84047995D01*
X119234858Y-83927043D01*
X119174382Y-83685138D01*
X119174382Y-83503710D01*
X119234858Y-83261805D01*
X119295334Y-83140852D01*
X119416287Y-83019900D01*
X119597715Y-82959424D01*
X119718667Y-82959424D01*
X119900096Y-83019900D01*
X119960572Y-83080376D01*
X121109620Y-82959424D02*
X120504858Y-82959424D01*
X120444382Y-83564186D01*
X120504858Y-83503710D01*
X120625810Y-83443233D01*
X120928191Y-83443233D01*
X121049144Y-83503710D01*
X121109620Y-83564186D01*
X121170096Y-83685138D01*
X121170096Y-83987519D01*
X121109620Y-84108471D01*
X121049144Y-84168948D01*
X120928191Y-84229424D01*
X120625810Y-84229424D01*
X120504858Y-84168948D01*
X120444382Y-84108471D01*
X121774858Y-84229424D02*
X122016763Y-84229424D01*
X122137715Y-84168948D01*
X122198191Y-84108471D01*
X122319144Y-83927043D01*
X122379620Y-83685138D01*
X122379620Y-83201329D01*
X122319144Y-83080376D01*
X122258668Y-83019900D01*
X122137715Y-82959424D01*
X121895811Y-82959424D01*
X121774858Y-83019900D01*
X121714382Y-83080376D01*
X121653906Y-83201329D01*
X121653906Y-83503710D01*
X121714382Y-83624662D01*
X121774858Y-83685138D01*
X121895811Y-83745614D01*
X122137715Y-83745614D01*
X122258668Y-83685138D01*
X122319144Y-83624662D01*
X122379620Y-83503710D01*
X123528668Y-82959424D02*
X122923906Y-82959424D01*
X122863430Y-83564186D01*
X122923906Y-83503710D01*
X123044858Y-83443233D01*
X123347239Y-83443233D01*
X123468192Y-83503710D01*
X123528668Y-83564186D01*
X123589144Y-83685138D01*
X123589144Y-83987519D01*
X123528668Y-84108471D01*
X123468192Y-84168948D01*
X123347239Y-84229424D01*
X123044858Y-84229424D01*
X122923906Y-84168948D01*
X122863430Y-84108471D01*
X125040573Y-84168948D02*
X125222001Y-84229424D01*
X125524382Y-84229424D01*
X125645335Y-84168948D01*
X125705811Y-84108471D01*
X125766287Y-83987519D01*
X125766287Y-83866567D01*
X125705811Y-83745614D01*
X125645335Y-83685138D01*
X125524382Y-83624662D01*
X125282478Y-83564186D01*
X125161525Y-83503710D01*
X125101049Y-83443233D01*
X125040573Y-83322281D01*
X125040573Y-83201329D01*
X125101049Y-83080376D01*
X125161525Y-83019900D01*
X125282478Y-82959424D01*
X125584858Y-82959424D01*
X125766287Y-83019900D01*
X126310573Y-84229424D02*
X126310573Y-82959424D01*
X126854859Y-84229424D02*
X126854859Y-83564186D01*
X126794382Y-83443233D01*
X126673430Y-83382757D01*
X126492002Y-83382757D01*
X126371049Y-83443233D01*
X126310573Y-83503710D01*
X127459621Y-84229424D02*
X127459621Y-83382757D01*
X127459621Y-82959424D02*
X127399145Y-83019900D01*
X127459621Y-83080376D01*
X127520097Y-83019900D01*
X127459621Y-82959424D01*
X127459621Y-83080376D01*
X127882954Y-83382757D02*
X128366764Y-83382757D01*
X128064383Y-84229424D02*
X128064383Y-83140852D01*
X128124859Y-83019900D01*
X128245812Y-82959424D01*
X128366764Y-82959424D01*
X128608668Y-83382757D02*
X129092478Y-83382757D01*
X128790097Y-82959424D02*
X128790097Y-84047995D01*
X128850573Y-84168948D01*
X128971526Y-84229424D01*
X129092478Y-84229424D01*
X131209144Y-84229424D02*
X130785811Y-83624662D01*
X130483430Y-84229424D02*
X130483430Y-82959424D01*
X130967239Y-82959424D01*
X131088192Y-83019900D01*
X131148668Y-83080376D01*
X131209144Y-83201329D01*
X131209144Y-83382757D01*
X131148668Y-83503710D01*
X131088192Y-83564186D01*
X130967239Y-83624662D01*
X130483430Y-83624662D01*
X132237239Y-84168948D02*
X132116287Y-84229424D01*
X131874382Y-84229424D01*
X131753430Y-84168948D01*
X131692954Y-84047995D01*
X131692954Y-83564186D01*
X131753430Y-83443233D01*
X131874382Y-83382757D01*
X132116287Y-83382757D01*
X132237239Y-83443233D01*
X132297716Y-83564186D01*
X132297716Y-83685138D01*
X131692954Y-83806090D01*
X133386287Y-83382757D02*
X133386287Y-84410852D01*
X133325810Y-84531805D01*
X133265334Y-84592281D01*
X133144382Y-84652757D01*
X132962953Y-84652757D01*
X132842001Y-84592281D01*
X133386287Y-84168948D02*
X133265334Y-84229424D01*
X133023430Y-84229424D01*
X132902477Y-84168948D01*
X132842001Y-84108471D01*
X132781525Y-83987519D01*
X132781525Y-83624662D01*
X132842001Y-83503710D01*
X132902477Y-83443233D01*
X133023430Y-83382757D01*
X133265334Y-83382757D01*
X133386287Y-83443233D01*
X133991049Y-84229424D02*
X133991049Y-83382757D01*
X133991049Y-82959424D02*
X133930573Y-83019900D01*
X133991049Y-83080376D01*
X134051525Y-83019900D01*
X133991049Y-82959424D01*
X133991049Y-83080376D01*
X134535335Y-84168948D02*
X134656287Y-84229424D01*
X134898192Y-84229424D01*
X135019144Y-84168948D01*
X135079620Y-84047995D01*
X135079620Y-83987519D01*
X135019144Y-83866567D01*
X134898192Y-83806090D01*
X134716763Y-83806090D01*
X134595811Y-83745614D01*
X134535335Y-83624662D01*
X134535335Y-83564186D01*
X134595811Y-83443233D01*
X134716763Y-83382757D01*
X134898192Y-83382757D01*
X135019144Y-83443233D01*
X135442477Y-83382757D02*
X135926287Y-83382757D01*
X135623906Y-82959424D02*
X135623906Y-84047995D01*
X135684382Y-84168948D01*
X135805335Y-84229424D01*
X135926287Y-84229424D01*
X136833429Y-84168948D02*
X136712477Y-84229424D01*
X136470572Y-84229424D01*
X136349620Y-84168948D01*
X136289144Y-84047995D01*
X136289144Y-83564186D01*
X136349620Y-83443233D01*
X136470572Y-83382757D01*
X136712477Y-83382757D01*
X136833429Y-83443233D01*
X136893906Y-83564186D01*
X136893906Y-83685138D01*
X136289144Y-83806090D01*
X137438191Y-84229424D02*
X137438191Y-83382757D01*
X137438191Y-83624662D02*
X137498667Y-83503710D01*
X137559143Y-83443233D01*
X137680096Y-83382757D01*
X137801048Y-83382757D01*
X62822667Y-91341424D02*
X63246001Y-92611424D01*
X63669334Y-91341424D01*
X62913381Y-95151424D02*
X62913381Y-93881424D01*
X63215762Y-93881424D01*
X63397190Y-93941900D01*
X63518143Y-94062852D01*
X63578619Y-94183805D01*
X63639095Y-94425710D01*
X63639095Y-94607138D01*
X63578619Y-94849043D01*
X63518143Y-94969995D01*
X63397190Y-95090948D01*
X63215762Y-95151424D01*
X62913381Y-95151424D01*
X63639096Y-99977424D02*
X63034334Y-99977424D01*
X63034334Y-98707424D01*
X63639095Y-102517424D02*
X63215762Y-101912662D01*
X62913381Y-102517424D02*
X62913381Y-101247424D01*
X63397190Y-101247424D01*
X63518143Y-101307900D01*
X63578619Y-101368376D01*
X63639095Y-101489329D01*
X63639095Y-101670757D01*
X63578619Y-101791710D01*
X63518143Y-101852186D01*
X63397190Y-101912662D01*
X62913381Y-101912662D01*
X63578619Y-103847900D02*
X63457667Y-103787424D01*
X63276238Y-103787424D01*
X63094810Y-103847900D01*
X62973857Y-103968852D01*
X62913381Y-104089805D01*
X62852905Y-104331710D01*
X62852905Y-104513138D01*
X62913381Y-104755043D01*
X62973857Y-104875995D01*
X63094810Y-104996948D01*
X63276238Y-105057424D01*
X63397190Y-105057424D01*
X63578619Y-104996948D01*
X63639095Y-104936471D01*
X63639095Y-104513138D01*
X63397190Y-104513138D01*
X63639095Y-97570471D02*
X63578619Y-97630948D01*
X63397190Y-97691424D01*
X63276238Y-97691424D01*
X63094810Y-97630948D01*
X62973857Y-97509995D01*
X62913381Y-97389043D01*
X62852905Y-97147138D01*
X62852905Y-96965710D01*
X62913381Y-96723805D01*
X62973857Y-96602852D01*
X63094810Y-96481900D01*
X63276238Y-96421424D01*
X63397190Y-96421424D01*
X63578619Y-96481900D01*
X63639095Y-96542376D01*
X156857095Y-97316471D02*
X156796619Y-97376948D01*
X156615190Y-97437424D01*
X156494238Y-97437424D01*
X156312810Y-97376948D01*
X156191857Y-97255995D01*
X156131381Y-97135043D01*
X156070905Y-96893138D01*
X156070905Y-96711710D01*
X156131381Y-96469805D01*
X156191857Y-96348852D01*
X156312810Y-96227900D01*
X156494238Y-96167424D01*
X156615190Y-96167424D01*
X156796619Y-96227900D01*
X156857095Y-96288376D01*
X156796619Y-103593900D02*
X156675667Y-103533424D01*
X156494238Y-103533424D01*
X156312810Y-103593900D01*
X156191857Y-103714852D01*
X156131381Y-103835805D01*
X156070905Y-104077710D01*
X156070905Y-104259138D01*
X156131381Y-104501043D01*
X156191857Y-104621995D01*
X156312810Y-104742948D01*
X156494238Y-104803424D01*
X156615190Y-104803424D01*
X156796619Y-104742948D01*
X156857095Y-104682471D01*
X156857095Y-104259138D01*
X156615190Y-104259138D01*
X156857095Y-102263424D02*
X156433762Y-101658662D01*
X156131381Y-102263424D02*
X156131381Y-100993424D01*
X156615190Y-100993424D01*
X156736143Y-101053900D01*
X156796619Y-101114376D01*
X156857095Y-101235329D01*
X156857095Y-101416757D01*
X156796619Y-101537710D01*
X156736143Y-101598186D01*
X156615190Y-101658662D01*
X156131381Y-101658662D01*
X156857096Y-99723424D02*
X156252334Y-99723424D01*
X156252334Y-98453424D01*
X156131381Y-94897424D02*
X156131381Y-93627424D01*
X156433762Y-93627424D01*
X156615190Y-93687900D01*
X156736143Y-93808852D01*
X156796619Y-93929805D01*
X156857095Y-94171710D01*
X156857095Y-94353138D01*
X156796619Y-94595043D01*
X156736143Y-94715995D01*
X156615190Y-94836948D01*
X156433762Y-94897424D01*
X156131381Y-94897424D01*
X156040667Y-91087424D02*
X156464001Y-92357424D01*
X156887334Y-91087424D01*
X60312906Y-84676948D02*
X60494334Y-84737424D01*
X60796715Y-84737424D01*
X60917668Y-84676948D01*
X60978144Y-84616471D01*
X61038620Y-84495519D01*
X61038620Y-84374567D01*
X60978144Y-84253614D01*
X60917668Y-84193138D01*
X60796715Y-84132662D01*
X60554811Y-84072186D01*
X60433858Y-84011710D01*
X60373382Y-83951233D01*
X60312906Y-83830281D01*
X60312906Y-83709329D01*
X60373382Y-83588376D01*
X60433858Y-83527900D01*
X60554811Y-83467424D01*
X60857191Y-83467424D01*
X61038620Y-83527900D01*
X61582906Y-84737424D02*
X61582906Y-83467424D01*
X62127192Y-84737424D02*
X62127192Y-84072186D01*
X62066715Y-83951233D01*
X61945763Y-83890757D01*
X61764335Y-83890757D01*
X61643382Y-83951233D01*
X61582906Y-84011710D01*
X62731954Y-84737424D02*
X62731954Y-83890757D01*
X62731954Y-83467424D02*
X62671478Y-83527900D01*
X62731954Y-83588376D01*
X62792430Y-83527900D01*
X62731954Y-83467424D01*
X62731954Y-83588376D01*
X63155287Y-83890757D02*
X63639097Y-83890757D01*
X63336716Y-84737424D02*
X63336716Y-83648852D01*
X63397192Y-83527900D01*
X63518145Y-83467424D01*
X63639097Y-83467424D01*
X63881001Y-83890757D02*
X64364811Y-83890757D01*
X64062430Y-83467424D02*
X64062430Y-84555995D01*
X64122906Y-84676948D01*
X64243859Y-84737424D01*
X64364811Y-84737424D01*
X66481477Y-84737424D02*
X66058144Y-84132662D01*
X65755763Y-84737424D02*
X65755763Y-83467424D01*
X66239572Y-83467424D01*
X66360525Y-83527900D01*
X66421001Y-83588376D01*
X66481477Y-83709329D01*
X66481477Y-83890757D01*
X66421001Y-84011710D01*
X66360525Y-84072186D01*
X66239572Y-84132662D01*
X65755763Y-84132662D01*
X67509572Y-84676948D02*
X67388620Y-84737424D01*
X67146715Y-84737424D01*
X67025763Y-84676948D01*
X66965287Y-84555995D01*
X66965287Y-84072186D01*
X67025763Y-83951233D01*
X67146715Y-83890757D01*
X67388620Y-83890757D01*
X67509572Y-83951233D01*
X67570049Y-84072186D01*
X67570049Y-84193138D01*
X66965287Y-84314090D01*
X68658620Y-83890757D02*
X68658620Y-84918852D01*
X68598143Y-85039805D01*
X68537667Y-85100281D01*
X68416715Y-85160757D01*
X68235286Y-85160757D01*
X68114334Y-85100281D01*
X68658620Y-84676948D02*
X68537667Y-84737424D01*
X68295763Y-84737424D01*
X68174810Y-84676948D01*
X68114334Y-84616471D01*
X68053858Y-84495519D01*
X68053858Y-84132662D01*
X68114334Y-84011710D01*
X68174810Y-83951233D01*
X68295763Y-83890757D01*
X68537667Y-83890757D01*
X68658620Y-83951233D01*
X69263382Y-84737424D02*
X69263382Y-83890757D01*
X69263382Y-83467424D02*
X69202906Y-83527900D01*
X69263382Y-83588376D01*
X69323858Y-83527900D01*
X69263382Y-83467424D01*
X69263382Y-83588376D01*
X69807668Y-84676948D02*
X69928620Y-84737424D01*
X70170525Y-84737424D01*
X70291477Y-84676948D01*
X70351953Y-84555995D01*
X70351953Y-84495519D01*
X70291477Y-84374567D01*
X70170525Y-84314090D01*
X69989096Y-84314090D01*
X69868144Y-84253614D01*
X69807668Y-84132662D01*
X69807668Y-84072186D01*
X69868144Y-83951233D01*
X69989096Y-83890757D01*
X70170525Y-83890757D01*
X70291477Y-83951233D01*
X70714810Y-83890757D02*
X71198620Y-83890757D01*
X70896239Y-83467424D02*
X70896239Y-84555995D01*
X70956715Y-84676948D01*
X71077668Y-84737424D01*
X71198620Y-84737424D01*
X72105762Y-84676948D02*
X71984810Y-84737424D01*
X71742905Y-84737424D01*
X71621953Y-84676948D01*
X71561477Y-84555995D01*
X71561477Y-84072186D01*
X71621953Y-83951233D01*
X71742905Y-83890757D01*
X71984810Y-83890757D01*
X72105762Y-83951233D01*
X72166239Y-84072186D01*
X72166239Y-84193138D01*
X71561477Y-84314090D01*
X72710524Y-84737424D02*
X72710524Y-83890757D01*
X72710524Y-84132662D02*
X72771000Y-84011710D01*
X72831476Y-83951233D01*
X72952429Y-83890757D01*
X73073381Y-83890757D01*
X74343381Y-83890757D02*
X74645762Y-84737424D01*
X74948142Y-83890757D01*
X75371476Y-83588376D02*
X75431952Y-83527900D01*
X75552904Y-83467424D01*
X75855285Y-83467424D01*
X75976238Y-83527900D01*
X76036714Y-83588376D01*
X76097190Y-83709329D01*
X76097190Y-83830281D01*
X76036714Y-84011710D01*
X75311000Y-84737424D01*
X76097190Y-84737424D01*
X76641476Y-84616471D02*
X76701952Y-84676948D01*
X76641476Y-84737424D01*
X76581000Y-84676948D01*
X76641476Y-84616471D01*
X76641476Y-84737424D01*
X77488143Y-83467424D02*
X77609095Y-83467424D01*
X77730047Y-83527900D01*
X77790524Y-83588376D01*
X77851000Y-83709329D01*
X77911476Y-83951233D01*
X77911476Y-84253614D01*
X77851000Y-84495519D01*
X77790524Y-84616471D01*
X77730047Y-84676948D01*
X77609095Y-84737424D01*
X77488143Y-84737424D01*
X77367190Y-84676948D01*
X77306714Y-84616471D01*
X77246238Y-84495519D01*
X77185762Y-84253614D01*
X77185762Y-83951233D01*
X77246238Y-83709329D01*
X77306714Y-83588376D01*
X77367190Y-83527900D01*
X77488143Y-83467424D01*
D12*
X82022286Y-101859471D02*
X82022286Y-100359471D01*
X82879429Y-101859471D01*
X82879429Y-100359471D01*
X84308001Y-101859471D02*
X83593715Y-101859471D01*
X83593715Y-100359471D01*
X83776286Y-95001471D02*
X83062000Y-95001471D01*
X83062000Y-93501471D01*
D11*
X89964381Y-89115900D02*
X89843429Y-89055424D01*
X89662000Y-89055424D01*
X89480572Y-89115900D01*
X89359619Y-89236852D01*
X89299143Y-89357805D01*
X89238667Y-89599710D01*
X89238667Y-89781138D01*
X89299143Y-90023043D01*
X89359619Y-90143995D01*
X89480572Y-90264948D01*
X89662000Y-90325424D01*
X89782952Y-90325424D01*
X89964381Y-90264948D01*
X90024857Y-90204471D01*
X90024857Y-89781138D01*
X89782952Y-89781138D01*
X90569143Y-90325424D02*
X90569143Y-89055424D01*
X91294857Y-90325424D01*
X91294857Y-89055424D01*
X91899619Y-90325424D02*
X91899619Y-89055424D01*
X92202000Y-89055424D01*
X92383428Y-89115900D01*
X92504381Y-89236852D01*
X92564857Y-89357805D01*
X92625333Y-89599710D01*
X92625333Y-89781138D01*
X92564857Y-90023043D01*
X92504381Y-90143995D01*
X92383428Y-90264948D01*
X92202000Y-90325424D01*
X91899619Y-90325424D01*
X90145810Y-87531424D02*
X90387715Y-87531424D01*
X90508667Y-87470948D01*
X90569143Y-87410471D01*
X90690096Y-87229043D01*
X90750572Y-86987138D01*
X90750572Y-86503329D01*
X90690096Y-86382376D01*
X90629620Y-86321900D01*
X90508667Y-86261424D01*
X90266763Y-86261424D01*
X90145810Y-86321900D01*
X90085334Y-86382376D01*
X90024858Y-86503329D01*
X90024858Y-86805710D01*
X90085334Y-86926662D01*
X90145810Y-86987138D01*
X90266763Y-87047614D01*
X90508667Y-87047614D01*
X90629620Y-86987138D01*
X90690096Y-86926662D01*
X90750572Y-86805710D01*
X91113429Y-86261424D02*
X91536763Y-87531424D01*
X91960096Y-86261424D01*
D13*
X87320888Y-86701996D02*
G75*
G03X87336000Y-89726900I-2484888J-1524904D01*
G01*
X87336000Y-86726900D02*
X87336000Y-89726900D01*
X87353936Y-88226900D02*
G75*
G03X87353936Y-88226900I-2517936J0D01*
G01*
X64786000Y-102130900D02*
X64886000Y-102130900D01*
X64736000Y-102230900D02*
X64736000Y-101880900D01*
X64736000Y-101880900D02*
G75*
G03X65086000Y-102230900I1050000J700000D01*
G01*
X64736000Y-102230900D02*
X65086000Y-102230900D01*
X69200214Y-98180900D02*
G75*
G03X69200214Y-98180900I-1414214J0D01*
G01*
X70786000Y-100180900D02*
X70786000Y-96180900D01*
X64786000Y-100180900D02*
X64786000Y-96180900D01*
X68536000Y-101180900D02*
X67036000Y-101180900D01*
X67036000Y-95180900D02*
X68536000Y-95180900D01*
D10*
X67786000Y-101180900D02*
X67786000Y-101180900D01*
X70786000Y-96180900D02*
X70786000Y-100180900D01*
X64786000Y-96180900D02*
X64786000Y-100180900D01*
X67786000Y-95180900D02*
X67786000Y-95180900D01*
X69200214Y-98180900D02*
G75*
G03X69200214Y-98180900I-1414214J0D01*
G01*
D13*
X102072000Y-85440900D02*
X102072000Y-91440900D01*
X97572000Y-91440900D02*
X97572000Y-85440900D01*
X102489904Y-103919788D02*
G75*
G03X99465000Y-103934900I-1524904J2484888D01*
G01*
X102465000Y-103934900D02*
X99465000Y-103934900D01*
X103482936Y-101434900D02*
G75*
G03X103482936Y-101434900I-2517936J0D01*
G01*
X71366000Y-90730900D02*
X65366000Y-90730900D01*
X65366000Y-86230900D02*
X71366000Y-86230900D01*
X107152000Y-85313900D02*
X107152000Y-91313900D01*
X102652000Y-91313900D02*
X102652000Y-85313900D01*
X73985500Y-86294400D02*
X79985500Y-86294400D01*
X79985500Y-90794400D02*
X73985500Y-90794400D01*
X90559000Y-110741900D02*
X96559000Y-110741900D01*
X96559000Y-115241900D02*
X90559000Y-115241900D01*
X113629000Y-85440900D02*
X113629000Y-91440900D01*
X109129000Y-91440900D02*
X109129000Y-85440900D01*
X64571112Y-107785804D02*
G75*
G03X64556000Y-104760900I2484888J1524904D01*
G01*
X64556000Y-107760900D02*
X64556000Y-104760900D01*
X69573936Y-106260900D02*
G75*
G03X69573936Y-106260900I-2517936J0D01*
G01*
X74731112Y-107912804D02*
G75*
G03X74716000Y-104887900I2484888J1524904D01*
G01*
X74716000Y-107887900D02*
X74716000Y-104887900D01*
X79733936Y-106387900D02*
G75*
G03X79733936Y-106387900I-2517936J0D01*
G01*
X150559404Y-104173788D02*
G75*
G03X147534500Y-104188900I-1524904J2484888D01*
G01*
X150534500Y-104188900D02*
X147534500Y-104188900D01*
X151552436Y-101688900D02*
G75*
G03X151552436Y-101688900I-2517936J0D01*
G01*
X143383904Y-104110288D02*
G75*
G03X140359000Y-104125400I-1524904J2484888D01*
G01*
X143359000Y-104125400D02*
X140359000Y-104125400D01*
X144376936Y-101625400D02*
G75*
G03X144376936Y-101625400I-2517936J0D01*
G01*
X136525904Y-104110288D02*
G75*
G03X133501000Y-104125400I-1524904J2484888D01*
G01*
X136501000Y-104125400D02*
X133501000Y-104125400D01*
X137518936Y-101625400D02*
G75*
G03X137518936Y-101625400I-2517936J0D01*
G01*
X129794904Y-104046788D02*
G75*
G03X126770000Y-104061900I-1524904J2484888D01*
G01*
X129770000Y-104061900D02*
X126770000Y-104061900D01*
X130787936Y-101561900D02*
G75*
G03X130787936Y-101561900I-2517936J0D01*
G01*
X122873404Y-104110288D02*
G75*
G03X119848500Y-104125400I-1524904J2484888D01*
G01*
X122848500Y-104125400D02*
X119848500Y-104125400D01*
X123866436Y-101625400D02*
G75*
G03X123866436Y-101625400I-2517936J0D01*
G01*
X116269404Y-103919788D02*
G75*
G03X113244500Y-103934900I-1524904J2484888D01*
G01*
X116244500Y-103934900D02*
X113244500Y-103934900D01*
X117262436Y-101434900D02*
G75*
G03X117262436Y-101434900I-2517936J0D01*
G01*
X109411404Y-103665788D02*
G75*
G03X106386500Y-103680900I-1524904J2484888D01*
G01*
X109386500Y-103680900D02*
X106386500Y-103680900D01*
X110404436Y-101180900D02*
G75*
G03X110404436Y-101180900I-2517936J0D01*
G01*
X67564000Y-114261900D02*
X62484000Y-114261900D01*
X62484000Y-114261900D02*
X62484000Y-111721900D01*
X62484000Y-111721900D02*
X67564000Y-111721900D01*
X67564000Y-111721900D02*
X67564000Y-114261900D01*
X75057000Y-111721900D02*
X80137000Y-111721900D01*
X80137000Y-111721900D02*
X80137000Y-114261900D01*
X80137000Y-114261900D02*
X75057000Y-114261900D01*
X75057000Y-114261900D02*
X75057000Y-111721900D01*
X145796000Y-90766900D02*
X150876000Y-90766900D01*
X150876000Y-90766900D02*
X150876000Y-93306900D01*
X150876000Y-93306900D02*
X145796000Y-93306900D01*
X145796000Y-93306900D02*
X145796000Y-90766900D01*
X98679000Y-95846900D02*
X93599000Y-95846900D01*
X93599000Y-95846900D02*
X93599000Y-93306900D01*
X93599000Y-93306900D02*
X98679000Y-93306900D01*
X98679000Y-93306900D02*
X98679000Y-95846900D01*
X87503000Y-107657900D02*
X87503000Y-112737900D01*
X87503000Y-112737900D02*
X84963000Y-112737900D01*
X84963000Y-112737900D02*
X84963000Y-107657900D01*
X84963000Y-107657900D02*
X87503000Y-107657900D01*
X150876000Y-88480900D02*
X145796000Y-88480900D01*
X145796000Y-88480900D02*
X145796000Y-85940900D01*
X145796000Y-85940900D02*
X150876000Y-85940900D01*
X150876000Y-85940900D02*
X150876000Y-88480900D01*
X150304500Y-107911900D02*
X150304500Y-112991900D01*
X150304500Y-112991900D02*
X147764500Y-112991900D01*
X147764500Y-112991900D02*
X147764500Y-107911900D01*
X147764500Y-107911900D02*
X150304500Y-107911900D01*
X143129000Y-107911900D02*
X143129000Y-112991900D01*
X143129000Y-112991900D02*
X140589000Y-112991900D01*
X140589000Y-112991900D02*
X140589000Y-107911900D01*
X140589000Y-107911900D02*
X143129000Y-107911900D01*
X136334500Y-107911900D02*
X136334500Y-112991900D01*
X136334500Y-112991900D02*
X133794500Y-112991900D01*
X133794500Y-112991900D02*
X133794500Y-107911900D01*
X133794500Y-107911900D02*
X136334500Y-107911900D01*
X129540000Y-107911900D02*
X129540000Y-112991900D01*
X129540000Y-112991900D02*
X127000000Y-112991900D01*
X127000000Y-112991900D02*
X127000000Y-107911900D01*
X127000000Y-107911900D02*
X129540000Y-107911900D01*
X122555000Y-107911900D02*
X122555000Y-112991900D01*
X122555000Y-112991900D02*
X120015000Y-112991900D01*
X120015000Y-112991900D02*
X120015000Y-107911900D01*
X120015000Y-107911900D02*
X122555000Y-107911900D01*
X115887500Y-107848400D02*
X115887500Y-112928400D01*
X115887500Y-112928400D02*
X113347500Y-112928400D01*
X113347500Y-112928400D02*
X113347500Y-107848400D01*
X113347500Y-107848400D02*
X115887500Y-107848400D01*
X109156500Y-107848400D02*
X109156500Y-112928400D01*
X109156500Y-112928400D02*
X106616500Y-112928400D01*
X106616500Y-112928400D02*
X106616500Y-107848400D01*
X106616500Y-107848400D02*
X109156500Y-107848400D01*
X102298500Y-107848400D02*
X102298500Y-112928400D01*
X102298500Y-112928400D02*
X99758500Y-112928400D01*
X99758500Y-112928400D02*
X99758500Y-107848400D01*
X99758500Y-107848400D02*
X102298500Y-107848400D01*
X152654000Y-101688900D02*
X152654000Y-96608900D01*
X152654000Y-96608900D02*
X155194000Y-96608900D01*
X155194000Y-96608900D02*
X155194000Y-101688900D01*
X155194000Y-101688900D02*
X152654000Y-101688900D01*
X74247500Y-102130900D02*
X74347500Y-102130900D01*
X74197500Y-102230900D02*
X74197500Y-101880900D01*
X74197500Y-101880900D02*
G75*
G03X74547500Y-102230900I1050000J700000D01*
G01*
X74197500Y-102230900D02*
X74547500Y-102230900D01*
X78661714Y-98180900D02*
G75*
G03X78661714Y-98180900I-1414214J0D01*
G01*
X80247500Y-100180900D02*
X80247500Y-96180900D01*
X74247500Y-100180900D02*
X74247500Y-96180900D01*
X77997500Y-101180900D02*
X76497500Y-101180900D01*
X76497500Y-95180900D02*
X77997500Y-95180900D01*
D10*
X77247500Y-101180900D02*
X77247500Y-101180900D01*
X80247500Y-96180900D02*
X80247500Y-100180900D01*
X74247500Y-96180900D02*
X74247500Y-100180900D01*
X77247500Y-95180900D02*
X77247500Y-95180900D01*
X78661714Y-98180900D02*
G75*
G03X78661714Y-98180900I-1414214J0D01*
G01*
D13*
X161224000Y-114245900D02*
X161224000Y-114145900D01*
X161324000Y-114295900D02*
X160974000Y-114295900D01*
X160974000Y-114295900D02*
G75*
G03X161324000Y-113945900I-700000J1050000D01*
G01*
X161324000Y-114295900D02*
X161324000Y-113945900D01*
X158688214Y-111245900D02*
G75*
G03X158688214Y-111245900I-1414214J0D01*
G01*
X159274000Y-108245900D02*
X155274000Y-108245900D01*
X159274000Y-114245900D02*
X155274000Y-114245900D01*
X160274000Y-110495900D02*
X160274000Y-111995900D01*
X154274000Y-111995900D02*
X154274000Y-110495900D01*
D10*
X160274000Y-111245900D02*
X160274000Y-111245900D01*
X155274000Y-108245900D02*
X159274000Y-108245900D01*
X155274000Y-114245900D02*
X159274000Y-114245900D01*
X154274000Y-111245900D02*
X154274000Y-111245900D01*
X158688214Y-111245900D02*
G75*
G03X158688214Y-111245900I-1414214J0D01*
G01*
D13*
X91186000Y-103847900D02*
X92329000Y-103847900D01*
X91186000Y-100799900D02*
X92329000Y-100799900D01*
X92329000Y-96989900D02*
X96012000Y-96989900D01*
X96012000Y-96989900D02*
X96012000Y-107657900D01*
X96012000Y-107657900D02*
X92329000Y-107657900D01*
X91186000Y-96989900D02*
X92329000Y-96989900D01*
X92329000Y-96989900D02*
X92329000Y-107657900D01*
X92329000Y-107657900D02*
X91186000Y-107657900D01*
X91186000Y-102323900D02*
X91186000Y-107657900D01*
X91186000Y-102323900D02*
X91186000Y-96989900D01*
X116450000Y-93870400D02*
X117720000Y-93870400D01*
X116450000Y-86520400D02*
X117720000Y-86520400D01*
X138820000Y-86520400D02*
X137550000Y-86520400D01*
X138820000Y-93870400D02*
X137550000Y-93870400D01*
X116450000Y-93870400D02*
X116450000Y-86520400D01*
X138820000Y-93870400D02*
X138820000Y-86520400D01*
X117720000Y-93870400D02*
X117720000Y-95155400D01*
X96012000Y-88480900D02*
X96012000Y-91020900D01*
X96292000Y-85660900D02*
X96292000Y-87210900D01*
X96012000Y-88480900D02*
X93472000Y-88480900D01*
X93192000Y-87210900D02*
X93192000Y-85660900D01*
X93192000Y-85660900D02*
X96292000Y-85660900D01*
X93472000Y-88480900D02*
X93472000Y-91020900D01*
X93472000Y-91020900D02*
X96012000Y-91020900D01*
X61976000Y-92964000D02*
X61976000Y-105664000D01*
X61976000Y-105664000D02*
X59436000Y-105664000D01*
X59436000Y-105664000D02*
X59436000Y-92964000D01*
X62256000Y-90144000D02*
X62256000Y-91694000D01*
X61976000Y-92964000D02*
X59436000Y-92964000D01*
X59156000Y-91694000D02*
X59156000Y-90144000D01*
X59156000Y-90144000D02*
X62256000Y-90144000D01*
X160782000Y-92710000D02*
X160782000Y-105410000D01*
X160782000Y-105410000D02*
X158242000Y-105410000D01*
X158242000Y-105410000D02*
X158242000Y-92710000D01*
X161062000Y-89890000D02*
X161062000Y-91440000D01*
X160782000Y-92710000D02*
X158242000Y-92710000D01*
X157962000Y-91440000D02*
X157962000Y-89890000D01*
X157962000Y-89890000D02*
X161062000Y-89890000D01*
X89526000Y-102644900D02*
X85226000Y-102644900D01*
X87376000Y-92604900D02*
X85226000Y-92604900D01*
X89526000Y-102644900D02*
X89526000Y-92604900D01*
X85226000Y-102644900D02*
X85226000Y-92604900D01*
X88016000Y-97624900D02*
X86736000Y-97624900D01*
X88016000Y-99654900D02*
X88016000Y-95594900D01*
X88016000Y-95594900D02*
X86736000Y-95594900D01*
X86736000Y-95594900D02*
X86736000Y-99654900D01*
X86736000Y-99654900D02*
X88016000Y-99654900D01*
X83843905Y-84615281D02*
X83843905Y-83615281D01*
X84082000Y-83615281D01*
X84224858Y-83662900D01*
X84320096Y-83758138D01*
X84367715Y-83853376D01*
X84415334Y-84043852D01*
X84415334Y-84186710D01*
X84367715Y-84377186D01*
X84320096Y-84472424D01*
X84224858Y-84567662D01*
X84082000Y-84615281D01*
X83843905Y-84615281D01*
X84748667Y-83615281D02*
X85367715Y-83615281D01*
X85034381Y-83996233D01*
X85177239Y-83996233D01*
X85272477Y-84043852D01*
X85320096Y-84091471D01*
X85367715Y-84186710D01*
X85367715Y-84424805D01*
X85320096Y-84520043D01*
X85272477Y-84567662D01*
X85177239Y-84615281D01*
X84891524Y-84615281D01*
X84796286Y-84567662D01*
X84748667Y-84520043D01*
X66318000Y-93060781D02*
X66318000Y-92060781D01*
X66556095Y-92060781D01*
X66698953Y-92108400D01*
X66794191Y-92203638D01*
X66841810Y-92298876D01*
X66889429Y-92489352D01*
X66889429Y-92632210D01*
X66841810Y-92822686D01*
X66794191Y-92917924D01*
X66698953Y-93013162D01*
X66556095Y-93060781D01*
X66318000Y-93060781D01*
X67270381Y-92775067D02*
X67746572Y-92775067D01*
X67175143Y-93060781D02*
X67508476Y-92060781D01*
X67841810Y-93060781D01*
X68032286Y-92060781D02*
X68603715Y-92060781D01*
X68318000Y-93060781D02*
X68318000Y-92060781D01*
X68889429Y-92775067D02*
X69365620Y-92775067D01*
X68794191Y-93060781D02*
X69127524Y-92060781D01*
X69460858Y-93060781D01*
X99782334Y-88711043D02*
X99734715Y-88758662D01*
X99591858Y-88806281D01*
X99496620Y-88806281D01*
X99353762Y-88758662D01*
X99258524Y-88663424D01*
X99210905Y-88568186D01*
X99163286Y-88377710D01*
X99163286Y-88234852D01*
X99210905Y-88044376D01*
X99258524Y-87949138D01*
X99353762Y-87853900D01*
X99496620Y-87806281D01*
X99591858Y-87806281D01*
X99734715Y-87853900D01*
X99782334Y-87901519D01*
X100734715Y-88806281D02*
X100163286Y-88806281D01*
X100449000Y-88806281D02*
X100449000Y-87806281D01*
X100353762Y-87949138D01*
X100258524Y-88044376D01*
X100163286Y-88091995D01*
X99814214Y-98204281D02*
X99814214Y-97204281D01*
X100052309Y-97204281D01*
X100195167Y-97251900D01*
X100290405Y-97347138D01*
X100338024Y-97442376D01*
X100385643Y-97632852D01*
X100385643Y-97775710D01*
X100338024Y-97966186D01*
X100290405Y-98061424D01*
X100195167Y-98156662D01*
X100052309Y-98204281D01*
X99814214Y-98204281D01*
X101338024Y-98204281D02*
X100766595Y-98204281D01*
X101052309Y-98204281D02*
X101052309Y-97204281D01*
X100957071Y-97347138D01*
X100861833Y-97442376D01*
X100766595Y-97489995D01*
X102290405Y-98204281D02*
X101718976Y-98204281D01*
X102004690Y-98204281D02*
X102004690Y-97204281D01*
X101909452Y-97347138D01*
X101814214Y-97442376D01*
X101718976Y-97489995D01*
X68159334Y-88838043D02*
X68111715Y-88885662D01*
X67968858Y-88933281D01*
X67873620Y-88933281D01*
X67730762Y-88885662D01*
X67635524Y-88790424D01*
X67587905Y-88695186D01*
X67540286Y-88504710D01*
X67540286Y-88361852D01*
X67587905Y-88171376D01*
X67635524Y-88076138D01*
X67730762Y-87980900D01*
X67873620Y-87933281D01*
X67968858Y-87933281D01*
X68111715Y-87980900D01*
X68159334Y-88028519D01*
X68540286Y-88028519D02*
X68587905Y-87980900D01*
X68683143Y-87933281D01*
X68921239Y-87933281D01*
X69016477Y-87980900D01*
X69064096Y-88028519D01*
X69111715Y-88123757D01*
X69111715Y-88218995D01*
X69064096Y-88361852D01*
X68492667Y-88933281D01*
X69111715Y-88933281D01*
X104735334Y-88584043D02*
X104687715Y-88631662D01*
X104544858Y-88679281D01*
X104449620Y-88679281D01*
X104306762Y-88631662D01*
X104211524Y-88536424D01*
X104163905Y-88441186D01*
X104116286Y-88250710D01*
X104116286Y-88107852D01*
X104163905Y-87917376D01*
X104211524Y-87822138D01*
X104306762Y-87726900D01*
X104449620Y-87679281D01*
X104544858Y-87679281D01*
X104687715Y-87726900D01*
X104735334Y-87774519D01*
X105068667Y-87679281D02*
X105687715Y-87679281D01*
X105354381Y-88060233D01*
X105497239Y-88060233D01*
X105592477Y-88107852D01*
X105640096Y-88155471D01*
X105687715Y-88250710D01*
X105687715Y-88488805D01*
X105640096Y-88584043D01*
X105592477Y-88631662D01*
X105497239Y-88679281D01*
X105211524Y-88679281D01*
X105116286Y-88631662D01*
X105068667Y-88584043D01*
X76795334Y-88838043D02*
X76747715Y-88885662D01*
X76604858Y-88933281D01*
X76509620Y-88933281D01*
X76366762Y-88885662D01*
X76271524Y-88790424D01*
X76223905Y-88695186D01*
X76176286Y-88504710D01*
X76176286Y-88361852D01*
X76223905Y-88171376D01*
X76271524Y-88076138D01*
X76366762Y-87980900D01*
X76509620Y-87933281D01*
X76604858Y-87933281D01*
X76747715Y-87980900D01*
X76795334Y-88028519D01*
X77652477Y-88266614D02*
X77652477Y-88933281D01*
X77414381Y-87885662D02*
X77176286Y-88599948D01*
X77795334Y-88599948D01*
X93305334Y-113476043D02*
X93257715Y-113523662D01*
X93114858Y-113571281D01*
X93019620Y-113571281D01*
X92876762Y-113523662D01*
X92781524Y-113428424D01*
X92733905Y-113333186D01*
X92686286Y-113142710D01*
X92686286Y-112999852D01*
X92733905Y-112809376D01*
X92781524Y-112714138D01*
X92876762Y-112618900D01*
X93019620Y-112571281D01*
X93114858Y-112571281D01*
X93257715Y-112618900D01*
X93305334Y-112666519D01*
X94210096Y-112571281D02*
X93733905Y-112571281D01*
X93686286Y-113047471D01*
X93733905Y-112999852D01*
X93829143Y-112952233D01*
X94067239Y-112952233D01*
X94162477Y-112999852D01*
X94210096Y-113047471D01*
X94257715Y-113142710D01*
X94257715Y-113380805D01*
X94210096Y-113476043D01*
X94162477Y-113523662D01*
X94067239Y-113571281D01*
X93829143Y-113571281D01*
X93733905Y-113523662D01*
X93686286Y-113476043D01*
X111085334Y-88838043D02*
X111037715Y-88885662D01*
X110894858Y-88933281D01*
X110799620Y-88933281D01*
X110656762Y-88885662D01*
X110561524Y-88790424D01*
X110513905Y-88695186D01*
X110466286Y-88504710D01*
X110466286Y-88361852D01*
X110513905Y-88171376D01*
X110561524Y-88076138D01*
X110656762Y-87980900D01*
X110799620Y-87933281D01*
X110894858Y-87933281D01*
X111037715Y-87980900D01*
X111085334Y-88028519D01*
X111942477Y-87933281D02*
X111752000Y-87933281D01*
X111656762Y-87980900D01*
X111609143Y-88028519D01*
X111513905Y-88171376D01*
X111466286Y-88361852D01*
X111466286Y-88742805D01*
X111513905Y-88838043D01*
X111561524Y-88885662D01*
X111656762Y-88933281D01*
X111847239Y-88933281D01*
X111942477Y-88885662D01*
X111990096Y-88838043D01*
X112037715Y-88742805D01*
X112037715Y-88504710D01*
X111990096Y-88409471D01*
X111942477Y-88361852D01*
X111847239Y-88314233D01*
X111656762Y-88314233D01*
X111561524Y-88361852D01*
X111513905Y-88409471D01*
X111466286Y-88504710D01*
X71445381Y-106871995D02*
X70445381Y-106871995D01*
X70445381Y-106633900D01*
X70493000Y-106491042D01*
X70588238Y-106395804D01*
X70683476Y-106348185D01*
X70873952Y-106300566D01*
X71016810Y-106300566D01*
X71207286Y-106348185D01*
X71302524Y-106395804D01*
X71397762Y-106491042D01*
X71445381Y-106633900D01*
X71445381Y-106871995D01*
X71445381Y-105348185D02*
X71445381Y-105919614D01*
X71445381Y-105633900D02*
X70445381Y-105633900D01*
X70588238Y-105729138D01*
X70683476Y-105824376D01*
X70731095Y-105919614D01*
X81732381Y-107252995D02*
X80732381Y-107252995D01*
X80732381Y-107014900D01*
X80780000Y-106872042D01*
X80875238Y-106776804D01*
X80970476Y-106729185D01*
X81160952Y-106681566D01*
X81303810Y-106681566D01*
X81494286Y-106729185D01*
X81589524Y-106776804D01*
X81684762Y-106872042D01*
X81732381Y-107014900D01*
X81732381Y-107252995D01*
X80827619Y-106300614D02*
X80780000Y-106252995D01*
X80732381Y-106157757D01*
X80732381Y-105919661D01*
X80780000Y-105824423D01*
X80827619Y-105776804D01*
X80922857Y-105729185D01*
X81018095Y-105729185D01*
X81160952Y-105776804D01*
X81732381Y-106348233D01*
X81732381Y-105729185D01*
X148423405Y-98267781D02*
X148423405Y-97267781D01*
X148661500Y-97267781D01*
X148804358Y-97315400D01*
X148899596Y-97410638D01*
X148947215Y-97505876D01*
X148994834Y-97696352D01*
X148994834Y-97839210D01*
X148947215Y-98029686D01*
X148899596Y-98124924D01*
X148804358Y-98220162D01*
X148661500Y-98267781D01*
X148423405Y-98267781D01*
X149851977Y-97601114D02*
X149851977Y-98267781D01*
X149613881Y-97220162D02*
X149375786Y-97934448D01*
X149994834Y-97934448D01*
X141120905Y-98267781D02*
X141120905Y-97267781D01*
X141359000Y-97267781D01*
X141501858Y-97315400D01*
X141597096Y-97410638D01*
X141644715Y-97505876D01*
X141692334Y-97696352D01*
X141692334Y-97839210D01*
X141644715Y-98029686D01*
X141597096Y-98124924D01*
X141501858Y-98220162D01*
X141359000Y-98267781D01*
X141120905Y-98267781D01*
X142597096Y-97267781D02*
X142120905Y-97267781D01*
X142073286Y-97743971D01*
X142120905Y-97696352D01*
X142216143Y-97648733D01*
X142454239Y-97648733D01*
X142549477Y-97696352D01*
X142597096Y-97743971D01*
X142644715Y-97839210D01*
X142644715Y-98077305D01*
X142597096Y-98172543D01*
X142549477Y-98220162D01*
X142454239Y-98267781D01*
X142216143Y-98267781D01*
X142120905Y-98220162D01*
X142073286Y-98172543D01*
X134262905Y-98331281D02*
X134262905Y-97331281D01*
X134501000Y-97331281D01*
X134643858Y-97378900D01*
X134739096Y-97474138D01*
X134786715Y-97569376D01*
X134834334Y-97759852D01*
X134834334Y-97902710D01*
X134786715Y-98093186D01*
X134739096Y-98188424D01*
X134643858Y-98283662D01*
X134501000Y-98331281D01*
X134262905Y-98331281D01*
X135691477Y-97331281D02*
X135501000Y-97331281D01*
X135405762Y-97378900D01*
X135358143Y-97426519D01*
X135262905Y-97569376D01*
X135215286Y-97759852D01*
X135215286Y-98140805D01*
X135262905Y-98236043D01*
X135310524Y-98283662D01*
X135405762Y-98331281D01*
X135596239Y-98331281D01*
X135691477Y-98283662D01*
X135739096Y-98236043D01*
X135786715Y-98140805D01*
X135786715Y-97902710D01*
X135739096Y-97807471D01*
X135691477Y-97759852D01*
X135596239Y-97712233D01*
X135405762Y-97712233D01*
X135310524Y-97759852D01*
X135262905Y-97807471D01*
X135215286Y-97902710D01*
X127531905Y-98267781D02*
X127531905Y-97267781D01*
X127770000Y-97267781D01*
X127912858Y-97315400D01*
X128008096Y-97410638D01*
X128055715Y-97505876D01*
X128103334Y-97696352D01*
X128103334Y-97839210D01*
X128055715Y-98029686D01*
X128008096Y-98124924D01*
X127912858Y-98220162D01*
X127770000Y-98267781D01*
X127531905Y-98267781D01*
X128436667Y-97267781D02*
X129103334Y-97267781D01*
X128674762Y-98267781D01*
X120546905Y-98204281D02*
X120546905Y-97204281D01*
X120785000Y-97204281D01*
X120927858Y-97251900D01*
X121023096Y-97347138D01*
X121070715Y-97442376D01*
X121118334Y-97632852D01*
X121118334Y-97775710D01*
X121070715Y-97966186D01*
X121023096Y-98061424D01*
X120927858Y-98156662D01*
X120785000Y-98204281D01*
X120546905Y-98204281D01*
X121689762Y-97632852D02*
X121594524Y-97585233D01*
X121546905Y-97537614D01*
X121499286Y-97442376D01*
X121499286Y-97394757D01*
X121546905Y-97299519D01*
X121594524Y-97251900D01*
X121689762Y-97204281D01*
X121880239Y-97204281D01*
X121975477Y-97251900D01*
X122023096Y-97299519D01*
X122070715Y-97394757D01*
X122070715Y-97442376D01*
X122023096Y-97537614D01*
X121975477Y-97585233D01*
X121880239Y-97632852D01*
X121689762Y-97632852D01*
X121594524Y-97680471D01*
X121546905Y-97728090D01*
X121499286Y-97823329D01*
X121499286Y-98013805D01*
X121546905Y-98109043D01*
X121594524Y-98156662D01*
X121689762Y-98204281D01*
X121880239Y-98204281D01*
X121975477Y-98156662D01*
X122023096Y-98109043D01*
X122070715Y-98013805D01*
X122070715Y-97823329D01*
X122023096Y-97728090D01*
X121975477Y-97680471D01*
X121880239Y-97632852D01*
X114133405Y-98204281D02*
X114133405Y-97204281D01*
X114371500Y-97204281D01*
X114514358Y-97251900D01*
X114609596Y-97347138D01*
X114657215Y-97442376D01*
X114704834Y-97632852D01*
X114704834Y-97775710D01*
X114657215Y-97966186D01*
X114609596Y-98061424D01*
X114514358Y-98156662D01*
X114371500Y-98204281D01*
X114133405Y-98204281D01*
X115181024Y-98204281D02*
X115371500Y-98204281D01*
X115466739Y-98156662D01*
X115514358Y-98109043D01*
X115609596Y-97966186D01*
X115657215Y-97775710D01*
X115657215Y-97394757D01*
X115609596Y-97299519D01*
X115561977Y-97251900D01*
X115466739Y-97204281D01*
X115276262Y-97204281D01*
X115181024Y-97251900D01*
X115133405Y-97299519D01*
X115085786Y-97394757D01*
X115085786Y-97632852D01*
X115133405Y-97728090D01*
X115181024Y-97775710D01*
X115276262Y-97823329D01*
X115466739Y-97823329D01*
X115561977Y-97775710D01*
X115609596Y-97728090D01*
X115657215Y-97632852D01*
X106799214Y-97886781D02*
X106799214Y-96886781D01*
X107037309Y-96886781D01*
X107180167Y-96934400D01*
X107275405Y-97029638D01*
X107323024Y-97124876D01*
X107370643Y-97315352D01*
X107370643Y-97458210D01*
X107323024Y-97648686D01*
X107275405Y-97743924D01*
X107180167Y-97839162D01*
X107037309Y-97886781D01*
X106799214Y-97886781D01*
X108323024Y-97886781D02*
X107751595Y-97886781D01*
X108037309Y-97886781D02*
X108037309Y-96886781D01*
X107942071Y-97029638D01*
X107846833Y-97124876D01*
X107751595Y-97172495D01*
X108942071Y-96886781D02*
X109037310Y-96886781D01*
X109132548Y-96934400D01*
X109180167Y-96982019D01*
X109227786Y-97077257D01*
X109275405Y-97267733D01*
X109275405Y-97505829D01*
X109227786Y-97696305D01*
X109180167Y-97791543D01*
X109132548Y-97839162D01*
X109037310Y-97886781D01*
X108942071Y-97886781D01*
X108846833Y-97839162D01*
X108799214Y-97791543D01*
X108751595Y-97696305D01*
X108703976Y-97505829D01*
X108703976Y-97267733D01*
X108751595Y-97077257D01*
X108799214Y-96982019D01*
X108846833Y-96934400D01*
X108942071Y-96886781D01*
X64857334Y-113317281D02*
X64524000Y-112841090D01*
X64285905Y-113317281D02*
X64285905Y-112317281D01*
X64666858Y-112317281D01*
X64762096Y-112364900D01*
X64809715Y-112412519D01*
X64857334Y-112507757D01*
X64857334Y-112650614D01*
X64809715Y-112745852D01*
X64762096Y-112793471D01*
X64666858Y-112841090D01*
X64285905Y-112841090D01*
X65809715Y-113317281D02*
X65238286Y-113317281D01*
X65524000Y-113317281D02*
X65524000Y-112317281D01*
X65428762Y-112460138D01*
X65333524Y-112555376D01*
X65238286Y-112602995D01*
X77557334Y-113317281D02*
X77224000Y-112841090D01*
X76985905Y-113317281D02*
X76985905Y-112317281D01*
X77366858Y-112317281D01*
X77462096Y-112364900D01*
X77509715Y-112412519D01*
X77557334Y-112507757D01*
X77557334Y-112650614D01*
X77509715Y-112745852D01*
X77462096Y-112793471D01*
X77366858Y-112841090D01*
X76985905Y-112841090D01*
X77938286Y-112412519D02*
X77985905Y-112364900D01*
X78081143Y-112317281D01*
X78319239Y-112317281D01*
X78414477Y-112364900D01*
X78462096Y-112412519D01*
X78509715Y-112507757D01*
X78509715Y-112602995D01*
X78462096Y-112745852D01*
X77890667Y-113317281D01*
X78509715Y-113317281D01*
X148169334Y-92489281D02*
X147836000Y-92013090D01*
X147597905Y-92489281D02*
X147597905Y-91489281D01*
X147978858Y-91489281D01*
X148074096Y-91536900D01*
X148121715Y-91584519D01*
X148169334Y-91679757D01*
X148169334Y-91822614D01*
X148121715Y-91917852D01*
X148074096Y-91965471D01*
X147978858Y-92013090D01*
X147597905Y-92013090D01*
X148502667Y-91489281D02*
X149121715Y-91489281D01*
X148788381Y-91870233D01*
X148931239Y-91870233D01*
X149026477Y-91917852D01*
X149074096Y-91965471D01*
X149121715Y-92060710D01*
X149121715Y-92298805D01*
X149074096Y-92394043D01*
X149026477Y-92441662D01*
X148931239Y-92489281D01*
X148645524Y-92489281D01*
X148550286Y-92441662D01*
X148502667Y-92394043D01*
X96099334Y-95029281D02*
X95766000Y-94553090D01*
X95527905Y-95029281D02*
X95527905Y-94029281D01*
X95908858Y-94029281D01*
X96004096Y-94076900D01*
X96051715Y-94124519D01*
X96099334Y-94219757D01*
X96099334Y-94362614D01*
X96051715Y-94457852D01*
X96004096Y-94505471D01*
X95908858Y-94553090D01*
X95527905Y-94553090D01*
X96956477Y-94362614D02*
X96956477Y-95029281D01*
X96718381Y-93981662D02*
X96480286Y-94695948D01*
X97099334Y-94695948D01*
X86193334Y-110777281D02*
X85860000Y-110301090D01*
X85621905Y-110777281D02*
X85621905Y-109777281D01*
X86002858Y-109777281D01*
X86098096Y-109824900D01*
X86145715Y-109872519D01*
X86193334Y-109967757D01*
X86193334Y-110110614D01*
X86145715Y-110205852D01*
X86098096Y-110253471D01*
X86002858Y-110301090D01*
X85621905Y-110301090D01*
X87098096Y-109777281D02*
X86621905Y-109777281D01*
X86574286Y-110253471D01*
X86621905Y-110205852D01*
X86717143Y-110158233D01*
X86955239Y-110158233D01*
X87050477Y-110205852D01*
X87098096Y-110253471D01*
X87145715Y-110348710D01*
X87145715Y-110586805D01*
X87098096Y-110682043D01*
X87050477Y-110729662D01*
X86955239Y-110777281D01*
X86717143Y-110777281D01*
X86621905Y-110729662D01*
X86574286Y-110682043D01*
X148169334Y-87663281D02*
X147836000Y-87187090D01*
X147597905Y-87663281D02*
X147597905Y-86663281D01*
X147978858Y-86663281D01*
X148074096Y-86710900D01*
X148121715Y-86758519D01*
X148169334Y-86853757D01*
X148169334Y-86996614D01*
X148121715Y-87091852D01*
X148074096Y-87139471D01*
X147978858Y-87187090D01*
X147597905Y-87187090D01*
X149026477Y-86663281D02*
X148836000Y-86663281D01*
X148740762Y-86710900D01*
X148693143Y-86758519D01*
X148597905Y-86901376D01*
X148550286Y-87091852D01*
X148550286Y-87472805D01*
X148597905Y-87568043D01*
X148645524Y-87615662D01*
X148740762Y-87663281D01*
X148931239Y-87663281D01*
X149026477Y-87615662D01*
X149074096Y-87568043D01*
X149121715Y-87472805D01*
X149121715Y-87234710D01*
X149074096Y-87139471D01*
X149026477Y-87091852D01*
X148931239Y-87044233D01*
X148740762Y-87044233D01*
X148645524Y-87091852D01*
X148597905Y-87139471D01*
X148550286Y-87234710D01*
X149550381Y-110491566D02*
X149074190Y-110824900D01*
X149550381Y-111062995D02*
X148550381Y-111062995D01*
X148550381Y-110682042D01*
X148598000Y-110586804D01*
X148645619Y-110539185D01*
X148740857Y-110491566D01*
X148883714Y-110491566D01*
X148978952Y-110539185D01*
X149026571Y-110586804D01*
X149074190Y-110682042D01*
X149074190Y-111062995D01*
X148550381Y-110158233D02*
X148550381Y-109491566D01*
X149550381Y-109920138D01*
X142438381Y-110491566D02*
X141962190Y-110824900D01*
X142438381Y-111062995D02*
X141438381Y-111062995D01*
X141438381Y-110682042D01*
X141486000Y-110586804D01*
X141533619Y-110539185D01*
X141628857Y-110491566D01*
X141771714Y-110491566D01*
X141866952Y-110539185D01*
X141914571Y-110586804D01*
X141962190Y-110682042D01*
X141962190Y-111062995D01*
X141866952Y-109920138D02*
X141819333Y-110015376D01*
X141771714Y-110062995D01*
X141676476Y-110110614D01*
X141628857Y-110110614D01*
X141533619Y-110062995D01*
X141486000Y-110015376D01*
X141438381Y-109920138D01*
X141438381Y-109729661D01*
X141486000Y-109634423D01*
X141533619Y-109586804D01*
X141628857Y-109539185D01*
X141676476Y-109539185D01*
X141771714Y-109586804D01*
X141819333Y-109634423D01*
X141866952Y-109729661D01*
X141866952Y-109920138D01*
X141914571Y-110015376D01*
X141962190Y-110062995D01*
X142057429Y-110110614D01*
X142247905Y-110110614D01*
X142343143Y-110062995D01*
X142390762Y-110015376D01*
X142438381Y-109920138D01*
X142438381Y-109729661D01*
X142390762Y-109634423D01*
X142343143Y-109586804D01*
X142247905Y-109539185D01*
X142057429Y-109539185D01*
X141962190Y-109586804D01*
X141914571Y-109634423D01*
X141866952Y-109729661D01*
X135580381Y-110491566D02*
X135104190Y-110824900D01*
X135580381Y-111062995D02*
X134580381Y-111062995D01*
X134580381Y-110682042D01*
X134628000Y-110586804D01*
X134675619Y-110539185D01*
X134770857Y-110491566D01*
X134913714Y-110491566D01*
X135008952Y-110539185D01*
X135056571Y-110586804D01*
X135104190Y-110682042D01*
X135104190Y-111062995D01*
X135580381Y-110015376D02*
X135580381Y-109824900D01*
X135532762Y-109729661D01*
X135485143Y-109682042D01*
X135342286Y-109586804D01*
X135151810Y-109539185D01*
X134770857Y-109539185D01*
X134675619Y-109586804D01*
X134628000Y-109634423D01*
X134580381Y-109729661D01*
X134580381Y-109920138D01*
X134628000Y-110015376D01*
X134675619Y-110062995D01*
X134770857Y-110110614D01*
X135008952Y-110110614D01*
X135104190Y-110062995D01*
X135151810Y-110015376D01*
X135199429Y-109920138D01*
X135199429Y-109729661D01*
X135151810Y-109634423D01*
X135104190Y-109586804D01*
X135008952Y-109539185D01*
X128468381Y-110967757D02*
X127992190Y-111301091D01*
X128468381Y-111539186D02*
X127468381Y-111539186D01*
X127468381Y-111158233D01*
X127516000Y-111062995D01*
X127563619Y-111015376D01*
X127658857Y-110967757D01*
X127801714Y-110967757D01*
X127896952Y-111015376D01*
X127944571Y-111062995D01*
X127992190Y-111158233D01*
X127992190Y-111539186D01*
X128468381Y-110015376D02*
X128468381Y-110586805D01*
X128468381Y-110301091D02*
X127468381Y-110301091D01*
X127611238Y-110396329D01*
X127706476Y-110491567D01*
X127754095Y-110586805D01*
X127468381Y-109396329D02*
X127468381Y-109301090D01*
X127516000Y-109205852D01*
X127563619Y-109158233D01*
X127658857Y-109110614D01*
X127849333Y-109062995D01*
X128087429Y-109062995D01*
X128277905Y-109110614D01*
X128373143Y-109158233D01*
X128420762Y-109205852D01*
X128468381Y-109301090D01*
X128468381Y-109396329D01*
X128420762Y-109491567D01*
X128373143Y-109539186D01*
X128277905Y-109586805D01*
X128087429Y-109634424D01*
X127849333Y-109634424D01*
X127658857Y-109586805D01*
X127563619Y-109539186D01*
X127516000Y-109491567D01*
X127468381Y-109396329D01*
X121610381Y-110967757D02*
X121134190Y-111301091D01*
X121610381Y-111539186D02*
X120610381Y-111539186D01*
X120610381Y-111158233D01*
X120658000Y-111062995D01*
X120705619Y-111015376D01*
X120800857Y-110967757D01*
X120943714Y-110967757D01*
X121038952Y-111015376D01*
X121086571Y-111062995D01*
X121134190Y-111158233D01*
X121134190Y-111539186D01*
X121610381Y-110015376D02*
X121610381Y-110586805D01*
X121610381Y-110301091D02*
X120610381Y-110301091D01*
X120753238Y-110396329D01*
X120848476Y-110491567D01*
X120896095Y-110586805D01*
X121610381Y-109062995D02*
X121610381Y-109634424D01*
X121610381Y-109348710D02*
X120610381Y-109348710D01*
X120753238Y-109443948D01*
X120848476Y-109539186D01*
X120896095Y-109634424D01*
X115006381Y-110967757D02*
X114530190Y-111301091D01*
X115006381Y-111539186D02*
X114006381Y-111539186D01*
X114006381Y-111158233D01*
X114054000Y-111062995D01*
X114101619Y-111015376D01*
X114196857Y-110967757D01*
X114339714Y-110967757D01*
X114434952Y-111015376D01*
X114482571Y-111062995D01*
X114530190Y-111158233D01*
X114530190Y-111539186D01*
X115006381Y-110015376D02*
X115006381Y-110586805D01*
X115006381Y-110301091D02*
X114006381Y-110301091D01*
X114149238Y-110396329D01*
X114244476Y-110491567D01*
X114292095Y-110586805D01*
X114101619Y-109634424D02*
X114054000Y-109586805D01*
X114006381Y-109491567D01*
X114006381Y-109253471D01*
X114054000Y-109158233D01*
X114101619Y-109110614D01*
X114196857Y-109062995D01*
X114292095Y-109062995D01*
X114434952Y-109110614D01*
X115006381Y-109682043D01*
X115006381Y-109062995D01*
X108402381Y-110967757D02*
X107926190Y-111301091D01*
X108402381Y-111539186D02*
X107402381Y-111539186D01*
X107402381Y-111158233D01*
X107450000Y-111062995D01*
X107497619Y-111015376D01*
X107592857Y-110967757D01*
X107735714Y-110967757D01*
X107830952Y-111015376D01*
X107878571Y-111062995D01*
X107926190Y-111158233D01*
X107926190Y-111539186D01*
X108402381Y-110015376D02*
X108402381Y-110586805D01*
X108402381Y-110301091D02*
X107402381Y-110301091D01*
X107545238Y-110396329D01*
X107640476Y-110491567D01*
X107688095Y-110586805D01*
X107402381Y-109682043D02*
X107402381Y-109062995D01*
X107783333Y-109396329D01*
X107783333Y-109253471D01*
X107830952Y-109158233D01*
X107878571Y-109110614D01*
X107973810Y-109062995D01*
X108211905Y-109062995D01*
X108307143Y-109110614D01*
X108354762Y-109158233D01*
X108402381Y-109253471D01*
X108402381Y-109539186D01*
X108354762Y-109634424D01*
X108307143Y-109682043D01*
X101544381Y-110967757D02*
X101068190Y-111301091D01*
X101544381Y-111539186D02*
X100544381Y-111539186D01*
X100544381Y-111158233D01*
X100592000Y-111062995D01*
X100639619Y-111015376D01*
X100734857Y-110967757D01*
X100877714Y-110967757D01*
X100972952Y-111015376D01*
X101020571Y-111062995D01*
X101068190Y-111158233D01*
X101068190Y-111539186D01*
X101544381Y-110015376D02*
X101544381Y-110586805D01*
X101544381Y-110301091D02*
X100544381Y-110301091D01*
X100687238Y-110396329D01*
X100782476Y-110491567D01*
X100830095Y-110586805D01*
X100877714Y-109158233D02*
X101544381Y-109158233D01*
X100496762Y-109396329D02*
X101211048Y-109634424D01*
X101211048Y-109015376D01*
X154503381Y-99791757D02*
X154027190Y-100125091D01*
X154503381Y-100363186D02*
X153503381Y-100363186D01*
X153503381Y-99982233D01*
X153551000Y-99886995D01*
X153598619Y-99839376D01*
X153693857Y-99791757D01*
X153836714Y-99791757D01*
X153931952Y-99839376D01*
X153979571Y-99886995D01*
X154027190Y-99982233D01*
X154027190Y-100363186D01*
X154503381Y-98839376D02*
X154503381Y-99410805D01*
X154503381Y-99125091D02*
X153503381Y-99125091D01*
X153646238Y-99220329D01*
X153741476Y-99315567D01*
X153789095Y-99410805D01*
X153503381Y-97934614D02*
X153503381Y-98410805D01*
X153979571Y-98458424D01*
X153931952Y-98410805D01*
X153884333Y-98315567D01*
X153884333Y-98077471D01*
X153931952Y-97982233D01*
X153979571Y-97934614D01*
X154074810Y-97886995D01*
X154312905Y-97886995D01*
X154408143Y-97934614D01*
X154455762Y-97982233D01*
X154503381Y-98077471D01*
X154503381Y-98315567D01*
X154455762Y-98410805D01*
X154408143Y-98458424D01*
X75596953Y-92902043D02*
X75549334Y-92949662D01*
X75406477Y-92997281D01*
X75311239Y-92997281D01*
X75168381Y-92949662D01*
X75073143Y-92854424D01*
X75025524Y-92759186D01*
X74977905Y-92568710D01*
X74977905Y-92425852D01*
X75025524Y-92235376D01*
X75073143Y-92140138D01*
X75168381Y-92044900D01*
X75311239Y-91997281D01*
X75406477Y-91997281D01*
X75549334Y-92044900D01*
X75596953Y-92092519D01*
X76501715Y-92997281D02*
X76025524Y-92997281D01*
X76025524Y-91997281D01*
X77025524Y-91997281D02*
X77216001Y-91997281D01*
X77311239Y-92044900D01*
X77406477Y-92140138D01*
X77454096Y-92330614D01*
X77454096Y-92663948D01*
X77406477Y-92854424D01*
X77311239Y-92949662D01*
X77216001Y-92997281D01*
X77025524Y-92997281D01*
X76930286Y-92949662D01*
X76835048Y-92854424D01*
X76787429Y-92663948D01*
X76787429Y-92330614D01*
X76835048Y-92140138D01*
X76930286Y-92044900D01*
X77025524Y-91997281D01*
X78454096Y-92902043D02*
X78406477Y-92949662D01*
X78263620Y-92997281D01*
X78168382Y-92997281D01*
X78025524Y-92949662D01*
X77930286Y-92854424D01*
X77882667Y-92759186D01*
X77835048Y-92568710D01*
X77835048Y-92425852D01*
X77882667Y-92235376D01*
X77930286Y-92140138D01*
X78025524Y-92044900D01*
X78168382Y-91997281D01*
X78263620Y-91997281D01*
X78406477Y-92044900D01*
X78454096Y-92092519D01*
X78882667Y-92997281D02*
X78882667Y-91997281D01*
X79454096Y-92997281D02*
X79025524Y-92425852D01*
X79454096Y-91997281D02*
X78882667Y-92568710D01*
X155821619Y-107698281D02*
X155488285Y-107222090D01*
X155250190Y-107698281D02*
X155250190Y-106698281D01*
X155631143Y-106698281D01*
X155726381Y-106745900D01*
X155774000Y-106793519D01*
X155821619Y-106888757D01*
X155821619Y-107031614D01*
X155774000Y-107126852D01*
X155726381Y-107174471D01*
X155631143Y-107222090D01*
X155250190Y-107222090D01*
X156250190Y-107174471D02*
X156583524Y-107174471D01*
X156726381Y-107698281D02*
X156250190Y-107698281D01*
X156250190Y-106698281D01*
X156726381Y-106698281D01*
X157107333Y-107650662D02*
X157250190Y-107698281D01*
X157488286Y-107698281D01*
X157583524Y-107650662D01*
X157631143Y-107603043D01*
X157678762Y-107507805D01*
X157678762Y-107412567D01*
X157631143Y-107317329D01*
X157583524Y-107269710D01*
X157488286Y-107222090D01*
X157297809Y-107174471D01*
X157202571Y-107126852D01*
X157154952Y-107079233D01*
X157107333Y-106983995D01*
X157107333Y-106888757D01*
X157154952Y-106793519D01*
X157202571Y-106745900D01*
X157297809Y-106698281D01*
X157535905Y-106698281D01*
X157678762Y-106745900D01*
X158107333Y-107174471D02*
X158440667Y-107174471D01*
X158583524Y-107698281D02*
X158107333Y-107698281D01*
X158107333Y-106698281D01*
X158583524Y-106698281D01*
X158869238Y-106698281D02*
X159440667Y-106698281D01*
X159154952Y-107698281D02*
X159154952Y-106698281D01*
X94234095Y-108253281D02*
X94234095Y-109062805D01*
X94281714Y-109158043D01*
X94329333Y-109205662D01*
X94424571Y-109253281D01*
X94615048Y-109253281D01*
X94710286Y-109205662D01*
X94757905Y-109158043D01*
X94805524Y-109062805D01*
X94805524Y-108253281D01*
X95805524Y-109253281D02*
X95234095Y-109253281D01*
X95519809Y-109253281D02*
X95519809Y-108253281D01*
X95424571Y-108396138D01*
X95329333Y-108491376D01*
X95234095Y-108538995D01*
X139406381Y-93306805D02*
X140215905Y-93306805D01*
X140311143Y-93259186D01*
X140358762Y-93211567D01*
X140406381Y-93116329D01*
X140406381Y-92925852D01*
X140358762Y-92830614D01*
X140311143Y-92782995D01*
X140215905Y-92735376D01*
X139406381Y-92735376D01*
X139501619Y-92306805D02*
X139454000Y-92259186D01*
X139406381Y-92163948D01*
X139406381Y-91925852D01*
X139454000Y-91830614D01*
X139501619Y-91782995D01*
X139596857Y-91735376D01*
X139692095Y-91735376D01*
X139834952Y-91782995D01*
X140406381Y-92354424D01*
X140406381Y-91735376D01*
X94003905Y-84869281D02*
X94003905Y-83869281D01*
X94384858Y-83869281D01*
X94480096Y-83916900D01*
X94527715Y-83964519D01*
X94575334Y-84059757D01*
X94575334Y-84202614D01*
X94527715Y-84297852D01*
X94480096Y-84345471D01*
X94384858Y-84393090D01*
X94003905Y-84393090D01*
X94908667Y-83869281D02*
X95527715Y-83869281D01*
X95194381Y-84250233D01*
X95337239Y-84250233D01*
X95432477Y-84297852D01*
X95480096Y-84345471D01*
X95527715Y-84440710D01*
X95527715Y-84678805D01*
X95480096Y-84774043D01*
X95432477Y-84821662D01*
X95337239Y-84869281D01*
X95051524Y-84869281D01*
X94956286Y-84821662D01*
X94908667Y-84774043D01*
X60221905Y-88933281D02*
X60221905Y-87933281D01*
X60602858Y-87933281D01*
X60698096Y-87980900D01*
X60745715Y-88028519D01*
X60793334Y-88123757D01*
X60793334Y-88266614D01*
X60745715Y-88361852D01*
X60698096Y-88409471D01*
X60602858Y-88457090D01*
X60221905Y-88457090D01*
X61745715Y-88933281D02*
X61174286Y-88933281D01*
X61460000Y-88933281D02*
X61460000Y-87933281D01*
X61364762Y-88076138D01*
X61269524Y-88171376D01*
X61174286Y-88218995D01*
X158519905Y-88679281D02*
X158519905Y-87679281D01*
X158900858Y-87679281D01*
X158996096Y-87726900D01*
X159043715Y-87774519D01*
X159091334Y-87869757D01*
X159091334Y-88012614D01*
X159043715Y-88107852D01*
X158996096Y-88155471D01*
X158900858Y-88203090D01*
X158519905Y-88203090D01*
X159472286Y-87774519D02*
X159519905Y-87726900D01*
X159615143Y-87679281D01*
X159853239Y-87679281D01*
X159948477Y-87726900D01*
X159996096Y-87774519D01*
X160043715Y-87869757D01*
X160043715Y-87964995D01*
X159996096Y-88107852D01*
X159424667Y-88679281D01*
X160043715Y-88679281D01*
X85852191Y-104267281D02*
X85376000Y-104267281D01*
X85376000Y-103267281D01*
X86137905Y-103981567D02*
X86614096Y-103981567D01*
X86042667Y-104267281D02*
X86376000Y-103267281D01*
X86709334Y-104267281D01*
X86899810Y-103267281D02*
X87471239Y-103267281D01*
X87185524Y-104267281D02*
X87185524Y-103267281D01*
X88376001Y-104172043D02*
X88328382Y-104219662D01*
X88185525Y-104267281D01*
X88090287Y-104267281D01*
X87947429Y-104219662D01*
X87852191Y-104124424D01*
X87804572Y-104029186D01*
X87756953Y-103838710D01*
X87756953Y-103695852D01*
X87804572Y-103505376D01*
X87852191Y-103410138D01*
X87947429Y-103314900D01*
X88090287Y-103267281D01*
X88185525Y-103267281D01*
X88328382Y-103314900D01*
X88376001Y-103362519D01*
X88804572Y-104267281D02*
X88804572Y-103267281D01*
X88804572Y-103743471D02*
X89376001Y-103743471D01*
X89376001Y-104267281D02*
X89376001Y-103267281D01*
M02*
