G04 #@! TF.FileFunction,Soldermask,Top*
%FSLAX46Y46*%
G04 Gerber Fmt 4.6, Leading zero omitted, Abs format (unit mm)*
G04 Created by KiCad (PCBNEW 4.0.1-3.201512221402+6198~38~ubuntu14.04.1-stable) date Mon 29 Aug 2016 05:19:24 PM PDT*
%MOMM*%
G01*
G04 APERTURE LIST*
%ADD10C,0.100000*%
%ADD11R,2.300000X2.400000*%
%ADD12C,2.300000*%
%ADD13R,2.400000X2.300000*%
%ADD14O,2.000000X2.700000*%
%ADD15O,3.900120X2.099260*%
%ADD16C,2.100000*%
%ADD17C,2.398980*%
%ADD18R,2.432000X2.127200*%
%ADD19O,2.432000X2.127200*%
%ADD20R,2.432000X2.432000*%
%ADD21O,2.432000X2.432000*%
%ADD22R,1.800000X1.800000*%
%ADD23C,1.800000*%
G04 APERTURE END LIST*
D10*
D11*
X69088000Y-100672900D03*
D12*
X66548000Y-100672900D03*
D11*
X77978000Y-100672900D03*
D12*
X75438000Y-100672900D03*
D11*
X88138000Y-100672900D03*
D12*
X85598000Y-100672900D03*
D13*
X99169228Y-102577900D03*
D12*
X99169228Y-100037900D03*
D13*
X106154228Y-102577900D03*
D12*
X106154228Y-100037900D03*
D13*
X113139228Y-102577900D03*
D12*
X113139228Y-100037900D03*
D13*
X120124228Y-102577900D03*
D12*
X120124228Y-100037900D03*
D13*
X127109228Y-101942900D03*
D12*
X127109228Y-99402900D03*
D13*
X141079228Y-101942900D03*
D12*
X141079228Y-99402900D03*
D13*
X148064228Y-101942900D03*
D12*
X148064228Y-99402900D03*
D14*
X124333000Y-93052900D03*
X126873000Y-93052900D03*
X129413000Y-93052900D03*
X131953000Y-93052900D03*
X134493000Y-93052900D03*
X137033000Y-93052900D03*
X139573000Y-93052900D03*
X142113000Y-93052900D03*
X142113000Y-85432900D03*
X139573000Y-85432900D03*
X137033000Y-85432900D03*
X134493000Y-85432900D03*
X131953000Y-85432900D03*
X129413000Y-85432900D03*
X126873000Y-85432900D03*
X124333000Y-85432900D03*
D15*
X107188000Y-91147900D03*
X107188000Y-88607900D03*
X107188000Y-93687900D03*
D16*
X155258000Y-114007900D03*
X155258000Y-108007900D03*
X159258000Y-114007900D03*
X159258000Y-108007900D03*
X88773000Y-107372900D03*
X88773000Y-113372900D03*
X84773000Y-107372900D03*
X84773000Y-113372900D03*
X79248000Y-107372900D03*
X79248000Y-113372900D03*
X75248000Y-107372900D03*
X75248000Y-113372900D03*
X69913000Y-107372900D03*
X69913000Y-113372900D03*
X65913000Y-107372900D03*
X65913000Y-113372900D03*
D17*
X155448000Y-95592900D03*
X155448000Y-103212900D03*
X156083000Y-86702900D03*
X148463000Y-86702900D03*
X86868000Y-93687900D03*
X86868000Y-86067900D03*
X77343000Y-93687900D03*
X77343000Y-86067900D03*
X68453000Y-93687900D03*
X68453000Y-86067900D03*
X148064228Y-114296936D03*
X148064228Y-106676936D03*
X141079228Y-114296936D03*
X141079228Y-106676936D03*
X134094228Y-114296936D03*
X134094228Y-106676936D03*
X127109228Y-114296936D03*
X127109228Y-106676936D03*
X120124228Y-114296936D03*
X120124228Y-106676936D03*
X113139228Y-114296936D03*
X113139228Y-106676936D03*
X106154228Y-114296936D03*
X106154228Y-106676936D03*
X99169228Y-114296936D03*
X99169228Y-106676936D03*
D18*
X159258000Y-91782900D03*
D19*
X159258000Y-94322900D03*
X159258000Y-96862900D03*
X159258000Y-99402900D03*
X159258000Y-101942900D03*
X159258000Y-104482900D03*
D20*
X98298000Y-88607900D03*
D21*
X95758000Y-88607900D03*
D18*
X61468000Y-93052900D03*
D19*
X61468000Y-95592900D03*
X61468000Y-98132900D03*
X61468000Y-100672900D03*
X61468000Y-103212900D03*
X61468000Y-105752900D03*
D22*
X118618000Y-87417900D03*
D23*
X118618000Y-92417900D03*
D22*
X113538000Y-92417900D03*
D23*
X113538000Y-87417900D03*
D13*
X134094228Y-101942900D03*
D12*
X134094228Y-99402900D03*
D22*
X99488000Y-94957900D03*
D23*
X94488000Y-94957900D03*
M02*
