M48
;DRILL file {KiCad 4.0.1-3.201512221402+6198~38~ubuntu14.04.1-stable} date Wed 10 Feb 2016 11:41:15 PM PST
;FORMAT={-:-/ absolute / inch / decimal}
FMAT,2
INCH,TZ
T1C0.030
T2C0.031
T3C0.035
T4C0.039
T5C0.039
T6C0.040
%
G90
G05
M72
T1
X3.3925Y-3.6935
X3.3925Y-3.9935
T2
X4.675Y-3.401
X4.675Y-3.701
X4.775Y-3.401
X4.775Y-3.701
X4.875Y-3.401
X4.875Y-3.701
X4.975Y-3.401
X4.975Y-3.701
X5.075Y-3.401
X5.075Y-3.701
X5.175Y-3.401
X5.175Y-3.701
X5.275Y-3.401
X5.275Y-3.701
X5.375Y-3.401
X5.375Y-3.701
T3
X2.5931Y-3.4835
X2.79Y-3.4835
X2.9325Y-3.486
X3.1294Y-3.486
X3.585Y-4.4485
X3.7819Y-4.4485
X3.885Y-3.3785
X3.885Y-3.5754
X4.13Y-3.3785
X4.13Y-3.5754
X4.385Y-3.3835
X4.385Y-3.5804
T4
X2.59Y-3.7473
X2.59Y-3.9835
X2.7475Y-3.7473
X2.7475Y-3.9835
X2.9625Y-3.7473
X2.9625Y-3.9835
X3.12Y-3.7473
X3.12Y-3.9835
X6.0738Y-4.301
X6.0738Y-4.4585
X6.31Y-4.301
X6.31Y-4.4585
T5
X2.41Y-4.4485
X2.59Y-4.1835
X2.69Y-4.1835
X2.71Y-4.4485
X2.905Y-4.4485
X2.99Y-4.1885
X3.09Y-4.1885
X3.205Y-4.4485
X3.32Y-3.4785
X3.395Y-4.1885
X3.395Y-4.4885
X3.42Y-3.4785
X3.635Y-3.7235
X3.71Y-3.9285
X3.71Y-4.0285
X3.71Y-4.1285
X3.935Y-3.7235
X3.975Y-3.9435
X3.975Y-4.0435
X3.9775Y-4.196
X3.9775Y-4.496
X4.2475Y-3.9335
X4.2475Y-4.0335
X4.2475Y-4.196
X4.2475Y-4.496
X4.5125Y-4.196
X4.5125Y-4.496
X4.5175Y-3.9435
X4.5175Y-4.0435
X4.775Y-4.1985
X4.775Y-4.4985
X4.7775Y-3.951
X4.7775Y-4.051
X5.05Y-3.9485
X5.05Y-4.0485
X5.05Y-4.1985
X5.05Y-4.4985
X5.315Y-3.951
X5.315Y-4.051
X5.3175Y-4.1985
X5.3175Y-4.4985
X5.585Y-3.951
X5.585Y-4.051
X5.585Y-4.1985
X5.585Y-4.4985
X5.6725Y-3.631
X5.6875Y-3.4335
X5.8675Y-3.9535
X5.8675Y-4.0535
X5.8675Y-4.1985
X5.8675Y-4.4985
X5.9725Y-3.631
X5.9875Y-3.4335
X6.105Y-3.7535
X6.105Y-4.0535
T6
X2.39Y-3.61
X2.39Y-3.71
X2.39Y-3.81
X2.39Y-3.91
X2.39Y-4.01
X2.39Y-4.11
X3.66Y-3.4335
X3.66Y-3.5335
X6.28Y-3.6
X6.28Y-3.7
X6.28Y-3.8
X6.28Y-3.9
X6.28Y-4.
X6.28Y-4.1
T0
M30
