G04 #@! TF.FileFunction,Copper,L1,Top,Signal*
%FSLAX46Y46*%
G04 Gerber Fmt 4.6, Leading zero omitted, Abs format (unit mm)*
G04 Created by KiCad (PCBNEW 4.0.1-3.201512221402+6198~38~ubuntu14.04.1-stable) date Thu 11 Feb 2016 12:32:43 PM PST*
%MOMM*%
G01*
G04 APERTURE LIST*
%ADD10C,0.100000*%
%ADD11R,1.900000X2.000000*%
%ADD12C,1.900000*%
%ADD13C,1.700000*%
%ADD14R,1.400000X1.400000*%
%ADD15C,1.400000*%
%ADD16R,2.000000X1.900000*%
%ADD17C,1.998980*%
%ADD18O,2.499360X1.501140*%
%ADD19O,1.600000X2.300000*%
%ADD20R,2.032000X2.032000*%
%ADD21O,2.032000X2.032000*%
%ADD22R,2.032000X1.727200*%
%ADD23O,2.032000X1.727200*%
%ADD24R,1.524000X1.824000*%
%ADD25O,1.524000X1.824000*%
%ADD26C,0.508000*%
%ADD27C,0.330200*%
%ADD28C,0.254000*%
G04 APERTURE END LIST*
D10*
D11*
X86106000Y-88226900D03*
D12*
X83566000Y-88226900D03*
D13*
X69786000Y-95180900D03*
X69786000Y-101180900D03*
X65786000Y-95180900D03*
X65786000Y-101180900D03*
D14*
X99822000Y-85940900D03*
D15*
X99822000Y-90940900D03*
D16*
X100965000Y-102704900D03*
D12*
X100965000Y-100164900D03*
D14*
X70866000Y-88480900D03*
D15*
X65866000Y-88480900D03*
D14*
X104902000Y-85813900D03*
D15*
X104902000Y-90813900D03*
D14*
X74485500Y-88544400D03*
D15*
X79485500Y-88544400D03*
D14*
X91059000Y-112991900D03*
D15*
X96059000Y-112991900D03*
D14*
X111379000Y-85940900D03*
D15*
X111379000Y-90940900D03*
D11*
X65786000Y-106260900D03*
D12*
X68326000Y-106260900D03*
D11*
X75946000Y-106387900D03*
D12*
X78486000Y-106387900D03*
D16*
X149034500Y-102958900D03*
D12*
X149034500Y-100418900D03*
D16*
X141859000Y-102895400D03*
D12*
X141859000Y-100355400D03*
D16*
X135001000Y-102895400D03*
D12*
X135001000Y-100355400D03*
D16*
X128270000Y-102831900D03*
D12*
X128270000Y-100291900D03*
D16*
X121348500Y-102895400D03*
D12*
X121348500Y-100355400D03*
D16*
X114744500Y-102704900D03*
D12*
X114744500Y-100164900D03*
D16*
X107886500Y-102450900D03*
D12*
X107886500Y-99910900D03*
D17*
X68834000Y-112991900D03*
X61214000Y-112991900D03*
X73787000Y-112991900D03*
X81407000Y-112991900D03*
X144526000Y-92036900D03*
X152146000Y-92036900D03*
X99949000Y-94576900D03*
X92329000Y-94576900D03*
X86233000Y-106387900D03*
X86233000Y-114007900D03*
X152146000Y-87210900D03*
X144526000Y-87210900D03*
X149034500Y-106641900D03*
X149034500Y-114261900D03*
X141859000Y-106641900D03*
X141859000Y-114261900D03*
X135064500Y-106641900D03*
X135064500Y-114261900D03*
X128270000Y-106641900D03*
X128270000Y-114261900D03*
X121285000Y-106641900D03*
X121285000Y-114261900D03*
X114617500Y-106578400D03*
X114617500Y-114198400D03*
X107886500Y-106578400D03*
X107886500Y-114198400D03*
X101028500Y-106578400D03*
X101028500Y-114198400D03*
X153924000Y-102958900D03*
X153924000Y-95338900D03*
D13*
X79247500Y-95180900D03*
X79247500Y-101180900D03*
X75247500Y-95180900D03*
X75247500Y-101180900D03*
X154274000Y-109245900D03*
X160274000Y-109245900D03*
X154274000Y-113245900D03*
X160274000Y-113245900D03*
D18*
X94234000Y-102323900D03*
X94234000Y-104863900D03*
X94234000Y-99783900D03*
D19*
X118745000Y-94005400D03*
X121285000Y-94005400D03*
X123825000Y-94005400D03*
X126365000Y-94005400D03*
X128905000Y-94005400D03*
X131445000Y-94005400D03*
X133985000Y-94005400D03*
X136525000Y-94005400D03*
X136525000Y-86385400D03*
X133985000Y-86385400D03*
X131445000Y-86385400D03*
X128905000Y-86385400D03*
X126365000Y-86385400D03*
X123825000Y-86385400D03*
X121285000Y-86385400D03*
X118745000Y-86385400D03*
D20*
X94742000Y-87210900D03*
D21*
X94742000Y-89750900D03*
D22*
X60706000Y-91694000D03*
D23*
X60706000Y-94234000D03*
X60706000Y-96774000D03*
X60706000Y-99314000D03*
X60706000Y-101854000D03*
X60706000Y-104394000D03*
D22*
X159512000Y-91440000D03*
D23*
X159512000Y-93980000D03*
X159512000Y-96520000D03*
X159512000Y-99060000D03*
X159512000Y-101600000D03*
X159512000Y-104140000D03*
D24*
X87376000Y-93814900D03*
D25*
X87376000Y-101434900D03*
D26*
X99822000Y-85940900D02*
X96098591Y-85854309D01*
X96098591Y-85854309D02*
X94742000Y-87210900D01*
X65786000Y-95180900D02*
X70866000Y-90100900D01*
X62299100Y-91694000D02*
X65786000Y-95180900D01*
X62299100Y-91694000D02*
X60706000Y-91694000D01*
X70866000Y-88480900D02*
X70866000Y-90100900D01*
X75247500Y-95180900D02*
X75247500Y-89306400D01*
X75247500Y-89306400D02*
X74485500Y-88544400D01*
X74485500Y-88544400D02*
X70929500Y-88544400D01*
X70929500Y-88544400D02*
X70866000Y-88480900D01*
X75438000Y-83908900D02*
X74485500Y-84861400D01*
X74485500Y-84861400D02*
X74485500Y-88544400D01*
X105156000Y-83908900D02*
X75438000Y-83908900D01*
X111506000Y-83908900D02*
X105156000Y-83908900D01*
X118618000Y-83908900D02*
X111506000Y-83908900D01*
X111506000Y-83908900D02*
X111379000Y-84035900D01*
X111379000Y-84035900D02*
X111379000Y-85940900D01*
X126238000Y-83908900D02*
X118618000Y-83908900D01*
X118618000Y-83908900D02*
X118745000Y-84035900D01*
X118745000Y-84035900D02*
X118745000Y-86385400D01*
X150257492Y-83908900D02*
X126238000Y-83908900D01*
X126238000Y-83908900D02*
X126365000Y-84035900D01*
X126365000Y-84035900D02*
X126365000Y-86385400D01*
X152146000Y-87210900D02*
X152146000Y-85797408D01*
X152146000Y-85797408D02*
X150257492Y-83908900D01*
X105156000Y-83908900D02*
X104902000Y-84162900D01*
X104902000Y-84162900D02*
X104902000Y-85813900D01*
X152146000Y-87210900D02*
X152146000Y-92036900D01*
X159512000Y-91440000D02*
X152742900Y-91440000D01*
X152742900Y-91440000D02*
X152146000Y-92036900D01*
X158225491Y-96846391D02*
X158551882Y-96520000D01*
X158551882Y-96520000D02*
X159512000Y-96520000D01*
X147574000Y-95338900D02*
X149081491Y-96846391D01*
X149081491Y-96846391D02*
X158225491Y-96846391D01*
X143002000Y-95338900D02*
X147574000Y-95338900D01*
X138684000Y-91020900D02*
X143002000Y-95338900D01*
X134422500Y-91020900D02*
X138684000Y-91020900D01*
X131445000Y-86385400D02*
X131445000Y-88043400D01*
X131445000Y-88043400D02*
X134422500Y-91020900D01*
X78486000Y-106387900D02*
X75946000Y-106387900D01*
X78486000Y-106387900D02*
X81407000Y-109308900D01*
X81407000Y-109308900D02*
X81407000Y-112991900D01*
X70840600Y-96774000D02*
X73914000Y-99847400D01*
X73914000Y-99847400D02*
X75247500Y-101180900D01*
X79485500Y-88544400D02*
X77889499Y-90140401D01*
X77889499Y-90140401D02*
X77842499Y-90140401D01*
X77842499Y-90140401D02*
X77470000Y-90512900D01*
X77470000Y-90512900D02*
X77470000Y-96354900D01*
X77470000Y-96354900D02*
X73977500Y-99847400D01*
X73977500Y-99847400D02*
X73914000Y-99847400D01*
X60706000Y-96774000D02*
X70840600Y-96774000D01*
D27*
X86106000Y-88226900D02*
X86106000Y-88353900D01*
X86106000Y-88353900D02*
X92329000Y-94576900D01*
D26*
X92329000Y-94626900D02*
X92329000Y-94576900D01*
X83566000Y-88353900D02*
X83566000Y-92481400D01*
X83566000Y-92481400D02*
X84899500Y-93814900D01*
X84899500Y-93814900D02*
X87439500Y-93814900D01*
D27*
X149034500Y-102958900D02*
X149034500Y-106641900D01*
X135489300Y-96989900D02*
X145605500Y-96989900D01*
X145605500Y-96989900D02*
X149034500Y-100418900D01*
X133985000Y-94005400D02*
X133985000Y-95485600D01*
X133985000Y-95485600D02*
X135489300Y-96989900D01*
X141859000Y-102895400D02*
X141859000Y-106641900D01*
X135349500Y-98259900D02*
X139763500Y-98259900D01*
X139763500Y-98259900D02*
X141859000Y-100355400D01*
X131445000Y-94005400D02*
X131445000Y-94355400D01*
X131445000Y-94355400D02*
X135349500Y-98259900D01*
X135001000Y-102895400D02*
X135001000Y-106578400D01*
X135001000Y-106578400D02*
X135064500Y-106641900D01*
X128905000Y-94005400D02*
X128905000Y-94355400D01*
X128905000Y-94355400D02*
X134905000Y-100355400D01*
X134905000Y-100355400D02*
X135001000Y-100355400D01*
X128270000Y-102831900D02*
X128270000Y-106641900D01*
X126365000Y-94005400D02*
X126365000Y-98386900D01*
X126365000Y-98386900D02*
X128270000Y-100291900D01*
X121348500Y-102895400D02*
X121348500Y-106578400D01*
X121348500Y-106578400D02*
X121285000Y-106641900D01*
X123825000Y-94005400D02*
X123825000Y-97878900D01*
X123825000Y-97878900D02*
X121348500Y-100355400D01*
X114744500Y-102704900D02*
X114744500Y-106451400D01*
X114744500Y-106451400D02*
X114617500Y-106578400D01*
X121285000Y-94005400D02*
X121285000Y-94355400D01*
X121285000Y-94355400D02*
X115475500Y-100164900D01*
X115475500Y-100164900D02*
X114744500Y-100164900D01*
X107886500Y-106578400D02*
X107886500Y-103731100D01*
X107886500Y-102450900D02*
X107886500Y-103731100D01*
X118745000Y-94005400D02*
X113792000Y-94005400D01*
X113792000Y-94005400D02*
X107886500Y-99910900D01*
X100965000Y-102704900D02*
X100965000Y-106514900D01*
X100965000Y-106514900D02*
X101028500Y-106578400D01*
D26*
X100965000Y-100164900D02*
X102677001Y-98452899D01*
X107950000Y-90512900D02*
X109728000Y-88734900D01*
X109728000Y-88734900D02*
X120593500Y-88734900D01*
X102677001Y-98452899D02*
X102677001Y-98325899D01*
X102677001Y-98325899D02*
X107950000Y-93052900D01*
X107950000Y-93052900D02*
X107950000Y-90512900D01*
X120593500Y-88734900D02*
X121285000Y-88043400D01*
X121285000Y-88043400D02*
X121285000Y-86385400D01*
D27*
X121285000Y-86735400D02*
X121285000Y-86385400D01*
D26*
X86233000Y-106387900D02*
X90449001Y-110603901D01*
X90449001Y-110603901D02*
X149326999Y-110603901D01*
X157988000Y-99060000D02*
X159512000Y-99060000D01*
X149326999Y-110603901D02*
X154178000Y-105752900D01*
X157480000Y-103974900D02*
X157480000Y-99568000D01*
X154178000Y-105752900D02*
X155702000Y-105752900D01*
X155702000Y-105752900D02*
X157480000Y-103974900D01*
X157480000Y-99568000D02*
X157988000Y-99060000D01*
X82867479Y-103466921D02*
X83058000Y-103276400D01*
X83058000Y-103276400D02*
X84899500Y-101434900D01*
X86233000Y-106387900D02*
X85233511Y-105388411D01*
X85233511Y-105388411D02*
X85170011Y-105388411D01*
X85170011Y-105388411D02*
X83058000Y-103276400D01*
X60706000Y-99314000D02*
X71370759Y-99314001D01*
X71370759Y-99314001D02*
X75523679Y-103466921D01*
X75523679Y-103466921D02*
X82867479Y-103466921D01*
X84899500Y-101434900D02*
X87693500Y-101434900D01*
X144526000Y-87210900D02*
X142748000Y-88988900D01*
X136238500Y-88988900D02*
X133985000Y-86735400D01*
X142748000Y-88988900D02*
X136238500Y-88988900D01*
X133985000Y-86735400D02*
X133985000Y-86385400D01*
D27*
X159512000Y-93980000D02*
X155282900Y-93980000D01*
X155282900Y-93980000D02*
X153924000Y-95338900D01*
X136525000Y-86385400D02*
X141287500Y-86385400D01*
X149860000Y-95338900D02*
X153924000Y-95338900D01*
X149098000Y-94576900D02*
X149860000Y-95338900D01*
X149098000Y-87464900D02*
X149098000Y-94576900D01*
X146812000Y-85178900D02*
X149098000Y-87464900D01*
X142494000Y-85178900D02*
X146812000Y-85178900D01*
X141287500Y-86385400D02*
X142494000Y-85178900D01*
D26*
X61214000Y-112991900D02*
X61214000Y-109374900D01*
X61214000Y-109374900D02*
X64328000Y-106260900D01*
X64328000Y-106260900D02*
X65786000Y-106260900D01*
D28*
G36*
X161342000Y-108213823D02*
X161116283Y-107987712D01*
X160570681Y-107761158D01*
X159979911Y-107760643D01*
X159433914Y-107986244D01*
X159015812Y-108403617D01*
X158789258Y-108949219D01*
X158788743Y-109539989D01*
X159014344Y-110085986D01*
X159431717Y-110504088D01*
X159977319Y-110730642D01*
X160568089Y-110731157D01*
X161114086Y-110505556D01*
X161342000Y-110278039D01*
X161342000Y-112176168D01*
X161253062Y-112087230D01*
X161138352Y-112201940D01*
X161058080Y-111950641D01*
X160502721Y-111749182D01*
X159912542Y-111775585D01*
X159489920Y-111950641D01*
X159409647Y-112201942D01*
X160274000Y-113066295D01*
X160288143Y-113052153D01*
X160467748Y-113231758D01*
X160453605Y-113245900D01*
X160467748Y-113260043D01*
X160288143Y-113439648D01*
X160274000Y-113425505D01*
X159409647Y-114289858D01*
X159489920Y-114541159D01*
X160045279Y-114742618D01*
X160635458Y-114716215D01*
X161058080Y-114541159D01*
X161138352Y-114289860D01*
X161253062Y-114404570D01*
X161342000Y-114315632D01*
X161342000Y-116472900D01*
X58622000Y-116472900D01*
X58622000Y-113315594D01*
X59579226Y-113315594D01*
X59827538Y-113916555D01*
X60286927Y-114376746D01*
X60887453Y-114626106D01*
X61537694Y-114626674D01*
X62138655Y-114378362D01*
X62373363Y-114144063D01*
X67861443Y-114144063D01*
X67960042Y-114410865D01*
X68569582Y-114637301D01*
X69219377Y-114613241D01*
X69707958Y-114410865D01*
X69806557Y-114144063D01*
X72814443Y-114144063D01*
X72913042Y-114410865D01*
X73522582Y-114637301D01*
X74172377Y-114613241D01*
X74660958Y-114410865D01*
X74759557Y-114144063D01*
X73787000Y-113171505D01*
X72814443Y-114144063D01*
X69806557Y-114144063D01*
X68834000Y-113171505D01*
X67861443Y-114144063D01*
X62373363Y-114144063D01*
X62598846Y-113918973D01*
X62848206Y-113318447D01*
X62848722Y-112727482D01*
X67188599Y-112727482D01*
X67212659Y-113377277D01*
X67415035Y-113865858D01*
X67681837Y-113964457D01*
X68654395Y-112991900D01*
X69013605Y-112991900D01*
X69986163Y-113964457D01*
X70252965Y-113865858D01*
X70479401Y-113256318D01*
X70459820Y-112727482D01*
X72141599Y-112727482D01*
X72165659Y-113377277D01*
X72368035Y-113865858D01*
X72634837Y-113964457D01*
X73607395Y-112991900D01*
X73966605Y-112991900D01*
X74939163Y-113964457D01*
X75205965Y-113865858D01*
X75432401Y-113256318D01*
X75408341Y-112606523D01*
X75205965Y-112117942D01*
X74939163Y-112019343D01*
X73966605Y-112991900D01*
X73607395Y-112991900D01*
X72634837Y-112019343D01*
X72368035Y-112117942D01*
X72141599Y-112727482D01*
X70459820Y-112727482D01*
X70455341Y-112606523D01*
X70252965Y-112117942D01*
X69986163Y-112019343D01*
X69013605Y-112991900D01*
X68654395Y-112991900D01*
X67681837Y-112019343D01*
X67415035Y-112117942D01*
X67188599Y-112727482D01*
X62848722Y-112727482D01*
X62848774Y-112668206D01*
X62600462Y-112067245D01*
X62373351Y-111839737D01*
X67861443Y-111839737D01*
X68834000Y-112812295D01*
X69806557Y-111839737D01*
X72814443Y-111839737D01*
X73787000Y-112812295D01*
X74759557Y-111839737D01*
X74660958Y-111572935D01*
X74051418Y-111346499D01*
X73401623Y-111370559D01*
X72913042Y-111572935D01*
X72814443Y-111839737D01*
X69806557Y-111839737D01*
X69707958Y-111572935D01*
X69098418Y-111346499D01*
X68448623Y-111370559D01*
X67960042Y-111572935D01*
X67861443Y-111839737D01*
X62373351Y-111839737D01*
X62141073Y-111607054D01*
X62103000Y-111591245D01*
X62103000Y-109743136D01*
X64278679Y-107567457D01*
X64371910Y-107712341D01*
X64584110Y-107857331D01*
X64836000Y-107908340D01*
X66736000Y-107908340D01*
X66971317Y-107864062D01*
X67187441Y-107724990D01*
X67332431Y-107512790D01*
X67333055Y-107509708D01*
X67426997Y-107603814D01*
X68009341Y-107845624D01*
X68639893Y-107846175D01*
X69222657Y-107605381D01*
X69668914Y-107159903D01*
X69910724Y-106577559D01*
X69911275Y-105947007D01*
X69680256Y-105387900D01*
X74348560Y-105387900D01*
X74348560Y-107387900D01*
X74392838Y-107623217D01*
X74531910Y-107839341D01*
X74744110Y-107984331D01*
X74996000Y-108035340D01*
X76896000Y-108035340D01*
X77131317Y-107991062D01*
X77347441Y-107851990D01*
X77492431Y-107639790D01*
X77493055Y-107636708D01*
X77586997Y-107730814D01*
X78169341Y-107972624D01*
X78799893Y-107973175D01*
X78809903Y-107969039D01*
X80518000Y-109677136D01*
X80518000Y-111590706D01*
X80482345Y-111605438D01*
X80022154Y-112064827D01*
X79772794Y-112665353D01*
X79772226Y-113315594D01*
X80020538Y-113916555D01*
X80479927Y-114376746D01*
X81080453Y-114626106D01*
X81730694Y-114626674D01*
X82331655Y-114378362D01*
X82378504Y-114331594D01*
X84598226Y-114331594D01*
X84846538Y-114932555D01*
X85305927Y-115392746D01*
X85906453Y-115642106D01*
X86556694Y-115642674D01*
X87157655Y-115394362D01*
X87201530Y-115350563D01*
X100055943Y-115350563D01*
X100154542Y-115617365D01*
X100764082Y-115843801D01*
X101413877Y-115819741D01*
X101902458Y-115617365D01*
X102001057Y-115350563D01*
X106913943Y-115350563D01*
X107012542Y-115617365D01*
X107622082Y-115843801D01*
X108271877Y-115819741D01*
X108760458Y-115617365D01*
X108859057Y-115350563D01*
X113644943Y-115350563D01*
X113743542Y-115617365D01*
X114353082Y-115843801D01*
X115002877Y-115819741D01*
X115491458Y-115617365D01*
X115566590Y-115414063D01*
X120312443Y-115414063D01*
X120411042Y-115680865D01*
X121020582Y-115907301D01*
X121670377Y-115883241D01*
X122158958Y-115680865D01*
X122257557Y-115414063D01*
X127297443Y-115414063D01*
X127396042Y-115680865D01*
X128005582Y-115907301D01*
X128655377Y-115883241D01*
X129143958Y-115680865D01*
X129242557Y-115414063D01*
X134091943Y-115414063D01*
X134190542Y-115680865D01*
X134800082Y-115907301D01*
X135449877Y-115883241D01*
X135938458Y-115680865D01*
X136037057Y-115414063D01*
X140886443Y-115414063D01*
X140985042Y-115680865D01*
X141594582Y-115907301D01*
X142244377Y-115883241D01*
X142732958Y-115680865D01*
X142831557Y-115414063D01*
X148061943Y-115414063D01*
X148160542Y-115680865D01*
X148770082Y-115907301D01*
X149419877Y-115883241D01*
X149908458Y-115680865D01*
X150007057Y-115414063D01*
X149034500Y-114441505D01*
X148061943Y-115414063D01*
X142831557Y-115414063D01*
X141859000Y-114441505D01*
X140886443Y-115414063D01*
X136037057Y-115414063D01*
X135064500Y-114441505D01*
X134091943Y-115414063D01*
X129242557Y-115414063D01*
X128270000Y-114441505D01*
X127297443Y-115414063D01*
X122257557Y-115414063D01*
X121285000Y-114441505D01*
X120312443Y-115414063D01*
X115566590Y-115414063D01*
X115590057Y-115350563D01*
X114617500Y-114378005D01*
X113644943Y-115350563D01*
X108859057Y-115350563D01*
X107886500Y-114378005D01*
X106913943Y-115350563D01*
X102001057Y-115350563D01*
X101028500Y-114378005D01*
X100055943Y-115350563D01*
X87201530Y-115350563D01*
X87617846Y-114934973D01*
X87867206Y-114334447D01*
X87867774Y-113684206D01*
X87619462Y-113083245D01*
X87160073Y-112623054D01*
X86559547Y-112373694D01*
X85909306Y-112373126D01*
X85308345Y-112621438D01*
X84848154Y-113080827D01*
X84598794Y-113681353D01*
X84598226Y-114331594D01*
X82378504Y-114331594D01*
X82791846Y-113918973D01*
X83041206Y-113318447D01*
X83041774Y-112668206D01*
X82886288Y-112291900D01*
X89711560Y-112291900D01*
X89711560Y-113691900D01*
X89755838Y-113927217D01*
X89894910Y-114143341D01*
X90107110Y-114288331D01*
X90359000Y-114339340D01*
X91759000Y-114339340D01*
X91994317Y-114295062D01*
X92210441Y-114155990D01*
X92355431Y-113943790D01*
X92358795Y-113927175D01*
X95303331Y-113927175D01*
X95365169Y-114162942D01*
X95866122Y-114339319D01*
X96396440Y-114310564D01*
X96752831Y-114162942D01*
X96812883Y-113933982D01*
X99383099Y-113933982D01*
X99407159Y-114583777D01*
X99609535Y-115072358D01*
X99876337Y-115170957D01*
X100848895Y-114198400D01*
X101208105Y-114198400D01*
X102180663Y-115170957D01*
X102447465Y-115072358D01*
X102673901Y-114462818D01*
X102654320Y-113933982D01*
X106241099Y-113933982D01*
X106265159Y-114583777D01*
X106467535Y-115072358D01*
X106734337Y-115170957D01*
X107706895Y-114198400D01*
X108066105Y-114198400D01*
X109038663Y-115170957D01*
X109305465Y-115072358D01*
X109531901Y-114462818D01*
X109512320Y-113933982D01*
X112972099Y-113933982D01*
X112996159Y-114583777D01*
X113198535Y-115072358D01*
X113465337Y-115170957D01*
X114437895Y-114198400D01*
X114797105Y-114198400D01*
X115769663Y-115170957D01*
X116036465Y-115072358D01*
X116262901Y-114462818D01*
X116245671Y-113997482D01*
X119639599Y-113997482D01*
X119663659Y-114647277D01*
X119866035Y-115135858D01*
X120132837Y-115234457D01*
X121105395Y-114261900D01*
X121464605Y-114261900D01*
X122437163Y-115234457D01*
X122703965Y-115135858D01*
X122930401Y-114526318D01*
X122910820Y-113997482D01*
X126624599Y-113997482D01*
X126648659Y-114647277D01*
X126851035Y-115135858D01*
X127117837Y-115234457D01*
X128090395Y-114261900D01*
X128449605Y-114261900D01*
X129422163Y-115234457D01*
X129688965Y-115135858D01*
X129915401Y-114526318D01*
X129895820Y-113997482D01*
X133419099Y-113997482D01*
X133443159Y-114647277D01*
X133645535Y-115135858D01*
X133912337Y-115234457D01*
X134884895Y-114261900D01*
X135244105Y-114261900D01*
X136216663Y-115234457D01*
X136483465Y-115135858D01*
X136709901Y-114526318D01*
X136690320Y-113997482D01*
X140213599Y-113997482D01*
X140237659Y-114647277D01*
X140440035Y-115135858D01*
X140706837Y-115234457D01*
X141679395Y-114261900D01*
X142038605Y-114261900D01*
X143011163Y-115234457D01*
X143277965Y-115135858D01*
X143504401Y-114526318D01*
X143484820Y-113997482D01*
X147389099Y-113997482D01*
X147413159Y-114647277D01*
X147615535Y-115135858D01*
X147882337Y-115234457D01*
X148854895Y-114261900D01*
X149214105Y-114261900D01*
X150186663Y-115234457D01*
X150453465Y-115135858D01*
X150679901Y-114526318D01*
X150655841Y-113876523D01*
X150516445Y-113539989D01*
X152788743Y-113539989D01*
X153014344Y-114085986D01*
X153431717Y-114504088D01*
X153977319Y-114730642D01*
X154568089Y-114731157D01*
X155114086Y-114505556D01*
X155532188Y-114088183D01*
X155758742Y-113542581D01*
X155759200Y-113017179D01*
X158777282Y-113017179D01*
X158803685Y-113607358D01*
X158978741Y-114029980D01*
X159230042Y-114110253D01*
X160094395Y-113245900D01*
X159230042Y-112381547D01*
X158978741Y-112461820D01*
X158777282Y-113017179D01*
X155759200Y-113017179D01*
X155759257Y-112951811D01*
X155533656Y-112405814D01*
X155116283Y-111987712D01*
X154570681Y-111761158D01*
X153979911Y-111760643D01*
X153433914Y-111986244D01*
X153015812Y-112403617D01*
X152789258Y-112949219D01*
X152788743Y-113539989D01*
X150516445Y-113539989D01*
X150453465Y-113387942D01*
X150186663Y-113289343D01*
X149214105Y-114261900D01*
X148854895Y-114261900D01*
X147882337Y-113289343D01*
X147615535Y-113387942D01*
X147389099Y-113997482D01*
X143484820Y-113997482D01*
X143480341Y-113876523D01*
X143277965Y-113387942D01*
X143011163Y-113289343D01*
X142038605Y-114261900D01*
X141679395Y-114261900D01*
X140706837Y-113289343D01*
X140440035Y-113387942D01*
X140213599Y-113997482D01*
X136690320Y-113997482D01*
X136685841Y-113876523D01*
X136483465Y-113387942D01*
X136216663Y-113289343D01*
X135244105Y-114261900D01*
X134884895Y-114261900D01*
X133912337Y-113289343D01*
X133645535Y-113387942D01*
X133419099Y-113997482D01*
X129895820Y-113997482D01*
X129891341Y-113876523D01*
X129688965Y-113387942D01*
X129422163Y-113289343D01*
X128449605Y-114261900D01*
X128090395Y-114261900D01*
X127117837Y-113289343D01*
X126851035Y-113387942D01*
X126624599Y-113997482D01*
X122910820Y-113997482D01*
X122906341Y-113876523D01*
X122703965Y-113387942D01*
X122437163Y-113289343D01*
X121464605Y-114261900D01*
X121105395Y-114261900D01*
X120132837Y-113289343D01*
X119866035Y-113387942D01*
X119639599Y-113997482D01*
X116245671Y-113997482D01*
X116238841Y-113813023D01*
X116036465Y-113324442D01*
X115769663Y-113225843D01*
X114797105Y-114198400D01*
X114437895Y-114198400D01*
X113465337Y-113225843D01*
X113198535Y-113324442D01*
X112972099Y-113933982D01*
X109512320Y-113933982D01*
X109507841Y-113813023D01*
X109305465Y-113324442D01*
X109038663Y-113225843D01*
X108066105Y-114198400D01*
X107706895Y-114198400D01*
X106734337Y-113225843D01*
X106467535Y-113324442D01*
X106241099Y-113933982D01*
X102654320Y-113933982D01*
X102649841Y-113813023D01*
X102447465Y-113324442D01*
X102180663Y-113225843D01*
X101208105Y-114198400D01*
X100848895Y-114198400D01*
X99876337Y-113225843D01*
X99609535Y-113324442D01*
X99383099Y-113933982D01*
X96812883Y-113933982D01*
X96814669Y-113927175D01*
X96059000Y-113171505D01*
X95303331Y-113927175D01*
X92358795Y-113927175D01*
X92406440Y-113691900D01*
X92406440Y-112799022D01*
X94711581Y-112799022D01*
X94740336Y-113329340D01*
X94887958Y-113685731D01*
X95123725Y-113747569D01*
X95879395Y-112991900D01*
X96238605Y-112991900D01*
X96994275Y-113747569D01*
X97230042Y-113685731D01*
X97406419Y-113184778D01*
X97398908Y-113046237D01*
X100055943Y-113046237D01*
X101028500Y-114018795D01*
X102001057Y-113046237D01*
X106913943Y-113046237D01*
X107886500Y-114018795D01*
X108859057Y-113046237D01*
X113644943Y-113046237D01*
X114617500Y-114018795D01*
X115526557Y-113109737D01*
X120312443Y-113109737D01*
X121285000Y-114082295D01*
X122257557Y-113109737D01*
X127297443Y-113109737D01*
X128270000Y-114082295D01*
X129242557Y-113109737D01*
X134091943Y-113109737D01*
X135064500Y-114082295D01*
X136037057Y-113109737D01*
X140886443Y-113109737D01*
X141859000Y-114082295D01*
X142831557Y-113109737D01*
X148061943Y-113109737D01*
X149034500Y-114082295D01*
X150007057Y-113109737D01*
X149908458Y-112842935D01*
X149298918Y-112616499D01*
X148649123Y-112640559D01*
X148160542Y-112842935D01*
X148061943Y-113109737D01*
X142831557Y-113109737D01*
X142732958Y-112842935D01*
X142123418Y-112616499D01*
X141473623Y-112640559D01*
X140985042Y-112842935D01*
X140886443Y-113109737D01*
X136037057Y-113109737D01*
X135938458Y-112842935D01*
X135328918Y-112616499D01*
X134679123Y-112640559D01*
X134190542Y-112842935D01*
X134091943Y-113109737D01*
X129242557Y-113109737D01*
X129143958Y-112842935D01*
X128534418Y-112616499D01*
X127884623Y-112640559D01*
X127396042Y-112842935D01*
X127297443Y-113109737D01*
X122257557Y-113109737D01*
X122158958Y-112842935D01*
X121549418Y-112616499D01*
X120899623Y-112640559D01*
X120411042Y-112842935D01*
X120312443Y-113109737D01*
X115526557Y-113109737D01*
X115590057Y-113046237D01*
X115491458Y-112779435D01*
X114881918Y-112552999D01*
X114232123Y-112577059D01*
X113743542Y-112779435D01*
X113644943Y-113046237D01*
X108859057Y-113046237D01*
X108760458Y-112779435D01*
X108150918Y-112552999D01*
X107501123Y-112577059D01*
X107012542Y-112779435D01*
X106913943Y-113046237D01*
X102001057Y-113046237D01*
X101902458Y-112779435D01*
X101292918Y-112552999D01*
X100643123Y-112577059D01*
X100154542Y-112779435D01*
X100055943Y-113046237D01*
X97398908Y-113046237D01*
X97377664Y-112654460D01*
X97230042Y-112298069D01*
X96994275Y-112236231D01*
X96238605Y-112991900D01*
X95879395Y-112991900D01*
X95123725Y-112236231D01*
X94887958Y-112298069D01*
X94711581Y-112799022D01*
X92406440Y-112799022D01*
X92406440Y-112291900D01*
X92362170Y-112056625D01*
X95303331Y-112056625D01*
X96059000Y-112812295D01*
X96814669Y-112056625D01*
X96752831Y-111820858D01*
X96251878Y-111644481D01*
X95721560Y-111673236D01*
X95365169Y-111820858D01*
X95303331Y-112056625D01*
X92362170Y-112056625D01*
X92362162Y-112056583D01*
X92223090Y-111840459D01*
X92010890Y-111695469D01*
X91759000Y-111644460D01*
X90359000Y-111644460D01*
X90123683Y-111688738D01*
X89907559Y-111827810D01*
X89762569Y-112040010D01*
X89711560Y-112291900D01*
X82886288Y-112291900D01*
X82793462Y-112067245D01*
X82334073Y-111607054D01*
X82296000Y-111591245D01*
X82296000Y-109308900D01*
X82228329Y-108968694D01*
X82035618Y-108680282D01*
X80067547Y-106712211D01*
X80070724Y-106704559D01*
X80071275Y-106074007D01*
X79830481Y-105491243D01*
X79385003Y-105044986D01*
X78802659Y-104803176D01*
X78172107Y-104802625D01*
X77589343Y-105043419D01*
X77491663Y-105140929D01*
X77360090Y-104936459D01*
X77147890Y-104791469D01*
X76896000Y-104740460D01*
X74996000Y-104740460D01*
X74760683Y-104784738D01*
X74544559Y-104923810D01*
X74399569Y-105136010D01*
X74348560Y-105387900D01*
X69680256Y-105387900D01*
X69670481Y-105364243D01*
X69225003Y-104917986D01*
X68642659Y-104676176D01*
X68012107Y-104675625D01*
X67429343Y-104916419D01*
X67331663Y-105013929D01*
X67200090Y-104809459D01*
X66987890Y-104664469D01*
X66736000Y-104613460D01*
X64836000Y-104613460D01*
X64600683Y-104657738D01*
X64384559Y-104796810D01*
X64239569Y-105009010D01*
X64188560Y-105260900D01*
X64188560Y-105399636D01*
X63987794Y-105439571D01*
X63710005Y-105625184D01*
X63699382Y-105632282D01*
X60585382Y-108746282D01*
X60392671Y-109034694D01*
X60325000Y-109374900D01*
X60325000Y-111590706D01*
X60289345Y-111605438D01*
X59829154Y-112064827D01*
X59579794Y-112665353D01*
X59579226Y-113315594D01*
X58622000Y-113315594D01*
X58622000Y-104753026D01*
X59098642Y-104753026D01*
X59101291Y-104768791D01*
X59355268Y-105296036D01*
X59791680Y-105685954D01*
X60344087Y-105879184D01*
X60579000Y-105734924D01*
X60579000Y-104521000D01*
X60833000Y-104521000D01*
X60833000Y-105734924D01*
X61067913Y-105879184D01*
X61620320Y-105685954D01*
X62056732Y-105296036D01*
X62310709Y-104768791D01*
X62313358Y-104753026D01*
X62192217Y-104521000D01*
X60833000Y-104521000D01*
X60579000Y-104521000D01*
X59219783Y-104521000D01*
X59098642Y-104753026D01*
X58622000Y-104753026D01*
X58622000Y-94234000D01*
X59022655Y-94234000D01*
X59136729Y-94807489D01*
X59461585Y-95293670D01*
X59776366Y-95504000D01*
X59461585Y-95714330D01*
X59136729Y-96200511D01*
X59022655Y-96774000D01*
X59136729Y-97347489D01*
X59461585Y-97833670D01*
X59776366Y-98044000D01*
X59461585Y-98254330D01*
X59136729Y-98740511D01*
X59022655Y-99314000D01*
X59136729Y-99887489D01*
X59461585Y-100373670D01*
X59776366Y-100584000D01*
X59461585Y-100794330D01*
X59136729Y-101280511D01*
X59022655Y-101854000D01*
X59136729Y-102427489D01*
X59461585Y-102913670D01*
X59771069Y-103120461D01*
X59355268Y-103491964D01*
X59101291Y-104019209D01*
X59098642Y-104034974D01*
X59219783Y-104267000D01*
X60579000Y-104267000D01*
X60579000Y-104247000D01*
X60833000Y-104247000D01*
X60833000Y-104267000D01*
X62192217Y-104267000D01*
X62313358Y-104034974D01*
X62310709Y-104019209D01*
X62056732Y-103491964D01*
X61640931Y-103120461D01*
X61950415Y-102913670D01*
X62275271Y-102427489D01*
X62389345Y-101854000D01*
X62275271Y-101280511D01*
X61950415Y-100794330D01*
X61635634Y-100584000D01*
X61950415Y-100373670D01*
X62064453Y-100203000D01*
X64663666Y-100203000D01*
X64527812Y-100338617D01*
X64301258Y-100884219D01*
X64300743Y-101474989D01*
X64526344Y-102020986D01*
X64943717Y-102439088D01*
X65489319Y-102665642D01*
X66080089Y-102666157D01*
X66626086Y-102440556D01*
X67044188Y-102023183D01*
X67270742Y-101477581D01*
X67271257Y-100886811D01*
X67045656Y-100340814D01*
X66908083Y-100203001D01*
X68663665Y-100203001D01*
X68527812Y-100338617D01*
X68301258Y-100884219D01*
X68300743Y-101474989D01*
X68526344Y-102020986D01*
X68943717Y-102439088D01*
X69489319Y-102665642D01*
X70080089Y-102666157D01*
X70626086Y-102440556D01*
X71044188Y-102023183D01*
X71270742Y-101477581D01*
X71271257Y-100886811D01*
X71045656Y-100340814D01*
X70908083Y-100203001D01*
X71002523Y-100203001D01*
X74895061Y-104095539D01*
X75183473Y-104288250D01*
X75523679Y-104355921D01*
X82867479Y-104355921D01*
X82878160Y-104353796D01*
X84541393Y-106017029D01*
X84600734Y-106056680D01*
X84598794Y-106061353D01*
X84598226Y-106711594D01*
X84846538Y-107312555D01*
X85305927Y-107772746D01*
X85906453Y-108022106D01*
X86556694Y-108022674D01*
X86594795Y-108006931D01*
X89820383Y-111232519D01*
X90108795Y-111425230D01*
X90449001Y-111492901D01*
X149326999Y-111492901D01*
X149667205Y-111425230D01*
X149955617Y-111232519D01*
X151648147Y-109539989D01*
X152788743Y-109539989D01*
X153014344Y-110085986D01*
X153431717Y-110504088D01*
X153977319Y-110730642D01*
X154568089Y-110731157D01*
X155114086Y-110505556D01*
X155532188Y-110088183D01*
X155758742Y-109542581D01*
X155759257Y-108951811D01*
X155533656Y-108405814D01*
X155116283Y-107987712D01*
X154570681Y-107761158D01*
X153979911Y-107760643D01*
X153433914Y-107986244D01*
X153015812Y-108403617D01*
X152789258Y-108949219D01*
X152788743Y-109539989D01*
X151648147Y-109539989D01*
X154546236Y-106641900D01*
X155702000Y-106641900D01*
X156042206Y-106574229D01*
X156330618Y-106381518D01*
X158001588Y-104710548D01*
X158161268Y-105042036D01*
X158597680Y-105431954D01*
X159150087Y-105625184D01*
X159385000Y-105480924D01*
X159385000Y-104267000D01*
X159639000Y-104267000D01*
X159639000Y-105480924D01*
X159873913Y-105625184D01*
X160426320Y-105431954D01*
X160862732Y-105042036D01*
X161116709Y-104514791D01*
X161119358Y-104499026D01*
X160998217Y-104267000D01*
X159639000Y-104267000D01*
X159385000Y-104267000D01*
X159365000Y-104267000D01*
X159365000Y-104013000D01*
X159385000Y-104013000D01*
X159385000Y-103993000D01*
X159639000Y-103993000D01*
X159639000Y-104013000D01*
X160998217Y-104013000D01*
X161119358Y-103780974D01*
X161116709Y-103765209D01*
X160862732Y-103237964D01*
X160446931Y-102866461D01*
X160756415Y-102659670D01*
X161081271Y-102173489D01*
X161195345Y-101600000D01*
X161081271Y-101026511D01*
X160756415Y-100540330D01*
X160441634Y-100330000D01*
X160756415Y-100119670D01*
X161081271Y-99633489D01*
X161195345Y-99060000D01*
X161081271Y-98486511D01*
X160756415Y-98000330D01*
X160441634Y-97790000D01*
X160756415Y-97579670D01*
X161081271Y-97093489D01*
X161195345Y-96520000D01*
X161081271Y-95946511D01*
X160756415Y-95460330D01*
X160441634Y-95250000D01*
X160756415Y-95039670D01*
X161081271Y-94553489D01*
X161195345Y-93980000D01*
X161081271Y-93406511D01*
X160756415Y-92920330D01*
X160742087Y-92910757D01*
X160763317Y-92906762D01*
X160979441Y-92767690D01*
X161124431Y-92555490D01*
X161175440Y-92303600D01*
X161175440Y-90576400D01*
X161131162Y-90341083D01*
X160992090Y-90124959D01*
X160779890Y-89979969D01*
X160528000Y-89928960D01*
X158496000Y-89928960D01*
X158260683Y-89973238D01*
X158044559Y-90112310D01*
X157899569Y-90324510D01*
X157853704Y-90551000D01*
X153035000Y-90551000D01*
X153035000Y-88612094D01*
X153070655Y-88597362D01*
X153530846Y-88137973D01*
X153780206Y-87537447D01*
X153780774Y-86887206D01*
X153532462Y-86286245D01*
X153073073Y-85826054D01*
X153035000Y-85810245D01*
X153035000Y-85797408D01*
X152994090Y-85591738D01*
X152967330Y-85457203D01*
X152774618Y-85168790D01*
X150886110Y-83280282D01*
X150876559Y-83273900D01*
X150597698Y-83087571D01*
X150257492Y-83019900D01*
X75438000Y-83019900D01*
X75097794Y-83087571D01*
X74809382Y-83280282D01*
X73856882Y-84232782D01*
X73664171Y-84521194D01*
X73596500Y-84861400D01*
X73596500Y-87232523D01*
X73550183Y-87241238D01*
X73334059Y-87380310D01*
X73189069Y-87592510D01*
X73176333Y-87655400D01*
X72189826Y-87655400D01*
X72169162Y-87545583D01*
X72030090Y-87329459D01*
X71817890Y-87184469D01*
X71566000Y-87133460D01*
X70166000Y-87133460D01*
X69930683Y-87177738D01*
X69714559Y-87316810D01*
X69569569Y-87529010D01*
X69518560Y-87780900D01*
X69518560Y-89180900D01*
X69562838Y-89416217D01*
X69701910Y-89632341D01*
X69914110Y-89777331D01*
X69929264Y-89780400D01*
X66013566Y-93696098D01*
X65558037Y-93695701D01*
X62927718Y-91065382D01*
X62840011Y-91006778D01*
X62639306Y-90872671D01*
X62367210Y-90818548D01*
X62325162Y-90595083D01*
X62186090Y-90378959D01*
X61973890Y-90233969D01*
X61722000Y-90182960D01*
X59690000Y-90182960D01*
X59454683Y-90227238D01*
X59238559Y-90366310D01*
X59093569Y-90578510D01*
X59042560Y-90830400D01*
X59042560Y-92557600D01*
X59086838Y-92792917D01*
X59225910Y-93009041D01*
X59438110Y-93154031D01*
X59479439Y-93162400D01*
X59461585Y-93174330D01*
X59136729Y-93660511D01*
X59022655Y-94234000D01*
X58622000Y-94234000D01*
X58622000Y-88745283D01*
X64530769Y-88745283D01*
X64733582Y-89236129D01*
X65108796Y-89611998D01*
X65599287Y-89815668D01*
X66130383Y-89816131D01*
X66621229Y-89613318D01*
X66997098Y-89238104D01*
X67200768Y-88747613D01*
X67201231Y-88216517D01*
X66998418Y-87725671D01*
X66623204Y-87349802D01*
X66132713Y-87146132D01*
X65601617Y-87145669D01*
X65110771Y-87348482D01*
X64734902Y-87723696D01*
X64531232Y-88214187D01*
X64530769Y-88745283D01*
X58622000Y-88745283D01*
X58622000Y-82332900D01*
X161342000Y-82332900D01*
X161342000Y-108213823D01*
X161342000Y-108213823D01*
G37*
X161342000Y-108213823D02*
X161116283Y-107987712D01*
X160570681Y-107761158D01*
X159979911Y-107760643D01*
X159433914Y-107986244D01*
X159015812Y-108403617D01*
X158789258Y-108949219D01*
X158788743Y-109539989D01*
X159014344Y-110085986D01*
X159431717Y-110504088D01*
X159977319Y-110730642D01*
X160568089Y-110731157D01*
X161114086Y-110505556D01*
X161342000Y-110278039D01*
X161342000Y-112176168D01*
X161253062Y-112087230D01*
X161138352Y-112201940D01*
X161058080Y-111950641D01*
X160502721Y-111749182D01*
X159912542Y-111775585D01*
X159489920Y-111950641D01*
X159409647Y-112201942D01*
X160274000Y-113066295D01*
X160288143Y-113052153D01*
X160467748Y-113231758D01*
X160453605Y-113245900D01*
X160467748Y-113260043D01*
X160288143Y-113439648D01*
X160274000Y-113425505D01*
X159409647Y-114289858D01*
X159489920Y-114541159D01*
X160045279Y-114742618D01*
X160635458Y-114716215D01*
X161058080Y-114541159D01*
X161138352Y-114289860D01*
X161253062Y-114404570D01*
X161342000Y-114315632D01*
X161342000Y-116472900D01*
X58622000Y-116472900D01*
X58622000Y-113315594D01*
X59579226Y-113315594D01*
X59827538Y-113916555D01*
X60286927Y-114376746D01*
X60887453Y-114626106D01*
X61537694Y-114626674D01*
X62138655Y-114378362D01*
X62373363Y-114144063D01*
X67861443Y-114144063D01*
X67960042Y-114410865D01*
X68569582Y-114637301D01*
X69219377Y-114613241D01*
X69707958Y-114410865D01*
X69806557Y-114144063D01*
X72814443Y-114144063D01*
X72913042Y-114410865D01*
X73522582Y-114637301D01*
X74172377Y-114613241D01*
X74660958Y-114410865D01*
X74759557Y-114144063D01*
X73787000Y-113171505D01*
X72814443Y-114144063D01*
X69806557Y-114144063D01*
X68834000Y-113171505D01*
X67861443Y-114144063D01*
X62373363Y-114144063D01*
X62598846Y-113918973D01*
X62848206Y-113318447D01*
X62848722Y-112727482D01*
X67188599Y-112727482D01*
X67212659Y-113377277D01*
X67415035Y-113865858D01*
X67681837Y-113964457D01*
X68654395Y-112991900D01*
X69013605Y-112991900D01*
X69986163Y-113964457D01*
X70252965Y-113865858D01*
X70479401Y-113256318D01*
X70459820Y-112727482D01*
X72141599Y-112727482D01*
X72165659Y-113377277D01*
X72368035Y-113865858D01*
X72634837Y-113964457D01*
X73607395Y-112991900D01*
X73966605Y-112991900D01*
X74939163Y-113964457D01*
X75205965Y-113865858D01*
X75432401Y-113256318D01*
X75408341Y-112606523D01*
X75205965Y-112117942D01*
X74939163Y-112019343D01*
X73966605Y-112991900D01*
X73607395Y-112991900D01*
X72634837Y-112019343D01*
X72368035Y-112117942D01*
X72141599Y-112727482D01*
X70459820Y-112727482D01*
X70455341Y-112606523D01*
X70252965Y-112117942D01*
X69986163Y-112019343D01*
X69013605Y-112991900D01*
X68654395Y-112991900D01*
X67681837Y-112019343D01*
X67415035Y-112117942D01*
X67188599Y-112727482D01*
X62848722Y-112727482D01*
X62848774Y-112668206D01*
X62600462Y-112067245D01*
X62373351Y-111839737D01*
X67861443Y-111839737D01*
X68834000Y-112812295D01*
X69806557Y-111839737D01*
X72814443Y-111839737D01*
X73787000Y-112812295D01*
X74759557Y-111839737D01*
X74660958Y-111572935D01*
X74051418Y-111346499D01*
X73401623Y-111370559D01*
X72913042Y-111572935D01*
X72814443Y-111839737D01*
X69806557Y-111839737D01*
X69707958Y-111572935D01*
X69098418Y-111346499D01*
X68448623Y-111370559D01*
X67960042Y-111572935D01*
X67861443Y-111839737D01*
X62373351Y-111839737D01*
X62141073Y-111607054D01*
X62103000Y-111591245D01*
X62103000Y-109743136D01*
X64278679Y-107567457D01*
X64371910Y-107712341D01*
X64584110Y-107857331D01*
X64836000Y-107908340D01*
X66736000Y-107908340D01*
X66971317Y-107864062D01*
X67187441Y-107724990D01*
X67332431Y-107512790D01*
X67333055Y-107509708D01*
X67426997Y-107603814D01*
X68009341Y-107845624D01*
X68639893Y-107846175D01*
X69222657Y-107605381D01*
X69668914Y-107159903D01*
X69910724Y-106577559D01*
X69911275Y-105947007D01*
X69680256Y-105387900D01*
X74348560Y-105387900D01*
X74348560Y-107387900D01*
X74392838Y-107623217D01*
X74531910Y-107839341D01*
X74744110Y-107984331D01*
X74996000Y-108035340D01*
X76896000Y-108035340D01*
X77131317Y-107991062D01*
X77347441Y-107851990D01*
X77492431Y-107639790D01*
X77493055Y-107636708D01*
X77586997Y-107730814D01*
X78169341Y-107972624D01*
X78799893Y-107973175D01*
X78809903Y-107969039D01*
X80518000Y-109677136D01*
X80518000Y-111590706D01*
X80482345Y-111605438D01*
X80022154Y-112064827D01*
X79772794Y-112665353D01*
X79772226Y-113315594D01*
X80020538Y-113916555D01*
X80479927Y-114376746D01*
X81080453Y-114626106D01*
X81730694Y-114626674D01*
X82331655Y-114378362D01*
X82378504Y-114331594D01*
X84598226Y-114331594D01*
X84846538Y-114932555D01*
X85305927Y-115392746D01*
X85906453Y-115642106D01*
X86556694Y-115642674D01*
X87157655Y-115394362D01*
X87201530Y-115350563D01*
X100055943Y-115350563D01*
X100154542Y-115617365D01*
X100764082Y-115843801D01*
X101413877Y-115819741D01*
X101902458Y-115617365D01*
X102001057Y-115350563D01*
X106913943Y-115350563D01*
X107012542Y-115617365D01*
X107622082Y-115843801D01*
X108271877Y-115819741D01*
X108760458Y-115617365D01*
X108859057Y-115350563D01*
X113644943Y-115350563D01*
X113743542Y-115617365D01*
X114353082Y-115843801D01*
X115002877Y-115819741D01*
X115491458Y-115617365D01*
X115566590Y-115414063D01*
X120312443Y-115414063D01*
X120411042Y-115680865D01*
X121020582Y-115907301D01*
X121670377Y-115883241D01*
X122158958Y-115680865D01*
X122257557Y-115414063D01*
X127297443Y-115414063D01*
X127396042Y-115680865D01*
X128005582Y-115907301D01*
X128655377Y-115883241D01*
X129143958Y-115680865D01*
X129242557Y-115414063D01*
X134091943Y-115414063D01*
X134190542Y-115680865D01*
X134800082Y-115907301D01*
X135449877Y-115883241D01*
X135938458Y-115680865D01*
X136037057Y-115414063D01*
X140886443Y-115414063D01*
X140985042Y-115680865D01*
X141594582Y-115907301D01*
X142244377Y-115883241D01*
X142732958Y-115680865D01*
X142831557Y-115414063D01*
X148061943Y-115414063D01*
X148160542Y-115680865D01*
X148770082Y-115907301D01*
X149419877Y-115883241D01*
X149908458Y-115680865D01*
X150007057Y-115414063D01*
X149034500Y-114441505D01*
X148061943Y-115414063D01*
X142831557Y-115414063D01*
X141859000Y-114441505D01*
X140886443Y-115414063D01*
X136037057Y-115414063D01*
X135064500Y-114441505D01*
X134091943Y-115414063D01*
X129242557Y-115414063D01*
X128270000Y-114441505D01*
X127297443Y-115414063D01*
X122257557Y-115414063D01*
X121285000Y-114441505D01*
X120312443Y-115414063D01*
X115566590Y-115414063D01*
X115590057Y-115350563D01*
X114617500Y-114378005D01*
X113644943Y-115350563D01*
X108859057Y-115350563D01*
X107886500Y-114378005D01*
X106913943Y-115350563D01*
X102001057Y-115350563D01*
X101028500Y-114378005D01*
X100055943Y-115350563D01*
X87201530Y-115350563D01*
X87617846Y-114934973D01*
X87867206Y-114334447D01*
X87867774Y-113684206D01*
X87619462Y-113083245D01*
X87160073Y-112623054D01*
X86559547Y-112373694D01*
X85909306Y-112373126D01*
X85308345Y-112621438D01*
X84848154Y-113080827D01*
X84598794Y-113681353D01*
X84598226Y-114331594D01*
X82378504Y-114331594D01*
X82791846Y-113918973D01*
X83041206Y-113318447D01*
X83041774Y-112668206D01*
X82886288Y-112291900D01*
X89711560Y-112291900D01*
X89711560Y-113691900D01*
X89755838Y-113927217D01*
X89894910Y-114143341D01*
X90107110Y-114288331D01*
X90359000Y-114339340D01*
X91759000Y-114339340D01*
X91994317Y-114295062D01*
X92210441Y-114155990D01*
X92355431Y-113943790D01*
X92358795Y-113927175D01*
X95303331Y-113927175D01*
X95365169Y-114162942D01*
X95866122Y-114339319D01*
X96396440Y-114310564D01*
X96752831Y-114162942D01*
X96812883Y-113933982D01*
X99383099Y-113933982D01*
X99407159Y-114583777D01*
X99609535Y-115072358D01*
X99876337Y-115170957D01*
X100848895Y-114198400D01*
X101208105Y-114198400D01*
X102180663Y-115170957D01*
X102447465Y-115072358D01*
X102673901Y-114462818D01*
X102654320Y-113933982D01*
X106241099Y-113933982D01*
X106265159Y-114583777D01*
X106467535Y-115072358D01*
X106734337Y-115170957D01*
X107706895Y-114198400D01*
X108066105Y-114198400D01*
X109038663Y-115170957D01*
X109305465Y-115072358D01*
X109531901Y-114462818D01*
X109512320Y-113933982D01*
X112972099Y-113933982D01*
X112996159Y-114583777D01*
X113198535Y-115072358D01*
X113465337Y-115170957D01*
X114437895Y-114198400D01*
X114797105Y-114198400D01*
X115769663Y-115170957D01*
X116036465Y-115072358D01*
X116262901Y-114462818D01*
X116245671Y-113997482D01*
X119639599Y-113997482D01*
X119663659Y-114647277D01*
X119866035Y-115135858D01*
X120132837Y-115234457D01*
X121105395Y-114261900D01*
X121464605Y-114261900D01*
X122437163Y-115234457D01*
X122703965Y-115135858D01*
X122930401Y-114526318D01*
X122910820Y-113997482D01*
X126624599Y-113997482D01*
X126648659Y-114647277D01*
X126851035Y-115135858D01*
X127117837Y-115234457D01*
X128090395Y-114261900D01*
X128449605Y-114261900D01*
X129422163Y-115234457D01*
X129688965Y-115135858D01*
X129915401Y-114526318D01*
X129895820Y-113997482D01*
X133419099Y-113997482D01*
X133443159Y-114647277D01*
X133645535Y-115135858D01*
X133912337Y-115234457D01*
X134884895Y-114261900D01*
X135244105Y-114261900D01*
X136216663Y-115234457D01*
X136483465Y-115135858D01*
X136709901Y-114526318D01*
X136690320Y-113997482D01*
X140213599Y-113997482D01*
X140237659Y-114647277D01*
X140440035Y-115135858D01*
X140706837Y-115234457D01*
X141679395Y-114261900D01*
X142038605Y-114261900D01*
X143011163Y-115234457D01*
X143277965Y-115135858D01*
X143504401Y-114526318D01*
X143484820Y-113997482D01*
X147389099Y-113997482D01*
X147413159Y-114647277D01*
X147615535Y-115135858D01*
X147882337Y-115234457D01*
X148854895Y-114261900D01*
X149214105Y-114261900D01*
X150186663Y-115234457D01*
X150453465Y-115135858D01*
X150679901Y-114526318D01*
X150655841Y-113876523D01*
X150516445Y-113539989D01*
X152788743Y-113539989D01*
X153014344Y-114085986D01*
X153431717Y-114504088D01*
X153977319Y-114730642D01*
X154568089Y-114731157D01*
X155114086Y-114505556D01*
X155532188Y-114088183D01*
X155758742Y-113542581D01*
X155759200Y-113017179D01*
X158777282Y-113017179D01*
X158803685Y-113607358D01*
X158978741Y-114029980D01*
X159230042Y-114110253D01*
X160094395Y-113245900D01*
X159230042Y-112381547D01*
X158978741Y-112461820D01*
X158777282Y-113017179D01*
X155759200Y-113017179D01*
X155759257Y-112951811D01*
X155533656Y-112405814D01*
X155116283Y-111987712D01*
X154570681Y-111761158D01*
X153979911Y-111760643D01*
X153433914Y-111986244D01*
X153015812Y-112403617D01*
X152789258Y-112949219D01*
X152788743Y-113539989D01*
X150516445Y-113539989D01*
X150453465Y-113387942D01*
X150186663Y-113289343D01*
X149214105Y-114261900D01*
X148854895Y-114261900D01*
X147882337Y-113289343D01*
X147615535Y-113387942D01*
X147389099Y-113997482D01*
X143484820Y-113997482D01*
X143480341Y-113876523D01*
X143277965Y-113387942D01*
X143011163Y-113289343D01*
X142038605Y-114261900D01*
X141679395Y-114261900D01*
X140706837Y-113289343D01*
X140440035Y-113387942D01*
X140213599Y-113997482D01*
X136690320Y-113997482D01*
X136685841Y-113876523D01*
X136483465Y-113387942D01*
X136216663Y-113289343D01*
X135244105Y-114261900D01*
X134884895Y-114261900D01*
X133912337Y-113289343D01*
X133645535Y-113387942D01*
X133419099Y-113997482D01*
X129895820Y-113997482D01*
X129891341Y-113876523D01*
X129688965Y-113387942D01*
X129422163Y-113289343D01*
X128449605Y-114261900D01*
X128090395Y-114261900D01*
X127117837Y-113289343D01*
X126851035Y-113387942D01*
X126624599Y-113997482D01*
X122910820Y-113997482D01*
X122906341Y-113876523D01*
X122703965Y-113387942D01*
X122437163Y-113289343D01*
X121464605Y-114261900D01*
X121105395Y-114261900D01*
X120132837Y-113289343D01*
X119866035Y-113387942D01*
X119639599Y-113997482D01*
X116245671Y-113997482D01*
X116238841Y-113813023D01*
X116036465Y-113324442D01*
X115769663Y-113225843D01*
X114797105Y-114198400D01*
X114437895Y-114198400D01*
X113465337Y-113225843D01*
X113198535Y-113324442D01*
X112972099Y-113933982D01*
X109512320Y-113933982D01*
X109507841Y-113813023D01*
X109305465Y-113324442D01*
X109038663Y-113225843D01*
X108066105Y-114198400D01*
X107706895Y-114198400D01*
X106734337Y-113225843D01*
X106467535Y-113324442D01*
X106241099Y-113933982D01*
X102654320Y-113933982D01*
X102649841Y-113813023D01*
X102447465Y-113324442D01*
X102180663Y-113225843D01*
X101208105Y-114198400D01*
X100848895Y-114198400D01*
X99876337Y-113225843D01*
X99609535Y-113324442D01*
X99383099Y-113933982D01*
X96812883Y-113933982D01*
X96814669Y-113927175D01*
X96059000Y-113171505D01*
X95303331Y-113927175D01*
X92358795Y-113927175D01*
X92406440Y-113691900D01*
X92406440Y-112799022D01*
X94711581Y-112799022D01*
X94740336Y-113329340D01*
X94887958Y-113685731D01*
X95123725Y-113747569D01*
X95879395Y-112991900D01*
X96238605Y-112991900D01*
X96994275Y-113747569D01*
X97230042Y-113685731D01*
X97406419Y-113184778D01*
X97398908Y-113046237D01*
X100055943Y-113046237D01*
X101028500Y-114018795D01*
X102001057Y-113046237D01*
X106913943Y-113046237D01*
X107886500Y-114018795D01*
X108859057Y-113046237D01*
X113644943Y-113046237D01*
X114617500Y-114018795D01*
X115526557Y-113109737D01*
X120312443Y-113109737D01*
X121285000Y-114082295D01*
X122257557Y-113109737D01*
X127297443Y-113109737D01*
X128270000Y-114082295D01*
X129242557Y-113109737D01*
X134091943Y-113109737D01*
X135064500Y-114082295D01*
X136037057Y-113109737D01*
X140886443Y-113109737D01*
X141859000Y-114082295D01*
X142831557Y-113109737D01*
X148061943Y-113109737D01*
X149034500Y-114082295D01*
X150007057Y-113109737D01*
X149908458Y-112842935D01*
X149298918Y-112616499D01*
X148649123Y-112640559D01*
X148160542Y-112842935D01*
X148061943Y-113109737D01*
X142831557Y-113109737D01*
X142732958Y-112842935D01*
X142123418Y-112616499D01*
X141473623Y-112640559D01*
X140985042Y-112842935D01*
X140886443Y-113109737D01*
X136037057Y-113109737D01*
X135938458Y-112842935D01*
X135328918Y-112616499D01*
X134679123Y-112640559D01*
X134190542Y-112842935D01*
X134091943Y-113109737D01*
X129242557Y-113109737D01*
X129143958Y-112842935D01*
X128534418Y-112616499D01*
X127884623Y-112640559D01*
X127396042Y-112842935D01*
X127297443Y-113109737D01*
X122257557Y-113109737D01*
X122158958Y-112842935D01*
X121549418Y-112616499D01*
X120899623Y-112640559D01*
X120411042Y-112842935D01*
X120312443Y-113109737D01*
X115526557Y-113109737D01*
X115590057Y-113046237D01*
X115491458Y-112779435D01*
X114881918Y-112552999D01*
X114232123Y-112577059D01*
X113743542Y-112779435D01*
X113644943Y-113046237D01*
X108859057Y-113046237D01*
X108760458Y-112779435D01*
X108150918Y-112552999D01*
X107501123Y-112577059D01*
X107012542Y-112779435D01*
X106913943Y-113046237D01*
X102001057Y-113046237D01*
X101902458Y-112779435D01*
X101292918Y-112552999D01*
X100643123Y-112577059D01*
X100154542Y-112779435D01*
X100055943Y-113046237D01*
X97398908Y-113046237D01*
X97377664Y-112654460D01*
X97230042Y-112298069D01*
X96994275Y-112236231D01*
X96238605Y-112991900D01*
X95879395Y-112991900D01*
X95123725Y-112236231D01*
X94887958Y-112298069D01*
X94711581Y-112799022D01*
X92406440Y-112799022D01*
X92406440Y-112291900D01*
X92362170Y-112056625D01*
X95303331Y-112056625D01*
X96059000Y-112812295D01*
X96814669Y-112056625D01*
X96752831Y-111820858D01*
X96251878Y-111644481D01*
X95721560Y-111673236D01*
X95365169Y-111820858D01*
X95303331Y-112056625D01*
X92362170Y-112056625D01*
X92362162Y-112056583D01*
X92223090Y-111840459D01*
X92010890Y-111695469D01*
X91759000Y-111644460D01*
X90359000Y-111644460D01*
X90123683Y-111688738D01*
X89907559Y-111827810D01*
X89762569Y-112040010D01*
X89711560Y-112291900D01*
X82886288Y-112291900D01*
X82793462Y-112067245D01*
X82334073Y-111607054D01*
X82296000Y-111591245D01*
X82296000Y-109308900D01*
X82228329Y-108968694D01*
X82035618Y-108680282D01*
X80067547Y-106712211D01*
X80070724Y-106704559D01*
X80071275Y-106074007D01*
X79830481Y-105491243D01*
X79385003Y-105044986D01*
X78802659Y-104803176D01*
X78172107Y-104802625D01*
X77589343Y-105043419D01*
X77491663Y-105140929D01*
X77360090Y-104936459D01*
X77147890Y-104791469D01*
X76896000Y-104740460D01*
X74996000Y-104740460D01*
X74760683Y-104784738D01*
X74544559Y-104923810D01*
X74399569Y-105136010D01*
X74348560Y-105387900D01*
X69680256Y-105387900D01*
X69670481Y-105364243D01*
X69225003Y-104917986D01*
X68642659Y-104676176D01*
X68012107Y-104675625D01*
X67429343Y-104916419D01*
X67331663Y-105013929D01*
X67200090Y-104809459D01*
X66987890Y-104664469D01*
X66736000Y-104613460D01*
X64836000Y-104613460D01*
X64600683Y-104657738D01*
X64384559Y-104796810D01*
X64239569Y-105009010D01*
X64188560Y-105260900D01*
X64188560Y-105399636D01*
X63987794Y-105439571D01*
X63710005Y-105625184D01*
X63699382Y-105632282D01*
X60585382Y-108746282D01*
X60392671Y-109034694D01*
X60325000Y-109374900D01*
X60325000Y-111590706D01*
X60289345Y-111605438D01*
X59829154Y-112064827D01*
X59579794Y-112665353D01*
X59579226Y-113315594D01*
X58622000Y-113315594D01*
X58622000Y-104753026D01*
X59098642Y-104753026D01*
X59101291Y-104768791D01*
X59355268Y-105296036D01*
X59791680Y-105685954D01*
X60344087Y-105879184D01*
X60579000Y-105734924D01*
X60579000Y-104521000D01*
X60833000Y-104521000D01*
X60833000Y-105734924D01*
X61067913Y-105879184D01*
X61620320Y-105685954D01*
X62056732Y-105296036D01*
X62310709Y-104768791D01*
X62313358Y-104753026D01*
X62192217Y-104521000D01*
X60833000Y-104521000D01*
X60579000Y-104521000D01*
X59219783Y-104521000D01*
X59098642Y-104753026D01*
X58622000Y-104753026D01*
X58622000Y-94234000D01*
X59022655Y-94234000D01*
X59136729Y-94807489D01*
X59461585Y-95293670D01*
X59776366Y-95504000D01*
X59461585Y-95714330D01*
X59136729Y-96200511D01*
X59022655Y-96774000D01*
X59136729Y-97347489D01*
X59461585Y-97833670D01*
X59776366Y-98044000D01*
X59461585Y-98254330D01*
X59136729Y-98740511D01*
X59022655Y-99314000D01*
X59136729Y-99887489D01*
X59461585Y-100373670D01*
X59776366Y-100584000D01*
X59461585Y-100794330D01*
X59136729Y-101280511D01*
X59022655Y-101854000D01*
X59136729Y-102427489D01*
X59461585Y-102913670D01*
X59771069Y-103120461D01*
X59355268Y-103491964D01*
X59101291Y-104019209D01*
X59098642Y-104034974D01*
X59219783Y-104267000D01*
X60579000Y-104267000D01*
X60579000Y-104247000D01*
X60833000Y-104247000D01*
X60833000Y-104267000D01*
X62192217Y-104267000D01*
X62313358Y-104034974D01*
X62310709Y-104019209D01*
X62056732Y-103491964D01*
X61640931Y-103120461D01*
X61950415Y-102913670D01*
X62275271Y-102427489D01*
X62389345Y-101854000D01*
X62275271Y-101280511D01*
X61950415Y-100794330D01*
X61635634Y-100584000D01*
X61950415Y-100373670D01*
X62064453Y-100203000D01*
X64663666Y-100203000D01*
X64527812Y-100338617D01*
X64301258Y-100884219D01*
X64300743Y-101474989D01*
X64526344Y-102020986D01*
X64943717Y-102439088D01*
X65489319Y-102665642D01*
X66080089Y-102666157D01*
X66626086Y-102440556D01*
X67044188Y-102023183D01*
X67270742Y-101477581D01*
X67271257Y-100886811D01*
X67045656Y-100340814D01*
X66908083Y-100203001D01*
X68663665Y-100203001D01*
X68527812Y-100338617D01*
X68301258Y-100884219D01*
X68300743Y-101474989D01*
X68526344Y-102020986D01*
X68943717Y-102439088D01*
X69489319Y-102665642D01*
X70080089Y-102666157D01*
X70626086Y-102440556D01*
X71044188Y-102023183D01*
X71270742Y-101477581D01*
X71271257Y-100886811D01*
X71045656Y-100340814D01*
X70908083Y-100203001D01*
X71002523Y-100203001D01*
X74895061Y-104095539D01*
X75183473Y-104288250D01*
X75523679Y-104355921D01*
X82867479Y-104355921D01*
X82878160Y-104353796D01*
X84541393Y-106017029D01*
X84600734Y-106056680D01*
X84598794Y-106061353D01*
X84598226Y-106711594D01*
X84846538Y-107312555D01*
X85305927Y-107772746D01*
X85906453Y-108022106D01*
X86556694Y-108022674D01*
X86594795Y-108006931D01*
X89820383Y-111232519D01*
X90108795Y-111425230D01*
X90449001Y-111492901D01*
X149326999Y-111492901D01*
X149667205Y-111425230D01*
X149955617Y-111232519D01*
X151648147Y-109539989D01*
X152788743Y-109539989D01*
X153014344Y-110085986D01*
X153431717Y-110504088D01*
X153977319Y-110730642D01*
X154568089Y-110731157D01*
X155114086Y-110505556D01*
X155532188Y-110088183D01*
X155758742Y-109542581D01*
X155759257Y-108951811D01*
X155533656Y-108405814D01*
X155116283Y-107987712D01*
X154570681Y-107761158D01*
X153979911Y-107760643D01*
X153433914Y-107986244D01*
X153015812Y-108403617D01*
X152789258Y-108949219D01*
X152788743Y-109539989D01*
X151648147Y-109539989D01*
X154546236Y-106641900D01*
X155702000Y-106641900D01*
X156042206Y-106574229D01*
X156330618Y-106381518D01*
X158001588Y-104710548D01*
X158161268Y-105042036D01*
X158597680Y-105431954D01*
X159150087Y-105625184D01*
X159385000Y-105480924D01*
X159385000Y-104267000D01*
X159639000Y-104267000D01*
X159639000Y-105480924D01*
X159873913Y-105625184D01*
X160426320Y-105431954D01*
X160862732Y-105042036D01*
X161116709Y-104514791D01*
X161119358Y-104499026D01*
X160998217Y-104267000D01*
X159639000Y-104267000D01*
X159385000Y-104267000D01*
X159365000Y-104267000D01*
X159365000Y-104013000D01*
X159385000Y-104013000D01*
X159385000Y-103993000D01*
X159639000Y-103993000D01*
X159639000Y-104013000D01*
X160998217Y-104013000D01*
X161119358Y-103780974D01*
X161116709Y-103765209D01*
X160862732Y-103237964D01*
X160446931Y-102866461D01*
X160756415Y-102659670D01*
X161081271Y-102173489D01*
X161195345Y-101600000D01*
X161081271Y-101026511D01*
X160756415Y-100540330D01*
X160441634Y-100330000D01*
X160756415Y-100119670D01*
X161081271Y-99633489D01*
X161195345Y-99060000D01*
X161081271Y-98486511D01*
X160756415Y-98000330D01*
X160441634Y-97790000D01*
X160756415Y-97579670D01*
X161081271Y-97093489D01*
X161195345Y-96520000D01*
X161081271Y-95946511D01*
X160756415Y-95460330D01*
X160441634Y-95250000D01*
X160756415Y-95039670D01*
X161081271Y-94553489D01*
X161195345Y-93980000D01*
X161081271Y-93406511D01*
X160756415Y-92920330D01*
X160742087Y-92910757D01*
X160763317Y-92906762D01*
X160979441Y-92767690D01*
X161124431Y-92555490D01*
X161175440Y-92303600D01*
X161175440Y-90576400D01*
X161131162Y-90341083D01*
X160992090Y-90124959D01*
X160779890Y-89979969D01*
X160528000Y-89928960D01*
X158496000Y-89928960D01*
X158260683Y-89973238D01*
X158044559Y-90112310D01*
X157899569Y-90324510D01*
X157853704Y-90551000D01*
X153035000Y-90551000D01*
X153035000Y-88612094D01*
X153070655Y-88597362D01*
X153530846Y-88137973D01*
X153780206Y-87537447D01*
X153780774Y-86887206D01*
X153532462Y-86286245D01*
X153073073Y-85826054D01*
X153035000Y-85810245D01*
X153035000Y-85797408D01*
X152994090Y-85591738D01*
X152967330Y-85457203D01*
X152774618Y-85168790D01*
X150886110Y-83280282D01*
X150876559Y-83273900D01*
X150597698Y-83087571D01*
X150257492Y-83019900D01*
X75438000Y-83019900D01*
X75097794Y-83087571D01*
X74809382Y-83280282D01*
X73856882Y-84232782D01*
X73664171Y-84521194D01*
X73596500Y-84861400D01*
X73596500Y-87232523D01*
X73550183Y-87241238D01*
X73334059Y-87380310D01*
X73189069Y-87592510D01*
X73176333Y-87655400D01*
X72189826Y-87655400D01*
X72169162Y-87545583D01*
X72030090Y-87329459D01*
X71817890Y-87184469D01*
X71566000Y-87133460D01*
X70166000Y-87133460D01*
X69930683Y-87177738D01*
X69714559Y-87316810D01*
X69569569Y-87529010D01*
X69518560Y-87780900D01*
X69518560Y-89180900D01*
X69562838Y-89416217D01*
X69701910Y-89632341D01*
X69914110Y-89777331D01*
X69929264Y-89780400D01*
X66013566Y-93696098D01*
X65558037Y-93695701D01*
X62927718Y-91065382D01*
X62840011Y-91006778D01*
X62639306Y-90872671D01*
X62367210Y-90818548D01*
X62325162Y-90595083D01*
X62186090Y-90378959D01*
X61973890Y-90233969D01*
X61722000Y-90182960D01*
X59690000Y-90182960D01*
X59454683Y-90227238D01*
X59238559Y-90366310D01*
X59093569Y-90578510D01*
X59042560Y-90830400D01*
X59042560Y-92557600D01*
X59086838Y-92792917D01*
X59225910Y-93009041D01*
X59438110Y-93154031D01*
X59479439Y-93162400D01*
X59461585Y-93174330D01*
X59136729Y-93660511D01*
X59022655Y-94234000D01*
X58622000Y-94234000D01*
X58622000Y-88745283D01*
X64530769Y-88745283D01*
X64733582Y-89236129D01*
X65108796Y-89611998D01*
X65599287Y-89815668D01*
X66130383Y-89816131D01*
X66621229Y-89613318D01*
X66997098Y-89238104D01*
X67200768Y-88747613D01*
X67201231Y-88216517D01*
X66998418Y-87725671D01*
X66623204Y-87349802D01*
X66132713Y-87146132D01*
X65601617Y-87145669D01*
X65110771Y-87348482D01*
X64734902Y-87723696D01*
X64531232Y-88214187D01*
X64530769Y-88745283D01*
X58622000Y-88745283D01*
X58622000Y-82332900D01*
X161342000Y-82332900D01*
X161342000Y-108213823D01*
G36*
X98525569Y-84989010D02*
X98519018Y-85021357D01*
X96119260Y-84965549D01*
X96108902Y-84967360D01*
X96098591Y-84965309D01*
X95938447Y-84997164D01*
X95777572Y-85025292D01*
X95768695Y-85030929D01*
X95758385Y-85032980D01*
X95622615Y-85123699D01*
X95484758Y-85211246D01*
X95478715Y-85219850D01*
X95469973Y-85225691D01*
X95148204Y-85547460D01*
X93726000Y-85547460D01*
X93490683Y-85591738D01*
X93274559Y-85730810D01*
X93129569Y-85943010D01*
X93078560Y-86194900D01*
X93078560Y-88226900D01*
X93122838Y-88462217D01*
X93261910Y-88678341D01*
X93424948Y-88789740D01*
X93335615Y-88886082D01*
X93136025Y-89367956D01*
X93255164Y-89623900D01*
X94615000Y-89623900D01*
X94615000Y-89603900D01*
X94869000Y-89603900D01*
X94869000Y-89623900D01*
X96228836Y-89623900D01*
X96347975Y-89367956D01*
X96148385Y-88886082D01*
X96057903Y-88788502D01*
X96209441Y-88690990D01*
X96354431Y-88478790D01*
X96405440Y-88226900D01*
X96405440Y-86804696D01*
X96458223Y-86751913D01*
X98504402Y-86799499D01*
X98518838Y-86876217D01*
X98657910Y-87092341D01*
X98870110Y-87237331D01*
X99122000Y-87288340D01*
X100522000Y-87288340D01*
X100757317Y-87244062D01*
X100973441Y-87104990D01*
X101118431Y-86892790D01*
X101169440Y-86640900D01*
X101169440Y-85240900D01*
X101125162Y-85005583D01*
X100991522Y-84797900D01*
X103649373Y-84797900D01*
X103605569Y-84862010D01*
X103554560Y-85113900D01*
X103554560Y-86513900D01*
X103598838Y-86749217D01*
X103737910Y-86965341D01*
X103950110Y-87110331D01*
X104202000Y-87161340D01*
X105602000Y-87161340D01*
X105837317Y-87117062D01*
X106053441Y-86977990D01*
X106198431Y-86765790D01*
X106249440Y-86513900D01*
X106249440Y-85113900D01*
X106205162Y-84878583D01*
X106153244Y-84797900D01*
X110213149Y-84797900D01*
X110082569Y-84989010D01*
X110031560Y-85240900D01*
X110031560Y-86640900D01*
X110075838Y-86876217D01*
X110214910Y-87092341D01*
X110427110Y-87237331D01*
X110679000Y-87288340D01*
X112079000Y-87288340D01*
X112314317Y-87244062D01*
X112530441Y-87104990D01*
X112675431Y-86892790D01*
X112726440Y-86640900D01*
X112726440Y-85240900D01*
X112682162Y-85005583D01*
X112548522Y-84797900D01*
X117856000Y-84797900D01*
X117856000Y-84901743D01*
X117730302Y-84985732D01*
X117419233Y-85451279D01*
X117310000Y-86000430D01*
X117310000Y-86770370D01*
X117419233Y-87319521D01*
X117730302Y-87785068D01*
X117821343Y-87845900D01*
X109728000Y-87845900D01*
X109387794Y-87913571D01*
X109187034Y-88047715D01*
X109099382Y-88106282D01*
X107321382Y-89884282D01*
X107128671Y-90172694D01*
X107061000Y-90512900D01*
X107061000Y-92684664D01*
X102048383Y-97697281D01*
X101855672Y-97985693D01*
X101847900Y-98024764D01*
X101289311Y-98583353D01*
X101281659Y-98580176D01*
X100651107Y-98579625D01*
X100068343Y-98820419D01*
X99622086Y-99265897D01*
X99380276Y-99848241D01*
X99379725Y-100478793D01*
X99620519Y-101061557D01*
X99718029Y-101159237D01*
X99513559Y-101290810D01*
X99368569Y-101503010D01*
X99317560Y-101754900D01*
X99317560Y-103654900D01*
X99361838Y-103890217D01*
X99500910Y-104106341D01*
X99713110Y-104251331D01*
X99965000Y-104302340D01*
X100164900Y-104302340D01*
X100164900Y-105166711D01*
X100103845Y-105191938D01*
X99643654Y-105651327D01*
X99394294Y-106251853D01*
X99393726Y-106902094D01*
X99642038Y-107503055D01*
X100101427Y-107963246D01*
X100701953Y-108212606D01*
X101352194Y-108213174D01*
X101953155Y-107964862D01*
X102413346Y-107505473D01*
X102662706Y-106904947D01*
X102663274Y-106254706D01*
X102414962Y-105653745D01*
X101955573Y-105193554D01*
X101765100Y-105114463D01*
X101765100Y-104302340D01*
X101965000Y-104302340D01*
X102200317Y-104258062D01*
X102416441Y-104118990D01*
X102561431Y-103906790D01*
X102612440Y-103654900D01*
X102612440Y-101754900D01*
X102568162Y-101519583D01*
X102429090Y-101303459D01*
X102216890Y-101158469D01*
X102213808Y-101157845D01*
X102307914Y-101063903D01*
X102549724Y-100481559D01*
X102550275Y-99851007D01*
X102546139Y-99840997D01*
X103305619Y-99081517D01*
X103351744Y-99012486D01*
X103498330Y-98793105D01*
X103506102Y-98754034D01*
X108578618Y-93681518D01*
X108680928Y-93528400D01*
X108771329Y-93393106D01*
X108839000Y-93052900D01*
X108839000Y-91876175D01*
X110623331Y-91876175D01*
X110685169Y-92111942D01*
X111186122Y-92288319D01*
X111716440Y-92259564D01*
X112072831Y-92111942D01*
X112134669Y-91876175D01*
X111379000Y-91120505D01*
X110623331Y-91876175D01*
X108839000Y-91876175D01*
X108839000Y-90881136D01*
X108972114Y-90748022D01*
X110031581Y-90748022D01*
X110060336Y-91278340D01*
X110207958Y-91634731D01*
X110443725Y-91696569D01*
X111199395Y-90940900D01*
X111558605Y-90940900D01*
X112314275Y-91696569D01*
X112550042Y-91634731D01*
X112726419Y-91133778D01*
X112697664Y-90603460D01*
X112550042Y-90247069D01*
X112314275Y-90185231D01*
X111558605Y-90940900D01*
X111199395Y-90940900D01*
X110443725Y-90185231D01*
X110207958Y-90247069D01*
X110031581Y-90748022D01*
X108972114Y-90748022D01*
X110096236Y-89623900D01*
X111037543Y-89623900D01*
X110685169Y-89769858D01*
X110623331Y-90005625D01*
X111379000Y-90761295D01*
X112134669Y-90005625D01*
X112072831Y-89769858D01*
X111658275Y-89623900D01*
X120593500Y-89623900D01*
X120933706Y-89556229D01*
X121222118Y-89363518D01*
X121913618Y-88672018D01*
X122106330Y-88383605D01*
X122174000Y-88043400D01*
X122174000Y-87869057D01*
X122299698Y-87785068D01*
X122555000Y-87402982D01*
X122810302Y-87785068D01*
X123275849Y-88096137D01*
X123825000Y-88205370D01*
X124374151Y-88096137D01*
X124839698Y-87785068D01*
X125095000Y-87402982D01*
X125350302Y-87785068D01*
X125815849Y-88096137D01*
X126365000Y-88205370D01*
X126914151Y-88096137D01*
X127379698Y-87785068D01*
X127635000Y-87402982D01*
X127890302Y-87785068D01*
X128355849Y-88096137D01*
X128905000Y-88205370D01*
X129454151Y-88096137D01*
X129919698Y-87785068D01*
X130175000Y-87402982D01*
X130430302Y-87785068D01*
X130556000Y-87869057D01*
X130556000Y-88043400D01*
X130623671Y-88383606D01*
X130800797Y-88648694D01*
X130816382Y-88672018D01*
X133793882Y-91649518D01*
X134082294Y-91842229D01*
X134422500Y-91909900D01*
X138315764Y-91909900D01*
X142373382Y-95967518D01*
X142661794Y-96160229D01*
X142810458Y-96189800D01*
X135820712Y-96189800D01*
X135014231Y-95383319D01*
X135252149Y-95027249D01*
X135600104Y-95459900D01*
X136093181Y-95729767D01*
X136175961Y-95747304D01*
X136398000Y-95625315D01*
X136398000Y-94132400D01*
X136652000Y-94132400D01*
X136652000Y-95625315D01*
X136874039Y-95747304D01*
X136956819Y-95729767D01*
X137449896Y-95459900D01*
X137802166Y-95021883D01*
X137960000Y-94482400D01*
X137960000Y-94132400D01*
X136652000Y-94132400D01*
X136398000Y-94132400D01*
X136378000Y-94132400D01*
X136378000Y-93878400D01*
X136398000Y-93878400D01*
X136398000Y-92385485D01*
X136652000Y-92385485D01*
X136652000Y-93878400D01*
X137960000Y-93878400D01*
X137960000Y-93528400D01*
X137802166Y-92988917D01*
X137449896Y-92550900D01*
X136956819Y-92281033D01*
X136874039Y-92263496D01*
X136652000Y-92385485D01*
X136398000Y-92385485D01*
X136175961Y-92263496D01*
X136093181Y-92281033D01*
X135600104Y-92550900D01*
X135252149Y-92983551D01*
X134999698Y-92605732D01*
X134534151Y-92294663D01*
X133985000Y-92185430D01*
X133435849Y-92294663D01*
X132970302Y-92605732D01*
X132715000Y-92987818D01*
X132459698Y-92605732D01*
X131994151Y-92294663D01*
X131445000Y-92185430D01*
X130895849Y-92294663D01*
X130430302Y-92605732D01*
X130175000Y-92987818D01*
X129919698Y-92605732D01*
X129454151Y-92294663D01*
X128905000Y-92185430D01*
X128355849Y-92294663D01*
X127890302Y-92605732D01*
X127635000Y-92987818D01*
X127379698Y-92605732D01*
X126914151Y-92294663D01*
X126365000Y-92185430D01*
X125815849Y-92294663D01*
X125350302Y-92605732D01*
X125095000Y-92987818D01*
X124839698Y-92605732D01*
X124374151Y-92294663D01*
X123825000Y-92185430D01*
X123275849Y-92294663D01*
X122810302Y-92605732D01*
X122555000Y-92987818D01*
X122299698Y-92605732D01*
X121834151Y-92294663D01*
X121285000Y-92185430D01*
X120735849Y-92294663D01*
X120270302Y-92605732D01*
X120015000Y-92987818D01*
X119759698Y-92605732D01*
X119294151Y-92294663D01*
X118745000Y-92185430D01*
X118195849Y-92294663D01*
X117730302Y-92605732D01*
X117419233Y-93071279D01*
X117392575Y-93205300D01*
X113792000Y-93205300D01*
X113485815Y-93266204D01*
X113226244Y-93439644D01*
X108299647Y-98366241D01*
X108203159Y-98326176D01*
X107572607Y-98325625D01*
X106989843Y-98566419D01*
X106543586Y-99011897D01*
X106301776Y-99594241D01*
X106301225Y-100224793D01*
X106542019Y-100807557D01*
X106639529Y-100905237D01*
X106435059Y-101036810D01*
X106290069Y-101249010D01*
X106239060Y-101500900D01*
X106239060Y-103400900D01*
X106283338Y-103636217D01*
X106422410Y-103852341D01*
X106634610Y-103997331D01*
X106886500Y-104048340D01*
X107086400Y-104048340D01*
X107086400Y-105140473D01*
X106961845Y-105191938D01*
X106501654Y-105651327D01*
X106252294Y-106251853D01*
X106251726Y-106902094D01*
X106500038Y-107503055D01*
X106959427Y-107963246D01*
X107559953Y-108212606D01*
X108210194Y-108213174D01*
X108811155Y-107964862D01*
X109271346Y-107505473D01*
X109520706Y-106904947D01*
X109521274Y-106254706D01*
X109272962Y-105653745D01*
X108813573Y-105193554D01*
X108686600Y-105140830D01*
X108686600Y-104048340D01*
X108886500Y-104048340D01*
X109121817Y-104004062D01*
X109337941Y-103864990D01*
X109482931Y-103652790D01*
X109533940Y-103400900D01*
X109533940Y-101500900D01*
X109489662Y-101265583D01*
X109350590Y-101049459D01*
X109138390Y-100904469D01*
X109135308Y-100903845D01*
X109229414Y-100809903D01*
X109471224Y-100227559D01*
X109471775Y-99597007D01*
X109430879Y-99498033D01*
X114123412Y-94805500D01*
X117392575Y-94805500D01*
X117419233Y-94939521D01*
X117730302Y-95405068D01*
X118195849Y-95716137D01*
X118693719Y-95815169D01*
X115665184Y-98843704D01*
X115643503Y-98821986D01*
X115061159Y-98580176D01*
X114430607Y-98579625D01*
X113847843Y-98820419D01*
X113401586Y-99265897D01*
X113159776Y-99848241D01*
X113159225Y-100478793D01*
X113400019Y-101061557D01*
X113497529Y-101159237D01*
X113293059Y-101290810D01*
X113148069Y-101503010D01*
X113097060Y-101754900D01*
X113097060Y-103654900D01*
X113141338Y-103890217D01*
X113280410Y-104106341D01*
X113492610Y-104251331D01*
X113744500Y-104302340D01*
X113944400Y-104302340D01*
X113944400Y-105087998D01*
X113692845Y-105191938D01*
X113232654Y-105651327D01*
X112983294Y-106251853D01*
X112982726Y-106902094D01*
X113231038Y-107503055D01*
X113690427Y-107963246D01*
X114290953Y-108212606D01*
X114941194Y-108213174D01*
X115542155Y-107964862D01*
X116002346Y-107505473D01*
X116251706Y-106904947D01*
X116252274Y-106254706D01*
X116003962Y-105653745D01*
X115544600Y-105193581D01*
X115544600Y-104302340D01*
X115744500Y-104302340D01*
X115979817Y-104258062D01*
X116195941Y-104118990D01*
X116340931Y-103906790D01*
X116391940Y-103654900D01*
X116391940Y-101754900D01*
X116347662Y-101519583D01*
X116208590Y-101303459D01*
X115996390Y-101158469D01*
X115993308Y-101157845D01*
X116087414Y-101063903D01*
X116329224Y-100481559D01*
X116329258Y-100442654D01*
X121002696Y-95769216D01*
X121285000Y-95825370D01*
X121834151Y-95716137D01*
X122299698Y-95405068D01*
X122555000Y-95022982D01*
X122810302Y-95405068D01*
X123024900Y-95548458D01*
X123024900Y-97547488D01*
X121761647Y-98810741D01*
X121665159Y-98770676D01*
X121034607Y-98770125D01*
X120451843Y-99010919D01*
X120005586Y-99456397D01*
X119763776Y-100038741D01*
X119763225Y-100669293D01*
X120004019Y-101252057D01*
X120101529Y-101349737D01*
X119897059Y-101481310D01*
X119752069Y-101693510D01*
X119701060Y-101945400D01*
X119701060Y-103845400D01*
X119745338Y-104080717D01*
X119884410Y-104296841D01*
X120096610Y-104441831D01*
X120348500Y-104492840D01*
X120548400Y-104492840D01*
X120548400Y-105177735D01*
X120360345Y-105255438D01*
X119900154Y-105714827D01*
X119650794Y-106315353D01*
X119650226Y-106965594D01*
X119898538Y-107566555D01*
X120357927Y-108026746D01*
X120958453Y-108276106D01*
X121608694Y-108276674D01*
X122209655Y-108028362D01*
X122669846Y-107568973D01*
X122919206Y-106968447D01*
X122919774Y-106318206D01*
X122671462Y-105717245D01*
X122212073Y-105257054D01*
X122148600Y-105230698D01*
X122148600Y-104492840D01*
X122348500Y-104492840D01*
X122583817Y-104448562D01*
X122799941Y-104309490D01*
X122944931Y-104097290D01*
X122995940Y-103845400D01*
X122995940Y-101945400D01*
X122951662Y-101710083D01*
X122812590Y-101493959D01*
X122600390Y-101348969D01*
X122597308Y-101348345D01*
X122691414Y-101254403D01*
X122933224Y-100672059D01*
X122933775Y-100041507D01*
X122892879Y-99942533D01*
X124390756Y-98444656D01*
X124564196Y-98185085D01*
X124625100Y-97878900D01*
X124625100Y-95548458D01*
X124839698Y-95405068D01*
X125095000Y-95022982D01*
X125350302Y-95405068D01*
X125564900Y-95548458D01*
X125564900Y-98386900D01*
X125625804Y-98693085D01*
X125799244Y-98952656D01*
X126725341Y-99878753D01*
X126685276Y-99975241D01*
X126684725Y-100605793D01*
X126925519Y-101188557D01*
X127023029Y-101286237D01*
X126818559Y-101417810D01*
X126673569Y-101630010D01*
X126622560Y-101881900D01*
X126622560Y-103781900D01*
X126666838Y-104017217D01*
X126805910Y-104233341D01*
X127018110Y-104378331D01*
X127270000Y-104429340D01*
X127469900Y-104429340D01*
X127469900Y-105203973D01*
X127345345Y-105255438D01*
X126885154Y-105714827D01*
X126635794Y-106315353D01*
X126635226Y-106965594D01*
X126883538Y-107566555D01*
X127342927Y-108026746D01*
X127943453Y-108276106D01*
X128593694Y-108276674D01*
X129194655Y-108028362D01*
X129654846Y-107568973D01*
X129904206Y-106968447D01*
X129904774Y-106318206D01*
X129656462Y-105717245D01*
X129197073Y-105257054D01*
X129070100Y-105204330D01*
X129070100Y-104429340D01*
X129270000Y-104429340D01*
X129505317Y-104385062D01*
X129721441Y-104245990D01*
X129866431Y-104033790D01*
X129917440Y-103781900D01*
X129917440Y-101881900D01*
X129873162Y-101646583D01*
X129734090Y-101430459D01*
X129521890Y-101285469D01*
X129518808Y-101284845D01*
X129612914Y-101190903D01*
X129854724Y-100608559D01*
X129855275Y-99978007D01*
X129614481Y-99395243D01*
X129169003Y-98948986D01*
X128586659Y-98707176D01*
X127956107Y-98706625D01*
X127857133Y-98747521D01*
X127165100Y-98055488D01*
X127165100Y-95548458D01*
X127379698Y-95405068D01*
X127635000Y-95022982D01*
X127890302Y-95405068D01*
X128355849Y-95716137D01*
X128905000Y-95825370D01*
X129187304Y-95769216D01*
X133428174Y-100010086D01*
X133416276Y-100038741D01*
X133415725Y-100669293D01*
X133656519Y-101252057D01*
X133754029Y-101349737D01*
X133549559Y-101481310D01*
X133404569Y-101693510D01*
X133353560Y-101945400D01*
X133353560Y-103845400D01*
X133397838Y-104080717D01*
X133536910Y-104296841D01*
X133749110Y-104441831D01*
X134001000Y-104492840D01*
X134200900Y-104492840D01*
X134200900Y-105230211D01*
X134139845Y-105255438D01*
X133679654Y-105714827D01*
X133430294Y-106315353D01*
X133429726Y-106965594D01*
X133678038Y-107566555D01*
X134137427Y-108026746D01*
X134737953Y-108276106D01*
X135388194Y-108276674D01*
X135989155Y-108028362D01*
X136449346Y-107568973D01*
X136698706Y-106968447D01*
X136699274Y-106318206D01*
X136450962Y-105717245D01*
X135991573Y-105257054D01*
X135801100Y-105177963D01*
X135801100Y-104492840D01*
X136001000Y-104492840D01*
X136236317Y-104448562D01*
X136452441Y-104309490D01*
X136597431Y-104097290D01*
X136648440Y-103845400D01*
X136648440Y-101945400D01*
X136604162Y-101710083D01*
X136465090Y-101493959D01*
X136252890Y-101348969D01*
X136249808Y-101348345D01*
X136343914Y-101254403D01*
X136585724Y-100672059D01*
X136586275Y-100041507D01*
X136345481Y-99458743D01*
X135947434Y-99060000D01*
X139432088Y-99060000D01*
X140314341Y-99942253D01*
X140274276Y-100038741D01*
X140273725Y-100669293D01*
X140514519Y-101252057D01*
X140612029Y-101349737D01*
X140407559Y-101481310D01*
X140262569Y-101693510D01*
X140211560Y-101945400D01*
X140211560Y-103845400D01*
X140255838Y-104080717D01*
X140394910Y-104296841D01*
X140607110Y-104441831D01*
X140859000Y-104492840D01*
X141058900Y-104492840D01*
X141058900Y-105203973D01*
X140934345Y-105255438D01*
X140474154Y-105714827D01*
X140224794Y-106315353D01*
X140224226Y-106965594D01*
X140472538Y-107566555D01*
X140931927Y-108026746D01*
X141532453Y-108276106D01*
X142182694Y-108276674D01*
X142783655Y-108028362D01*
X143243846Y-107568973D01*
X143493206Y-106968447D01*
X143493774Y-106318206D01*
X143245462Y-105717245D01*
X142786073Y-105257054D01*
X142659100Y-105204330D01*
X142659100Y-104492840D01*
X142859000Y-104492840D01*
X143094317Y-104448562D01*
X143310441Y-104309490D01*
X143455431Y-104097290D01*
X143506440Y-103845400D01*
X143506440Y-101945400D01*
X143462162Y-101710083D01*
X143323090Y-101493959D01*
X143110890Y-101348969D01*
X143107808Y-101348345D01*
X143201914Y-101254403D01*
X143443724Y-100672059D01*
X143444275Y-100041507D01*
X143203481Y-99458743D01*
X142758003Y-99012486D01*
X142175659Y-98770676D01*
X141545107Y-98770125D01*
X141446133Y-98811021D01*
X140425112Y-97790000D01*
X145274088Y-97790000D01*
X147489841Y-100005753D01*
X147449776Y-100102241D01*
X147449225Y-100732793D01*
X147690019Y-101315557D01*
X147787529Y-101413237D01*
X147583059Y-101544810D01*
X147438069Y-101757010D01*
X147387060Y-102008900D01*
X147387060Y-103908900D01*
X147431338Y-104144217D01*
X147570410Y-104360341D01*
X147782610Y-104505331D01*
X148034500Y-104556340D01*
X148234400Y-104556340D01*
X148234400Y-105203973D01*
X148109845Y-105255438D01*
X147649654Y-105714827D01*
X147400294Y-106315353D01*
X147399726Y-106965594D01*
X147648038Y-107566555D01*
X148107427Y-108026746D01*
X148707953Y-108276106D01*
X149358194Y-108276674D01*
X149959155Y-108028362D01*
X150419346Y-107568973D01*
X150668706Y-106968447D01*
X150669274Y-106318206D01*
X150420962Y-105717245D01*
X149961573Y-105257054D01*
X149834600Y-105204330D01*
X149834600Y-104556340D01*
X150034500Y-104556340D01*
X150269817Y-104512062D01*
X150485941Y-104372990D01*
X150630931Y-104160790D01*
X150641000Y-104111063D01*
X152951443Y-104111063D01*
X153050042Y-104377865D01*
X153659582Y-104604301D01*
X154309377Y-104580241D01*
X154797958Y-104377865D01*
X154896557Y-104111063D01*
X153924000Y-103138505D01*
X152951443Y-104111063D01*
X150641000Y-104111063D01*
X150681940Y-103908900D01*
X150681940Y-102694482D01*
X152278599Y-102694482D01*
X152302659Y-103344277D01*
X152505035Y-103832858D01*
X152771837Y-103931457D01*
X153744395Y-102958900D01*
X154103605Y-102958900D01*
X155076163Y-103931457D01*
X155342965Y-103832858D01*
X155569401Y-103223318D01*
X155545341Y-102573523D01*
X155342965Y-102084942D01*
X155076163Y-101986343D01*
X154103605Y-102958900D01*
X153744395Y-102958900D01*
X152771837Y-101986343D01*
X152505035Y-102084942D01*
X152278599Y-102694482D01*
X150681940Y-102694482D01*
X150681940Y-102008900D01*
X150643901Y-101806737D01*
X152951443Y-101806737D01*
X153924000Y-102779295D01*
X154896557Y-101806737D01*
X154797958Y-101539935D01*
X154188418Y-101313499D01*
X153538623Y-101337559D01*
X153050042Y-101539935D01*
X152951443Y-101806737D01*
X150643901Y-101806737D01*
X150637662Y-101773583D01*
X150498590Y-101557459D01*
X150286390Y-101412469D01*
X150283308Y-101411845D01*
X150377414Y-101317903D01*
X150619224Y-100735559D01*
X150619775Y-100105007D01*
X150378981Y-99522243D01*
X149933503Y-99075986D01*
X149351159Y-98834176D01*
X148720607Y-98833625D01*
X148621633Y-98874521D01*
X146171256Y-96424144D01*
X145911685Y-96250704D01*
X145797042Y-96227900D01*
X147205764Y-96227900D01*
X148452873Y-97475009D01*
X148741285Y-97667720D01*
X149081491Y-97735391D01*
X158225491Y-97735391D01*
X158437519Y-97693216D01*
X158582366Y-97790000D01*
X158267585Y-98000330D01*
X158153547Y-98171000D01*
X157988000Y-98171000D01*
X157647794Y-98238671D01*
X157359382Y-98431382D01*
X156851382Y-98939382D01*
X156658671Y-99227794D01*
X156591000Y-99568000D01*
X156591000Y-103606664D01*
X155333764Y-104863900D01*
X154178000Y-104863900D01*
X153837794Y-104931571D01*
X153549382Y-105124282D01*
X148958763Y-109714901D01*
X90817237Y-109714901D01*
X87852412Y-106750076D01*
X87867206Y-106714447D01*
X87867774Y-106064206D01*
X87619462Y-105463245D01*
X87160073Y-105003054D01*
X86559547Y-104753694D01*
X85909306Y-104753126D01*
X85871205Y-104768869D01*
X85862129Y-104759793D01*
X85736987Y-104676176D01*
X85670760Y-104631924D01*
X84315236Y-103276400D01*
X85267736Y-102323900D01*
X86201659Y-102323900D01*
X86388172Y-102603036D01*
X86841391Y-102905868D01*
X87376000Y-103012208D01*
X87910609Y-102905868D01*
X88363828Y-102603036D01*
X88666660Y-102149817D01*
X88773000Y-101615208D01*
X88773000Y-101254592D01*
X88666660Y-100719983D01*
X88363828Y-100266764D01*
X87910609Y-99963932D01*
X87376000Y-99857592D01*
X86841391Y-99963932D01*
X86388172Y-100266764D01*
X86201659Y-100545900D01*
X84899500Y-100545900D01*
X84559294Y-100613571D01*
X84270882Y-100806282D01*
X82499243Y-102577921D01*
X79755137Y-102577921D01*
X80087586Y-102440556D01*
X80505688Y-102023183D01*
X80732242Y-101477581D01*
X80732757Y-100886811D01*
X80507156Y-100340814D01*
X80089783Y-99922712D01*
X79755487Y-99783900D01*
X92312397Y-99783900D01*
X92417867Y-100314135D01*
X92718221Y-100763646D01*
X93152616Y-101053900D01*
X92718221Y-101344154D01*
X92417867Y-101793665D01*
X92312397Y-102323900D01*
X92417867Y-102854135D01*
X92718221Y-103303646D01*
X93152616Y-103593900D01*
X92718221Y-103884154D01*
X92417867Y-104333665D01*
X92312397Y-104863900D01*
X92417867Y-105394135D01*
X92718221Y-105843646D01*
X93167732Y-106144000D01*
X93697967Y-106249470D01*
X94770033Y-106249470D01*
X95300268Y-106144000D01*
X95749779Y-105843646D01*
X96050133Y-105394135D01*
X96155603Y-104863900D01*
X96050133Y-104333665D01*
X95749779Y-103884154D01*
X95315384Y-103593900D01*
X95749779Y-103303646D01*
X96050133Y-102854135D01*
X96155603Y-102323900D01*
X96050133Y-101793665D01*
X95749779Y-101344154D01*
X95315384Y-101053900D01*
X95749779Y-100763646D01*
X96050133Y-100314135D01*
X96155603Y-99783900D01*
X96050133Y-99253665D01*
X95749779Y-98804154D01*
X95300268Y-98503800D01*
X94770033Y-98398330D01*
X93697967Y-98398330D01*
X93167732Y-98503800D01*
X92718221Y-98804154D01*
X92417867Y-99253665D01*
X92312397Y-99783900D01*
X79755487Y-99783900D01*
X79544181Y-99696158D01*
X78953411Y-99695643D01*
X78407414Y-99921244D01*
X77989312Y-100338617D01*
X77762758Y-100884219D01*
X77762243Y-101474989D01*
X77987844Y-102020986D01*
X78405217Y-102439088D01*
X78739564Y-102577921D01*
X75891915Y-102577921D01*
X75851924Y-102537930D01*
X76087586Y-102440556D01*
X76505688Y-102023183D01*
X76732242Y-101477581D01*
X76732757Y-100886811D01*
X76507156Y-100340814D01*
X76089783Y-99922712D01*
X75544181Y-99696158D01*
X75386116Y-99696020D01*
X78098618Y-96983518D01*
X78105575Y-96973106D01*
X78291329Y-96695106D01*
X78352715Y-96386495D01*
X78405217Y-96439088D01*
X78950819Y-96665642D01*
X79541589Y-96666157D01*
X80087586Y-96440556D01*
X80505688Y-96023183D01*
X80732242Y-95477581D01*
X80732757Y-94886811D01*
X80507156Y-94340814D01*
X80089783Y-93922712D01*
X79544181Y-93696158D01*
X78953411Y-93695643D01*
X78407414Y-93921244D01*
X78359000Y-93969574D01*
X78359000Y-90881136D01*
X78376474Y-90863662D01*
X78518117Y-90769019D01*
X79407803Y-89879333D01*
X79749883Y-89879631D01*
X80240729Y-89676818D01*
X80616598Y-89301604D01*
X80820268Y-88811113D01*
X80820503Y-88540793D01*
X81980725Y-88540793D01*
X82221519Y-89123557D01*
X82666997Y-89569814D01*
X82677000Y-89573968D01*
X82677000Y-92481400D01*
X82744671Y-92821606D01*
X82869911Y-93009041D01*
X82937382Y-93110018D01*
X84270882Y-94443518D01*
X84559294Y-94636229D01*
X84899500Y-94703900D01*
X85966560Y-94703900D01*
X85966560Y-94726900D01*
X86010838Y-94962217D01*
X86149910Y-95178341D01*
X86362110Y-95323331D01*
X86614000Y-95374340D01*
X88138000Y-95374340D01*
X88373317Y-95330062D01*
X88589441Y-95190990D01*
X88734431Y-94978790D01*
X88785440Y-94726900D01*
X88785440Y-92902900D01*
X88741162Y-92667583D01*
X88602090Y-92451459D01*
X88389890Y-92306469D01*
X88138000Y-92255460D01*
X86614000Y-92255460D01*
X86378683Y-92299738D01*
X86162559Y-92438810D01*
X86017569Y-92651010D01*
X85966560Y-92902900D01*
X85966560Y-92925900D01*
X85267736Y-92925900D01*
X84455000Y-92113164D01*
X84455000Y-89574545D01*
X84462657Y-89571381D01*
X84560337Y-89473871D01*
X84691910Y-89678341D01*
X84904110Y-89823331D01*
X85156000Y-89874340D01*
X86494928Y-89874340D01*
X90746476Y-94125888D01*
X90694794Y-94250353D01*
X90694226Y-94900594D01*
X90942538Y-95501555D01*
X91401927Y-95961746D01*
X92002453Y-96211106D01*
X92652694Y-96211674D01*
X93253655Y-95963362D01*
X93488363Y-95729063D01*
X98976443Y-95729063D01*
X99075042Y-95995865D01*
X99684582Y-96222301D01*
X100334377Y-96198241D01*
X100822958Y-95995865D01*
X100921557Y-95729063D01*
X99949000Y-94756505D01*
X98976443Y-95729063D01*
X93488363Y-95729063D01*
X93713846Y-95503973D01*
X93963206Y-94903447D01*
X93963722Y-94312482D01*
X98303599Y-94312482D01*
X98327659Y-94962277D01*
X98530035Y-95450858D01*
X98796837Y-95549457D01*
X99769395Y-94576900D01*
X100128605Y-94576900D01*
X101101163Y-95549457D01*
X101367965Y-95450858D01*
X101594401Y-94841318D01*
X101570341Y-94191523D01*
X101367965Y-93702942D01*
X101101163Y-93604343D01*
X100128605Y-94576900D01*
X99769395Y-94576900D01*
X98796837Y-93604343D01*
X98530035Y-93702942D01*
X98303599Y-94312482D01*
X93963722Y-94312482D01*
X93963774Y-94253206D01*
X93715462Y-93652245D01*
X93488351Y-93424737D01*
X98976443Y-93424737D01*
X99949000Y-94397295D01*
X100921557Y-93424737D01*
X100822958Y-93157935D01*
X100213418Y-92931499D01*
X99563623Y-92955559D01*
X99075042Y-93157935D01*
X98976443Y-93424737D01*
X93488351Y-93424737D01*
X93256073Y-93192054D01*
X92655547Y-92942694D01*
X92005306Y-92942126D01*
X91878240Y-92994628D01*
X90759787Y-91876175D01*
X99066331Y-91876175D01*
X99128169Y-92111942D01*
X99629122Y-92288319D01*
X100159440Y-92259564D01*
X100515831Y-92111942D01*
X100577669Y-91876175D01*
X100450670Y-91749175D01*
X104146331Y-91749175D01*
X104208169Y-91984942D01*
X104709122Y-92161319D01*
X105239440Y-92132564D01*
X105595831Y-91984942D01*
X105657669Y-91749175D01*
X104902000Y-90993505D01*
X104146331Y-91749175D01*
X100450670Y-91749175D01*
X99822000Y-91120505D01*
X99066331Y-91876175D01*
X90759787Y-91876175D01*
X89017456Y-90133844D01*
X93136025Y-90133844D01*
X93335615Y-90615718D01*
X93773621Y-91088088D01*
X94359054Y-91356883D01*
X94615000Y-91238267D01*
X94615000Y-89877900D01*
X94869000Y-89877900D01*
X94869000Y-91238267D01*
X95124946Y-91356883D01*
X95710379Y-91088088D01*
X96025705Y-90748022D01*
X98474581Y-90748022D01*
X98503336Y-91278340D01*
X98650958Y-91634731D01*
X98886725Y-91696569D01*
X99642395Y-90940900D01*
X100001605Y-90940900D01*
X100757275Y-91696569D01*
X100993042Y-91634731D01*
X101169419Y-91133778D01*
X101141617Y-90621022D01*
X103554581Y-90621022D01*
X103583336Y-91151340D01*
X103730958Y-91507731D01*
X103966725Y-91569569D01*
X104722395Y-90813900D01*
X105081605Y-90813900D01*
X105837275Y-91569569D01*
X106073042Y-91507731D01*
X106249419Y-91006778D01*
X106220664Y-90476460D01*
X106073042Y-90120069D01*
X105837275Y-90058231D01*
X105081605Y-90813900D01*
X104722395Y-90813900D01*
X103966725Y-90058231D01*
X103730958Y-90120069D01*
X103554581Y-90621022D01*
X101141617Y-90621022D01*
X101140664Y-90603460D01*
X100993042Y-90247069D01*
X100757275Y-90185231D01*
X100001605Y-90940900D01*
X99642395Y-90940900D01*
X98886725Y-90185231D01*
X98650958Y-90247069D01*
X98474581Y-90748022D01*
X96025705Y-90748022D01*
X96148385Y-90615718D01*
X96347975Y-90133844D01*
X96288291Y-90005625D01*
X99066331Y-90005625D01*
X99822000Y-90761295D01*
X100577669Y-90005625D01*
X100544359Y-89878625D01*
X104146331Y-89878625D01*
X104902000Y-90634295D01*
X105657669Y-89878625D01*
X105595831Y-89642858D01*
X105094878Y-89466481D01*
X104564560Y-89495236D01*
X104208169Y-89642858D01*
X104146331Y-89878625D01*
X100544359Y-89878625D01*
X100515831Y-89769858D01*
X100014878Y-89593481D01*
X99484560Y-89622236D01*
X99128169Y-89769858D01*
X99066331Y-90005625D01*
X96288291Y-90005625D01*
X96228836Y-89877900D01*
X94869000Y-89877900D01*
X94615000Y-89877900D01*
X93255164Y-89877900D01*
X93136025Y-90133844D01*
X89017456Y-90133844D01*
X87703440Y-88819828D01*
X87703440Y-87226900D01*
X87659162Y-86991583D01*
X87520090Y-86775459D01*
X87307890Y-86630469D01*
X87056000Y-86579460D01*
X85156000Y-86579460D01*
X84920683Y-86623738D01*
X84704559Y-86762810D01*
X84559569Y-86975010D01*
X84558945Y-86978092D01*
X84465003Y-86883986D01*
X83882659Y-86642176D01*
X83252107Y-86641625D01*
X82669343Y-86882419D01*
X82223086Y-87327897D01*
X81981276Y-87910241D01*
X81980725Y-88540793D01*
X80820503Y-88540793D01*
X80820731Y-88280017D01*
X80617918Y-87789171D01*
X80242704Y-87413302D01*
X79752213Y-87209632D01*
X79221117Y-87209169D01*
X78730271Y-87411982D01*
X78354402Y-87787196D01*
X78150732Y-88277687D01*
X78150432Y-88622232D01*
X77355524Y-89417140D01*
X77261871Y-89479717D01*
X77213881Y-89511783D01*
X76841382Y-89884282D01*
X76648671Y-90172694D01*
X76581000Y-90512900D01*
X76581000Y-94519530D01*
X76507156Y-94340814D01*
X76136500Y-93969511D01*
X76136500Y-89306400D01*
X76068829Y-88966194D01*
X75876118Y-88677782D01*
X75832940Y-88634604D01*
X75832940Y-87844400D01*
X75788662Y-87609083D01*
X75649590Y-87392959D01*
X75437390Y-87247969D01*
X75374500Y-87235233D01*
X75374500Y-85229636D01*
X75806236Y-84797900D01*
X98656149Y-84797900D01*
X98525569Y-84989010D01*
X98525569Y-84989010D01*
G37*
X98525569Y-84989010D02*
X98519018Y-85021357D01*
X96119260Y-84965549D01*
X96108902Y-84967360D01*
X96098591Y-84965309D01*
X95938447Y-84997164D01*
X95777572Y-85025292D01*
X95768695Y-85030929D01*
X95758385Y-85032980D01*
X95622615Y-85123699D01*
X95484758Y-85211246D01*
X95478715Y-85219850D01*
X95469973Y-85225691D01*
X95148204Y-85547460D01*
X93726000Y-85547460D01*
X93490683Y-85591738D01*
X93274559Y-85730810D01*
X93129569Y-85943010D01*
X93078560Y-86194900D01*
X93078560Y-88226900D01*
X93122838Y-88462217D01*
X93261910Y-88678341D01*
X93424948Y-88789740D01*
X93335615Y-88886082D01*
X93136025Y-89367956D01*
X93255164Y-89623900D01*
X94615000Y-89623900D01*
X94615000Y-89603900D01*
X94869000Y-89603900D01*
X94869000Y-89623900D01*
X96228836Y-89623900D01*
X96347975Y-89367956D01*
X96148385Y-88886082D01*
X96057903Y-88788502D01*
X96209441Y-88690990D01*
X96354431Y-88478790D01*
X96405440Y-88226900D01*
X96405440Y-86804696D01*
X96458223Y-86751913D01*
X98504402Y-86799499D01*
X98518838Y-86876217D01*
X98657910Y-87092341D01*
X98870110Y-87237331D01*
X99122000Y-87288340D01*
X100522000Y-87288340D01*
X100757317Y-87244062D01*
X100973441Y-87104990D01*
X101118431Y-86892790D01*
X101169440Y-86640900D01*
X101169440Y-85240900D01*
X101125162Y-85005583D01*
X100991522Y-84797900D01*
X103649373Y-84797900D01*
X103605569Y-84862010D01*
X103554560Y-85113900D01*
X103554560Y-86513900D01*
X103598838Y-86749217D01*
X103737910Y-86965341D01*
X103950110Y-87110331D01*
X104202000Y-87161340D01*
X105602000Y-87161340D01*
X105837317Y-87117062D01*
X106053441Y-86977990D01*
X106198431Y-86765790D01*
X106249440Y-86513900D01*
X106249440Y-85113900D01*
X106205162Y-84878583D01*
X106153244Y-84797900D01*
X110213149Y-84797900D01*
X110082569Y-84989010D01*
X110031560Y-85240900D01*
X110031560Y-86640900D01*
X110075838Y-86876217D01*
X110214910Y-87092341D01*
X110427110Y-87237331D01*
X110679000Y-87288340D01*
X112079000Y-87288340D01*
X112314317Y-87244062D01*
X112530441Y-87104990D01*
X112675431Y-86892790D01*
X112726440Y-86640900D01*
X112726440Y-85240900D01*
X112682162Y-85005583D01*
X112548522Y-84797900D01*
X117856000Y-84797900D01*
X117856000Y-84901743D01*
X117730302Y-84985732D01*
X117419233Y-85451279D01*
X117310000Y-86000430D01*
X117310000Y-86770370D01*
X117419233Y-87319521D01*
X117730302Y-87785068D01*
X117821343Y-87845900D01*
X109728000Y-87845900D01*
X109387794Y-87913571D01*
X109187034Y-88047715D01*
X109099382Y-88106282D01*
X107321382Y-89884282D01*
X107128671Y-90172694D01*
X107061000Y-90512900D01*
X107061000Y-92684664D01*
X102048383Y-97697281D01*
X101855672Y-97985693D01*
X101847900Y-98024764D01*
X101289311Y-98583353D01*
X101281659Y-98580176D01*
X100651107Y-98579625D01*
X100068343Y-98820419D01*
X99622086Y-99265897D01*
X99380276Y-99848241D01*
X99379725Y-100478793D01*
X99620519Y-101061557D01*
X99718029Y-101159237D01*
X99513559Y-101290810D01*
X99368569Y-101503010D01*
X99317560Y-101754900D01*
X99317560Y-103654900D01*
X99361838Y-103890217D01*
X99500910Y-104106341D01*
X99713110Y-104251331D01*
X99965000Y-104302340D01*
X100164900Y-104302340D01*
X100164900Y-105166711D01*
X100103845Y-105191938D01*
X99643654Y-105651327D01*
X99394294Y-106251853D01*
X99393726Y-106902094D01*
X99642038Y-107503055D01*
X100101427Y-107963246D01*
X100701953Y-108212606D01*
X101352194Y-108213174D01*
X101953155Y-107964862D01*
X102413346Y-107505473D01*
X102662706Y-106904947D01*
X102663274Y-106254706D01*
X102414962Y-105653745D01*
X101955573Y-105193554D01*
X101765100Y-105114463D01*
X101765100Y-104302340D01*
X101965000Y-104302340D01*
X102200317Y-104258062D01*
X102416441Y-104118990D01*
X102561431Y-103906790D01*
X102612440Y-103654900D01*
X102612440Y-101754900D01*
X102568162Y-101519583D01*
X102429090Y-101303459D01*
X102216890Y-101158469D01*
X102213808Y-101157845D01*
X102307914Y-101063903D01*
X102549724Y-100481559D01*
X102550275Y-99851007D01*
X102546139Y-99840997D01*
X103305619Y-99081517D01*
X103351744Y-99012486D01*
X103498330Y-98793105D01*
X103506102Y-98754034D01*
X108578618Y-93681518D01*
X108680928Y-93528400D01*
X108771329Y-93393106D01*
X108839000Y-93052900D01*
X108839000Y-91876175D01*
X110623331Y-91876175D01*
X110685169Y-92111942D01*
X111186122Y-92288319D01*
X111716440Y-92259564D01*
X112072831Y-92111942D01*
X112134669Y-91876175D01*
X111379000Y-91120505D01*
X110623331Y-91876175D01*
X108839000Y-91876175D01*
X108839000Y-90881136D01*
X108972114Y-90748022D01*
X110031581Y-90748022D01*
X110060336Y-91278340D01*
X110207958Y-91634731D01*
X110443725Y-91696569D01*
X111199395Y-90940900D01*
X111558605Y-90940900D01*
X112314275Y-91696569D01*
X112550042Y-91634731D01*
X112726419Y-91133778D01*
X112697664Y-90603460D01*
X112550042Y-90247069D01*
X112314275Y-90185231D01*
X111558605Y-90940900D01*
X111199395Y-90940900D01*
X110443725Y-90185231D01*
X110207958Y-90247069D01*
X110031581Y-90748022D01*
X108972114Y-90748022D01*
X110096236Y-89623900D01*
X111037543Y-89623900D01*
X110685169Y-89769858D01*
X110623331Y-90005625D01*
X111379000Y-90761295D01*
X112134669Y-90005625D01*
X112072831Y-89769858D01*
X111658275Y-89623900D01*
X120593500Y-89623900D01*
X120933706Y-89556229D01*
X121222118Y-89363518D01*
X121913618Y-88672018D01*
X122106330Y-88383605D01*
X122174000Y-88043400D01*
X122174000Y-87869057D01*
X122299698Y-87785068D01*
X122555000Y-87402982D01*
X122810302Y-87785068D01*
X123275849Y-88096137D01*
X123825000Y-88205370D01*
X124374151Y-88096137D01*
X124839698Y-87785068D01*
X125095000Y-87402982D01*
X125350302Y-87785068D01*
X125815849Y-88096137D01*
X126365000Y-88205370D01*
X126914151Y-88096137D01*
X127379698Y-87785068D01*
X127635000Y-87402982D01*
X127890302Y-87785068D01*
X128355849Y-88096137D01*
X128905000Y-88205370D01*
X129454151Y-88096137D01*
X129919698Y-87785068D01*
X130175000Y-87402982D01*
X130430302Y-87785068D01*
X130556000Y-87869057D01*
X130556000Y-88043400D01*
X130623671Y-88383606D01*
X130800797Y-88648694D01*
X130816382Y-88672018D01*
X133793882Y-91649518D01*
X134082294Y-91842229D01*
X134422500Y-91909900D01*
X138315764Y-91909900D01*
X142373382Y-95967518D01*
X142661794Y-96160229D01*
X142810458Y-96189800D01*
X135820712Y-96189800D01*
X135014231Y-95383319D01*
X135252149Y-95027249D01*
X135600104Y-95459900D01*
X136093181Y-95729767D01*
X136175961Y-95747304D01*
X136398000Y-95625315D01*
X136398000Y-94132400D01*
X136652000Y-94132400D01*
X136652000Y-95625315D01*
X136874039Y-95747304D01*
X136956819Y-95729767D01*
X137449896Y-95459900D01*
X137802166Y-95021883D01*
X137960000Y-94482400D01*
X137960000Y-94132400D01*
X136652000Y-94132400D01*
X136398000Y-94132400D01*
X136378000Y-94132400D01*
X136378000Y-93878400D01*
X136398000Y-93878400D01*
X136398000Y-92385485D01*
X136652000Y-92385485D01*
X136652000Y-93878400D01*
X137960000Y-93878400D01*
X137960000Y-93528400D01*
X137802166Y-92988917D01*
X137449896Y-92550900D01*
X136956819Y-92281033D01*
X136874039Y-92263496D01*
X136652000Y-92385485D01*
X136398000Y-92385485D01*
X136175961Y-92263496D01*
X136093181Y-92281033D01*
X135600104Y-92550900D01*
X135252149Y-92983551D01*
X134999698Y-92605732D01*
X134534151Y-92294663D01*
X133985000Y-92185430D01*
X133435849Y-92294663D01*
X132970302Y-92605732D01*
X132715000Y-92987818D01*
X132459698Y-92605732D01*
X131994151Y-92294663D01*
X131445000Y-92185430D01*
X130895849Y-92294663D01*
X130430302Y-92605732D01*
X130175000Y-92987818D01*
X129919698Y-92605732D01*
X129454151Y-92294663D01*
X128905000Y-92185430D01*
X128355849Y-92294663D01*
X127890302Y-92605732D01*
X127635000Y-92987818D01*
X127379698Y-92605732D01*
X126914151Y-92294663D01*
X126365000Y-92185430D01*
X125815849Y-92294663D01*
X125350302Y-92605732D01*
X125095000Y-92987818D01*
X124839698Y-92605732D01*
X124374151Y-92294663D01*
X123825000Y-92185430D01*
X123275849Y-92294663D01*
X122810302Y-92605732D01*
X122555000Y-92987818D01*
X122299698Y-92605732D01*
X121834151Y-92294663D01*
X121285000Y-92185430D01*
X120735849Y-92294663D01*
X120270302Y-92605732D01*
X120015000Y-92987818D01*
X119759698Y-92605732D01*
X119294151Y-92294663D01*
X118745000Y-92185430D01*
X118195849Y-92294663D01*
X117730302Y-92605732D01*
X117419233Y-93071279D01*
X117392575Y-93205300D01*
X113792000Y-93205300D01*
X113485815Y-93266204D01*
X113226244Y-93439644D01*
X108299647Y-98366241D01*
X108203159Y-98326176D01*
X107572607Y-98325625D01*
X106989843Y-98566419D01*
X106543586Y-99011897D01*
X106301776Y-99594241D01*
X106301225Y-100224793D01*
X106542019Y-100807557D01*
X106639529Y-100905237D01*
X106435059Y-101036810D01*
X106290069Y-101249010D01*
X106239060Y-101500900D01*
X106239060Y-103400900D01*
X106283338Y-103636217D01*
X106422410Y-103852341D01*
X106634610Y-103997331D01*
X106886500Y-104048340D01*
X107086400Y-104048340D01*
X107086400Y-105140473D01*
X106961845Y-105191938D01*
X106501654Y-105651327D01*
X106252294Y-106251853D01*
X106251726Y-106902094D01*
X106500038Y-107503055D01*
X106959427Y-107963246D01*
X107559953Y-108212606D01*
X108210194Y-108213174D01*
X108811155Y-107964862D01*
X109271346Y-107505473D01*
X109520706Y-106904947D01*
X109521274Y-106254706D01*
X109272962Y-105653745D01*
X108813573Y-105193554D01*
X108686600Y-105140830D01*
X108686600Y-104048340D01*
X108886500Y-104048340D01*
X109121817Y-104004062D01*
X109337941Y-103864990D01*
X109482931Y-103652790D01*
X109533940Y-103400900D01*
X109533940Y-101500900D01*
X109489662Y-101265583D01*
X109350590Y-101049459D01*
X109138390Y-100904469D01*
X109135308Y-100903845D01*
X109229414Y-100809903D01*
X109471224Y-100227559D01*
X109471775Y-99597007D01*
X109430879Y-99498033D01*
X114123412Y-94805500D01*
X117392575Y-94805500D01*
X117419233Y-94939521D01*
X117730302Y-95405068D01*
X118195849Y-95716137D01*
X118693719Y-95815169D01*
X115665184Y-98843704D01*
X115643503Y-98821986D01*
X115061159Y-98580176D01*
X114430607Y-98579625D01*
X113847843Y-98820419D01*
X113401586Y-99265897D01*
X113159776Y-99848241D01*
X113159225Y-100478793D01*
X113400019Y-101061557D01*
X113497529Y-101159237D01*
X113293059Y-101290810D01*
X113148069Y-101503010D01*
X113097060Y-101754900D01*
X113097060Y-103654900D01*
X113141338Y-103890217D01*
X113280410Y-104106341D01*
X113492610Y-104251331D01*
X113744500Y-104302340D01*
X113944400Y-104302340D01*
X113944400Y-105087998D01*
X113692845Y-105191938D01*
X113232654Y-105651327D01*
X112983294Y-106251853D01*
X112982726Y-106902094D01*
X113231038Y-107503055D01*
X113690427Y-107963246D01*
X114290953Y-108212606D01*
X114941194Y-108213174D01*
X115542155Y-107964862D01*
X116002346Y-107505473D01*
X116251706Y-106904947D01*
X116252274Y-106254706D01*
X116003962Y-105653745D01*
X115544600Y-105193581D01*
X115544600Y-104302340D01*
X115744500Y-104302340D01*
X115979817Y-104258062D01*
X116195941Y-104118990D01*
X116340931Y-103906790D01*
X116391940Y-103654900D01*
X116391940Y-101754900D01*
X116347662Y-101519583D01*
X116208590Y-101303459D01*
X115996390Y-101158469D01*
X115993308Y-101157845D01*
X116087414Y-101063903D01*
X116329224Y-100481559D01*
X116329258Y-100442654D01*
X121002696Y-95769216D01*
X121285000Y-95825370D01*
X121834151Y-95716137D01*
X122299698Y-95405068D01*
X122555000Y-95022982D01*
X122810302Y-95405068D01*
X123024900Y-95548458D01*
X123024900Y-97547488D01*
X121761647Y-98810741D01*
X121665159Y-98770676D01*
X121034607Y-98770125D01*
X120451843Y-99010919D01*
X120005586Y-99456397D01*
X119763776Y-100038741D01*
X119763225Y-100669293D01*
X120004019Y-101252057D01*
X120101529Y-101349737D01*
X119897059Y-101481310D01*
X119752069Y-101693510D01*
X119701060Y-101945400D01*
X119701060Y-103845400D01*
X119745338Y-104080717D01*
X119884410Y-104296841D01*
X120096610Y-104441831D01*
X120348500Y-104492840D01*
X120548400Y-104492840D01*
X120548400Y-105177735D01*
X120360345Y-105255438D01*
X119900154Y-105714827D01*
X119650794Y-106315353D01*
X119650226Y-106965594D01*
X119898538Y-107566555D01*
X120357927Y-108026746D01*
X120958453Y-108276106D01*
X121608694Y-108276674D01*
X122209655Y-108028362D01*
X122669846Y-107568973D01*
X122919206Y-106968447D01*
X122919774Y-106318206D01*
X122671462Y-105717245D01*
X122212073Y-105257054D01*
X122148600Y-105230698D01*
X122148600Y-104492840D01*
X122348500Y-104492840D01*
X122583817Y-104448562D01*
X122799941Y-104309490D01*
X122944931Y-104097290D01*
X122995940Y-103845400D01*
X122995940Y-101945400D01*
X122951662Y-101710083D01*
X122812590Y-101493959D01*
X122600390Y-101348969D01*
X122597308Y-101348345D01*
X122691414Y-101254403D01*
X122933224Y-100672059D01*
X122933775Y-100041507D01*
X122892879Y-99942533D01*
X124390756Y-98444656D01*
X124564196Y-98185085D01*
X124625100Y-97878900D01*
X124625100Y-95548458D01*
X124839698Y-95405068D01*
X125095000Y-95022982D01*
X125350302Y-95405068D01*
X125564900Y-95548458D01*
X125564900Y-98386900D01*
X125625804Y-98693085D01*
X125799244Y-98952656D01*
X126725341Y-99878753D01*
X126685276Y-99975241D01*
X126684725Y-100605793D01*
X126925519Y-101188557D01*
X127023029Y-101286237D01*
X126818559Y-101417810D01*
X126673569Y-101630010D01*
X126622560Y-101881900D01*
X126622560Y-103781900D01*
X126666838Y-104017217D01*
X126805910Y-104233341D01*
X127018110Y-104378331D01*
X127270000Y-104429340D01*
X127469900Y-104429340D01*
X127469900Y-105203973D01*
X127345345Y-105255438D01*
X126885154Y-105714827D01*
X126635794Y-106315353D01*
X126635226Y-106965594D01*
X126883538Y-107566555D01*
X127342927Y-108026746D01*
X127943453Y-108276106D01*
X128593694Y-108276674D01*
X129194655Y-108028362D01*
X129654846Y-107568973D01*
X129904206Y-106968447D01*
X129904774Y-106318206D01*
X129656462Y-105717245D01*
X129197073Y-105257054D01*
X129070100Y-105204330D01*
X129070100Y-104429340D01*
X129270000Y-104429340D01*
X129505317Y-104385062D01*
X129721441Y-104245990D01*
X129866431Y-104033790D01*
X129917440Y-103781900D01*
X129917440Y-101881900D01*
X129873162Y-101646583D01*
X129734090Y-101430459D01*
X129521890Y-101285469D01*
X129518808Y-101284845D01*
X129612914Y-101190903D01*
X129854724Y-100608559D01*
X129855275Y-99978007D01*
X129614481Y-99395243D01*
X129169003Y-98948986D01*
X128586659Y-98707176D01*
X127956107Y-98706625D01*
X127857133Y-98747521D01*
X127165100Y-98055488D01*
X127165100Y-95548458D01*
X127379698Y-95405068D01*
X127635000Y-95022982D01*
X127890302Y-95405068D01*
X128355849Y-95716137D01*
X128905000Y-95825370D01*
X129187304Y-95769216D01*
X133428174Y-100010086D01*
X133416276Y-100038741D01*
X133415725Y-100669293D01*
X133656519Y-101252057D01*
X133754029Y-101349737D01*
X133549559Y-101481310D01*
X133404569Y-101693510D01*
X133353560Y-101945400D01*
X133353560Y-103845400D01*
X133397838Y-104080717D01*
X133536910Y-104296841D01*
X133749110Y-104441831D01*
X134001000Y-104492840D01*
X134200900Y-104492840D01*
X134200900Y-105230211D01*
X134139845Y-105255438D01*
X133679654Y-105714827D01*
X133430294Y-106315353D01*
X133429726Y-106965594D01*
X133678038Y-107566555D01*
X134137427Y-108026746D01*
X134737953Y-108276106D01*
X135388194Y-108276674D01*
X135989155Y-108028362D01*
X136449346Y-107568973D01*
X136698706Y-106968447D01*
X136699274Y-106318206D01*
X136450962Y-105717245D01*
X135991573Y-105257054D01*
X135801100Y-105177963D01*
X135801100Y-104492840D01*
X136001000Y-104492840D01*
X136236317Y-104448562D01*
X136452441Y-104309490D01*
X136597431Y-104097290D01*
X136648440Y-103845400D01*
X136648440Y-101945400D01*
X136604162Y-101710083D01*
X136465090Y-101493959D01*
X136252890Y-101348969D01*
X136249808Y-101348345D01*
X136343914Y-101254403D01*
X136585724Y-100672059D01*
X136586275Y-100041507D01*
X136345481Y-99458743D01*
X135947434Y-99060000D01*
X139432088Y-99060000D01*
X140314341Y-99942253D01*
X140274276Y-100038741D01*
X140273725Y-100669293D01*
X140514519Y-101252057D01*
X140612029Y-101349737D01*
X140407559Y-101481310D01*
X140262569Y-101693510D01*
X140211560Y-101945400D01*
X140211560Y-103845400D01*
X140255838Y-104080717D01*
X140394910Y-104296841D01*
X140607110Y-104441831D01*
X140859000Y-104492840D01*
X141058900Y-104492840D01*
X141058900Y-105203973D01*
X140934345Y-105255438D01*
X140474154Y-105714827D01*
X140224794Y-106315353D01*
X140224226Y-106965594D01*
X140472538Y-107566555D01*
X140931927Y-108026746D01*
X141532453Y-108276106D01*
X142182694Y-108276674D01*
X142783655Y-108028362D01*
X143243846Y-107568973D01*
X143493206Y-106968447D01*
X143493774Y-106318206D01*
X143245462Y-105717245D01*
X142786073Y-105257054D01*
X142659100Y-105204330D01*
X142659100Y-104492840D01*
X142859000Y-104492840D01*
X143094317Y-104448562D01*
X143310441Y-104309490D01*
X143455431Y-104097290D01*
X143506440Y-103845400D01*
X143506440Y-101945400D01*
X143462162Y-101710083D01*
X143323090Y-101493959D01*
X143110890Y-101348969D01*
X143107808Y-101348345D01*
X143201914Y-101254403D01*
X143443724Y-100672059D01*
X143444275Y-100041507D01*
X143203481Y-99458743D01*
X142758003Y-99012486D01*
X142175659Y-98770676D01*
X141545107Y-98770125D01*
X141446133Y-98811021D01*
X140425112Y-97790000D01*
X145274088Y-97790000D01*
X147489841Y-100005753D01*
X147449776Y-100102241D01*
X147449225Y-100732793D01*
X147690019Y-101315557D01*
X147787529Y-101413237D01*
X147583059Y-101544810D01*
X147438069Y-101757010D01*
X147387060Y-102008900D01*
X147387060Y-103908900D01*
X147431338Y-104144217D01*
X147570410Y-104360341D01*
X147782610Y-104505331D01*
X148034500Y-104556340D01*
X148234400Y-104556340D01*
X148234400Y-105203973D01*
X148109845Y-105255438D01*
X147649654Y-105714827D01*
X147400294Y-106315353D01*
X147399726Y-106965594D01*
X147648038Y-107566555D01*
X148107427Y-108026746D01*
X148707953Y-108276106D01*
X149358194Y-108276674D01*
X149959155Y-108028362D01*
X150419346Y-107568973D01*
X150668706Y-106968447D01*
X150669274Y-106318206D01*
X150420962Y-105717245D01*
X149961573Y-105257054D01*
X149834600Y-105204330D01*
X149834600Y-104556340D01*
X150034500Y-104556340D01*
X150269817Y-104512062D01*
X150485941Y-104372990D01*
X150630931Y-104160790D01*
X150641000Y-104111063D01*
X152951443Y-104111063D01*
X153050042Y-104377865D01*
X153659582Y-104604301D01*
X154309377Y-104580241D01*
X154797958Y-104377865D01*
X154896557Y-104111063D01*
X153924000Y-103138505D01*
X152951443Y-104111063D01*
X150641000Y-104111063D01*
X150681940Y-103908900D01*
X150681940Y-102694482D01*
X152278599Y-102694482D01*
X152302659Y-103344277D01*
X152505035Y-103832858D01*
X152771837Y-103931457D01*
X153744395Y-102958900D01*
X154103605Y-102958900D01*
X155076163Y-103931457D01*
X155342965Y-103832858D01*
X155569401Y-103223318D01*
X155545341Y-102573523D01*
X155342965Y-102084942D01*
X155076163Y-101986343D01*
X154103605Y-102958900D01*
X153744395Y-102958900D01*
X152771837Y-101986343D01*
X152505035Y-102084942D01*
X152278599Y-102694482D01*
X150681940Y-102694482D01*
X150681940Y-102008900D01*
X150643901Y-101806737D01*
X152951443Y-101806737D01*
X153924000Y-102779295D01*
X154896557Y-101806737D01*
X154797958Y-101539935D01*
X154188418Y-101313499D01*
X153538623Y-101337559D01*
X153050042Y-101539935D01*
X152951443Y-101806737D01*
X150643901Y-101806737D01*
X150637662Y-101773583D01*
X150498590Y-101557459D01*
X150286390Y-101412469D01*
X150283308Y-101411845D01*
X150377414Y-101317903D01*
X150619224Y-100735559D01*
X150619775Y-100105007D01*
X150378981Y-99522243D01*
X149933503Y-99075986D01*
X149351159Y-98834176D01*
X148720607Y-98833625D01*
X148621633Y-98874521D01*
X146171256Y-96424144D01*
X145911685Y-96250704D01*
X145797042Y-96227900D01*
X147205764Y-96227900D01*
X148452873Y-97475009D01*
X148741285Y-97667720D01*
X149081491Y-97735391D01*
X158225491Y-97735391D01*
X158437519Y-97693216D01*
X158582366Y-97790000D01*
X158267585Y-98000330D01*
X158153547Y-98171000D01*
X157988000Y-98171000D01*
X157647794Y-98238671D01*
X157359382Y-98431382D01*
X156851382Y-98939382D01*
X156658671Y-99227794D01*
X156591000Y-99568000D01*
X156591000Y-103606664D01*
X155333764Y-104863900D01*
X154178000Y-104863900D01*
X153837794Y-104931571D01*
X153549382Y-105124282D01*
X148958763Y-109714901D01*
X90817237Y-109714901D01*
X87852412Y-106750076D01*
X87867206Y-106714447D01*
X87867774Y-106064206D01*
X87619462Y-105463245D01*
X87160073Y-105003054D01*
X86559547Y-104753694D01*
X85909306Y-104753126D01*
X85871205Y-104768869D01*
X85862129Y-104759793D01*
X85736987Y-104676176D01*
X85670760Y-104631924D01*
X84315236Y-103276400D01*
X85267736Y-102323900D01*
X86201659Y-102323900D01*
X86388172Y-102603036D01*
X86841391Y-102905868D01*
X87376000Y-103012208D01*
X87910609Y-102905868D01*
X88363828Y-102603036D01*
X88666660Y-102149817D01*
X88773000Y-101615208D01*
X88773000Y-101254592D01*
X88666660Y-100719983D01*
X88363828Y-100266764D01*
X87910609Y-99963932D01*
X87376000Y-99857592D01*
X86841391Y-99963932D01*
X86388172Y-100266764D01*
X86201659Y-100545900D01*
X84899500Y-100545900D01*
X84559294Y-100613571D01*
X84270882Y-100806282D01*
X82499243Y-102577921D01*
X79755137Y-102577921D01*
X80087586Y-102440556D01*
X80505688Y-102023183D01*
X80732242Y-101477581D01*
X80732757Y-100886811D01*
X80507156Y-100340814D01*
X80089783Y-99922712D01*
X79755487Y-99783900D01*
X92312397Y-99783900D01*
X92417867Y-100314135D01*
X92718221Y-100763646D01*
X93152616Y-101053900D01*
X92718221Y-101344154D01*
X92417867Y-101793665D01*
X92312397Y-102323900D01*
X92417867Y-102854135D01*
X92718221Y-103303646D01*
X93152616Y-103593900D01*
X92718221Y-103884154D01*
X92417867Y-104333665D01*
X92312397Y-104863900D01*
X92417867Y-105394135D01*
X92718221Y-105843646D01*
X93167732Y-106144000D01*
X93697967Y-106249470D01*
X94770033Y-106249470D01*
X95300268Y-106144000D01*
X95749779Y-105843646D01*
X96050133Y-105394135D01*
X96155603Y-104863900D01*
X96050133Y-104333665D01*
X95749779Y-103884154D01*
X95315384Y-103593900D01*
X95749779Y-103303646D01*
X96050133Y-102854135D01*
X96155603Y-102323900D01*
X96050133Y-101793665D01*
X95749779Y-101344154D01*
X95315384Y-101053900D01*
X95749779Y-100763646D01*
X96050133Y-100314135D01*
X96155603Y-99783900D01*
X96050133Y-99253665D01*
X95749779Y-98804154D01*
X95300268Y-98503800D01*
X94770033Y-98398330D01*
X93697967Y-98398330D01*
X93167732Y-98503800D01*
X92718221Y-98804154D01*
X92417867Y-99253665D01*
X92312397Y-99783900D01*
X79755487Y-99783900D01*
X79544181Y-99696158D01*
X78953411Y-99695643D01*
X78407414Y-99921244D01*
X77989312Y-100338617D01*
X77762758Y-100884219D01*
X77762243Y-101474989D01*
X77987844Y-102020986D01*
X78405217Y-102439088D01*
X78739564Y-102577921D01*
X75891915Y-102577921D01*
X75851924Y-102537930D01*
X76087586Y-102440556D01*
X76505688Y-102023183D01*
X76732242Y-101477581D01*
X76732757Y-100886811D01*
X76507156Y-100340814D01*
X76089783Y-99922712D01*
X75544181Y-99696158D01*
X75386116Y-99696020D01*
X78098618Y-96983518D01*
X78105575Y-96973106D01*
X78291329Y-96695106D01*
X78352715Y-96386495D01*
X78405217Y-96439088D01*
X78950819Y-96665642D01*
X79541589Y-96666157D01*
X80087586Y-96440556D01*
X80505688Y-96023183D01*
X80732242Y-95477581D01*
X80732757Y-94886811D01*
X80507156Y-94340814D01*
X80089783Y-93922712D01*
X79544181Y-93696158D01*
X78953411Y-93695643D01*
X78407414Y-93921244D01*
X78359000Y-93969574D01*
X78359000Y-90881136D01*
X78376474Y-90863662D01*
X78518117Y-90769019D01*
X79407803Y-89879333D01*
X79749883Y-89879631D01*
X80240729Y-89676818D01*
X80616598Y-89301604D01*
X80820268Y-88811113D01*
X80820503Y-88540793D01*
X81980725Y-88540793D01*
X82221519Y-89123557D01*
X82666997Y-89569814D01*
X82677000Y-89573968D01*
X82677000Y-92481400D01*
X82744671Y-92821606D01*
X82869911Y-93009041D01*
X82937382Y-93110018D01*
X84270882Y-94443518D01*
X84559294Y-94636229D01*
X84899500Y-94703900D01*
X85966560Y-94703900D01*
X85966560Y-94726900D01*
X86010838Y-94962217D01*
X86149910Y-95178341D01*
X86362110Y-95323331D01*
X86614000Y-95374340D01*
X88138000Y-95374340D01*
X88373317Y-95330062D01*
X88589441Y-95190990D01*
X88734431Y-94978790D01*
X88785440Y-94726900D01*
X88785440Y-92902900D01*
X88741162Y-92667583D01*
X88602090Y-92451459D01*
X88389890Y-92306469D01*
X88138000Y-92255460D01*
X86614000Y-92255460D01*
X86378683Y-92299738D01*
X86162559Y-92438810D01*
X86017569Y-92651010D01*
X85966560Y-92902900D01*
X85966560Y-92925900D01*
X85267736Y-92925900D01*
X84455000Y-92113164D01*
X84455000Y-89574545D01*
X84462657Y-89571381D01*
X84560337Y-89473871D01*
X84691910Y-89678341D01*
X84904110Y-89823331D01*
X85156000Y-89874340D01*
X86494928Y-89874340D01*
X90746476Y-94125888D01*
X90694794Y-94250353D01*
X90694226Y-94900594D01*
X90942538Y-95501555D01*
X91401927Y-95961746D01*
X92002453Y-96211106D01*
X92652694Y-96211674D01*
X93253655Y-95963362D01*
X93488363Y-95729063D01*
X98976443Y-95729063D01*
X99075042Y-95995865D01*
X99684582Y-96222301D01*
X100334377Y-96198241D01*
X100822958Y-95995865D01*
X100921557Y-95729063D01*
X99949000Y-94756505D01*
X98976443Y-95729063D01*
X93488363Y-95729063D01*
X93713846Y-95503973D01*
X93963206Y-94903447D01*
X93963722Y-94312482D01*
X98303599Y-94312482D01*
X98327659Y-94962277D01*
X98530035Y-95450858D01*
X98796837Y-95549457D01*
X99769395Y-94576900D01*
X100128605Y-94576900D01*
X101101163Y-95549457D01*
X101367965Y-95450858D01*
X101594401Y-94841318D01*
X101570341Y-94191523D01*
X101367965Y-93702942D01*
X101101163Y-93604343D01*
X100128605Y-94576900D01*
X99769395Y-94576900D01*
X98796837Y-93604343D01*
X98530035Y-93702942D01*
X98303599Y-94312482D01*
X93963722Y-94312482D01*
X93963774Y-94253206D01*
X93715462Y-93652245D01*
X93488351Y-93424737D01*
X98976443Y-93424737D01*
X99949000Y-94397295D01*
X100921557Y-93424737D01*
X100822958Y-93157935D01*
X100213418Y-92931499D01*
X99563623Y-92955559D01*
X99075042Y-93157935D01*
X98976443Y-93424737D01*
X93488351Y-93424737D01*
X93256073Y-93192054D01*
X92655547Y-92942694D01*
X92005306Y-92942126D01*
X91878240Y-92994628D01*
X90759787Y-91876175D01*
X99066331Y-91876175D01*
X99128169Y-92111942D01*
X99629122Y-92288319D01*
X100159440Y-92259564D01*
X100515831Y-92111942D01*
X100577669Y-91876175D01*
X100450670Y-91749175D01*
X104146331Y-91749175D01*
X104208169Y-91984942D01*
X104709122Y-92161319D01*
X105239440Y-92132564D01*
X105595831Y-91984942D01*
X105657669Y-91749175D01*
X104902000Y-90993505D01*
X104146331Y-91749175D01*
X100450670Y-91749175D01*
X99822000Y-91120505D01*
X99066331Y-91876175D01*
X90759787Y-91876175D01*
X89017456Y-90133844D01*
X93136025Y-90133844D01*
X93335615Y-90615718D01*
X93773621Y-91088088D01*
X94359054Y-91356883D01*
X94615000Y-91238267D01*
X94615000Y-89877900D01*
X94869000Y-89877900D01*
X94869000Y-91238267D01*
X95124946Y-91356883D01*
X95710379Y-91088088D01*
X96025705Y-90748022D01*
X98474581Y-90748022D01*
X98503336Y-91278340D01*
X98650958Y-91634731D01*
X98886725Y-91696569D01*
X99642395Y-90940900D01*
X100001605Y-90940900D01*
X100757275Y-91696569D01*
X100993042Y-91634731D01*
X101169419Y-91133778D01*
X101141617Y-90621022D01*
X103554581Y-90621022D01*
X103583336Y-91151340D01*
X103730958Y-91507731D01*
X103966725Y-91569569D01*
X104722395Y-90813900D01*
X105081605Y-90813900D01*
X105837275Y-91569569D01*
X106073042Y-91507731D01*
X106249419Y-91006778D01*
X106220664Y-90476460D01*
X106073042Y-90120069D01*
X105837275Y-90058231D01*
X105081605Y-90813900D01*
X104722395Y-90813900D01*
X103966725Y-90058231D01*
X103730958Y-90120069D01*
X103554581Y-90621022D01*
X101141617Y-90621022D01*
X101140664Y-90603460D01*
X100993042Y-90247069D01*
X100757275Y-90185231D01*
X100001605Y-90940900D01*
X99642395Y-90940900D01*
X98886725Y-90185231D01*
X98650958Y-90247069D01*
X98474581Y-90748022D01*
X96025705Y-90748022D01*
X96148385Y-90615718D01*
X96347975Y-90133844D01*
X96288291Y-90005625D01*
X99066331Y-90005625D01*
X99822000Y-90761295D01*
X100577669Y-90005625D01*
X100544359Y-89878625D01*
X104146331Y-89878625D01*
X104902000Y-90634295D01*
X105657669Y-89878625D01*
X105595831Y-89642858D01*
X105094878Y-89466481D01*
X104564560Y-89495236D01*
X104208169Y-89642858D01*
X104146331Y-89878625D01*
X100544359Y-89878625D01*
X100515831Y-89769858D01*
X100014878Y-89593481D01*
X99484560Y-89622236D01*
X99128169Y-89769858D01*
X99066331Y-90005625D01*
X96288291Y-90005625D01*
X96228836Y-89877900D01*
X94869000Y-89877900D01*
X94615000Y-89877900D01*
X93255164Y-89877900D01*
X93136025Y-90133844D01*
X89017456Y-90133844D01*
X87703440Y-88819828D01*
X87703440Y-87226900D01*
X87659162Y-86991583D01*
X87520090Y-86775459D01*
X87307890Y-86630469D01*
X87056000Y-86579460D01*
X85156000Y-86579460D01*
X84920683Y-86623738D01*
X84704559Y-86762810D01*
X84559569Y-86975010D01*
X84558945Y-86978092D01*
X84465003Y-86883986D01*
X83882659Y-86642176D01*
X83252107Y-86641625D01*
X82669343Y-86882419D01*
X82223086Y-87327897D01*
X81981276Y-87910241D01*
X81980725Y-88540793D01*
X80820503Y-88540793D01*
X80820731Y-88280017D01*
X80617918Y-87789171D01*
X80242704Y-87413302D01*
X79752213Y-87209632D01*
X79221117Y-87209169D01*
X78730271Y-87411982D01*
X78354402Y-87787196D01*
X78150732Y-88277687D01*
X78150432Y-88622232D01*
X77355524Y-89417140D01*
X77261871Y-89479717D01*
X77213881Y-89511783D01*
X76841382Y-89884282D01*
X76648671Y-90172694D01*
X76581000Y-90512900D01*
X76581000Y-94519530D01*
X76507156Y-94340814D01*
X76136500Y-93969511D01*
X76136500Y-89306400D01*
X76068829Y-88966194D01*
X75876118Y-88677782D01*
X75832940Y-88634604D01*
X75832940Y-87844400D01*
X75788662Y-87609083D01*
X75649590Y-87392959D01*
X75437390Y-87247969D01*
X75374500Y-87235233D01*
X75374500Y-85229636D01*
X75806236Y-84797900D01*
X98656149Y-84797900D01*
X98525569Y-84989010D01*
M02*
