G04 #@! TF.FileFunction,Other,Fab,Top*
%FSLAX46Y46*%
G04 Gerber Fmt 4.6, Leading zero omitted, Abs format (unit mm)*
G04 Created by KiCad (PCBNEW 4.0.1-3.201512221402+6198~38~ubuntu14.04.1-stable) date Mon 29 Aug 2016 05:19:24 PM PDT*
%MOMM*%
G01*
G04 APERTURE LIST*
%ADD10C,0.100000*%
%ADD11C,0.050000*%
%ADD12C,0.400000*%
%ADD13C,0.300000*%
%ADD14C,0.150000*%
G04 APERTURE END LIST*
D10*
D11*
X70586249Y-102226060D02*
G75*
G02X70588000Y-99122900I-2798249J1553160D01*
G01*
X70588000Y-102222900D02*
X70588000Y-99122900D01*
X79476249Y-102226060D02*
G75*
G02X79478000Y-99122900I-2798249J1553160D01*
G01*
X79478000Y-102222900D02*
X79478000Y-99122900D01*
X89636249Y-102226060D02*
G75*
G02X89638000Y-99122900I-2798249J1553160D01*
G01*
X89638000Y-102222900D02*
X89638000Y-99122900D01*
X97616068Y-104076149D02*
G75*
G02X100719228Y-104077900I1553160J2798249D01*
G01*
X97619228Y-104077900D02*
X100719228Y-104077900D01*
X104601068Y-104076149D02*
G75*
G02X107704228Y-104077900I1553160J2798249D01*
G01*
X104604228Y-104077900D02*
X107704228Y-104077900D01*
X111586068Y-104076149D02*
G75*
G02X114689228Y-104077900I1553160J2798249D01*
G01*
X111589228Y-104077900D02*
X114689228Y-104077900D01*
X118571068Y-104076149D02*
G75*
G02X121674228Y-104077900I1553160J2798249D01*
G01*
X118574228Y-104077900D02*
X121674228Y-104077900D01*
X125556068Y-103441149D02*
G75*
G02X128659228Y-103442900I1553160J2798249D01*
G01*
X125559228Y-103442900D02*
X128659228Y-103442900D01*
X139526068Y-103441149D02*
G75*
G02X142629228Y-103442900I1553160J2798249D01*
G01*
X139529228Y-103442900D02*
X142629228Y-103442900D01*
X146511068Y-103441149D02*
G75*
G02X149614228Y-103442900I1553160J2798249D01*
G01*
X146514228Y-103442900D02*
X149614228Y-103442900D01*
D12*
X124692210Y-93052900D02*
G75*
G03X124692210Y-93052900I-359210J0D01*
G01*
D11*
X121883000Y-84052900D02*
X144583000Y-84052900D01*
X144583000Y-94452900D02*
X144583000Y-84052900D01*
X121883000Y-94452900D02*
X144583000Y-94452900D01*
X121883000Y-94452900D02*
X121883000Y-84052900D01*
X109188000Y-87647900D02*
X109188000Y-85647900D01*
X109188000Y-89647900D02*
X110438000Y-89647900D01*
X109188000Y-90147900D02*
X109188000Y-89647900D01*
X109188000Y-92897900D02*
X110438000Y-92897900D01*
X109188000Y-92897900D02*
X109188000Y-91897900D01*
X109188000Y-96647900D02*
X109188000Y-94397900D01*
X110188000Y-96647900D02*
X110438000Y-96647900D01*
X110438000Y-96647900D02*
X110438000Y-85647900D01*
X105188000Y-85647900D02*
X110438000Y-85647900D01*
X105188000Y-96647900D02*
X105188000Y-85647900D01*
X105438000Y-96647900D02*
X105188000Y-96647900D01*
X110188000Y-96647900D02*
X105438000Y-96647900D01*
X154258000Y-115007900D02*
X160258000Y-115007900D01*
X154258000Y-107007900D02*
X154258000Y-115007900D01*
X160258000Y-107007900D02*
X154258000Y-107007900D01*
X160258000Y-115007900D02*
X160258000Y-107007900D01*
X89773000Y-106372900D02*
X83773000Y-106372900D01*
X89773000Y-114372900D02*
X89773000Y-106372900D01*
X83773000Y-114372900D02*
X89773000Y-114372900D01*
X83773000Y-106372900D02*
X83773000Y-114372900D01*
X80248000Y-106372900D02*
X74248000Y-106372900D01*
X80248000Y-114372900D02*
X80248000Y-106372900D01*
X74248000Y-114372900D02*
X80248000Y-114372900D01*
X74248000Y-106372900D02*
X74248000Y-114372900D01*
X70913000Y-106372900D02*
X64913000Y-106372900D01*
X70913000Y-114372900D02*
X70913000Y-106372900D01*
X64913000Y-114372900D02*
X70913000Y-114372900D01*
X64913000Y-106372900D02*
X64913000Y-114372900D01*
D13*
X159617210Y-91782900D02*
G75*
G03X159617210Y-91782900I-359210J0D01*
G01*
D11*
X157508000Y-90032900D02*
X157508000Y-106232900D01*
X157498000Y-90042900D02*
X160998000Y-90042900D01*
X160988000Y-90022900D02*
X160988000Y-106222900D01*
X157488000Y-106212900D02*
X160988000Y-106212900D01*
X100048000Y-85307900D02*
X100040440Y-91907900D01*
X100048000Y-85307900D02*
X93998000Y-85307900D01*
X100048000Y-91907900D02*
X93998000Y-91907900D01*
X93998000Y-85307900D02*
X93998000Y-91907900D01*
D13*
X61827210Y-93052900D02*
G75*
G03X61827210Y-93052900I-359210J0D01*
G01*
D11*
X59718000Y-91302900D02*
X59718000Y-107502900D01*
X59708000Y-91312900D02*
X63208000Y-91312900D01*
X63198000Y-91292900D02*
X63198000Y-107492900D01*
X59698000Y-107482900D02*
X63198000Y-107482900D01*
X121118000Y-85917900D02*
X121118000Y-93917900D01*
X116118000Y-85917900D02*
X121118000Y-85917900D01*
X116118000Y-93917900D02*
X116118000Y-85917900D01*
X121118000Y-93917900D02*
X116118000Y-93917900D01*
X111038000Y-93917900D02*
X111038000Y-85917900D01*
X116038000Y-93917900D02*
X111038000Y-93917900D01*
X116038000Y-85917900D02*
X116038000Y-93917900D01*
X111038000Y-85917900D02*
X116038000Y-85917900D01*
X132541068Y-103441149D02*
G75*
G02X135644228Y-103442900I1553160J2798249D01*
G01*
X132544228Y-103442900D02*
X135644228Y-103442900D01*
X100988000Y-97457900D02*
X92988000Y-97457900D01*
X100988000Y-92457900D02*
X100988000Y-97457900D01*
X92988000Y-92457900D02*
X100988000Y-92457900D01*
X92988000Y-97457900D02*
X92988000Y-92457900D01*
D14*
X66718953Y-101125281D02*
X66242762Y-101125281D01*
X66242762Y-100125281D01*
X67052286Y-100601471D02*
X67385620Y-100601471D01*
X67528477Y-101125281D02*
X67052286Y-101125281D01*
X67052286Y-100125281D01*
X67528477Y-100125281D01*
X67957048Y-101125281D02*
X67957048Y-100125281D01*
X68195143Y-100125281D01*
X68338001Y-100172900D01*
X68433239Y-100268138D01*
X68480858Y-100363376D01*
X68528477Y-100553852D01*
X68528477Y-100696710D01*
X68480858Y-100887186D01*
X68433239Y-100982424D01*
X68338001Y-101077662D01*
X68195143Y-101125281D01*
X67957048Y-101125281D01*
X69099905Y-100553852D02*
X69004667Y-100506233D01*
X68957048Y-100458614D01*
X68909429Y-100363376D01*
X68909429Y-100315757D01*
X68957048Y-100220519D01*
X69004667Y-100172900D01*
X69099905Y-100125281D01*
X69290382Y-100125281D01*
X69385620Y-100172900D01*
X69433239Y-100220519D01*
X69480858Y-100315757D01*
X69480858Y-100363376D01*
X69433239Y-100458614D01*
X69385620Y-100506233D01*
X69290382Y-100553852D01*
X69099905Y-100553852D01*
X69004667Y-100601471D01*
X68957048Y-100649090D01*
X68909429Y-100744329D01*
X68909429Y-100934805D01*
X68957048Y-101030043D01*
X69004667Y-101077662D01*
X69099905Y-101125281D01*
X69290382Y-101125281D01*
X69385620Y-101077662D01*
X69433239Y-101030043D01*
X69480858Y-100934805D01*
X69480858Y-100744329D01*
X69433239Y-100649090D01*
X69385620Y-100601471D01*
X69290382Y-100553852D01*
X75608953Y-101125281D02*
X75132762Y-101125281D01*
X75132762Y-100125281D01*
X75942286Y-100601471D02*
X76275620Y-100601471D01*
X76418477Y-101125281D02*
X75942286Y-101125281D01*
X75942286Y-100125281D01*
X76418477Y-100125281D01*
X76847048Y-101125281D02*
X76847048Y-100125281D01*
X77085143Y-100125281D01*
X77228001Y-100172900D01*
X77323239Y-100268138D01*
X77370858Y-100363376D01*
X77418477Y-100553852D01*
X77418477Y-100696710D01*
X77370858Y-100887186D01*
X77323239Y-100982424D01*
X77228001Y-101077662D01*
X77085143Y-101125281D01*
X76847048Y-101125281D01*
X77894667Y-101125281D02*
X78085143Y-101125281D01*
X78180382Y-101077662D01*
X78228001Y-101030043D01*
X78323239Y-100887186D01*
X78370858Y-100696710D01*
X78370858Y-100315757D01*
X78323239Y-100220519D01*
X78275620Y-100172900D01*
X78180382Y-100125281D01*
X77989905Y-100125281D01*
X77894667Y-100172900D01*
X77847048Y-100220519D01*
X77799429Y-100315757D01*
X77799429Y-100553852D01*
X77847048Y-100649090D01*
X77894667Y-100696710D01*
X77989905Y-100744329D01*
X78180382Y-100744329D01*
X78275620Y-100696710D01*
X78323239Y-100649090D01*
X78370858Y-100553852D01*
X85292762Y-101125281D02*
X84816571Y-101125281D01*
X84816571Y-100125281D01*
X85626095Y-100601471D02*
X85959429Y-100601471D01*
X86102286Y-101125281D02*
X85626095Y-101125281D01*
X85626095Y-100125281D01*
X86102286Y-100125281D01*
X86530857Y-101125281D02*
X86530857Y-100125281D01*
X86768952Y-100125281D01*
X86911810Y-100172900D01*
X87007048Y-100268138D01*
X87054667Y-100363376D01*
X87102286Y-100553852D01*
X87102286Y-100696710D01*
X87054667Y-100887186D01*
X87007048Y-100982424D01*
X86911810Y-101077662D01*
X86768952Y-101125281D01*
X86530857Y-101125281D01*
X88054667Y-101125281D02*
X87483238Y-101125281D01*
X87768952Y-101125281D02*
X87768952Y-100125281D01*
X87673714Y-100268138D01*
X87578476Y-100363376D01*
X87483238Y-100410995D01*
X88673714Y-100125281D02*
X88768953Y-100125281D01*
X88864191Y-100172900D01*
X88911810Y-100220519D01*
X88959429Y-100315757D01*
X89007048Y-100506233D01*
X89007048Y-100744329D01*
X88959429Y-100934805D01*
X88911810Y-101030043D01*
X88864191Y-101077662D01*
X88768953Y-101125281D01*
X88673714Y-101125281D01*
X88578476Y-101077662D01*
X88530857Y-101030043D01*
X88483238Y-100934805D01*
X88435619Y-100744329D01*
X88435619Y-100506233D01*
X88483238Y-100315757D01*
X88530857Y-100220519D01*
X88578476Y-100172900D01*
X88673714Y-100125281D01*
X99621609Y-102446947D02*
X99621609Y-102923138D01*
X98621609Y-102923138D01*
X99097799Y-102113614D02*
X99097799Y-101780280D01*
X99621609Y-101637423D02*
X99621609Y-102113614D01*
X98621609Y-102113614D01*
X98621609Y-101637423D01*
X99621609Y-101208852D02*
X98621609Y-101208852D01*
X98621609Y-100970757D01*
X98669228Y-100827899D01*
X98764466Y-100732661D01*
X98859704Y-100685042D01*
X99050180Y-100637423D01*
X99193038Y-100637423D01*
X99383514Y-100685042D01*
X99478752Y-100732661D01*
X99573990Y-100827899D01*
X99621609Y-100970757D01*
X99621609Y-101208852D01*
X98621609Y-100018376D02*
X98621609Y-99923137D01*
X98669228Y-99827899D01*
X98716847Y-99780280D01*
X98812085Y-99732661D01*
X99002561Y-99685042D01*
X99240657Y-99685042D01*
X99431133Y-99732661D01*
X99526371Y-99780280D01*
X99573990Y-99827899D01*
X99621609Y-99923137D01*
X99621609Y-100018376D01*
X99573990Y-100113614D01*
X99526371Y-100161233D01*
X99431133Y-100208852D01*
X99240657Y-100256471D01*
X99002561Y-100256471D01*
X98812085Y-100208852D01*
X98716847Y-100161233D01*
X98669228Y-100113614D01*
X98621609Y-100018376D01*
X106606609Y-102446947D02*
X106606609Y-102923138D01*
X105606609Y-102923138D01*
X106082799Y-102113614D02*
X106082799Y-101780280D01*
X106606609Y-101637423D02*
X106606609Y-102113614D01*
X105606609Y-102113614D01*
X105606609Y-101637423D01*
X106606609Y-101208852D02*
X105606609Y-101208852D01*
X105606609Y-100970757D01*
X105654228Y-100827899D01*
X105749466Y-100732661D01*
X105844704Y-100685042D01*
X106035180Y-100637423D01*
X106178038Y-100637423D01*
X106368514Y-100685042D01*
X106463752Y-100732661D01*
X106558990Y-100827899D01*
X106606609Y-100970757D01*
X106606609Y-101208852D01*
X106606609Y-99685042D02*
X106606609Y-100256471D01*
X106606609Y-99970757D02*
X105606609Y-99970757D01*
X105749466Y-100065995D01*
X105844704Y-100161233D01*
X105892323Y-100256471D01*
X113591609Y-102446947D02*
X113591609Y-102923138D01*
X112591609Y-102923138D01*
X113067799Y-102113614D02*
X113067799Y-101780280D01*
X113591609Y-101637423D02*
X113591609Y-102113614D01*
X112591609Y-102113614D01*
X112591609Y-101637423D01*
X113591609Y-101208852D02*
X112591609Y-101208852D01*
X112591609Y-100970757D01*
X112639228Y-100827899D01*
X112734466Y-100732661D01*
X112829704Y-100685042D01*
X113020180Y-100637423D01*
X113163038Y-100637423D01*
X113353514Y-100685042D01*
X113448752Y-100732661D01*
X113543990Y-100827899D01*
X113591609Y-100970757D01*
X113591609Y-101208852D01*
X112686847Y-100256471D02*
X112639228Y-100208852D01*
X112591609Y-100113614D01*
X112591609Y-99875518D01*
X112639228Y-99780280D01*
X112686847Y-99732661D01*
X112782085Y-99685042D01*
X112877323Y-99685042D01*
X113020180Y-99732661D01*
X113591609Y-100304090D01*
X113591609Y-99685042D01*
X120576609Y-102446947D02*
X120576609Y-102923138D01*
X119576609Y-102923138D01*
X120052799Y-102113614D02*
X120052799Y-101780280D01*
X120576609Y-101637423D02*
X120576609Y-102113614D01*
X119576609Y-102113614D01*
X119576609Y-101637423D01*
X120576609Y-101208852D02*
X119576609Y-101208852D01*
X119576609Y-100970757D01*
X119624228Y-100827899D01*
X119719466Y-100732661D01*
X119814704Y-100685042D01*
X120005180Y-100637423D01*
X120148038Y-100637423D01*
X120338514Y-100685042D01*
X120433752Y-100732661D01*
X120528990Y-100827899D01*
X120576609Y-100970757D01*
X120576609Y-101208852D01*
X119576609Y-100304090D02*
X119576609Y-99685042D01*
X119957561Y-100018376D01*
X119957561Y-99875518D01*
X120005180Y-99780280D01*
X120052799Y-99732661D01*
X120148038Y-99685042D01*
X120386133Y-99685042D01*
X120481371Y-99732661D01*
X120528990Y-99780280D01*
X120576609Y-99875518D01*
X120576609Y-100161233D01*
X120528990Y-100256471D01*
X120481371Y-100304090D01*
X127561609Y-101811947D02*
X127561609Y-102288138D01*
X126561609Y-102288138D01*
X127037799Y-101478614D02*
X127037799Y-101145280D01*
X127561609Y-101002423D02*
X127561609Y-101478614D01*
X126561609Y-101478614D01*
X126561609Y-101002423D01*
X127561609Y-100573852D02*
X126561609Y-100573852D01*
X126561609Y-100335757D01*
X126609228Y-100192899D01*
X126704466Y-100097661D01*
X126799704Y-100050042D01*
X126990180Y-100002423D01*
X127133038Y-100002423D01*
X127323514Y-100050042D01*
X127418752Y-100097661D01*
X127513990Y-100192899D01*
X127561609Y-100335757D01*
X127561609Y-100573852D01*
X126894942Y-99145280D02*
X127561609Y-99145280D01*
X126513990Y-99383376D02*
X127228276Y-99621471D01*
X127228276Y-99002423D01*
X141531609Y-101811947D02*
X141531609Y-102288138D01*
X140531609Y-102288138D01*
X141007799Y-101478614D02*
X141007799Y-101145280D01*
X141531609Y-101002423D02*
X141531609Y-101478614D01*
X140531609Y-101478614D01*
X140531609Y-101002423D01*
X141531609Y-100573852D02*
X140531609Y-100573852D01*
X140531609Y-100335757D01*
X140579228Y-100192899D01*
X140674466Y-100097661D01*
X140769704Y-100050042D01*
X140960180Y-100002423D01*
X141103038Y-100002423D01*
X141293514Y-100050042D01*
X141388752Y-100097661D01*
X141483990Y-100192899D01*
X141531609Y-100335757D01*
X141531609Y-100573852D01*
X140531609Y-99145280D02*
X140531609Y-99335757D01*
X140579228Y-99430995D01*
X140626847Y-99478614D01*
X140769704Y-99573852D01*
X140960180Y-99621471D01*
X141341133Y-99621471D01*
X141436371Y-99573852D01*
X141483990Y-99526233D01*
X141531609Y-99430995D01*
X141531609Y-99240518D01*
X141483990Y-99145280D01*
X141436371Y-99097661D01*
X141341133Y-99050042D01*
X141103038Y-99050042D01*
X141007799Y-99097661D01*
X140960180Y-99145280D01*
X140912561Y-99240518D01*
X140912561Y-99430995D01*
X140960180Y-99526233D01*
X141007799Y-99573852D01*
X141103038Y-99621471D01*
X148516609Y-101811947D02*
X148516609Y-102288138D01*
X147516609Y-102288138D01*
X147992799Y-101478614D02*
X147992799Y-101145280D01*
X148516609Y-101002423D02*
X148516609Y-101478614D01*
X147516609Y-101478614D01*
X147516609Y-101002423D01*
X148516609Y-100573852D02*
X147516609Y-100573852D01*
X147516609Y-100335757D01*
X147564228Y-100192899D01*
X147659466Y-100097661D01*
X147754704Y-100050042D01*
X147945180Y-100002423D01*
X148088038Y-100002423D01*
X148278514Y-100050042D01*
X148373752Y-100097661D01*
X148468990Y-100192899D01*
X148516609Y-100335757D01*
X148516609Y-100573852D01*
X147516609Y-99669090D02*
X147516609Y-99002423D01*
X148516609Y-99430995D01*
X131913381Y-89750805D02*
X132722905Y-89750805D01*
X132818143Y-89703186D01*
X132865762Y-89655567D01*
X132913381Y-89560329D01*
X132913381Y-89369852D01*
X132865762Y-89274614D01*
X132818143Y-89226995D01*
X132722905Y-89179376D01*
X131913381Y-89179376D01*
X132008619Y-88750805D02*
X131961000Y-88703186D01*
X131913381Y-88607948D01*
X131913381Y-88369852D01*
X131961000Y-88274614D01*
X132008619Y-88226995D01*
X132103857Y-88179376D01*
X132199095Y-88179376D01*
X132341952Y-88226995D01*
X132913381Y-88798424D01*
X132913381Y-88179376D01*
X106640381Y-91909805D02*
X107449905Y-91909805D01*
X107545143Y-91862186D01*
X107592762Y-91814567D01*
X107640381Y-91719329D01*
X107640381Y-91528852D01*
X107592762Y-91433614D01*
X107545143Y-91385995D01*
X107449905Y-91338376D01*
X106640381Y-91338376D01*
X107640381Y-90338376D02*
X107640381Y-90909805D01*
X107640381Y-90624091D02*
X106640381Y-90624091D01*
X106783238Y-90719329D01*
X106878476Y-90814567D01*
X106926095Y-90909805D01*
X157662762Y-112341233D02*
X157710381Y-112198376D01*
X157710381Y-111960280D01*
X157662762Y-111865042D01*
X157615143Y-111817423D01*
X157519905Y-111769804D01*
X157424667Y-111769804D01*
X157329429Y-111817423D01*
X157281810Y-111865042D01*
X157234190Y-111960280D01*
X157186571Y-112150757D01*
X157138952Y-112245995D01*
X157091333Y-112293614D01*
X156996095Y-112341233D01*
X156900857Y-112341233D01*
X156805619Y-112293614D01*
X156758000Y-112245995D01*
X156710381Y-112150757D01*
X156710381Y-111912661D01*
X156758000Y-111769804D01*
X156710381Y-111436471D02*
X157710381Y-111198376D01*
X156996095Y-111007899D01*
X157710381Y-110817423D01*
X156710381Y-110579328D01*
X157043714Y-109769804D02*
X157710381Y-109769804D01*
X156662762Y-110007900D02*
X157377048Y-110245995D01*
X157377048Y-109626947D01*
X87177762Y-111706233D02*
X87225381Y-111563376D01*
X87225381Y-111325280D01*
X87177762Y-111230042D01*
X87130143Y-111182423D01*
X87034905Y-111134804D01*
X86939667Y-111134804D01*
X86844429Y-111182423D01*
X86796810Y-111230042D01*
X86749190Y-111325280D01*
X86701571Y-111515757D01*
X86653952Y-111610995D01*
X86606333Y-111658614D01*
X86511095Y-111706233D01*
X86415857Y-111706233D01*
X86320619Y-111658614D01*
X86273000Y-111610995D01*
X86225381Y-111515757D01*
X86225381Y-111277661D01*
X86273000Y-111134804D01*
X86225381Y-110801471D02*
X87225381Y-110563376D01*
X86511095Y-110372899D01*
X87225381Y-110182423D01*
X86225381Y-109944328D01*
X86225381Y-109658614D02*
X86225381Y-109039566D01*
X86606333Y-109372900D01*
X86606333Y-109230042D01*
X86653952Y-109134804D01*
X86701571Y-109087185D01*
X86796810Y-109039566D01*
X87034905Y-109039566D01*
X87130143Y-109087185D01*
X87177762Y-109134804D01*
X87225381Y-109230042D01*
X87225381Y-109515757D01*
X87177762Y-109610995D01*
X87130143Y-109658614D01*
X77652762Y-111706233D02*
X77700381Y-111563376D01*
X77700381Y-111325280D01*
X77652762Y-111230042D01*
X77605143Y-111182423D01*
X77509905Y-111134804D01*
X77414667Y-111134804D01*
X77319429Y-111182423D01*
X77271810Y-111230042D01*
X77224190Y-111325280D01*
X77176571Y-111515757D01*
X77128952Y-111610995D01*
X77081333Y-111658614D01*
X76986095Y-111706233D01*
X76890857Y-111706233D01*
X76795619Y-111658614D01*
X76748000Y-111610995D01*
X76700381Y-111515757D01*
X76700381Y-111277661D01*
X76748000Y-111134804D01*
X76700381Y-110801471D02*
X77700381Y-110563376D01*
X76986095Y-110372899D01*
X77700381Y-110182423D01*
X76700381Y-109944328D01*
X76795619Y-109610995D02*
X76748000Y-109563376D01*
X76700381Y-109468138D01*
X76700381Y-109230042D01*
X76748000Y-109134804D01*
X76795619Y-109087185D01*
X76890857Y-109039566D01*
X76986095Y-109039566D01*
X77128952Y-109087185D01*
X77700381Y-109658614D01*
X77700381Y-109039566D01*
X68317762Y-111706233D02*
X68365381Y-111563376D01*
X68365381Y-111325280D01*
X68317762Y-111230042D01*
X68270143Y-111182423D01*
X68174905Y-111134804D01*
X68079667Y-111134804D01*
X67984429Y-111182423D01*
X67936810Y-111230042D01*
X67889190Y-111325280D01*
X67841571Y-111515757D01*
X67793952Y-111610995D01*
X67746333Y-111658614D01*
X67651095Y-111706233D01*
X67555857Y-111706233D01*
X67460619Y-111658614D01*
X67413000Y-111610995D01*
X67365381Y-111515757D01*
X67365381Y-111277661D01*
X67413000Y-111134804D01*
X67365381Y-110801471D02*
X68365381Y-110563376D01*
X67651095Y-110372899D01*
X68365381Y-110182423D01*
X67365381Y-109944328D01*
X68365381Y-109039566D02*
X68365381Y-109610995D01*
X68365381Y-109325281D02*
X67365381Y-109325281D01*
X67508238Y-109420519D01*
X67603476Y-109515757D01*
X67651095Y-109610995D01*
X152090381Y-99617185D02*
X152090381Y-100188614D01*
X152090381Y-99902900D02*
X151090381Y-99902900D01*
X151233238Y-99998138D01*
X151328476Y-100093376D01*
X151376095Y-100188614D01*
X152090381Y-99188614D02*
X151090381Y-99188614D01*
X152090381Y-98617185D02*
X151518952Y-99045757D01*
X151090381Y-98617185D02*
X151661810Y-99188614D01*
X152058715Y-83345281D02*
X151487286Y-83345281D01*
X151773000Y-83345281D02*
X151773000Y-82345281D01*
X151677762Y-82488138D01*
X151582524Y-82583376D01*
X151487286Y-82630995D01*
X152487286Y-83345281D02*
X152487286Y-82345281D01*
X153058715Y-83345281D02*
X152630143Y-82773852D01*
X153058715Y-82345281D02*
X152487286Y-82916710D01*
X91130381Y-90092185D02*
X91130381Y-90663614D01*
X91130381Y-90377900D02*
X90130381Y-90377900D01*
X90273238Y-90473138D01*
X90368476Y-90568376D01*
X90416095Y-90663614D01*
X91130381Y-89663614D02*
X90130381Y-89663614D01*
X91130381Y-89092185D02*
X90558952Y-89520757D01*
X90130381Y-89092185D02*
X90701810Y-89663614D01*
X81605381Y-90092185D02*
X81605381Y-90663614D01*
X81605381Y-90377900D02*
X80605381Y-90377900D01*
X80748238Y-90473138D01*
X80843476Y-90568376D01*
X80891095Y-90663614D01*
X81605381Y-89663614D02*
X80605381Y-89663614D01*
X81605381Y-89092185D02*
X81033952Y-89520757D01*
X80605381Y-89092185D02*
X81176810Y-89663614D01*
X72715381Y-90092185D02*
X72715381Y-90663614D01*
X72715381Y-90377900D02*
X71715381Y-90377900D01*
X71858238Y-90473138D01*
X71953476Y-90568376D01*
X72001095Y-90663614D01*
X72715381Y-89663614D02*
X71715381Y-89663614D01*
X72715381Y-89092185D02*
X72143952Y-89520757D01*
X71715381Y-89092185D02*
X72286810Y-89663614D01*
X152326609Y-111153602D02*
X152326609Y-111725031D01*
X152326609Y-111439317D02*
X151326609Y-111439317D01*
X151469466Y-111534555D01*
X151564704Y-111629793D01*
X151612323Y-111725031D01*
X151326609Y-110248840D02*
X151326609Y-110725031D01*
X151802799Y-110772650D01*
X151755180Y-110725031D01*
X151707561Y-110629793D01*
X151707561Y-110391697D01*
X151755180Y-110296459D01*
X151802799Y-110248840D01*
X151898038Y-110201221D01*
X152136133Y-110201221D01*
X152231371Y-110248840D01*
X152278990Y-110296459D01*
X152326609Y-110391697D01*
X152326609Y-110629793D01*
X152278990Y-110725031D01*
X152231371Y-110772650D01*
X151326609Y-109582174D02*
X151326609Y-109486935D01*
X151374228Y-109391697D01*
X151421847Y-109344078D01*
X151517085Y-109296459D01*
X151707561Y-109248840D01*
X151945657Y-109248840D01*
X152136133Y-109296459D01*
X152231371Y-109344078D01*
X152278990Y-109391697D01*
X152326609Y-109486935D01*
X152326609Y-109582174D01*
X152278990Y-109677412D01*
X152231371Y-109725031D01*
X152136133Y-109772650D01*
X151945657Y-109820269D01*
X151707561Y-109820269D01*
X151517085Y-109772650D01*
X151421847Y-109725031D01*
X151374228Y-109677412D01*
X151326609Y-109582174D01*
X145341609Y-111153602D02*
X145341609Y-111725031D01*
X145341609Y-111439317D02*
X144341609Y-111439317D01*
X144484466Y-111534555D01*
X144579704Y-111629793D01*
X144627323Y-111725031D01*
X144341609Y-110248840D02*
X144341609Y-110725031D01*
X144817799Y-110772650D01*
X144770180Y-110725031D01*
X144722561Y-110629793D01*
X144722561Y-110391697D01*
X144770180Y-110296459D01*
X144817799Y-110248840D01*
X144913038Y-110201221D01*
X145151133Y-110201221D01*
X145246371Y-110248840D01*
X145293990Y-110296459D01*
X145341609Y-110391697D01*
X145341609Y-110629793D01*
X145293990Y-110725031D01*
X145246371Y-110772650D01*
X144341609Y-109582174D02*
X144341609Y-109486935D01*
X144389228Y-109391697D01*
X144436847Y-109344078D01*
X144532085Y-109296459D01*
X144722561Y-109248840D01*
X144960657Y-109248840D01*
X145151133Y-109296459D01*
X145246371Y-109344078D01*
X145293990Y-109391697D01*
X145341609Y-109486935D01*
X145341609Y-109582174D01*
X145293990Y-109677412D01*
X145246371Y-109725031D01*
X145151133Y-109772650D01*
X144960657Y-109820269D01*
X144722561Y-109820269D01*
X144532085Y-109772650D01*
X144436847Y-109725031D01*
X144389228Y-109677412D01*
X144341609Y-109582174D01*
X138356609Y-111153602D02*
X138356609Y-111725031D01*
X138356609Y-111439317D02*
X137356609Y-111439317D01*
X137499466Y-111534555D01*
X137594704Y-111629793D01*
X137642323Y-111725031D01*
X137356609Y-110248840D02*
X137356609Y-110725031D01*
X137832799Y-110772650D01*
X137785180Y-110725031D01*
X137737561Y-110629793D01*
X137737561Y-110391697D01*
X137785180Y-110296459D01*
X137832799Y-110248840D01*
X137928038Y-110201221D01*
X138166133Y-110201221D01*
X138261371Y-110248840D01*
X138308990Y-110296459D01*
X138356609Y-110391697D01*
X138356609Y-110629793D01*
X138308990Y-110725031D01*
X138261371Y-110772650D01*
X137356609Y-109582174D02*
X137356609Y-109486935D01*
X137404228Y-109391697D01*
X137451847Y-109344078D01*
X137547085Y-109296459D01*
X137737561Y-109248840D01*
X137975657Y-109248840D01*
X138166133Y-109296459D01*
X138261371Y-109344078D01*
X138308990Y-109391697D01*
X138356609Y-109486935D01*
X138356609Y-109582174D01*
X138308990Y-109677412D01*
X138261371Y-109725031D01*
X138166133Y-109772650D01*
X137975657Y-109820269D01*
X137737561Y-109820269D01*
X137547085Y-109772650D01*
X137451847Y-109725031D01*
X137404228Y-109677412D01*
X137356609Y-109582174D01*
X131371609Y-111153602D02*
X131371609Y-111725031D01*
X131371609Y-111439317D02*
X130371609Y-111439317D01*
X130514466Y-111534555D01*
X130609704Y-111629793D01*
X130657323Y-111725031D01*
X130371609Y-110248840D02*
X130371609Y-110725031D01*
X130847799Y-110772650D01*
X130800180Y-110725031D01*
X130752561Y-110629793D01*
X130752561Y-110391697D01*
X130800180Y-110296459D01*
X130847799Y-110248840D01*
X130943038Y-110201221D01*
X131181133Y-110201221D01*
X131276371Y-110248840D01*
X131323990Y-110296459D01*
X131371609Y-110391697D01*
X131371609Y-110629793D01*
X131323990Y-110725031D01*
X131276371Y-110772650D01*
X130371609Y-109582174D02*
X130371609Y-109486935D01*
X130419228Y-109391697D01*
X130466847Y-109344078D01*
X130562085Y-109296459D01*
X130752561Y-109248840D01*
X130990657Y-109248840D01*
X131181133Y-109296459D01*
X131276371Y-109344078D01*
X131323990Y-109391697D01*
X131371609Y-109486935D01*
X131371609Y-109582174D01*
X131323990Y-109677412D01*
X131276371Y-109725031D01*
X131181133Y-109772650D01*
X130990657Y-109820269D01*
X130752561Y-109820269D01*
X130562085Y-109772650D01*
X130466847Y-109725031D01*
X130419228Y-109677412D01*
X130371609Y-109582174D01*
X124386609Y-111153602D02*
X124386609Y-111725031D01*
X124386609Y-111439317D02*
X123386609Y-111439317D01*
X123529466Y-111534555D01*
X123624704Y-111629793D01*
X123672323Y-111725031D01*
X123386609Y-110248840D02*
X123386609Y-110725031D01*
X123862799Y-110772650D01*
X123815180Y-110725031D01*
X123767561Y-110629793D01*
X123767561Y-110391697D01*
X123815180Y-110296459D01*
X123862799Y-110248840D01*
X123958038Y-110201221D01*
X124196133Y-110201221D01*
X124291371Y-110248840D01*
X124338990Y-110296459D01*
X124386609Y-110391697D01*
X124386609Y-110629793D01*
X124338990Y-110725031D01*
X124291371Y-110772650D01*
X123386609Y-109582174D02*
X123386609Y-109486935D01*
X123434228Y-109391697D01*
X123481847Y-109344078D01*
X123577085Y-109296459D01*
X123767561Y-109248840D01*
X124005657Y-109248840D01*
X124196133Y-109296459D01*
X124291371Y-109344078D01*
X124338990Y-109391697D01*
X124386609Y-109486935D01*
X124386609Y-109582174D01*
X124338990Y-109677412D01*
X124291371Y-109725031D01*
X124196133Y-109772650D01*
X124005657Y-109820269D01*
X123767561Y-109820269D01*
X123577085Y-109772650D01*
X123481847Y-109725031D01*
X123434228Y-109677412D01*
X123386609Y-109582174D01*
X117401609Y-111153602D02*
X117401609Y-111725031D01*
X117401609Y-111439317D02*
X116401609Y-111439317D01*
X116544466Y-111534555D01*
X116639704Y-111629793D01*
X116687323Y-111725031D01*
X116401609Y-110248840D02*
X116401609Y-110725031D01*
X116877799Y-110772650D01*
X116830180Y-110725031D01*
X116782561Y-110629793D01*
X116782561Y-110391697D01*
X116830180Y-110296459D01*
X116877799Y-110248840D01*
X116973038Y-110201221D01*
X117211133Y-110201221D01*
X117306371Y-110248840D01*
X117353990Y-110296459D01*
X117401609Y-110391697D01*
X117401609Y-110629793D01*
X117353990Y-110725031D01*
X117306371Y-110772650D01*
X116401609Y-109582174D02*
X116401609Y-109486935D01*
X116449228Y-109391697D01*
X116496847Y-109344078D01*
X116592085Y-109296459D01*
X116782561Y-109248840D01*
X117020657Y-109248840D01*
X117211133Y-109296459D01*
X117306371Y-109344078D01*
X117353990Y-109391697D01*
X117401609Y-109486935D01*
X117401609Y-109582174D01*
X117353990Y-109677412D01*
X117306371Y-109725031D01*
X117211133Y-109772650D01*
X117020657Y-109820269D01*
X116782561Y-109820269D01*
X116592085Y-109772650D01*
X116496847Y-109725031D01*
X116449228Y-109677412D01*
X116401609Y-109582174D01*
X110416609Y-111153602D02*
X110416609Y-111725031D01*
X110416609Y-111439317D02*
X109416609Y-111439317D01*
X109559466Y-111534555D01*
X109654704Y-111629793D01*
X109702323Y-111725031D01*
X109416609Y-110248840D02*
X109416609Y-110725031D01*
X109892799Y-110772650D01*
X109845180Y-110725031D01*
X109797561Y-110629793D01*
X109797561Y-110391697D01*
X109845180Y-110296459D01*
X109892799Y-110248840D01*
X109988038Y-110201221D01*
X110226133Y-110201221D01*
X110321371Y-110248840D01*
X110368990Y-110296459D01*
X110416609Y-110391697D01*
X110416609Y-110629793D01*
X110368990Y-110725031D01*
X110321371Y-110772650D01*
X109416609Y-109582174D02*
X109416609Y-109486935D01*
X109464228Y-109391697D01*
X109511847Y-109344078D01*
X109607085Y-109296459D01*
X109797561Y-109248840D01*
X110035657Y-109248840D01*
X110226133Y-109296459D01*
X110321371Y-109344078D01*
X110368990Y-109391697D01*
X110416609Y-109486935D01*
X110416609Y-109582174D01*
X110368990Y-109677412D01*
X110321371Y-109725031D01*
X110226133Y-109772650D01*
X110035657Y-109820269D01*
X109797561Y-109820269D01*
X109607085Y-109772650D01*
X109511847Y-109725031D01*
X109464228Y-109677412D01*
X109416609Y-109582174D01*
X103431609Y-111153602D02*
X103431609Y-111725031D01*
X103431609Y-111439317D02*
X102431609Y-111439317D01*
X102574466Y-111534555D01*
X102669704Y-111629793D01*
X102717323Y-111725031D01*
X102431609Y-110248840D02*
X102431609Y-110725031D01*
X102907799Y-110772650D01*
X102860180Y-110725031D01*
X102812561Y-110629793D01*
X102812561Y-110391697D01*
X102860180Y-110296459D01*
X102907799Y-110248840D01*
X103003038Y-110201221D01*
X103241133Y-110201221D01*
X103336371Y-110248840D01*
X103383990Y-110296459D01*
X103431609Y-110391697D01*
X103431609Y-110629793D01*
X103383990Y-110725031D01*
X103336371Y-110772650D01*
X102431609Y-109582174D02*
X102431609Y-109486935D01*
X102479228Y-109391697D01*
X102526847Y-109344078D01*
X102622085Y-109296459D01*
X102812561Y-109248840D01*
X103050657Y-109248840D01*
X103241133Y-109296459D01*
X103336371Y-109344078D01*
X103383990Y-109391697D01*
X103431609Y-109486935D01*
X103431609Y-109582174D01*
X103383990Y-109677412D01*
X103336371Y-109725031D01*
X103241133Y-109772650D01*
X103050657Y-109820269D01*
X102812561Y-109820269D01*
X102622085Y-109772650D01*
X102526847Y-109725031D01*
X102479228Y-109677412D01*
X102431609Y-109582174D01*
X158880381Y-100506233D02*
X159594667Y-100506233D01*
X159737524Y-100553853D01*
X159832762Y-100649091D01*
X159880381Y-100791948D01*
X159880381Y-100887186D01*
X158880381Y-100125281D02*
X158880381Y-99506233D01*
X159261333Y-99839567D01*
X159261333Y-99696709D01*
X159308952Y-99601471D01*
X159356571Y-99553852D01*
X159451810Y-99506233D01*
X159689905Y-99506233D01*
X159785143Y-99553852D01*
X159832762Y-99601471D01*
X159880381Y-99696709D01*
X159880381Y-99982424D01*
X159832762Y-100077662D01*
X159785143Y-100125281D01*
X96480381Y-88941233D02*
X97194667Y-88941233D01*
X97337524Y-88988853D01*
X97432762Y-89084091D01*
X97480381Y-89226948D01*
X97480381Y-89322186D01*
X96575619Y-88512662D02*
X96528000Y-88465043D01*
X96480381Y-88369805D01*
X96480381Y-88131709D01*
X96528000Y-88036471D01*
X96575619Y-87988852D01*
X96670857Y-87941233D01*
X96766095Y-87941233D01*
X96908952Y-87988852D01*
X97480381Y-88560281D01*
X97480381Y-87941233D01*
X61090381Y-101776233D02*
X61804667Y-101776233D01*
X61947524Y-101823853D01*
X62042762Y-101919091D01*
X62090381Y-102061948D01*
X62090381Y-102157186D01*
X62090381Y-100776233D02*
X62090381Y-101347662D01*
X62090381Y-101061948D02*
X61090381Y-101061948D01*
X61233238Y-101157186D01*
X61328476Y-101252424D01*
X61376095Y-101347662D01*
X118975143Y-90034566D02*
X119022762Y-90082185D01*
X119070381Y-90225042D01*
X119070381Y-90320280D01*
X119022762Y-90463138D01*
X118927524Y-90558376D01*
X118832286Y-90605995D01*
X118641810Y-90653614D01*
X118498952Y-90653614D01*
X118308476Y-90605995D01*
X118213238Y-90558376D01*
X118118000Y-90463138D01*
X118070381Y-90320280D01*
X118070381Y-90225042D01*
X118118000Y-90082185D01*
X118165619Y-90034566D01*
X118070381Y-89701233D02*
X118070381Y-89082185D01*
X118451333Y-89415519D01*
X118451333Y-89272661D01*
X118498952Y-89177423D01*
X118546571Y-89129804D01*
X118641810Y-89082185D01*
X118879905Y-89082185D01*
X118975143Y-89129804D01*
X119022762Y-89177423D01*
X119070381Y-89272661D01*
X119070381Y-89558376D01*
X119022762Y-89653614D01*
X118975143Y-89701233D01*
X113895143Y-90134566D02*
X113942762Y-90182185D01*
X113990381Y-90325042D01*
X113990381Y-90420280D01*
X113942762Y-90563138D01*
X113847524Y-90658376D01*
X113752286Y-90705995D01*
X113561810Y-90753614D01*
X113418952Y-90753614D01*
X113228476Y-90705995D01*
X113133238Y-90658376D01*
X113038000Y-90563138D01*
X112990381Y-90420280D01*
X112990381Y-90325042D01*
X113038000Y-90182185D01*
X113085619Y-90134566D01*
X113085619Y-89753614D02*
X113038000Y-89705995D01*
X112990381Y-89610757D01*
X112990381Y-89372661D01*
X113038000Y-89277423D01*
X113085619Y-89229804D01*
X113180857Y-89182185D01*
X113276095Y-89182185D01*
X113418952Y-89229804D01*
X113990381Y-89801233D01*
X113990381Y-89182185D01*
X134546609Y-101811947D02*
X134546609Y-102288138D01*
X133546609Y-102288138D01*
X134022799Y-101478614D02*
X134022799Y-101145280D01*
X134546609Y-101002423D02*
X134546609Y-101478614D01*
X133546609Y-101478614D01*
X133546609Y-101002423D01*
X134546609Y-100573852D02*
X133546609Y-100573852D01*
X133546609Y-100335757D01*
X133594228Y-100192899D01*
X133689466Y-100097661D01*
X133784704Y-100050042D01*
X133975180Y-100002423D01*
X134118038Y-100002423D01*
X134308514Y-100050042D01*
X134403752Y-100097661D01*
X134498990Y-100192899D01*
X134546609Y-100335757D01*
X134546609Y-100573852D01*
X133546609Y-99097661D02*
X133546609Y-99573852D01*
X134022799Y-99621471D01*
X133975180Y-99573852D01*
X133927561Y-99478614D01*
X133927561Y-99240518D01*
X133975180Y-99145280D01*
X134022799Y-99097661D01*
X134118038Y-99050042D01*
X134356133Y-99050042D01*
X134451371Y-99097661D01*
X134498990Y-99145280D01*
X134546609Y-99240518D01*
X134546609Y-99478614D01*
X134498990Y-99573852D01*
X134451371Y-99621471D01*
X96871334Y-95315043D02*
X96823715Y-95362662D01*
X96680858Y-95410281D01*
X96585620Y-95410281D01*
X96442762Y-95362662D01*
X96347524Y-95267424D01*
X96299905Y-95172186D01*
X96252286Y-94981710D01*
X96252286Y-94838852D01*
X96299905Y-94648376D01*
X96347524Y-94553138D01*
X96442762Y-94457900D01*
X96585620Y-94410281D01*
X96680858Y-94410281D01*
X96823715Y-94457900D01*
X96871334Y-94505519D01*
X97823715Y-95410281D02*
X97252286Y-95410281D01*
X97538000Y-95410281D02*
X97538000Y-94410281D01*
X97442762Y-94553138D01*
X97347524Y-94648376D01*
X97252286Y-94695995D01*
M02*
