G04 #@! TF.FileFunction,Other,User*
%FSLAX46Y46*%
G04 Gerber Fmt 4.6, Leading zero omitted, Abs format (unit mm)*
G04 Created by KiCad (PCBNEW 4.0.1-3.201512221402+6198~38~ubuntu14.04.1-stable) date Mon 29 Aug 2016 05:19:24 PM PDT*
%MOMM*%
G01*
G04 APERTURE LIST*
%ADD10C,0.100000*%
%ADD11C,0.050000*%
G04 APERTURE END LIST*
D10*
D11*
X70588000Y-102222900D02*
X70588000Y-99122900D01*
X70586249Y-102226060D02*
G75*
G02X70588000Y-99122900I-2798249J1553160D01*
G01*
X79478000Y-102222900D02*
X79478000Y-99122900D01*
X79476249Y-102226060D02*
G75*
G02X79478000Y-99122900I-2798249J1553160D01*
G01*
X89638000Y-102222900D02*
X89638000Y-99122900D01*
X89636249Y-102226060D02*
G75*
G02X89638000Y-99122900I-2798249J1553160D01*
G01*
X97619228Y-104077900D02*
X100719228Y-104077900D01*
X97616068Y-104076149D02*
G75*
G02X100719228Y-104077900I1553160J2798249D01*
G01*
X104604228Y-104077900D02*
X107704228Y-104077900D01*
X104601068Y-104076149D02*
G75*
G02X107704228Y-104077900I1553160J2798249D01*
G01*
X111589228Y-104077900D02*
X114689228Y-104077900D01*
X111586068Y-104076149D02*
G75*
G02X114689228Y-104077900I1553160J2798249D01*
G01*
X118574228Y-104077900D02*
X121674228Y-104077900D01*
X118571068Y-104076149D02*
G75*
G02X121674228Y-104077900I1553160J2798249D01*
G01*
X125559228Y-103442900D02*
X128659228Y-103442900D01*
X125556068Y-103441149D02*
G75*
G02X128659228Y-103442900I1553160J2798249D01*
G01*
X139529228Y-103442900D02*
X142629228Y-103442900D01*
X139526068Y-103441149D02*
G75*
G02X142629228Y-103442900I1553160J2798249D01*
G01*
X146514228Y-103442900D02*
X149614228Y-103442900D01*
X146511068Y-103441149D02*
G75*
G02X149614228Y-103442900I1553160J2798249D01*
G01*
X121883000Y-94452900D02*
X144583000Y-94452900D01*
X121883000Y-94452900D02*
X121883000Y-84052900D01*
X144583000Y-94452900D02*
X144583000Y-84052900D01*
X121883000Y-84052900D02*
X144583000Y-84052900D01*
X105188000Y-96647900D02*
X110438000Y-96647900D01*
X105188000Y-85647900D02*
X105188000Y-96647900D01*
X110438000Y-85647900D02*
X105188000Y-85647900D01*
X110438000Y-96647900D02*
X110438000Y-85647900D01*
X160408000Y-115157900D02*
X160408000Y-108457900D01*
X154108000Y-115157900D02*
X160408000Y-115157900D01*
X154108000Y-106857900D02*
X154108000Y-115157900D01*
X159258000Y-106857900D02*
X154108000Y-106857900D01*
X160408000Y-106857900D02*
X160408000Y-108457900D01*
X159258000Y-106857900D02*
X160408000Y-106857900D01*
X83623000Y-106222900D02*
X83623000Y-112922900D01*
X89923000Y-106222900D02*
X83623000Y-106222900D01*
X89923000Y-114522900D02*
X89923000Y-106222900D01*
X84773000Y-114522900D02*
X89923000Y-114522900D01*
X83623000Y-114522900D02*
X83623000Y-112922900D01*
X84773000Y-114522900D02*
X83623000Y-114522900D01*
X74098000Y-106222900D02*
X74098000Y-112922900D01*
X80398000Y-106222900D02*
X74098000Y-106222900D01*
X80398000Y-114522900D02*
X80398000Y-106222900D01*
X75248000Y-114522900D02*
X80398000Y-114522900D01*
X74098000Y-114522900D02*
X74098000Y-112922900D01*
X75248000Y-114522900D02*
X74098000Y-114522900D01*
X64763000Y-106222900D02*
X64763000Y-112922900D01*
X71063000Y-106222900D02*
X64763000Y-106222900D01*
X71063000Y-114522900D02*
X71063000Y-106222900D01*
X65913000Y-114522900D02*
X71063000Y-114522900D01*
X64763000Y-114522900D02*
X64763000Y-112922900D01*
X65913000Y-114522900D02*
X64763000Y-114522900D01*
X156948000Y-94342900D02*
X156948000Y-104442900D01*
X153948000Y-94342900D02*
X156948000Y-94342900D01*
X156948000Y-104442900D02*
X153948000Y-104442900D01*
X153948000Y-94342900D02*
X153948000Y-104442900D01*
X157333000Y-88202900D02*
X147233000Y-88202900D01*
X157333000Y-85202900D02*
X157333000Y-88202900D01*
X147233000Y-88202900D02*
X147233000Y-85202900D01*
X157333000Y-85202900D02*
X147233000Y-85202900D01*
X85368000Y-94937900D02*
X85368000Y-84837900D01*
X88368000Y-94937900D02*
X85368000Y-94937900D01*
X85368000Y-84837900D02*
X88368000Y-84837900D01*
X88368000Y-94937900D02*
X88368000Y-84837900D01*
X75843000Y-94937900D02*
X75843000Y-84837900D01*
X78843000Y-94937900D02*
X75843000Y-94937900D01*
X75843000Y-84837900D02*
X78843000Y-84837900D01*
X78843000Y-94937900D02*
X78843000Y-84837900D01*
X66953000Y-94937900D02*
X66953000Y-84837900D01*
X69953000Y-94937900D02*
X66953000Y-94937900D01*
X66953000Y-84837900D02*
X69953000Y-84837900D01*
X69953000Y-94937900D02*
X69953000Y-84837900D01*
X146564228Y-115546936D02*
X146564228Y-105446936D01*
X149564228Y-115546936D02*
X146564228Y-115546936D01*
X146564228Y-105446936D02*
X149564228Y-105446936D01*
X149564228Y-115546936D02*
X149564228Y-105446936D01*
X139579228Y-115546936D02*
X139579228Y-105446936D01*
X142579228Y-115546936D02*
X139579228Y-115546936D01*
X139579228Y-105446936D02*
X142579228Y-105446936D01*
X142579228Y-115546936D02*
X142579228Y-105446936D01*
X132594228Y-115546936D02*
X132594228Y-105446936D01*
X135594228Y-115546936D02*
X132594228Y-115546936D01*
X132594228Y-105446936D02*
X135594228Y-105446936D01*
X135594228Y-115546936D02*
X135594228Y-105446936D01*
X125609228Y-115546936D02*
X125609228Y-105446936D01*
X128609228Y-115546936D02*
X125609228Y-115546936D01*
X125609228Y-105446936D02*
X128609228Y-105446936D01*
X128609228Y-115546936D02*
X128609228Y-105446936D01*
X118624228Y-115546936D02*
X118624228Y-105446936D01*
X121624228Y-115546936D02*
X118624228Y-115546936D01*
X118624228Y-105446936D02*
X121624228Y-105446936D01*
X121624228Y-115546936D02*
X121624228Y-105446936D01*
X111639228Y-115546936D02*
X111639228Y-105446936D01*
X114639228Y-115546936D02*
X111639228Y-115546936D01*
X111639228Y-105446936D02*
X114639228Y-105446936D01*
X114639228Y-115546936D02*
X114639228Y-105446936D01*
X104654228Y-115546936D02*
X104654228Y-105446936D01*
X107654228Y-115546936D02*
X104654228Y-115546936D01*
X104654228Y-105446936D02*
X107654228Y-105446936D01*
X107654228Y-115546936D02*
X107654228Y-105446936D01*
X97669228Y-115546936D02*
X97669228Y-105446936D01*
X100669228Y-115546936D02*
X97669228Y-115546936D01*
X97669228Y-105446936D02*
X100669228Y-105446936D01*
X100669228Y-115546936D02*
X100669228Y-105446936D01*
X157508000Y-90032900D02*
X157508000Y-106232900D01*
X161008000Y-90032900D02*
X161008000Y-106232900D01*
X157508000Y-90032900D02*
X161008000Y-90032900D01*
X157508000Y-106232900D02*
X161008000Y-106232900D01*
X100048000Y-85307900D02*
X93998000Y-85307900D01*
X100048000Y-91907900D02*
X93998000Y-91907900D01*
X100048000Y-85307900D02*
X100040440Y-91907900D01*
X93998000Y-85307900D02*
X93998000Y-91907900D01*
X59718000Y-91302900D02*
X59718000Y-107502900D01*
X63218000Y-91302900D02*
X63218000Y-107502900D01*
X59718000Y-91302900D02*
X63218000Y-91302900D01*
X59718000Y-107502900D02*
X63218000Y-107502900D01*
X121118000Y-85917900D02*
X121118000Y-93917900D01*
X121118000Y-93917900D02*
X116118000Y-93917900D01*
X116118000Y-93917900D02*
X116118000Y-85917900D01*
X116118000Y-85917900D02*
X121118000Y-85917900D01*
X111038000Y-93917900D02*
X111038000Y-85917900D01*
X111038000Y-85917900D02*
X116038000Y-85917900D01*
X116038000Y-85917900D02*
X116038000Y-93917900D01*
X116038000Y-93917900D02*
X111038000Y-93917900D01*
X132544228Y-103442900D02*
X135644228Y-103442900D01*
X132541068Y-103441149D02*
G75*
G02X135644228Y-103442900I1553160J2798249D01*
G01*
X100988000Y-97457900D02*
X92988000Y-97457900D01*
X92988000Y-97457900D02*
X92988000Y-92457900D01*
X92988000Y-92457900D02*
X100988000Y-92457900D01*
X100988000Y-92457900D02*
X100988000Y-97457900D01*
M02*
