G04 #@! TF.FileFunction,Legend,Bot*
%FSLAX46Y46*%
G04 Gerber Fmt 4.6, Leading zero omitted, Abs format (unit mm)*
G04 Created by KiCad (PCBNEW 4.0.1-3.201512221402+6198~38~ubuntu14.04.1-stable) date Thu 11 Feb 2016 01:25:38 PM PST*
%MOMM*%
G01*
G04 APERTURE LIST*
%ADD10C,0.100000*%
%ADD11C,0.203200*%
G04 APERTURE END LIST*
D10*
D11*
X159318476Y-84229424D02*
X159439429Y-84168948D01*
X159499905Y-84108471D01*
X159560381Y-83987519D01*
X159560381Y-83624662D01*
X159499905Y-83503710D01*
X159439429Y-83443233D01*
X159318476Y-83382757D01*
X159137048Y-83382757D01*
X159016096Y-83443233D01*
X158955619Y-83503710D01*
X158895143Y-83624662D01*
X158895143Y-83987519D01*
X158955619Y-84108471D01*
X159016096Y-84168948D01*
X159137048Y-84229424D01*
X159318476Y-84229424D01*
X158411333Y-84168948D02*
X158290381Y-84229424D01*
X158048476Y-84229424D01*
X157927524Y-84168948D01*
X157867048Y-84047995D01*
X157867048Y-83987519D01*
X157927524Y-83866567D01*
X158048476Y-83806090D01*
X158229905Y-83806090D01*
X158350857Y-83745614D01*
X158411333Y-83624662D01*
X158411333Y-83564186D01*
X158350857Y-83443233D01*
X158229905Y-83382757D01*
X158048476Y-83382757D01*
X157927524Y-83443233D01*
X157322762Y-84229424D02*
X157322762Y-82959424D01*
X156778476Y-84229424D02*
X156778476Y-83564186D01*
X156838953Y-83443233D01*
X156959905Y-83382757D01*
X157141333Y-83382757D01*
X157262286Y-83443233D01*
X157322762Y-83503710D01*
X156173714Y-83382757D02*
X156173714Y-84652757D01*
X156173714Y-83443233D02*
X156052762Y-83382757D01*
X155810857Y-83382757D01*
X155689905Y-83443233D01*
X155629428Y-83503710D01*
X155568952Y-83624662D01*
X155568952Y-83987519D01*
X155629428Y-84108471D01*
X155689905Y-84168948D01*
X155810857Y-84229424D01*
X156052762Y-84229424D01*
X156173714Y-84168948D01*
X154480380Y-84229424D02*
X154480380Y-83564186D01*
X154540857Y-83443233D01*
X154661809Y-83382757D01*
X154903714Y-83382757D01*
X155024666Y-83443233D01*
X154480380Y-84168948D02*
X154601333Y-84229424D01*
X154903714Y-84229424D01*
X155024666Y-84168948D01*
X155085142Y-84047995D01*
X155085142Y-83927043D01*
X155024666Y-83806090D01*
X154903714Y-83745614D01*
X154601333Y-83745614D01*
X154480380Y-83685138D01*
X153875618Y-84229424D02*
X153875618Y-83382757D01*
X153875618Y-83624662D02*
X153815142Y-83503710D01*
X153754666Y-83443233D01*
X153633713Y-83382757D01*
X153512761Y-83382757D01*
X153089428Y-84229424D02*
X153089428Y-82959424D01*
X152968476Y-83745614D02*
X152605619Y-84229424D01*
X152605619Y-83382757D02*
X153089428Y-83866567D01*
X152061333Y-84108471D02*
X152000857Y-84168948D01*
X152061333Y-84229424D01*
X152121809Y-84168948D01*
X152061333Y-84108471D01*
X152061333Y-84229424D01*
X150912285Y-84168948D02*
X151033238Y-84229424D01*
X151275142Y-84229424D01*
X151396095Y-84168948D01*
X151456571Y-84108471D01*
X151517047Y-83987519D01*
X151517047Y-83624662D01*
X151456571Y-83503710D01*
X151396095Y-83443233D01*
X151275142Y-83382757D01*
X151033238Y-83382757D01*
X150912285Y-83443233D01*
X150186571Y-84229424D02*
X150307524Y-84168948D01*
X150368000Y-84108471D01*
X150428476Y-83987519D01*
X150428476Y-83624662D01*
X150368000Y-83503710D01*
X150307524Y-83443233D01*
X150186571Y-83382757D01*
X150005143Y-83382757D01*
X149884191Y-83443233D01*
X149823714Y-83503710D01*
X149763238Y-83624662D01*
X149763238Y-83987519D01*
X149823714Y-84108471D01*
X149884191Y-84168948D01*
X150005143Y-84229424D01*
X150186571Y-84229424D01*
X149218952Y-84229424D02*
X149218952Y-83382757D01*
X149218952Y-83503710D02*
X149158476Y-83443233D01*
X149037523Y-83382757D01*
X148856095Y-83382757D01*
X148735143Y-83443233D01*
X148674666Y-83564186D01*
X148674666Y-84229424D01*
X148674666Y-83564186D02*
X148614190Y-83443233D01*
X148493238Y-83382757D01*
X148311809Y-83382757D01*
X148190857Y-83443233D01*
X148130381Y-83564186D01*
X148130381Y-84229424D01*
M02*
