G04 #@! TF.FileFunction,Copper,L1,Top,Signal*
%FSLAX46Y46*%
G04 Gerber Fmt 4.6, Leading zero omitted, Abs format (unit mm)*
G04 Created by KiCad (PCBNEW 4.0.1-3.201512221402+6198~38~ubuntu14.04.1-stable) date Wed 10 Feb 2016 11:41:12 PM PST*
%MOMM*%
G01*
G04 APERTURE LIST*
%ADD10C,0.100000*%
%ADD11R,2.000000X1.900000*%
%ADD12C,1.900000*%
%ADD13R,1.400000X1.400000*%
%ADD14C,1.400000*%
%ADD15R,1.900000X2.000000*%
%ADD16C,1.998980*%
%ADD17C,1.700000*%
%ADD18R,1.524000X1.824000*%
%ADD19O,1.524000X1.824000*%
%ADD20O,2.499360X1.501140*%
%ADD21O,1.600000X2.300000*%
%ADD22R,2.032000X2.032000*%
%ADD23O,2.032000X2.032000*%
%ADD24R,2.032000X1.727200*%
%ADD25O,2.032000X1.727200*%
%ADD26C,0.330200*%
G04 APERTURE END LIST*
D10*
D11*
X100965000Y-102704900D03*
D12*
X100965000Y-100164900D03*
D13*
X98679000Y-85813900D03*
D14*
X98679000Y-90813900D03*
D13*
X70866000Y-88480900D03*
D14*
X65866000Y-88480900D03*
D13*
X104902000Y-85813900D03*
D14*
X104902000Y-90813900D03*
D13*
X74485500Y-88544400D03*
D14*
X79485500Y-88544400D03*
D13*
X91059000Y-112991900D03*
D14*
X96059000Y-112991900D03*
D13*
X111379000Y-85940900D03*
D14*
X111379000Y-90940900D03*
D15*
X65786000Y-106260900D03*
D12*
X68326000Y-106260900D03*
D15*
X75946000Y-106387900D03*
D12*
X78486000Y-106387900D03*
D15*
X86868000Y-88353900D03*
D12*
X84328000Y-88353900D03*
D11*
X149034500Y-102958900D03*
D12*
X149034500Y-100418900D03*
D11*
X141859000Y-102895400D03*
D12*
X141859000Y-100355400D03*
D11*
X135001000Y-102895400D03*
D12*
X135001000Y-100355400D03*
D11*
X128270000Y-102831900D03*
D12*
X128270000Y-100291900D03*
D11*
X121348500Y-102895400D03*
D12*
X121348500Y-100355400D03*
D11*
X114744500Y-102704900D03*
D12*
X114744500Y-100164900D03*
D11*
X107886500Y-102450900D03*
D12*
X107886500Y-99910900D03*
D16*
X68834000Y-112991900D03*
X61214000Y-112991900D03*
X73787000Y-112991900D03*
X81407000Y-112991900D03*
X151701500Y-92227400D03*
X144081500Y-92227400D03*
X99949000Y-94576900D03*
X92329000Y-94576900D03*
X86233000Y-106387900D03*
X86233000Y-114007900D03*
X144462500Y-87210900D03*
X152082500Y-87210900D03*
X149034500Y-106641900D03*
X149034500Y-114261900D03*
X141859000Y-106641900D03*
X141859000Y-114261900D03*
X135064500Y-106641900D03*
X135064500Y-114261900D03*
X128270000Y-106641900D03*
X128270000Y-114261900D03*
X121285000Y-106641900D03*
X121285000Y-114261900D03*
X114617500Y-106578400D03*
X114617500Y-114198400D03*
X107886500Y-106578400D03*
X107886500Y-114198400D03*
X101028500Y-106578400D03*
X101028500Y-114198400D03*
X155067000Y-102958900D03*
X155067000Y-95338900D03*
D17*
X69786000Y-95180900D03*
X69786000Y-101180900D03*
X65786000Y-95180900D03*
X65786000Y-101180900D03*
X79247500Y-95180900D03*
X79247500Y-101180900D03*
X75247500Y-95180900D03*
X75247500Y-101180900D03*
D18*
X86169500Y-93814900D03*
D19*
X86169500Y-101434900D03*
D17*
X154274000Y-109245900D03*
X160274000Y-109245900D03*
X154274000Y-113245900D03*
X160274000Y-113245900D03*
D20*
X94234000Y-102323900D03*
X94234000Y-104863900D03*
X94234000Y-99783900D03*
D21*
X118745000Y-94005400D03*
X121285000Y-94005400D03*
X123825000Y-94005400D03*
X126365000Y-94005400D03*
X128905000Y-94005400D03*
X131445000Y-94005400D03*
X133985000Y-94005400D03*
X136525000Y-94005400D03*
X136525000Y-86385400D03*
X133985000Y-86385400D03*
X131445000Y-86385400D03*
X128905000Y-86385400D03*
X126365000Y-86385400D03*
X123825000Y-86385400D03*
X121285000Y-86385400D03*
X118745000Y-86385400D03*
D22*
X92964000Y-87210900D03*
D23*
X92964000Y-89750900D03*
D24*
X60706000Y-91694000D03*
D25*
X60706000Y-94234000D03*
X60706000Y-96774000D03*
X60706000Y-99314000D03*
X60706000Y-101854000D03*
X60706000Y-104394000D03*
D24*
X159512000Y-91440000D03*
D25*
X159512000Y-93980000D03*
X159512000Y-96520000D03*
X159512000Y-99060000D03*
X159512000Y-101600000D03*
X159512000Y-104140000D03*
D26*
X149034500Y-102958900D02*
X149034500Y-106641900D01*
X135489300Y-96989900D02*
X145605500Y-96989900D01*
X145605500Y-96989900D02*
X149034500Y-100418900D01*
X133985000Y-94005400D02*
X133985000Y-95485600D01*
X133985000Y-95485600D02*
X135489300Y-96989900D01*
X141859000Y-102895400D02*
X141859000Y-106641900D01*
X135349500Y-98259900D02*
X139763500Y-98259900D01*
X139763500Y-98259900D02*
X141859000Y-100355400D01*
X131445000Y-94005400D02*
X131445000Y-94355400D01*
X131445000Y-94355400D02*
X135349500Y-98259900D01*
X135001000Y-102895400D02*
X135001000Y-106578400D01*
X135001000Y-106578400D02*
X135064500Y-106641900D01*
X128905000Y-94005400D02*
X128905000Y-94355400D01*
X128905000Y-94355400D02*
X134905000Y-100355400D01*
X134905000Y-100355400D02*
X135001000Y-100355400D01*
X128270000Y-102831900D02*
X128270000Y-106641900D01*
X126365000Y-94005400D02*
X126365000Y-98386900D01*
X126365000Y-98386900D02*
X128270000Y-100291900D01*
X121348500Y-102895400D02*
X121348500Y-106578400D01*
X121348500Y-106578400D02*
X121285000Y-106641900D01*
X123825000Y-94005400D02*
X123825000Y-97878900D01*
X123825000Y-97878900D02*
X121348500Y-100355400D01*
X114744500Y-102704900D02*
X114744500Y-106451400D01*
X114744500Y-106451400D02*
X114617500Y-106578400D01*
X121285000Y-94005400D02*
X121285000Y-94355400D01*
X121285000Y-94355400D02*
X115475500Y-100164900D01*
X115475500Y-100164900D02*
X114744500Y-100164900D01*
X107886500Y-106578400D02*
X107886500Y-103731100D01*
X107886500Y-102450900D02*
X107886500Y-103731100D01*
X118745000Y-94005400D02*
X113792000Y-94005400D01*
X113792000Y-94005400D02*
X107886500Y-99910900D01*
X100965000Y-102704900D02*
X100965000Y-106514900D01*
X100965000Y-106514900D02*
X101028500Y-106578400D01*
X121285000Y-86735400D02*
X121285000Y-86385400D01*
M02*
