G75*
%MOIN*%
%OFA0B0*%
%FSLAX24Y24*%
%IPPOS*%
%LPD*%
%AMOC8*
5,1,8,0,0,1.08239X$1,22.5*
%
%ADD10C,0.0060*%
%ADD11C,0.0000*%
D10*
X002300Y008425D02*
X002302Y008609D01*
X002309Y008793D01*
X002320Y008977D01*
X002336Y009160D01*
X002356Y009343D01*
X002381Y009525D01*
X002410Y009707D01*
X002444Y009888D01*
X002482Y010068D01*
X002525Y010247D01*
X002572Y010425D01*
X002623Y010602D01*
X002679Y010778D01*
X002738Y010952D01*
X002803Y011124D01*
X002871Y011295D01*
X002943Y011464D01*
X003020Y011632D01*
X003101Y011797D01*
X003186Y011960D01*
X003274Y012122D01*
X003367Y012281D01*
X003464Y012437D01*
X003564Y012592D01*
X003668Y012744D01*
X003776Y012893D01*
X003887Y013039D01*
X004002Y013183D01*
X004121Y013324D01*
X004243Y013462D01*
X004368Y013597D01*
X004497Y013728D01*
X004628Y013857D01*
X004763Y013982D01*
X004901Y014104D01*
X005042Y014223D01*
X005186Y014338D01*
X005332Y014449D01*
X005481Y014557D01*
X005633Y014661D01*
X005788Y014761D01*
X005944Y014858D01*
X006103Y014951D01*
X006265Y015039D01*
X006428Y015124D01*
X006593Y015205D01*
X006761Y015282D01*
X006930Y015354D01*
X007101Y015422D01*
X007273Y015487D01*
X007447Y015546D01*
X007623Y015602D01*
X007800Y015653D01*
X007978Y015700D01*
X008157Y015743D01*
X008337Y015781D01*
X008518Y015815D01*
X008700Y015844D01*
X008882Y015869D01*
X009065Y015889D01*
X009248Y015905D01*
X009432Y015916D01*
X009616Y015923D01*
X009800Y015925D01*
X009984Y015923D01*
X010168Y015916D01*
X010352Y015905D01*
X010535Y015889D01*
X010718Y015869D01*
X010900Y015844D01*
X011082Y015815D01*
X011263Y015781D01*
X011443Y015743D01*
X011622Y015700D01*
X011800Y015653D01*
X011977Y015602D01*
X012153Y015546D01*
X012327Y015487D01*
X012499Y015422D01*
X012670Y015354D01*
X012839Y015282D01*
X013007Y015205D01*
X013172Y015124D01*
X013335Y015039D01*
X013497Y014951D01*
X013656Y014858D01*
X013812Y014761D01*
X013967Y014661D01*
X014119Y014557D01*
X014268Y014449D01*
X014414Y014338D01*
X014558Y014223D01*
X014699Y014104D01*
X014837Y013982D01*
X014972Y013857D01*
X015103Y013728D01*
X015232Y013597D01*
X015357Y013462D01*
X015479Y013324D01*
X015598Y013183D01*
X015713Y013039D01*
X015824Y012893D01*
X015932Y012744D01*
X016036Y012592D01*
X016136Y012437D01*
X016233Y012281D01*
X016326Y012122D01*
X016414Y011960D01*
X016499Y011797D01*
X016580Y011632D01*
X016657Y011464D01*
X016729Y011295D01*
X016797Y011124D01*
X016862Y010952D01*
X016921Y010778D01*
X016977Y010602D01*
X017028Y010425D01*
X017075Y010247D01*
X017118Y010068D01*
X017156Y009888D01*
X017190Y009707D01*
X017219Y009525D01*
X017244Y009343D01*
X017264Y009160D01*
X017280Y008977D01*
X017291Y008793D01*
X017298Y008609D01*
X017300Y008425D01*
X017298Y008241D01*
X017291Y008057D01*
X017280Y007873D01*
X017264Y007690D01*
X017244Y007507D01*
X017219Y007325D01*
X017190Y007143D01*
X017156Y006962D01*
X017118Y006782D01*
X017075Y006603D01*
X017028Y006425D01*
X016977Y006248D01*
X016921Y006072D01*
X016862Y005898D01*
X016797Y005726D01*
X016729Y005555D01*
X016657Y005386D01*
X016580Y005218D01*
X016499Y005053D01*
X016414Y004890D01*
X016326Y004728D01*
X016233Y004569D01*
X016136Y004413D01*
X016036Y004258D01*
X015932Y004106D01*
X015824Y003957D01*
X015713Y003811D01*
X015598Y003667D01*
X015479Y003526D01*
X015357Y003388D01*
X015232Y003253D01*
X015103Y003122D01*
X014972Y002993D01*
X014837Y002868D01*
X014699Y002746D01*
X014558Y002627D01*
X014414Y002512D01*
X014268Y002401D01*
X014119Y002293D01*
X013967Y002189D01*
X013812Y002089D01*
X013656Y001992D01*
X013497Y001899D01*
X013335Y001811D01*
X013172Y001726D01*
X013007Y001645D01*
X012839Y001568D01*
X012670Y001496D01*
X012499Y001428D01*
X012327Y001363D01*
X012153Y001304D01*
X011977Y001248D01*
X011800Y001197D01*
X011622Y001150D01*
X011443Y001107D01*
X011263Y001069D01*
X011082Y001035D01*
X010900Y001006D01*
X010718Y000981D01*
X010535Y000961D01*
X010352Y000945D01*
X010168Y000934D01*
X009984Y000927D01*
X009800Y000925D01*
X009616Y000927D01*
X009432Y000934D01*
X009248Y000945D01*
X009065Y000961D01*
X008882Y000981D01*
X008700Y001006D01*
X008518Y001035D01*
X008337Y001069D01*
X008157Y001107D01*
X007978Y001150D01*
X007800Y001197D01*
X007623Y001248D01*
X007447Y001304D01*
X007273Y001363D01*
X007101Y001428D01*
X006930Y001496D01*
X006761Y001568D01*
X006593Y001645D01*
X006428Y001726D01*
X006265Y001811D01*
X006103Y001899D01*
X005944Y001992D01*
X005788Y002089D01*
X005633Y002189D01*
X005481Y002293D01*
X005332Y002401D01*
X005186Y002512D01*
X005042Y002627D01*
X004901Y002746D01*
X004763Y002868D01*
X004628Y002993D01*
X004497Y003122D01*
X004368Y003253D01*
X004243Y003388D01*
X004121Y003526D01*
X004002Y003667D01*
X003887Y003811D01*
X003776Y003957D01*
X003668Y004106D01*
X003564Y004258D01*
X003464Y004413D01*
X003367Y004569D01*
X003274Y004728D01*
X003186Y004890D01*
X003101Y005053D01*
X003020Y005218D01*
X002943Y005386D01*
X002871Y005555D01*
X002803Y005726D01*
X002738Y005898D01*
X002679Y006072D01*
X002623Y006248D01*
X002572Y006425D01*
X002525Y006603D01*
X002482Y006782D01*
X002444Y006962D01*
X002410Y007143D01*
X002381Y007325D01*
X002356Y007507D01*
X002336Y007690D01*
X002320Y007873D01*
X002309Y008057D01*
X002302Y008241D01*
X002300Y008425D01*
X008800Y013925D02*
X008802Y013988D01*
X008808Y014050D01*
X008818Y014112D01*
X008831Y014174D01*
X008849Y014234D01*
X008870Y014293D01*
X008895Y014351D01*
X008924Y014407D01*
X008956Y014461D01*
X008991Y014513D01*
X009029Y014562D01*
X009071Y014610D01*
X009115Y014654D01*
X009163Y014696D01*
X009212Y014734D01*
X009264Y014769D01*
X009318Y014801D01*
X009374Y014830D01*
X009432Y014855D01*
X009491Y014876D01*
X009551Y014894D01*
X009613Y014907D01*
X009675Y014917D01*
X009737Y014923D01*
X009800Y014925D01*
X009863Y014923D01*
X009925Y014917D01*
X009987Y014907D01*
X010049Y014894D01*
X010109Y014876D01*
X010168Y014855D01*
X010226Y014830D01*
X010282Y014801D01*
X010336Y014769D01*
X010388Y014734D01*
X010437Y014696D01*
X010485Y014654D01*
X010529Y014610D01*
X010571Y014562D01*
X010609Y014513D01*
X010644Y014461D01*
X010676Y014407D01*
X010705Y014351D01*
X010730Y014293D01*
X010751Y014234D01*
X010769Y014174D01*
X010782Y014112D01*
X010792Y014050D01*
X010798Y013988D01*
X010800Y013925D01*
X010798Y013862D01*
X010792Y013800D01*
X010782Y013738D01*
X010769Y013676D01*
X010751Y013616D01*
X010730Y013557D01*
X010705Y013499D01*
X010676Y013443D01*
X010644Y013389D01*
X010609Y013337D01*
X010571Y013288D01*
X010529Y013240D01*
X010485Y013196D01*
X010437Y013154D01*
X010388Y013116D01*
X010336Y013081D01*
X010282Y013049D01*
X010226Y013020D01*
X010168Y012995D01*
X010109Y012974D01*
X010049Y012956D01*
X009987Y012943D01*
X009925Y012933D01*
X009863Y012927D01*
X009800Y012925D01*
X009737Y012927D01*
X009675Y012933D01*
X009613Y012943D01*
X009551Y012956D01*
X009491Y012974D01*
X009432Y012995D01*
X009374Y013020D01*
X009318Y013049D01*
X009264Y013081D01*
X009212Y013116D01*
X009163Y013154D01*
X009115Y013196D01*
X009071Y013240D01*
X009029Y013288D01*
X008991Y013337D01*
X008956Y013389D01*
X008924Y013443D01*
X008895Y013499D01*
X008870Y013557D01*
X008849Y013616D01*
X008831Y013676D01*
X008818Y013738D01*
X008808Y013800D01*
X008802Y013862D01*
X008800Y013925D01*
D11*
X008802Y013988D01*
X008808Y014050D01*
X008818Y014112D01*
X008831Y014174D01*
X008849Y014234D01*
X008870Y014293D01*
X008895Y014351D01*
X008924Y014407D01*
X008956Y014461D01*
X008991Y014513D01*
X009029Y014562D01*
X009071Y014610D01*
X009115Y014654D01*
X009163Y014696D01*
X009212Y014734D01*
X009264Y014769D01*
X009318Y014801D01*
X009374Y014830D01*
X009432Y014855D01*
X009491Y014876D01*
X009551Y014894D01*
X009613Y014907D01*
X009675Y014917D01*
X009737Y014923D01*
X009800Y014925D01*
X009863Y014923D01*
X009925Y014917D01*
X009987Y014907D01*
X010049Y014894D01*
X010109Y014876D01*
X010168Y014855D01*
X010226Y014830D01*
X010282Y014801D01*
X010336Y014769D01*
X010388Y014734D01*
X010437Y014696D01*
X010485Y014654D01*
X010529Y014610D01*
X010571Y014562D01*
X010609Y014513D01*
X010644Y014461D01*
X010676Y014407D01*
X010705Y014351D01*
X010730Y014293D01*
X010751Y014234D01*
X010769Y014174D01*
X010782Y014112D01*
X010792Y014050D01*
X010798Y013988D01*
X010800Y013925D01*
X010798Y013862D01*
X010792Y013800D01*
X010782Y013738D01*
X010769Y013676D01*
X010751Y013616D01*
X010730Y013557D01*
X010705Y013499D01*
X010676Y013443D01*
X010644Y013389D01*
X010609Y013337D01*
X010571Y013288D01*
X010529Y013240D01*
X010485Y013196D01*
X010437Y013154D01*
X010388Y013116D01*
X010336Y013081D01*
X010282Y013049D01*
X010226Y013020D01*
X010168Y012995D01*
X010109Y012974D01*
X010049Y012956D01*
X009987Y012943D01*
X009925Y012933D01*
X009863Y012927D01*
X009800Y012925D01*
X009737Y012927D01*
X009675Y012933D01*
X009613Y012943D01*
X009551Y012956D01*
X009491Y012974D01*
X009432Y012995D01*
X009374Y013020D01*
X009318Y013049D01*
X009264Y013081D01*
X009212Y013116D01*
X009163Y013154D01*
X009115Y013196D01*
X009071Y013240D01*
X009029Y013288D01*
X008991Y013337D01*
X008956Y013389D01*
X008924Y013443D01*
X008895Y013499D01*
X008870Y013557D01*
X008849Y013616D01*
X008831Y013676D01*
X008818Y013738D01*
X008808Y013800D01*
X008802Y013862D01*
X008800Y013925D01*
M02*
