G04 #@! TF.FileFunction,Copper,L2,Bot,Signal*
%FSLAX46Y46*%
G04 Gerber Fmt 4.6, Leading zero omitted, Abs format (unit mm)*
G04 Created by KiCad (PCBNEW 4.0.1-3.201512221402+6198~38~ubuntu14.04.1-stable) date Sun 07 Feb 2016 08:00:25 PM PST*
%MOMM*%
G01*
G04 APERTURE LIST*
%ADD10C,0.100000*%
%ADD11R,1.727200X1.727200*%
%ADD12O,1.727200X1.727200*%
%ADD13R,1.400000X1.400000*%
%ADD14C,1.400000*%
%ADD15C,1.998980*%
%ADD16C,0.685800*%
%ADD17C,0.254000*%
G04 APERTURE END LIST*
D10*
D11*
X154597100Y-97612200D03*
D12*
X154597100Y-100152200D03*
X157137100Y-97612200D03*
X157137100Y-100152200D03*
X159677100Y-97612200D03*
X159677100Y-100152200D03*
X162217100Y-97612200D03*
X162217100Y-100152200D03*
X164757100Y-97612200D03*
X164757100Y-100152200D03*
X167297100Y-97612200D03*
X167297100Y-100152200D03*
D13*
X172948600Y-109143800D03*
D14*
X172948600Y-104143800D03*
D13*
X160143200Y-109575600D03*
D14*
X155143200Y-109575600D03*
D13*
X160147000Y-105664000D03*
D14*
X155147000Y-105664000D03*
D13*
X160020000Y-114427000D03*
D14*
X155020000Y-114427000D03*
D15*
X175488600Y-117627400D03*
X167868600Y-117627400D03*
X175514000Y-113919000D03*
X167894000Y-113919000D03*
D16*
X166042720Y-105525159D03*
X168680000Y-109094400D03*
X161798000Y-107594400D03*
X164541200Y-104622600D03*
X165836600Y-109372400D03*
D17*
X164541200Y-104622600D02*
X161137600Y-104622600D01*
X161137600Y-104622600D02*
X160147000Y-105613200D01*
X160147000Y-105613200D02*
X160147000Y-105664000D01*
X158927800Y-117627400D02*
X156972000Y-115671600D01*
X156972000Y-115671600D02*
X156972000Y-102527100D01*
X156972000Y-102527100D02*
X155460699Y-101015799D01*
X155460699Y-101015799D02*
X154597100Y-100152200D01*
X167868600Y-117627400D02*
X158927800Y-117627400D01*
X157137100Y-100152200D02*
X157137100Y-101373514D01*
X157137100Y-101373514D02*
X158292800Y-102529214D01*
X165303200Y-116509800D02*
X167894000Y-113919000D01*
X158292800Y-102529214D02*
X158292800Y-115493800D01*
X158292800Y-115493800D02*
X159308800Y-116509800D01*
X159308800Y-116509800D02*
X165303200Y-116509800D01*
X169570400Y-105664000D02*
X169570400Y-99885500D01*
X169570400Y-99885500D02*
X167297100Y-97612200D01*
X168465501Y-106768899D02*
X169570400Y-105664000D01*
X165836600Y-109372400D02*
X168440101Y-106768899D01*
X168440101Y-106768899D02*
X168465501Y-106768899D01*
G36*
X153373802Y-96210273D02*
X153195173Y-96388901D01*
X153098500Y-96622290D01*
X153098500Y-97326450D01*
X153257250Y-97485200D01*
X154470100Y-97485200D01*
X154470100Y-97465200D01*
X154724100Y-97465200D01*
X154724100Y-97485200D01*
X154744100Y-97485200D01*
X154744100Y-97739200D01*
X154724100Y-97739200D01*
X154724100Y-97759200D01*
X154470100Y-97759200D01*
X154470100Y-97739200D01*
X153257250Y-97739200D01*
X153098500Y-97897950D01*
X153098500Y-98602110D01*
X153195173Y-98835499D01*
X153373802Y-99014127D01*
X153529123Y-99078463D01*
X153508071Y-99092530D01*
X153183215Y-99578711D01*
X153069141Y-100152200D01*
X153183215Y-100725689D01*
X153508071Y-101211870D01*
X153994252Y-101536726D01*
X154567741Y-101650800D01*
X154626459Y-101650800D01*
X154953098Y-101585828D01*
X156210000Y-102842731D01*
X156210000Y-104839232D01*
X155904204Y-104532902D01*
X155413713Y-104329232D01*
X154882617Y-104328769D01*
X154391771Y-104531582D01*
X154015902Y-104906796D01*
X153812232Y-105397287D01*
X153811769Y-105928383D01*
X154014582Y-106419229D01*
X154389796Y-106795098D01*
X154880287Y-106998768D01*
X155411383Y-106999231D01*
X155902229Y-106796418D01*
X156210000Y-106489183D01*
X156210000Y-108754638D01*
X155900404Y-108444502D01*
X155409913Y-108240832D01*
X154878817Y-108240369D01*
X154387971Y-108443182D01*
X154012102Y-108818396D01*
X153808432Y-109308887D01*
X153807969Y-109839983D01*
X154010782Y-110330829D01*
X154385996Y-110706698D01*
X154876487Y-110910368D01*
X155407583Y-110910831D01*
X155898429Y-110708018D01*
X156210000Y-110396990D01*
X156210000Y-113811130D01*
X156152418Y-113671771D01*
X155777204Y-113295902D01*
X155286713Y-113092232D01*
X154755617Y-113091769D01*
X154264771Y-113294582D01*
X153888902Y-113669796D01*
X153685232Y-114160287D01*
X153684769Y-114691383D01*
X153887582Y-115182229D01*
X154262796Y-115558098D01*
X154753287Y-115761768D01*
X155284383Y-115762231D01*
X155775229Y-115559418D01*
X156151098Y-115184204D01*
X156210000Y-115042352D01*
X156210000Y-115671600D01*
X156268004Y-115963205D01*
X156424753Y-116197796D01*
X156433185Y-116210415D01*
X158388985Y-118166215D01*
X158636195Y-118331396D01*
X158927800Y-118389400D01*
X166414930Y-118389400D01*
X166482138Y-118552055D01*
X166941527Y-119012246D01*
X167542053Y-119261606D01*
X168192294Y-119262174D01*
X168793255Y-119013862D01*
X169027963Y-118779563D01*
X174516043Y-118779563D01*
X174614642Y-119046365D01*
X175224182Y-119272801D01*
X175873977Y-119248741D01*
X176362558Y-119046365D01*
X176461157Y-118779563D01*
X175488600Y-117807005D01*
X174516043Y-118779563D01*
X169027963Y-118779563D01*
X169253446Y-118554473D01*
X169502806Y-117953947D01*
X169503322Y-117362982D01*
X173843199Y-117362982D01*
X173867259Y-118012777D01*
X174069635Y-118501358D01*
X174336437Y-118599957D01*
X175308995Y-117627400D01*
X175668205Y-117627400D01*
X176640763Y-118599957D01*
X176907565Y-118501358D01*
X177134001Y-117891818D01*
X177109941Y-117242023D01*
X176907565Y-116753442D01*
X176640763Y-116654843D01*
X175668205Y-117627400D01*
X175308995Y-117627400D01*
X174336437Y-116654843D01*
X174069635Y-116753442D01*
X173843199Y-117362982D01*
X169503322Y-117362982D01*
X169503374Y-117303706D01*
X169255062Y-116702745D01*
X169027951Y-116475237D01*
X174516043Y-116475237D01*
X175488600Y-117447795D01*
X176461157Y-116475237D01*
X176362558Y-116208435D01*
X175753018Y-115981999D01*
X175103223Y-116006059D01*
X174614642Y-116208435D01*
X174516043Y-116475237D01*
X169027951Y-116475237D01*
X168795673Y-116242554D01*
X168195147Y-115993194D01*
X167544906Y-115992626D01*
X166943945Y-116240938D01*
X166483754Y-116700327D01*
X166415210Y-116865400D01*
X166025230Y-116865400D01*
X167404916Y-115485715D01*
X167567453Y-115553206D01*
X168217694Y-115553774D01*
X168818655Y-115305462D01*
X169053363Y-115071163D01*
X174541443Y-115071163D01*
X174640042Y-115337965D01*
X175249582Y-115564401D01*
X175899377Y-115540341D01*
X176387958Y-115337965D01*
X176486557Y-115071163D01*
X175514000Y-114098605D01*
X174541443Y-115071163D01*
X169053363Y-115071163D01*
X169278846Y-114846073D01*
X169528206Y-114245547D01*
X169528722Y-113654582D01*
X173868599Y-113654582D01*
X173892659Y-114304377D01*
X174095035Y-114792958D01*
X174361837Y-114891557D01*
X175334395Y-113919000D01*
X175693605Y-113919000D01*
X176666163Y-114891557D01*
X176932965Y-114792958D01*
X177159401Y-114183418D01*
X177135341Y-113533623D01*
X176932965Y-113045042D01*
X176666163Y-112946443D01*
X175693605Y-113919000D01*
X175334395Y-113919000D01*
X174361837Y-112946443D01*
X174095035Y-113045042D01*
X173868599Y-113654582D01*
X169528722Y-113654582D01*
X169528774Y-113595306D01*
X169280462Y-112994345D01*
X169053351Y-112766837D01*
X174541443Y-112766837D01*
X175514000Y-113739395D01*
X176486557Y-112766837D01*
X176387958Y-112500035D01*
X175778418Y-112273599D01*
X175128623Y-112297659D01*
X174640042Y-112500035D01*
X174541443Y-112766837D01*
X169053351Y-112766837D01*
X168821073Y-112534154D01*
X168220547Y-112284794D01*
X167570306Y-112284226D01*
X166969345Y-112532538D01*
X166509154Y-112991927D01*
X166259794Y-113592453D01*
X166259226Y-114242694D01*
X166327482Y-114407887D01*
X164987570Y-115747800D01*
X160861579Y-115747800D01*
X160955317Y-115730162D01*
X161171441Y-115591090D01*
X161316431Y-115378890D01*
X161367440Y-115127000D01*
X161367440Y-113727000D01*
X161323162Y-113491683D01*
X161184090Y-113275559D01*
X160971890Y-113130569D01*
X160720000Y-113079560D01*
X159320000Y-113079560D01*
X159084683Y-113123838D01*
X159054800Y-113143067D01*
X159054800Y-110785225D01*
X159083502Y-110813927D01*
X159316891Y-110910600D01*
X159857450Y-110910600D01*
X160016200Y-110751850D01*
X160016200Y-109702600D01*
X160270200Y-109702600D01*
X160270200Y-110751850D01*
X160428950Y-110910600D01*
X160969509Y-110910600D01*
X161202898Y-110813927D01*
X161381527Y-110635299D01*
X161478200Y-110401910D01*
X161478200Y-109861350D01*
X161319450Y-109702600D01*
X160270200Y-109702600D01*
X160016200Y-109702600D01*
X159996200Y-109702600D01*
X159996200Y-109448600D01*
X160016200Y-109448600D01*
X160016200Y-108399350D01*
X160270200Y-108399350D01*
X160270200Y-109448600D01*
X161319450Y-109448600D01*
X161478200Y-109289850D01*
X161478200Y-108749290D01*
X161381527Y-108515901D01*
X161202898Y-108337273D01*
X160969509Y-108240600D01*
X160428950Y-108240600D01*
X160270200Y-108399350D01*
X160016200Y-108399350D01*
X159857450Y-108240600D01*
X159316891Y-108240600D01*
X159083502Y-108337273D01*
X159054800Y-108365975D01*
X159054800Y-106864561D01*
X159195110Y-106960431D01*
X159447000Y-107011440D01*
X160847000Y-107011440D01*
X161082317Y-106967162D01*
X161298441Y-106828090D01*
X161443431Y-106615890D01*
X161494440Y-106364000D01*
X161494440Y-105384600D01*
X163920117Y-105384600D01*
X163986541Y-105451140D01*
X164345830Y-105600330D01*
X164734863Y-105600669D01*
X165094412Y-105452107D01*
X165369740Y-105177259D01*
X165518930Y-104817970D01*
X165519269Y-104428937D01*
X165370707Y-104069388D01*
X165095859Y-103794060D01*
X164736570Y-103644870D01*
X164347537Y-103644531D01*
X163987988Y-103793093D01*
X163920363Y-103860600D01*
X161137600Y-103860600D01*
X160845995Y-103918604D01*
X160622497Y-104067941D01*
X160598785Y-104083785D01*
X160366010Y-104316560D01*
X159447000Y-104316560D01*
X159211683Y-104360838D01*
X159054800Y-104461789D01*
X159054800Y-102529214D01*
X158996796Y-102237609D01*
X158889821Y-102077510D01*
X158831616Y-101990399D01*
X158122398Y-101281181D01*
X158226129Y-101211870D01*
X158407100Y-100941028D01*
X158588071Y-101211870D01*
X159074252Y-101536726D01*
X159647741Y-101650800D01*
X159706459Y-101650800D01*
X160279948Y-101536726D01*
X160766129Y-101211870D01*
X160947100Y-100941028D01*
X161128071Y-101211870D01*
X161614252Y-101536726D01*
X162187741Y-101650800D01*
X162246459Y-101650800D01*
X162819948Y-101536726D01*
X163306129Y-101211870D01*
X163487100Y-100941028D01*
X163668071Y-101211870D01*
X164154252Y-101536726D01*
X164727741Y-101650800D01*
X164786459Y-101650800D01*
X165359948Y-101536726D01*
X165846129Y-101211870D01*
X166027100Y-100941028D01*
X166208071Y-101211870D01*
X166694252Y-101536726D01*
X167267741Y-101650800D01*
X167326459Y-101650800D01*
X167899948Y-101536726D01*
X168386129Y-101211870D01*
X168710985Y-100725689D01*
X168808400Y-100235950D01*
X168808400Y-105348370D01*
X167977835Y-106178935D01*
X167901285Y-106230084D01*
X165736957Y-108394413D01*
X165642937Y-108394331D01*
X165283388Y-108542893D01*
X165008060Y-108817741D01*
X164858870Y-109177030D01*
X164858531Y-109566063D01*
X165007093Y-109925612D01*
X165281941Y-110200940D01*
X165641230Y-110350130D01*
X166030263Y-110350469D01*
X166389812Y-110201907D01*
X166665140Y-109927059D01*
X166814330Y-109567770D01*
X166814413Y-109472217D01*
X166857080Y-109429550D01*
X171613600Y-109429550D01*
X171613600Y-109970109D01*
X171710273Y-110203498D01*
X171888901Y-110382127D01*
X172122290Y-110478800D01*
X172662850Y-110478800D01*
X172821600Y-110320050D01*
X172821600Y-109270800D01*
X173075600Y-109270800D01*
X173075600Y-110320050D01*
X173234350Y-110478800D01*
X173774910Y-110478800D01*
X174008299Y-110382127D01*
X174186927Y-110203498D01*
X174283600Y-109970109D01*
X174283600Y-109429550D01*
X174124850Y-109270800D01*
X173075600Y-109270800D01*
X172821600Y-109270800D01*
X171772350Y-109270800D01*
X171613600Y-109429550D01*
X166857080Y-109429550D01*
X167969139Y-108317491D01*
X171613600Y-108317491D01*
X171613600Y-108858050D01*
X171772350Y-109016800D01*
X172821600Y-109016800D01*
X172821600Y-107967550D01*
X173075600Y-107967550D01*
X173075600Y-109016800D01*
X174124850Y-109016800D01*
X174283600Y-108858050D01*
X174283600Y-108317491D01*
X174186927Y-108084102D01*
X174008299Y-107905473D01*
X173774910Y-107808800D01*
X173234350Y-107808800D01*
X173075600Y-107967550D01*
X172821600Y-107967550D01*
X172662850Y-107808800D01*
X172122290Y-107808800D01*
X171888901Y-107905473D01*
X171710273Y-108084102D01*
X171613600Y-108317491D01*
X167969139Y-108317491D01*
X168927771Y-107358860D01*
X169004316Y-107307714D01*
X170109215Y-106202815D01*
X170274396Y-105955605D01*
X170284501Y-105904804D01*
X170332400Y-105664000D01*
X170332400Y-104408183D01*
X171613369Y-104408183D01*
X171816182Y-104899029D01*
X172191396Y-105274898D01*
X172681887Y-105478568D01*
X173212983Y-105479031D01*
X173703829Y-105276218D01*
X174079698Y-104901004D01*
X174283368Y-104410513D01*
X174283831Y-103879417D01*
X174081018Y-103388571D01*
X173705804Y-103012702D01*
X173215313Y-102809032D01*
X172684217Y-102808569D01*
X172193371Y-103011382D01*
X171817502Y-103386596D01*
X171613832Y-103877087D01*
X171613369Y-104408183D01*
X170332400Y-104408183D01*
X170332400Y-99885500D01*
X170274396Y-99593895D01*
X170138292Y-99390201D01*
X170109216Y-99346685D01*
X168750345Y-97987814D01*
X168825059Y-97612200D01*
X168710985Y-97038711D01*
X168386129Y-96552530D01*
X167899948Y-96227674D01*
X167454153Y-96139000D01*
X178435000Y-96139000D01*
X178435000Y-126111000D01*
X152527000Y-126111000D01*
X152527000Y-96139000D01*
X153545870Y-96139000D01*
X153373802Y-96210273D01*
X153373802Y-96210273D01*
G37*
X153373802Y-96210273D02*
X153195173Y-96388901D01*
X153098500Y-96622290D01*
X153098500Y-97326450D01*
X153257250Y-97485200D01*
X154470100Y-97485200D01*
X154470100Y-97465200D01*
X154724100Y-97465200D01*
X154724100Y-97485200D01*
X154744100Y-97485200D01*
X154744100Y-97739200D01*
X154724100Y-97739200D01*
X154724100Y-97759200D01*
X154470100Y-97759200D01*
X154470100Y-97739200D01*
X153257250Y-97739200D01*
X153098500Y-97897950D01*
X153098500Y-98602110D01*
X153195173Y-98835499D01*
X153373802Y-99014127D01*
X153529123Y-99078463D01*
X153508071Y-99092530D01*
X153183215Y-99578711D01*
X153069141Y-100152200D01*
X153183215Y-100725689D01*
X153508071Y-101211870D01*
X153994252Y-101536726D01*
X154567741Y-101650800D01*
X154626459Y-101650800D01*
X154953098Y-101585828D01*
X156210000Y-102842731D01*
X156210000Y-104839232D01*
X155904204Y-104532902D01*
X155413713Y-104329232D01*
X154882617Y-104328769D01*
X154391771Y-104531582D01*
X154015902Y-104906796D01*
X153812232Y-105397287D01*
X153811769Y-105928383D01*
X154014582Y-106419229D01*
X154389796Y-106795098D01*
X154880287Y-106998768D01*
X155411383Y-106999231D01*
X155902229Y-106796418D01*
X156210000Y-106489183D01*
X156210000Y-108754638D01*
X155900404Y-108444502D01*
X155409913Y-108240832D01*
X154878817Y-108240369D01*
X154387971Y-108443182D01*
X154012102Y-108818396D01*
X153808432Y-109308887D01*
X153807969Y-109839983D01*
X154010782Y-110330829D01*
X154385996Y-110706698D01*
X154876487Y-110910368D01*
X155407583Y-110910831D01*
X155898429Y-110708018D01*
X156210000Y-110396990D01*
X156210000Y-113811130D01*
X156152418Y-113671771D01*
X155777204Y-113295902D01*
X155286713Y-113092232D01*
X154755617Y-113091769D01*
X154264771Y-113294582D01*
X153888902Y-113669796D01*
X153685232Y-114160287D01*
X153684769Y-114691383D01*
X153887582Y-115182229D01*
X154262796Y-115558098D01*
X154753287Y-115761768D01*
X155284383Y-115762231D01*
X155775229Y-115559418D01*
X156151098Y-115184204D01*
X156210000Y-115042352D01*
X156210000Y-115671600D01*
X156268004Y-115963205D01*
X156424753Y-116197796D01*
X156433185Y-116210415D01*
X158388985Y-118166215D01*
X158636195Y-118331396D01*
X158927800Y-118389400D01*
X166414930Y-118389400D01*
X166482138Y-118552055D01*
X166941527Y-119012246D01*
X167542053Y-119261606D01*
X168192294Y-119262174D01*
X168793255Y-119013862D01*
X169027963Y-118779563D01*
X174516043Y-118779563D01*
X174614642Y-119046365D01*
X175224182Y-119272801D01*
X175873977Y-119248741D01*
X176362558Y-119046365D01*
X176461157Y-118779563D01*
X175488600Y-117807005D01*
X174516043Y-118779563D01*
X169027963Y-118779563D01*
X169253446Y-118554473D01*
X169502806Y-117953947D01*
X169503322Y-117362982D01*
X173843199Y-117362982D01*
X173867259Y-118012777D01*
X174069635Y-118501358D01*
X174336437Y-118599957D01*
X175308995Y-117627400D01*
X175668205Y-117627400D01*
X176640763Y-118599957D01*
X176907565Y-118501358D01*
X177134001Y-117891818D01*
X177109941Y-117242023D01*
X176907565Y-116753442D01*
X176640763Y-116654843D01*
X175668205Y-117627400D01*
X175308995Y-117627400D01*
X174336437Y-116654843D01*
X174069635Y-116753442D01*
X173843199Y-117362982D01*
X169503322Y-117362982D01*
X169503374Y-117303706D01*
X169255062Y-116702745D01*
X169027951Y-116475237D01*
X174516043Y-116475237D01*
X175488600Y-117447795D01*
X176461157Y-116475237D01*
X176362558Y-116208435D01*
X175753018Y-115981999D01*
X175103223Y-116006059D01*
X174614642Y-116208435D01*
X174516043Y-116475237D01*
X169027951Y-116475237D01*
X168795673Y-116242554D01*
X168195147Y-115993194D01*
X167544906Y-115992626D01*
X166943945Y-116240938D01*
X166483754Y-116700327D01*
X166415210Y-116865400D01*
X166025230Y-116865400D01*
X167404916Y-115485715D01*
X167567453Y-115553206D01*
X168217694Y-115553774D01*
X168818655Y-115305462D01*
X169053363Y-115071163D01*
X174541443Y-115071163D01*
X174640042Y-115337965D01*
X175249582Y-115564401D01*
X175899377Y-115540341D01*
X176387958Y-115337965D01*
X176486557Y-115071163D01*
X175514000Y-114098605D01*
X174541443Y-115071163D01*
X169053363Y-115071163D01*
X169278846Y-114846073D01*
X169528206Y-114245547D01*
X169528722Y-113654582D01*
X173868599Y-113654582D01*
X173892659Y-114304377D01*
X174095035Y-114792958D01*
X174361837Y-114891557D01*
X175334395Y-113919000D01*
X175693605Y-113919000D01*
X176666163Y-114891557D01*
X176932965Y-114792958D01*
X177159401Y-114183418D01*
X177135341Y-113533623D01*
X176932965Y-113045042D01*
X176666163Y-112946443D01*
X175693605Y-113919000D01*
X175334395Y-113919000D01*
X174361837Y-112946443D01*
X174095035Y-113045042D01*
X173868599Y-113654582D01*
X169528722Y-113654582D01*
X169528774Y-113595306D01*
X169280462Y-112994345D01*
X169053351Y-112766837D01*
X174541443Y-112766837D01*
X175514000Y-113739395D01*
X176486557Y-112766837D01*
X176387958Y-112500035D01*
X175778418Y-112273599D01*
X175128623Y-112297659D01*
X174640042Y-112500035D01*
X174541443Y-112766837D01*
X169053351Y-112766837D01*
X168821073Y-112534154D01*
X168220547Y-112284794D01*
X167570306Y-112284226D01*
X166969345Y-112532538D01*
X166509154Y-112991927D01*
X166259794Y-113592453D01*
X166259226Y-114242694D01*
X166327482Y-114407887D01*
X164987570Y-115747800D01*
X160861579Y-115747800D01*
X160955317Y-115730162D01*
X161171441Y-115591090D01*
X161316431Y-115378890D01*
X161367440Y-115127000D01*
X161367440Y-113727000D01*
X161323162Y-113491683D01*
X161184090Y-113275559D01*
X160971890Y-113130569D01*
X160720000Y-113079560D01*
X159320000Y-113079560D01*
X159084683Y-113123838D01*
X159054800Y-113143067D01*
X159054800Y-110785225D01*
X159083502Y-110813927D01*
X159316891Y-110910600D01*
X159857450Y-110910600D01*
X160016200Y-110751850D01*
X160016200Y-109702600D01*
X160270200Y-109702600D01*
X160270200Y-110751850D01*
X160428950Y-110910600D01*
X160969509Y-110910600D01*
X161202898Y-110813927D01*
X161381527Y-110635299D01*
X161478200Y-110401910D01*
X161478200Y-109861350D01*
X161319450Y-109702600D01*
X160270200Y-109702600D01*
X160016200Y-109702600D01*
X159996200Y-109702600D01*
X159996200Y-109448600D01*
X160016200Y-109448600D01*
X160016200Y-108399350D01*
X160270200Y-108399350D01*
X160270200Y-109448600D01*
X161319450Y-109448600D01*
X161478200Y-109289850D01*
X161478200Y-108749290D01*
X161381527Y-108515901D01*
X161202898Y-108337273D01*
X160969509Y-108240600D01*
X160428950Y-108240600D01*
X160270200Y-108399350D01*
X160016200Y-108399350D01*
X159857450Y-108240600D01*
X159316891Y-108240600D01*
X159083502Y-108337273D01*
X159054800Y-108365975D01*
X159054800Y-106864561D01*
X159195110Y-106960431D01*
X159447000Y-107011440D01*
X160847000Y-107011440D01*
X161082317Y-106967162D01*
X161298441Y-106828090D01*
X161443431Y-106615890D01*
X161494440Y-106364000D01*
X161494440Y-105384600D01*
X163920117Y-105384600D01*
X163986541Y-105451140D01*
X164345830Y-105600330D01*
X164734863Y-105600669D01*
X165094412Y-105452107D01*
X165369740Y-105177259D01*
X165518930Y-104817970D01*
X165519269Y-104428937D01*
X165370707Y-104069388D01*
X165095859Y-103794060D01*
X164736570Y-103644870D01*
X164347537Y-103644531D01*
X163987988Y-103793093D01*
X163920363Y-103860600D01*
X161137600Y-103860600D01*
X160845995Y-103918604D01*
X160622497Y-104067941D01*
X160598785Y-104083785D01*
X160366010Y-104316560D01*
X159447000Y-104316560D01*
X159211683Y-104360838D01*
X159054800Y-104461789D01*
X159054800Y-102529214D01*
X158996796Y-102237609D01*
X158889821Y-102077510D01*
X158831616Y-101990399D01*
X158122398Y-101281181D01*
X158226129Y-101211870D01*
X158407100Y-100941028D01*
X158588071Y-101211870D01*
X159074252Y-101536726D01*
X159647741Y-101650800D01*
X159706459Y-101650800D01*
X160279948Y-101536726D01*
X160766129Y-101211870D01*
X160947100Y-100941028D01*
X161128071Y-101211870D01*
X161614252Y-101536726D01*
X162187741Y-101650800D01*
X162246459Y-101650800D01*
X162819948Y-101536726D01*
X163306129Y-101211870D01*
X163487100Y-100941028D01*
X163668071Y-101211870D01*
X164154252Y-101536726D01*
X164727741Y-101650800D01*
X164786459Y-101650800D01*
X165359948Y-101536726D01*
X165846129Y-101211870D01*
X166027100Y-100941028D01*
X166208071Y-101211870D01*
X166694252Y-101536726D01*
X167267741Y-101650800D01*
X167326459Y-101650800D01*
X167899948Y-101536726D01*
X168386129Y-101211870D01*
X168710985Y-100725689D01*
X168808400Y-100235950D01*
X168808400Y-105348370D01*
X167977835Y-106178935D01*
X167901285Y-106230084D01*
X165736957Y-108394413D01*
X165642937Y-108394331D01*
X165283388Y-108542893D01*
X165008060Y-108817741D01*
X164858870Y-109177030D01*
X164858531Y-109566063D01*
X165007093Y-109925612D01*
X165281941Y-110200940D01*
X165641230Y-110350130D01*
X166030263Y-110350469D01*
X166389812Y-110201907D01*
X166665140Y-109927059D01*
X166814330Y-109567770D01*
X166814413Y-109472217D01*
X166857080Y-109429550D01*
X171613600Y-109429550D01*
X171613600Y-109970109D01*
X171710273Y-110203498D01*
X171888901Y-110382127D01*
X172122290Y-110478800D01*
X172662850Y-110478800D01*
X172821600Y-110320050D01*
X172821600Y-109270800D01*
X173075600Y-109270800D01*
X173075600Y-110320050D01*
X173234350Y-110478800D01*
X173774910Y-110478800D01*
X174008299Y-110382127D01*
X174186927Y-110203498D01*
X174283600Y-109970109D01*
X174283600Y-109429550D01*
X174124850Y-109270800D01*
X173075600Y-109270800D01*
X172821600Y-109270800D01*
X171772350Y-109270800D01*
X171613600Y-109429550D01*
X166857080Y-109429550D01*
X167969139Y-108317491D01*
X171613600Y-108317491D01*
X171613600Y-108858050D01*
X171772350Y-109016800D01*
X172821600Y-109016800D01*
X172821600Y-107967550D01*
X173075600Y-107967550D01*
X173075600Y-109016800D01*
X174124850Y-109016800D01*
X174283600Y-108858050D01*
X174283600Y-108317491D01*
X174186927Y-108084102D01*
X174008299Y-107905473D01*
X173774910Y-107808800D01*
X173234350Y-107808800D01*
X173075600Y-107967550D01*
X172821600Y-107967550D01*
X172662850Y-107808800D01*
X172122290Y-107808800D01*
X171888901Y-107905473D01*
X171710273Y-108084102D01*
X171613600Y-108317491D01*
X167969139Y-108317491D01*
X168927771Y-107358860D01*
X169004316Y-107307714D01*
X170109215Y-106202815D01*
X170274396Y-105955605D01*
X170284501Y-105904804D01*
X170332400Y-105664000D01*
X170332400Y-104408183D01*
X171613369Y-104408183D01*
X171816182Y-104899029D01*
X172191396Y-105274898D01*
X172681887Y-105478568D01*
X173212983Y-105479031D01*
X173703829Y-105276218D01*
X174079698Y-104901004D01*
X174283368Y-104410513D01*
X174283831Y-103879417D01*
X174081018Y-103388571D01*
X173705804Y-103012702D01*
X173215313Y-102809032D01*
X172684217Y-102808569D01*
X172193371Y-103011382D01*
X171817502Y-103386596D01*
X171613832Y-103877087D01*
X171613369Y-104408183D01*
X170332400Y-104408183D01*
X170332400Y-99885500D01*
X170274396Y-99593895D01*
X170138292Y-99390201D01*
X170109216Y-99346685D01*
X168750345Y-97987814D01*
X168825059Y-97612200D01*
X168710985Y-97038711D01*
X168386129Y-96552530D01*
X167899948Y-96227674D01*
X167454153Y-96139000D01*
X178435000Y-96139000D01*
X178435000Y-126111000D01*
X152527000Y-126111000D01*
X152527000Y-96139000D01*
X153545870Y-96139000D01*
X153373802Y-96210273D01*
M02*
