G04 #@! TF.FileFunction,Copper,L1,Top,Signal*
%FSLAX46Y46*%
G04 Gerber Fmt 4.6, Leading zero omitted, Abs format (unit mm)*
G04 Created by KiCad (PCBNEW 4.0.1-3.201512221402+6198~38~ubuntu14.04.1-stable) date Sun 07 Feb 2016 08:00:25 PM PST*
%MOMM*%
G01*
G04 APERTURE LIST*
%ADD10C,0.100000*%
%ADD11R,0.850000X0.300000*%
%ADD12R,0.300000X0.850000*%
%ADD13R,1.727200X1.727200*%
%ADD14O,1.727200X1.727200*%
%ADD15R,1.400000X1.400000*%
%ADD16C,1.400000*%
%ADD17C,1.998980*%
%ADD18C,0.685800*%
%ADD19C,0.152400*%
%ADD20C,0.762000*%
%ADD21C,0.254000*%
G04 APERTURE END LIST*
D10*
D11*
X167120400Y-110094400D03*
X167120400Y-109594400D03*
X167120400Y-109094400D03*
X167120400Y-108594400D03*
X167120400Y-108094400D03*
X167120400Y-107594400D03*
D12*
X166420400Y-106894400D03*
X165920400Y-106894400D03*
X165420400Y-106894400D03*
X164920400Y-106894400D03*
X164420400Y-106894400D03*
X163920400Y-106894400D03*
D11*
X163220400Y-107594400D03*
X163220400Y-108094400D03*
X163220400Y-108594400D03*
X163220400Y-109094400D03*
X163220400Y-109594400D03*
X163220400Y-110094400D03*
D12*
X163920400Y-110794400D03*
X164420400Y-110794400D03*
X164920400Y-110794400D03*
X165420400Y-110794400D03*
X165920400Y-110794400D03*
X166420400Y-110794400D03*
D13*
X154597100Y-97612200D03*
D14*
X154597100Y-100152200D03*
X157137100Y-97612200D03*
X157137100Y-100152200D03*
X159677100Y-97612200D03*
X159677100Y-100152200D03*
X162217100Y-97612200D03*
X162217100Y-100152200D03*
X164757100Y-97612200D03*
X164757100Y-100152200D03*
X167297100Y-97612200D03*
X167297100Y-100152200D03*
D15*
X172948600Y-109143800D03*
D16*
X172948600Y-104143800D03*
D15*
X160143200Y-109575600D03*
D16*
X155143200Y-109575600D03*
D15*
X160147000Y-105664000D03*
D16*
X155147000Y-105664000D03*
D15*
X160020000Y-114427000D03*
D16*
X155020000Y-114427000D03*
D17*
X175488600Y-117627400D03*
X167868600Y-117627400D03*
X175514000Y-113919000D03*
X167894000Y-113919000D03*
D18*
X166042720Y-105525159D03*
X168680000Y-109094400D03*
X161798000Y-107594400D03*
X164541200Y-104622600D03*
X165836600Y-109372400D03*
D19*
X165920400Y-105647479D02*
X166042720Y-105525159D01*
X165920400Y-106894400D02*
X165920400Y-105647479D01*
D20*
X160143200Y-109575600D02*
X160143200Y-109249200D01*
X160143200Y-109249200D02*
X161798000Y-107594400D01*
X168680000Y-109094400D02*
X172899200Y-109094400D01*
X172899200Y-109094400D02*
X172948600Y-109143800D01*
D19*
X167120400Y-109094400D02*
X168680000Y-109094400D01*
X163220400Y-107594400D02*
X161798000Y-107594400D01*
X163144200Y-111480600D02*
X163118800Y-111506000D01*
D21*
X163220400Y-110094400D02*
X163220400Y-111404400D01*
X163220400Y-111404400D02*
X163144200Y-111480600D01*
X163220400Y-110094400D02*
X162215200Y-110094400D01*
X163220400Y-109594400D02*
X162211000Y-109594400D01*
X162211000Y-109594400D02*
X162204400Y-109601000D01*
X162204400Y-108610400D02*
X162026600Y-108788200D01*
X162525400Y-108610400D02*
X162204400Y-108610400D01*
X163220400Y-108594400D02*
X162541400Y-108594400D01*
X162541400Y-108594400D02*
X162525400Y-108610400D01*
X163220400Y-110094400D02*
X163220400Y-109594400D01*
X163220400Y-109594400D02*
X164192200Y-109594400D01*
X164192200Y-109594400D02*
X164211000Y-109575600D01*
X163899400Y-108594400D02*
X164178998Y-108594400D01*
X164178998Y-108594400D02*
X164211000Y-108626402D01*
X164204399Y-109568999D02*
X164211000Y-109575600D01*
X163220400Y-108594400D02*
X163899400Y-108594400D01*
X164211000Y-108626402D02*
X164211000Y-109575600D01*
D19*
X162627000Y-108610400D02*
X162229800Y-108610400D01*
X163220400Y-108594400D02*
X162643000Y-108594400D01*
X162643000Y-108594400D02*
X162627000Y-108610400D01*
D21*
X164920400Y-106894400D02*
X164920400Y-105001800D01*
X164920400Y-105001800D02*
X164541200Y-104622600D01*
X160020000Y-114427000D02*
X161466800Y-114427000D01*
X161466800Y-114427000D02*
X164420400Y-111473400D01*
X164420400Y-111473400D02*
X164420400Y-110794400D01*
X170180000Y-113004600D02*
X170180000Y-115316000D01*
X170180000Y-115316000D02*
X167868600Y-117627400D01*
X169172891Y-111997491D02*
X170180000Y-113004600D01*
X169037000Y-111836200D02*
X169172891Y-111972091D01*
X169172891Y-111972091D02*
X169172891Y-111997491D01*
X166783200Y-111836200D02*
X169037000Y-111836200D01*
X166420400Y-110794400D02*
X166420400Y-111473400D01*
X166420400Y-111473400D02*
X166783200Y-111836200D01*
X165920400Y-110794400D02*
X165920400Y-111945400D01*
X165920400Y-111945400D02*
X167894000Y-113919000D01*
X165420400Y-103565600D02*
X167297100Y-101688900D01*
X167297100Y-101688900D02*
X167297100Y-100152200D01*
X165420400Y-106894400D02*
X165420400Y-103565600D01*
X164420400Y-106894400D02*
X164420400Y-105771800D01*
X164420400Y-105771800D02*
X163880800Y-105232200D01*
X163880800Y-105232200D02*
X163893501Y-105219499D01*
X163893501Y-105219499D02*
X163893501Y-101015799D01*
X163893501Y-101015799D02*
X164757100Y-100152200D01*
X163920400Y-106894400D02*
X163920400Y-106215400D01*
X163920400Y-106215400D02*
X162217100Y-104512100D01*
X162217100Y-104512100D02*
X162217100Y-101373514D01*
X162217100Y-101373514D02*
X162217100Y-100152200D01*
X165430200Y-110105600D02*
X165430200Y-109778800D01*
X165430200Y-109778800D02*
X165836600Y-109372400D01*
X165420400Y-110794400D02*
X165420400Y-110115400D01*
X165420400Y-110115400D02*
X165430200Y-110105600D01*
G36*
X153498183Y-96145438D02*
X153282059Y-96284510D01*
X153137069Y-96496710D01*
X153086060Y-96748600D01*
X153086060Y-98475800D01*
X153130338Y-98711117D01*
X153269410Y-98927241D01*
X153481610Y-99072231D01*
X153525231Y-99081064D01*
X153508071Y-99092530D01*
X153183215Y-99578711D01*
X153069141Y-100152200D01*
X153183215Y-100725689D01*
X153508071Y-101211870D01*
X153994252Y-101536726D01*
X154567741Y-101650800D01*
X154626459Y-101650800D01*
X155199948Y-101536726D01*
X155686129Y-101211870D01*
X155867100Y-100941028D01*
X156048071Y-101211870D01*
X156534252Y-101536726D01*
X157107741Y-101650800D01*
X157166459Y-101650800D01*
X157739948Y-101536726D01*
X158226129Y-101211870D01*
X158407092Y-100941039D01*
X158788610Y-101359021D01*
X159318073Y-101607168D01*
X159550100Y-101486669D01*
X159550100Y-100279200D01*
X159530100Y-100279200D01*
X159530100Y-100025200D01*
X159550100Y-100025200D01*
X159550100Y-100005200D01*
X159804100Y-100005200D01*
X159804100Y-100025200D01*
X159824100Y-100025200D01*
X159824100Y-100279200D01*
X159804100Y-100279200D01*
X159804100Y-101486669D01*
X160036127Y-101607168D01*
X160565590Y-101359021D01*
X160947108Y-100941039D01*
X161128071Y-101211870D01*
X161455100Y-101430384D01*
X161455100Y-104512100D01*
X161513104Y-104803705D01*
X161604572Y-104940596D01*
X161678285Y-105050915D01*
X163122960Y-106495590D01*
X163122960Y-106796960D01*
X162795400Y-106796960D01*
X162560083Y-106841238D01*
X162511355Y-106872594D01*
X162354748Y-106767952D01*
X162352659Y-106765860D01*
X162349904Y-106764716D01*
X162186807Y-106655738D01*
X161996103Y-106617805D01*
X161993370Y-106616670D01*
X161990384Y-106616667D01*
X161798000Y-106578400D01*
X161607294Y-106616334D01*
X161604337Y-106616331D01*
X161601580Y-106617470D01*
X161417307Y-106654124D01*
X161443431Y-106615890D01*
X161494440Y-106364000D01*
X161494440Y-104964000D01*
X161450162Y-104728683D01*
X161311090Y-104512559D01*
X161098890Y-104367569D01*
X160847000Y-104316560D01*
X159447000Y-104316560D01*
X159211683Y-104360838D01*
X158995559Y-104499910D01*
X158850569Y-104712110D01*
X158799560Y-104964000D01*
X158799560Y-106364000D01*
X158843838Y-106599317D01*
X158982910Y-106815441D01*
X159195110Y-106960431D01*
X159447000Y-107011440D01*
X160847000Y-107011440D01*
X160966629Y-106988930D01*
X159727400Y-108228160D01*
X159443200Y-108228160D01*
X159207883Y-108272438D01*
X158991759Y-108411510D01*
X158846769Y-108623710D01*
X158795760Y-108875600D01*
X158795760Y-110275600D01*
X158840038Y-110510917D01*
X158979110Y-110727041D01*
X159191310Y-110872031D01*
X159443200Y-110923040D01*
X160843200Y-110923040D01*
X161078517Y-110878762D01*
X161294641Y-110739690D01*
X161439631Y-110527490D01*
X161490640Y-110275600D01*
X161490640Y-109338600D01*
X162160400Y-108668841D01*
X162160400Y-108721402D01*
X162193118Y-108721402D01*
X162174320Y-108814230D01*
X162160400Y-108828150D01*
X162160400Y-108870710D01*
X162162067Y-108874735D01*
X162147960Y-108944400D01*
X162147960Y-109244400D01*
X162161380Y-109315723D01*
X162160400Y-109318090D01*
X162160400Y-109360650D01*
X162172021Y-109372271D01*
X162192238Y-109479717D01*
X162258728Y-109583046D01*
X162257073Y-109584701D01*
X162160400Y-109818090D01*
X162160400Y-109870710D01*
X162257073Y-110104099D01*
X162322374Y-110169400D01*
X162319150Y-110169400D01*
X162160400Y-110328150D01*
X162160400Y-110370710D01*
X162257073Y-110604099D01*
X162435702Y-110782727D01*
X162669091Y-110879400D01*
X162934650Y-110879400D01*
X163093398Y-110720652D01*
X163093398Y-110879400D01*
X163122960Y-110879400D01*
X163122960Y-111219400D01*
X163167238Y-111454717D01*
X163243280Y-111572890D01*
X161323372Y-113492798D01*
X161323162Y-113491683D01*
X161184090Y-113275559D01*
X160971890Y-113130569D01*
X160720000Y-113079560D01*
X159320000Y-113079560D01*
X159084683Y-113123838D01*
X158868559Y-113262910D01*
X158723569Y-113475110D01*
X158672560Y-113727000D01*
X158672560Y-115127000D01*
X158716838Y-115362317D01*
X158855910Y-115578441D01*
X159068110Y-115723431D01*
X159320000Y-115774440D01*
X160720000Y-115774440D01*
X160955317Y-115730162D01*
X161171441Y-115591090D01*
X161316431Y-115378890D01*
X161354885Y-115189000D01*
X161466800Y-115189000D01*
X161758405Y-115130996D01*
X162005615Y-114965815D01*
X164959215Y-112012215D01*
X165056352Y-111866840D01*
X165070400Y-111866840D01*
X165158400Y-111850282D01*
X165158400Y-111945400D01*
X165216404Y-112237005D01*
X165369270Y-112465784D01*
X165381585Y-112484215D01*
X166327285Y-113429915D01*
X166259794Y-113592453D01*
X166259226Y-114242694D01*
X166507538Y-114843655D01*
X166966927Y-115303846D01*
X167567453Y-115553206D01*
X168217694Y-115553774D01*
X168818655Y-115305462D01*
X169278846Y-114846073D01*
X169418000Y-114510953D01*
X169418000Y-115000369D01*
X168357684Y-116060685D01*
X168195147Y-115993194D01*
X167544906Y-115992626D01*
X166943945Y-116240938D01*
X166483754Y-116700327D01*
X166234394Y-117300853D01*
X166233826Y-117951094D01*
X166482138Y-118552055D01*
X166941527Y-119012246D01*
X167542053Y-119261606D01*
X168192294Y-119262174D01*
X168793255Y-119013862D01*
X169253446Y-118554473D01*
X169502806Y-117953947D01*
X169502808Y-117951094D01*
X173853826Y-117951094D01*
X174102138Y-118552055D01*
X174561527Y-119012246D01*
X175162053Y-119261606D01*
X175812294Y-119262174D01*
X176413255Y-119013862D01*
X176873446Y-118554473D01*
X177122806Y-117953947D01*
X177123374Y-117303706D01*
X176875062Y-116702745D01*
X176415673Y-116242554D01*
X175815147Y-115993194D01*
X175164906Y-115992626D01*
X174563945Y-116240938D01*
X174103754Y-116700327D01*
X173854394Y-117300853D01*
X173853826Y-117951094D01*
X169502808Y-117951094D01*
X169503374Y-117303706D01*
X169435118Y-117138513D01*
X170718815Y-115854816D01*
X170883996Y-115607605D01*
X170889797Y-115578441D01*
X170942000Y-115316000D01*
X170942000Y-114242694D01*
X173879226Y-114242694D01*
X174127538Y-114843655D01*
X174586927Y-115303846D01*
X175187453Y-115553206D01*
X175837694Y-115553774D01*
X176438655Y-115305462D01*
X176898846Y-114846073D01*
X177148206Y-114245547D01*
X177148774Y-113595306D01*
X176900462Y-112994345D01*
X176441073Y-112534154D01*
X175840547Y-112284794D01*
X175190306Y-112284226D01*
X174589345Y-112532538D01*
X174129154Y-112991927D01*
X173879794Y-113592453D01*
X173879226Y-114242694D01*
X170942000Y-114242694D01*
X170942000Y-113004600D01*
X170883996Y-112712995D01*
X170859335Y-112676087D01*
X170718815Y-112465784D01*
X169762854Y-111509824D01*
X169711706Y-111433276D01*
X169575815Y-111297385D01*
X169569993Y-111293495D01*
X169328605Y-111132204D01*
X169037000Y-111074200D01*
X167217840Y-111074200D01*
X167217840Y-110891840D01*
X167545400Y-110891840D01*
X167780717Y-110847562D01*
X167996841Y-110708490D01*
X168141831Y-110496290D01*
X168192840Y-110244400D01*
X168192840Y-109967344D01*
X168291194Y-110033062D01*
X168481896Y-110070995D01*
X168484630Y-110072130D01*
X168487616Y-110072133D01*
X168680000Y-110110400D01*
X171665568Y-110110400D01*
X171784510Y-110295241D01*
X171996710Y-110440231D01*
X172248600Y-110491240D01*
X173648600Y-110491240D01*
X173883917Y-110446962D01*
X174100041Y-110307890D01*
X174245031Y-110095690D01*
X174296040Y-109843800D01*
X174296040Y-108443800D01*
X174251762Y-108208483D01*
X174112690Y-107992359D01*
X173900490Y-107847369D01*
X173648600Y-107796360D01*
X172248600Y-107796360D01*
X172013283Y-107840638D01*
X171797159Y-107979710D01*
X171729727Y-108078400D01*
X168680000Y-108078400D01*
X168489294Y-108116334D01*
X168486337Y-108116331D01*
X168483580Y-108117470D01*
X168291194Y-108155738D01*
X168192840Y-108221456D01*
X168192840Y-107944400D01*
X168173333Y-107840729D01*
X168192840Y-107744400D01*
X168192840Y-107444400D01*
X168148562Y-107209083D01*
X168009490Y-106992959D01*
X167797290Y-106847969D01*
X167545400Y-106796960D01*
X167217840Y-106796960D01*
X167217840Y-106469400D01*
X167173562Y-106234083D01*
X167034490Y-106017959D01*
X166927345Y-105944750D01*
X167020450Y-105720529D01*
X167020789Y-105331496D01*
X166916492Y-105079075D01*
X172192931Y-105079075D01*
X172254769Y-105314842D01*
X172755722Y-105491219D01*
X173286040Y-105462464D01*
X173642431Y-105314842D01*
X173704269Y-105079075D01*
X172948600Y-104323405D01*
X172192931Y-105079075D01*
X166916492Y-105079075D01*
X166872227Y-104971947D01*
X166597379Y-104696619D01*
X166238090Y-104547429D01*
X166182400Y-104547380D01*
X166182400Y-103950922D01*
X171601181Y-103950922D01*
X171629936Y-104481240D01*
X171777558Y-104837631D01*
X172013325Y-104899469D01*
X172768995Y-104143800D01*
X173128205Y-104143800D01*
X173883875Y-104899469D01*
X174119642Y-104837631D01*
X174296019Y-104336678D01*
X174267264Y-103806360D01*
X174119642Y-103449969D01*
X173883875Y-103388131D01*
X173128205Y-104143800D01*
X172768995Y-104143800D01*
X172013325Y-103388131D01*
X171777558Y-103449969D01*
X171601181Y-103950922D01*
X166182400Y-103950922D01*
X166182400Y-103881230D01*
X166855105Y-103208525D01*
X172192931Y-103208525D01*
X172948600Y-103964195D01*
X173704269Y-103208525D01*
X173642431Y-102972758D01*
X173141478Y-102796381D01*
X172611160Y-102825136D01*
X172254769Y-102972758D01*
X172192931Y-103208525D01*
X166855105Y-103208525D01*
X167835916Y-102227715D01*
X168001097Y-101980504D01*
X168059100Y-101688900D01*
X168059100Y-101430384D01*
X168386129Y-101211870D01*
X168710985Y-100725689D01*
X168825059Y-100152200D01*
X168710985Y-99578711D01*
X168386129Y-99092530D01*
X168071348Y-98882200D01*
X168386129Y-98671870D01*
X168710985Y-98185689D01*
X168825059Y-97612200D01*
X168710985Y-97038711D01*
X168386129Y-96552530D01*
X167899948Y-96227674D01*
X167454153Y-96139000D01*
X178435000Y-96139000D01*
X178435000Y-126111000D01*
X152527000Y-126111000D01*
X152527000Y-115362275D01*
X154264331Y-115362275D01*
X154326169Y-115598042D01*
X154827122Y-115774419D01*
X155357440Y-115745664D01*
X155713831Y-115598042D01*
X155775669Y-115362275D01*
X155020000Y-114606605D01*
X154264331Y-115362275D01*
X152527000Y-115362275D01*
X152527000Y-114234122D01*
X153672581Y-114234122D01*
X153701336Y-114764440D01*
X153848958Y-115120831D01*
X154084725Y-115182669D01*
X154840395Y-114427000D01*
X155199605Y-114427000D01*
X155955275Y-115182669D01*
X156191042Y-115120831D01*
X156367419Y-114619878D01*
X156338664Y-114089560D01*
X156191042Y-113733169D01*
X155955275Y-113671331D01*
X155199605Y-114427000D01*
X154840395Y-114427000D01*
X154084725Y-113671331D01*
X153848958Y-113733169D01*
X153672581Y-114234122D01*
X152527000Y-114234122D01*
X152527000Y-113491725D01*
X154264331Y-113491725D01*
X155020000Y-114247395D01*
X155775669Y-113491725D01*
X155713831Y-113255958D01*
X155212878Y-113079581D01*
X154682560Y-113108336D01*
X154326169Y-113255958D01*
X154264331Y-113491725D01*
X152527000Y-113491725D01*
X152527000Y-110510875D01*
X154387531Y-110510875D01*
X154449369Y-110746642D01*
X154950322Y-110923019D01*
X155480640Y-110894264D01*
X155837031Y-110746642D01*
X155898869Y-110510875D01*
X155143200Y-109755205D01*
X154387531Y-110510875D01*
X152527000Y-110510875D01*
X152527000Y-109382722D01*
X153795781Y-109382722D01*
X153824536Y-109913040D01*
X153972158Y-110269431D01*
X154207925Y-110331269D01*
X154963595Y-109575600D01*
X155322805Y-109575600D01*
X156078475Y-110331269D01*
X156314242Y-110269431D01*
X156490619Y-109768478D01*
X156461864Y-109238160D01*
X156314242Y-108881769D01*
X156078475Y-108819931D01*
X155322805Y-109575600D01*
X154963595Y-109575600D01*
X154207925Y-108819931D01*
X153972158Y-108881769D01*
X153795781Y-109382722D01*
X152527000Y-109382722D01*
X152527000Y-108640325D01*
X154387531Y-108640325D01*
X155143200Y-109395995D01*
X155898869Y-108640325D01*
X155837031Y-108404558D01*
X155336078Y-108228181D01*
X154805760Y-108256936D01*
X154449369Y-108404558D01*
X154387531Y-108640325D01*
X152527000Y-108640325D01*
X152527000Y-106599275D01*
X154391331Y-106599275D01*
X154453169Y-106835042D01*
X154954122Y-107011419D01*
X155484440Y-106982664D01*
X155840831Y-106835042D01*
X155902669Y-106599275D01*
X155147000Y-105843605D01*
X154391331Y-106599275D01*
X152527000Y-106599275D01*
X152527000Y-105471122D01*
X153799581Y-105471122D01*
X153828336Y-106001440D01*
X153975958Y-106357831D01*
X154211725Y-106419669D01*
X154967395Y-105664000D01*
X155326605Y-105664000D01*
X156082275Y-106419669D01*
X156318042Y-106357831D01*
X156494419Y-105856878D01*
X156465664Y-105326560D01*
X156318042Y-104970169D01*
X156082275Y-104908331D01*
X155326605Y-105664000D01*
X154967395Y-105664000D01*
X154211725Y-104908331D01*
X153975958Y-104970169D01*
X153799581Y-105471122D01*
X152527000Y-105471122D01*
X152527000Y-104728725D01*
X154391331Y-104728725D01*
X155147000Y-105484395D01*
X155902669Y-104728725D01*
X155840831Y-104492958D01*
X155339878Y-104316581D01*
X154809560Y-104345336D01*
X154453169Y-104492958D01*
X154391331Y-104728725D01*
X152527000Y-104728725D01*
X152527000Y-96139000D01*
X153532398Y-96139000D01*
X153498183Y-96145438D01*
X153498183Y-96145438D01*
G37*
X153498183Y-96145438D02*
X153282059Y-96284510D01*
X153137069Y-96496710D01*
X153086060Y-96748600D01*
X153086060Y-98475800D01*
X153130338Y-98711117D01*
X153269410Y-98927241D01*
X153481610Y-99072231D01*
X153525231Y-99081064D01*
X153508071Y-99092530D01*
X153183215Y-99578711D01*
X153069141Y-100152200D01*
X153183215Y-100725689D01*
X153508071Y-101211870D01*
X153994252Y-101536726D01*
X154567741Y-101650800D01*
X154626459Y-101650800D01*
X155199948Y-101536726D01*
X155686129Y-101211870D01*
X155867100Y-100941028D01*
X156048071Y-101211870D01*
X156534252Y-101536726D01*
X157107741Y-101650800D01*
X157166459Y-101650800D01*
X157739948Y-101536726D01*
X158226129Y-101211870D01*
X158407092Y-100941039D01*
X158788610Y-101359021D01*
X159318073Y-101607168D01*
X159550100Y-101486669D01*
X159550100Y-100279200D01*
X159530100Y-100279200D01*
X159530100Y-100025200D01*
X159550100Y-100025200D01*
X159550100Y-100005200D01*
X159804100Y-100005200D01*
X159804100Y-100025200D01*
X159824100Y-100025200D01*
X159824100Y-100279200D01*
X159804100Y-100279200D01*
X159804100Y-101486669D01*
X160036127Y-101607168D01*
X160565590Y-101359021D01*
X160947108Y-100941039D01*
X161128071Y-101211870D01*
X161455100Y-101430384D01*
X161455100Y-104512100D01*
X161513104Y-104803705D01*
X161604572Y-104940596D01*
X161678285Y-105050915D01*
X163122960Y-106495590D01*
X163122960Y-106796960D01*
X162795400Y-106796960D01*
X162560083Y-106841238D01*
X162511355Y-106872594D01*
X162354748Y-106767952D01*
X162352659Y-106765860D01*
X162349904Y-106764716D01*
X162186807Y-106655738D01*
X161996103Y-106617805D01*
X161993370Y-106616670D01*
X161990384Y-106616667D01*
X161798000Y-106578400D01*
X161607294Y-106616334D01*
X161604337Y-106616331D01*
X161601580Y-106617470D01*
X161417307Y-106654124D01*
X161443431Y-106615890D01*
X161494440Y-106364000D01*
X161494440Y-104964000D01*
X161450162Y-104728683D01*
X161311090Y-104512559D01*
X161098890Y-104367569D01*
X160847000Y-104316560D01*
X159447000Y-104316560D01*
X159211683Y-104360838D01*
X158995559Y-104499910D01*
X158850569Y-104712110D01*
X158799560Y-104964000D01*
X158799560Y-106364000D01*
X158843838Y-106599317D01*
X158982910Y-106815441D01*
X159195110Y-106960431D01*
X159447000Y-107011440D01*
X160847000Y-107011440D01*
X160966629Y-106988930D01*
X159727400Y-108228160D01*
X159443200Y-108228160D01*
X159207883Y-108272438D01*
X158991759Y-108411510D01*
X158846769Y-108623710D01*
X158795760Y-108875600D01*
X158795760Y-110275600D01*
X158840038Y-110510917D01*
X158979110Y-110727041D01*
X159191310Y-110872031D01*
X159443200Y-110923040D01*
X160843200Y-110923040D01*
X161078517Y-110878762D01*
X161294641Y-110739690D01*
X161439631Y-110527490D01*
X161490640Y-110275600D01*
X161490640Y-109338600D01*
X162160400Y-108668841D01*
X162160400Y-108721402D01*
X162193118Y-108721402D01*
X162174320Y-108814230D01*
X162160400Y-108828150D01*
X162160400Y-108870710D01*
X162162067Y-108874735D01*
X162147960Y-108944400D01*
X162147960Y-109244400D01*
X162161380Y-109315723D01*
X162160400Y-109318090D01*
X162160400Y-109360650D01*
X162172021Y-109372271D01*
X162192238Y-109479717D01*
X162258728Y-109583046D01*
X162257073Y-109584701D01*
X162160400Y-109818090D01*
X162160400Y-109870710D01*
X162257073Y-110104099D01*
X162322374Y-110169400D01*
X162319150Y-110169400D01*
X162160400Y-110328150D01*
X162160400Y-110370710D01*
X162257073Y-110604099D01*
X162435702Y-110782727D01*
X162669091Y-110879400D01*
X162934650Y-110879400D01*
X163093398Y-110720652D01*
X163093398Y-110879400D01*
X163122960Y-110879400D01*
X163122960Y-111219400D01*
X163167238Y-111454717D01*
X163243280Y-111572890D01*
X161323372Y-113492798D01*
X161323162Y-113491683D01*
X161184090Y-113275559D01*
X160971890Y-113130569D01*
X160720000Y-113079560D01*
X159320000Y-113079560D01*
X159084683Y-113123838D01*
X158868559Y-113262910D01*
X158723569Y-113475110D01*
X158672560Y-113727000D01*
X158672560Y-115127000D01*
X158716838Y-115362317D01*
X158855910Y-115578441D01*
X159068110Y-115723431D01*
X159320000Y-115774440D01*
X160720000Y-115774440D01*
X160955317Y-115730162D01*
X161171441Y-115591090D01*
X161316431Y-115378890D01*
X161354885Y-115189000D01*
X161466800Y-115189000D01*
X161758405Y-115130996D01*
X162005615Y-114965815D01*
X164959215Y-112012215D01*
X165056352Y-111866840D01*
X165070400Y-111866840D01*
X165158400Y-111850282D01*
X165158400Y-111945400D01*
X165216404Y-112237005D01*
X165369270Y-112465784D01*
X165381585Y-112484215D01*
X166327285Y-113429915D01*
X166259794Y-113592453D01*
X166259226Y-114242694D01*
X166507538Y-114843655D01*
X166966927Y-115303846D01*
X167567453Y-115553206D01*
X168217694Y-115553774D01*
X168818655Y-115305462D01*
X169278846Y-114846073D01*
X169418000Y-114510953D01*
X169418000Y-115000369D01*
X168357684Y-116060685D01*
X168195147Y-115993194D01*
X167544906Y-115992626D01*
X166943945Y-116240938D01*
X166483754Y-116700327D01*
X166234394Y-117300853D01*
X166233826Y-117951094D01*
X166482138Y-118552055D01*
X166941527Y-119012246D01*
X167542053Y-119261606D01*
X168192294Y-119262174D01*
X168793255Y-119013862D01*
X169253446Y-118554473D01*
X169502806Y-117953947D01*
X169502808Y-117951094D01*
X173853826Y-117951094D01*
X174102138Y-118552055D01*
X174561527Y-119012246D01*
X175162053Y-119261606D01*
X175812294Y-119262174D01*
X176413255Y-119013862D01*
X176873446Y-118554473D01*
X177122806Y-117953947D01*
X177123374Y-117303706D01*
X176875062Y-116702745D01*
X176415673Y-116242554D01*
X175815147Y-115993194D01*
X175164906Y-115992626D01*
X174563945Y-116240938D01*
X174103754Y-116700327D01*
X173854394Y-117300853D01*
X173853826Y-117951094D01*
X169502808Y-117951094D01*
X169503374Y-117303706D01*
X169435118Y-117138513D01*
X170718815Y-115854816D01*
X170883996Y-115607605D01*
X170889797Y-115578441D01*
X170942000Y-115316000D01*
X170942000Y-114242694D01*
X173879226Y-114242694D01*
X174127538Y-114843655D01*
X174586927Y-115303846D01*
X175187453Y-115553206D01*
X175837694Y-115553774D01*
X176438655Y-115305462D01*
X176898846Y-114846073D01*
X177148206Y-114245547D01*
X177148774Y-113595306D01*
X176900462Y-112994345D01*
X176441073Y-112534154D01*
X175840547Y-112284794D01*
X175190306Y-112284226D01*
X174589345Y-112532538D01*
X174129154Y-112991927D01*
X173879794Y-113592453D01*
X173879226Y-114242694D01*
X170942000Y-114242694D01*
X170942000Y-113004600D01*
X170883996Y-112712995D01*
X170859335Y-112676087D01*
X170718815Y-112465784D01*
X169762854Y-111509824D01*
X169711706Y-111433276D01*
X169575815Y-111297385D01*
X169569993Y-111293495D01*
X169328605Y-111132204D01*
X169037000Y-111074200D01*
X167217840Y-111074200D01*
X167217840Y-110891840D01*
X167545400Y-110891840D01*
X167780717Y-110847562D01*
X167996841Y-110708490D01*
X168141831Y-110496290D01*
X168192840Y-110244400D01*
X168192840Y-109967344D01*
X168291194Y-110033062D01*
X168481896Y-110070995D01*
X168484630Y-110072130D01*
X168487616Y-110072133D01*
X168680000Y-110110400D01*
X171665568Y-110110400D01*
X171784510Y-110295241D01*
X171996710Y-110440231D01*
X172248600Y-110491240D01*
X173648600Y-110491240D01*
X173883917Y-110446962D01*
X174100041Y-110307890D01*
X174245031Y-110095690D01*
X174296040Y-109843800D01*
X174296040Y-108443800D01*
X174251762Y-108208483D01*
X174112690Y-107992359D01*
X173900490Y-107847369D01*
X173648600Y-107796360D01*
X172248600Y-107796360D01*
X172013283Y-107840638D01*
X171797159Y-107979710D01*
X171729727Y-108078400D01*
X168680000Y-108078400D01*
X168489294Y-108116334D01*
X168486337Y-108116331D01*
X168483580Y-108117470D01*
X168291194Y-108155738D01*
X168192840Y-108221456D01*
X168192840Y-107944400D01*
X168173333Y-107840729D01*
X168192840Y-107744400D01*
X168192840Y-107444400D01*
X168148562Y-107209083D01*
X168009490Y-106992959D01*
X167797290Y-106847969D01*
X167545400Y-106796960D01*
X167217840Y-106796960D01*
X167217840Y-106469400D01*
X167173562Y-106234083D01*
X167034490Y-106017959D01*
X166927345Y-105944750D01*
X167020450Y-105720529D01*
X167020789Y-105331496D01*
X166916492Y-105079075D01*
X172192931Y-105079075D01*
X172254769Y-105314842D01*
X172755722Y-105491219D01*
X173286040Y-105462464D01*
X173642431Y-105314842D01*
X173704269Y-105079075D01*
X172948600Y-104323405D01*
X172192931Y-105079075D01*
X166916492Y-105079075D01*
X166872227Y-104971947D01*
X166597379Y-104696619D01*
X166238090Y-104547429D01*
X166182400Y-104547380D01*
X166182400Y-103950922D01*
X171601181Y-103950922D01*
X171629936Y-104481240D01*
X171777558Y-104837631D01*
X172013325Y-104899469D01*
X172768995Y-104143800D01*
X173128205Y-104143800D01*
X173883875Y-104899469D01*
X174119642Y-104837631D01*
X174296019Y-104336678D01*
X174267264Y-103806360D01*
X174119642Y-103449969D01*
X173883875Y-103388131D01*
X173128205Y-104143800D01*
X172768995Y-104143800D01*
X172013325Y-103388131D01*
X171777558Y-103449969D01*
X171601181Y-103950922D01*
X166182400Y-103950922D01*
X166182400Y-103881230D01*
X166855105Y-103208525D01*
X172192931Y-103208525D01*
X172948600Y-103964195D01*
X173704269Y-103208525D01*
X173642431Y-102972758D01*
X173141478Y-102796381D01*
X172611160Y-102825136D01*
X172254769Y-102972758D01*
X172192931Y-103208525D01*
X166855105Y-103208525D01*
X167835916Y-102227715D01*
X168001097Y-101980504D01*
X168059100Y-101688900D01*
X168059100Y-101430384D01*
X168386129Y-101211870D01*
X168710985Y-100725689D01*
X168825059Y-100152200D01*
X168710985Y-99578711D01*
X168386129Y-99092530D01*
X168071348Y-98882200D01*
X168386129Y-98671870D01*
X168710985Y-98185689D01*
X168825059Y-97612200D01*
X168710985Y-97038711D01*
X168386129Y-96552530D01*
X167899948Y-96227674D01*
X167454153Y-96139000D01*
X178435000Y-96139000D01*
X178435000Y-126111000D01*
X152527000Y-126111000D01*
X152527000Y-115362275D01*
X154264331Y-115362275D01*
X154326169Y-115598042D01*
X154827122Y-115774419D01*
X155357440Y-115745664D01*
X155713831Y-115598042D01*
X155775669Y-115362275D01*
X155020000Y-114606605D01*
X154264331Y-115362275D01*
X152527000Y-115362275D01*
X152527000Y-114234122D01*
X153672581Y-114234122D01*
X153701336Y-114764440D01*
X153848958Y-115120831D01*
X154084725Y-115182669D01*
X154840395Y-114427000D01*
X155199605Y-114427000D01*
X155955275Y-115182669D01*
X156191042Y-115120831D01*
X156367419Y-114619878D01*
X156338664Y-114089560D01*
X156191042Y-113733169D01*
X155955275Y-113671331D01*
X155199605Y-114427000D01*
X154840395Y-114427000D01*
X154084725Y-113671331D01*
X153848958Y-113733169D01*
X153672581Y-114234122D01*
X152527000Y-114234122D01*
X152527000Y-113491725D01*
X154264331Y-113491725D01*
X155020000Y-114247395D01*
X155775669Y-113491725D01*
X155713831Y-113255958D01*
X155212878Y-113079581D01*
X154682560Y-113108336D01*
X154326169Y-113255958D01*
X154264331Y-113491725D01*
X152527000Y-113491725D01*
X152527000Y-110510875D01*
X154387531Y-110510875D01*
X154449369Y-110746642D01*
X154950322Y-110923019D01*
X155480640Y-110894264D01*
X155837031Y-110746642D01*
X155898869Y-110510875D01*
X155143200Y-109755205D01*
X154387531Y-110510875D01*
X152527000Y-110510875D01*
X152527000Y-109382722D01*
X153795781Y-109382722D01*
X153824536Y-109913040D01*
X153972158Y-110269431D01*
X154207925Y-110331269D01*
X154963595Y-109575600D01*
X155322805Y-109575600D01*
X156078475Y-110331269D01*
X156314242Y-110269431D01*
X156490619Y-109768478D01*
X156461864Y-109238160D01*
X156314242Y-108881769D01*
X156078475Y-108819931D01*
X155322805Y-109575600D01*
X154963595Y-109575600D01*
X154207925Y-108819931D01*
X153972158Y-108881769D01*
X153795781Y-109382722D01*
X152527000Y-109382722D01*
X152527000Y-108640325D01*
X154387531Y-108640325D01*
X155143200Y-109395995D01*
X155898869Y-108640325D01*
X155837031Y-108404558D01*
X155336078Y-108228181D01*
X154805760Y-108256936D01*
X154449369Y-108404558D01*
X154387531Y-108640325D01*
X152527000Y-108640325D01*
X152527000Y-106599275D01*
X154391331Y-106599275D01*
X154453169Y-106835042D01*
X154954122Y-107011419D01*
X155484440Y-106982664D01*
X155840831Y-106835042D01*
X155902669Y-106599275D01*
X155147000Y-105843605D01*
X154391331Y-106599275D01*
X152527000Y-106599275D01*
X152527000Y-105471122D01*
X153799581Y-105471122D01*
X153828336Y-106001440D01*
X153975958Y-106357831D01*
X154211725Y-106419669D01*
X154967395Y-105664000D01*
X155326605Y-105664000D01*
X156082275Y-106419669D01*
X156318042Y-106357831D01*
X156494419Y-105856878D01*
X156465664Y-105326560D01*
X156318042Y-104970169D01*
X156082275Y-104908331D01*
X155326605Y-105664000D01*
X154967395Y-105664000D01*
X154211725Y-104908331D01*
X153975958Y-104970169D01*
X153799581Y-105471122D01*
X152527000Y-105471122D01*
X152527000Y-104728725D01*
X154391331Y-104728725D01*
X155147000Y-105484395D01*
X155902669Y-104728725D01*
X155840831Y-104492958D01*
X155339878Y-104316581D01*
X154809560Y-104345336D01*
X154453169Y-104492958D01*
X154391331Y-104728725D01*
X152527000Y-104728725D01*
X152527000Y-96139000D01*
X153532398Y-96139000D01*
X153498183Y-96145438D01*
G36*
X165770400Y-107966840D02*
X166047960Y-107966840D01*
X166047960Y-108244400D01*
X166067467Y-108348071D01*
X166056009Y-108404652D01*
X166031970Y-108394670D01*
X165642937Y-108394331D01*
X165283388Y-108542893D01*
X165008060Y-108817741D01*
X164858870Y-109177030D01*
X164858773Y-109288793D01*
X164726204Y-109487195D01*
X164675972Y-109739728D01*
X164666729Y-109741467D01*
X164570400Y-109721960D01*
X164270400Y-109721960D01*
X164242738Y-109727165D01*
X164183727Y-109584701D01*
X164182358Y-109583332D01*
X164241831Y-109496290D01*
X164266480Y-109374570D01*
X164280400Y-109360650D01*
X164280400Y-109318090D01*
X164278733Y-109314065D01*
X164292840Y-109244400D01*
X164292840Y-108944400D01*
X164279420Y-108873077D01*
X164280400Y-108870710D01*
X164280400Y-108828150D01*
X164268779Y-108816529D01*
X164248562Y-108709083D01*
X164174780Y-108594422D01*
X164241831Y-108496290D01*
X164266480Y-108374570D01*
X164280400Y-108360650D01*
X164280400Y-108318090D01*
X164278733Y-108314065D01*
X164292840Y-108244400D01*
X164292840Y-107966840D01*
X164570400Y-107966840D01*
X164674071Y-107947333D01*
X164770400Y-107966840D01*
X165070400Y-107966840D01*
X165174071Y-107947333D01*
X165270400Y-107966840D01*
X165570400Y-107966840D01*
X165674071Y-107947333D01*
X165770400Y-107966840D01*
X165770400Y-107966840D01*
G37*
X165770400Y-107966840D02*
X166047960Y-107966840D01*
X166047960Y-108244400D01*
X166067467Y-108348071D01*
X166056009Y-108404652D01*
X166031970Y-108394670D01*
X165642937Y-108394331D01*
X165283388Y-108542893D01*
X165008060Y-108817741D01*
X164858870Y-109177030D01*
X164858773Y-109288793D01*
X164726204Y-109487195D01*
X164675972Y-109739728D01*
X164666729Y-109741467D01*
X164570400Y-109721960D01*
X164270400Y-109721960D01*
X164242738Y-109727165D01*
X164183727Y-109584701D01*
X164182358Y-109583332D01*
X164241831Y-109496290D01*
X164266480Y-109374570D01*
X164280400Y-109360650D01*
X164280400Y-109318090D01*
X164278733Y-109314065D01*
X164292840Y-109244400D01*
X164292840Y-108944400D01*
X164279420Y-108873077D01*
X164280400Y-108870710D01*
X164280400Y-108828150D01*
X164268779Y-108816529D01*
X164248562Y-108709083D01*
X164174780Y-108594422D01*
X164241831Y-108496290D01*
X164266480Y-108374570D01*
X164280400Y-108360650D01*
X164280400Y-108318090D01*
X164278733Y-108314065D01*
X164292840Y-108244400D01*
X164292840Y-107966840D01*
X164570400Y-107966840D01*
X164674071Y-107947333D01*
X164770400Y-107966840D01*
X165070400Y-107966840D01*
X165174071Y-107947333D01*
X165270400Y-107966840D01*
X165570400Y-107966840D01*
X165674071Y-107947333D01*
X165770400Y-107966840D01*
M02*
