M48
;DRILL file {KiCad 4.0.1-3.201512221402+6198~38~ubuntu14.04.1-stable} date Sun 07 Feb 2016 08:00:32 PM PST
;FORMAT={-:-/ absolute / inch / decimal}
FMAT,2
INCH,TZ
T1C0.013
T2C0.035
T3C0.039
T4C0.040
%
G90
G05
M72
T1
X6.37Y-4.236
X6.478Y-4.119
X6.529Y-4.306
X6.5371Y-4.1545
X6.6409Y-4.2951
T2
X6.1031Y-4.505
X6.108Y-4.314
X6.1081Y-4.16
X6.3Y-4.505
X6.3049Y-4.314
X6.305Y-4.16
X6.809Y-4.1001
X6.809Y-4.297
T3
X6.609Y-4.631
X6.61Y-4.485
X6.909Y-4.631
X6.91Y-4.485
T4
X6.0865Y-3.843
X6.0865Y-3.943
X6.1865Y-3.843
X6.1865Y-3.943
X6.2865Y-3.843
X6.2865Y-3.943
X6.3865Y-3.843
X6.3865Y-3.943
X6.4865Y-3.843
X6.4865Y-3.943
X6.5865Y-3.843
X6.5865Y-3.943
T0
M30
