G04 #@! TF.FileFunction,Soldermask,Top*
%FSLAX46Y46*%
G04 Gerber Fmt 4.6, Leading zero omitted, Abs format (unit mm)*
G04 Created by KiCad (PCBNEW 4.0.1-3.201512221402+6198~38~ubuntu14.04.1-stable) date Sun 07 Feb 2016 08:00:25 PM PST*
%MOMM*%
G01*
G04 APERTURE LIST*
%ADD10C,0.100000*%
%ADD11R,1.250000X0.700000*%
%ADD12R,0.700000X1.250000*%
%ADD13R,2.127200X2.127200*%
%ADD14O,2.127200X2.127200*%
%ADD15R,1.800000X1.800000*%
%ADD16C,1.800000*%
%ADD17C,2.398980*%
G04 APERTURE END LIST*
D10*
D11*
X167120400Y-110094400D03*
X167120400Y-109594400D03*
X167120400Y-109094400D03*
X167120400Y-108594400D03*
X167120400Y-108094400D03*
X167120400Y-107594400D03*
D12*
X166420400Y-106894400D03*
X165920400Y-106894400D03*
X165420400Y-106894400D03*
X164920400Y-106894400D03*
X164420400Y-106894400D03*
X163920400Y-106894400D03*
D11*
X163220400Y-107594400D03*
X163220400Y-108094400D03*
X163220400Y-108594400D03*
X163220400Y-109094400D03*
X163220400Y-109594400D03*
X163220400Y-110094400D03*
D12*
X163920400Y-110794400D03*
X164420400Y-110794400D03*
X164920400Y-110794400D03*
X165420400Y-110794400D03*
X165920400Y-110794400D03*
X166420400Y-110794400D03*
D13*
X154597100Y-97612200D03*
D14*
X154597100Y-100152200D03*
X157137100Y-97612200D03*
X157137100Y-100152200D03*
X159677100Y-97612200D03*
X159677100Y-100152200D03*
X162217100Y-97612200D03*
X162217100Y-100152200D03*
X164757100Y-97612200D03*
X164757100Y-100152200D03*
X167297100Y-97612200D03*
X167297100Y-100152200D03*
D15*
X172948600Y-109143800D03*
D16*
X172948600Y-104143800D03*
D15*
X160143200Y-109575600D03*
D16*
X155143200Y-109575600D03*
D15*
X160147000Y-105664000D03*
D16*
X155147000Y-105664000D03*
D15*
X160020000Y-114427000D03*
D16*
X155020000Y-114427000D03*
D17*
X175488600Y-117627400D03*
X167868600Y-117627400D03*
X175514000Y-113919000D03*
X167894000Y-113919000D03*
M02*
